<svg width="284" height="235" viewBox="0 0 284 235" fill="none" xmlns="http://www.w3.org/2000/svg">
<g id="Group 29">
<path id="Ellipse 14" d="M142.108 125.498C159.55 158.708 146.192 182.933 120.976 196.177C95.7592 209.421 40.2881 221.346 22.846 188.136C5.40395 154.927 48.3866 119.225 73.6031 105.98C98.8196 92.7364 124.666 92.289 142.108 125.498Z" fill="#C21E4E" fill-opacity="0.9"/>
<path id="AMA PICA RESTOBAR" d="M46.9319 155.049C46.8421 155.106 46.7363 155.126 46.6145 155.109C46.5041 155.085 46.4165 155.022 46.3518 154.921L46.2886 154.748L43.4006 141.283C43.2997 140.952 43.4065 140.686 43.721 140.485L45.5577 139.31C45.8498 139.124 46.1361 139.138 46.4168 139.354L57.4266 147.626C57.4594 147.653 57.4973 147.7 57.5404 147.767C57.6051 147.868 57.6252 147.974 57.6009 148.085C57.5766 148.195 57.5195 148.279 57.4297 148.337L55.9637 149.274C55.8177 149.367 55.6838 149.405 55.562 149.388C55.4403 149.371 55.3431 149.33 55.2703 149.266L53.164 147.717L48.1595 150.917L48.6819 153.479C48.7285 153.75 48.6338 153.96 48.3979 154.111L46.9319 155.049ZM51.3353 146.156L46.0854 142.178L47.5103 148.602L51.3353 146.156ZM59.7611 146.846C59.6375 146.925 59.5148 146.956 59.3931 146.939C59.2642 146.911 59.1602 146.835 59.0812 146.711L52.0677 135.741C51.9887 135.618 51.9634 135.492 51.9917 135.363C52.0201 135.234 52.096 135.13 52.2196 135.051L53.5508 134.2C53.7867 134.049 54.0234 134.048 54.261 134.197L61.3915 138.184L60.7989 130.017C60.7748 129.731 60.875 129.517 61.0997 129.373L62.414 128.533C62.5376 128.454 62.6638 128.429 62.7927 128.457C62.9217 128.485 63.0256 128.561 63.1046 128.685L70.1182 139.654C70.1972 139.778 70.2225 139.904 70.1941 140.033C70.1586 140.151 70.079 140.249 69.9555 140.328L68.54 141.233C68.4277 141.305 68.3071 141.327 68.1782 141.298C68.0493 141.27 67.9489 141.2 67.8771 141.087L63.2122 133.791L63.7296 139.798C63.7416 140.139 63.6297 140.385 63.3937 140.535L62.7029 140.977C62.467 141.128 62.197 141.126 61.893 140.973L56.6574 137.982L61.3223 145.278C61.3941 145.39 61.4159 145.511 61.3875 145.64C61.3704 145.762 61.3 145.862 61.1765 145.941L59.7611 146.846ZM72.2732 138.846C72.1833 138.904 72.0775 138.924 71.9558 138.907C71.8453 138.882 71.7577 138.82 71.6931 138.719L71.6298 138.545L68.7418 125.081C68.6409 124.749 68.7477 124.483 69.0622 124.282L70.8989 123.108C71.191 122.921 71.4774 122.936 71.758 123.152L82.7678 131.424C82.8006 131.451 82.8386 131.498 82.8817 131.565C82.9463 131.666 82.9665 131.772 82.9422 131.882C82.9179 131.993 82.8608 132.077 82.7709 132.134L81.3049 133.072C81.1589 133.165 81.025 133.203 80.9033 133.186C80.7815 133.169 80.6843 133.128 80.6116 133.064L78.5052 131.515L73.5007 134.714L74.0231 137.276C74.0697 137.547 73.9751 137.758 73.7391 137.909L72.2732 138.846ZM76.6765 129.954L71.4266 125.975L72.8515 132.399L76.6765 129.954ZM61.4334 174.263C61.3211 174.335 61.2004 174.357 61.0715 174.328C60.9426 174.3 60.8423 174.229 60.7704 174.117L53.7569 163.148C53.6779 163.024 53.6469 162.901 53.6641 162.78C53.6924 162.651 53.7684 162.547 53.892 162.468L58.4078 159.58C59.7558 158.719 61.0221 158.36 62.2066 158.505C63.3839 158.638 64.364 159.317 65.1469 160.542C65.9298 161.766 66.1348 162.941 65.7619 164.065C65.393 165.172 64.529 166.159 63.1697 167.028L60.659 168.634L63.18 172.577C63.2518 172.689 63.2736 172.809 63.2452 172.938C63.2281 173.06 63.1577 173.16 63.0342 173.24L61.4334 174.263ZM61.8896 165.212C62.5411 164.795 62.9441 164.324 63.0984 163.798C63.2455 163.261 63.1252 162.689 62.7373 162.082C62.3638 161.498 61.9045 161.151 61.3592 161.041C60.8067 160.919 60.1934 161.074 59.5194 161.505L57.0593 163.078L59.4295 166.785L61.8896 165.212ZM72.5408 167.161C72.4284 167.233 72.3078 167.255 72.1789 167.227C72.05 167.198 71.9496 167.128 71.8778 167.015L64.8535 156.029C64.7745 155.906 64.7527 155.785 64.7883 155.667C64.8166 155.538 64.887 155.438 64.9993 155.366L66.5832 154.353C66.7068 154.274 66.8274 154.253 66.9451 154.288C67.0668 154.305 67.1672 154.376 67.2462 154.499L74.2705 165.486C74.3424 165.598 74.3641 165.719 74.3357 165.848C74.3186 165.969 74.2483 166.07 74.1247 166.149L72.5408 167.161ZM81.829 161.46C80.2788 162.451 78.8218 162.821 77.4581 162.569C76.1057 162.31 74.9381 161.474 73.9554 160.061C73.7502 159.765 73.4286 159.274 72.9905 158.589C72.5452 157.893 72.2276 157.383 72.0377 157.062C71.1745 155.588 70.9149 154.179 71.2587 152.836C71.6065 151.474 72.5443 150.305 74.0721 149.328C75.0719 148.689 76.0538 148.306 77.0179 148.18C77.9747 148.043 78.8457 148.143 79.6308 148.48C80.4087 148.806 81.0459 149.332 81.5424 150.059L81.5639 150.093C81.6214 150.183 81.6323 150.286 81.5968 150.404C81.5653 150.503 81.5046 150.582 81.4148 150.639L79.814 151.663C79.6792 151.749 79.5601 151.785 79.4568 151.772C79.3535 151.759 79.2291 151.688 79.0836 151.56C78.4514 150.967 77.8377 150.663 77.2425 150.648C76.6401 150.622 75.9907 150.831 75.2942 151.276C73.6766 152.311 73.4122 153.754 74.5012 155.605C74.6839 155.916 74.9763 156.386 75.3785 157.015C75.7807 157.644 76.0916 158.118 76.3111 158.436C77.5349 160.202 78.9556 160.567 80.5732 159.533C81.2697 159.088 81.7324 158.586 81.9613 158.028C82.2014 157.463 82.1831 156.779 81.9063 155.975C81.8394 155.796 81.8217 155.657 81.8532 155.557C81.8959 155.451 81.9847 155.355 82.1195 155.269L83.7203 154.245C83.8214 154.18 83.9272 154.16 84.0377 154.185C84.1594 154.202 84.247 154.264 84.3004 154.373C84.7519 155.128 84.9659 155.933 84.9421 156.787C84.9112 157.63 84.6363 158.462 84.1176 159.285C83.5916 160.096 82.8288 160.821 81.829 161.46ZM87.8342 157.383C87.7444 157.441 87.6386 157.461 87.5168 157.444C87.4063 157.419 87.3188 157.357 87.2541 157.256L87.1909 157.082L84.3029 143.618C84.202 143.286 84.3088 143.02 84.6233 142.819L86.46 141.645C86.752 141.458 87.0384 141.473 87.3191 141.689L98.3289 149.961C98.3617 149.988 98.3996 150.035 98.4427 150.102C98.5074 150.203 98.5275 150.309 98.5032 150.419C98.4789 150.53 98.4218 150.614 98.3319 150.671L96.866 151.609C96.7199 151.702 96.5861 151.74 96.4643 151.723C96.3426 151.706 96.2454 151.665 96.1726 151.601L94.0663 150.051L89.0618 153.251L89.5842 155.813C89.6308 156.084 89.5361 156.295 89.3002 156.446L87.8342 157.383ZM92.2376 148.491L86.9876 144.512L88.4126 150.936L92.2376 148.491ZM62.8099 201.869C62.6976 201.941 62.577 201.963 62.4481 201.934C62.3192 201.906 62.2188 201.836 62.147 201.723L55.1334 190.754C55.0544 190.63 55.0235 190.507 55.0406 190.386C55.069 190.257 55.1449 190.153 55.2685 190.074L59.6327 187.284C61.0032 186.407 62.2807 186.042 63.4652 186.186C64.661 186.324 65.6359 186.982 66.39 188.162C66.9143 188.982 67.1539 189.802 67.1086 190.622C67.0673 191.424 66.7719 192.175 66.2222 192.874L71.4295 195.598C71.5063 195.644 71.5627 195.695 71.5986 195.751C71.6632 195.852 71.6778 195.962 71.6423 196.08C71.6179 196.19 71.5609 196.274 71.471 196.331L69.9376 197.312C69.7579 197.427 69.5923 197.477 69.4409 197.463C69.3008 197.442 69.1447 197.384 68.9727 197.288L64.2457 194.684L61.9035 196.182L64.4892 200.226C64.561 200.338 64.5827 200.459 64.5544 200.588C64.5372 200.709 64.4669 200.81 64.3433 200.889L62.8099 201.869ZM63.062 192.758C63.736 192.328 64.1446 191.853 64.2877 191.334C64.442 190.808 64.336 190.259 63.9697 189.686C63.6034 189.113 63.1456 188.78 62.5962 188.688C62.0581 188.589 61.452 188.755 60.778 189.186L58.4021 190.705L60.6861 194.278L63.062 192.758ZM74.1477 194.62C74.0353 194.692 73.9147 194.714 73.7858 194.685C73.6569 194.657 73.5565 194.587 73.4847 194.474L66.4712 183.505C66.3922 183.381 66.3612 183.258 66.3783 183.137C66.4067 183.008 66.4827 182.904 66.6062 182.825L74.0204 178.085C74.1439 178.006 74.2702 177.98 74.3991 178.009C74.528 178.037 74.6319 178.113 74.7109 178.236L75.422 179.349C75.501 179.472 75.5263 179.598 75.498 179.727C75.4624 179.845 75.3829 179.943 75.2593 180.022L69.7156 183.567L71.6225 186.549L76.7955 183.242C76.9191 183.163 77.0453 183.138 77.1742 183.166C77.296 183.183 77.3963 183.253 77.4753 183.377L78.1433 184.422C78.2223 184.545 78.2476 184.671 78.2193 184.8C78.1837 184.918 78.1042 185.016 77.9806 185.095L72.8076 188.403L74.7791 191.486L80.4577 187.856C80.5812 187.777 80.7075 187.751 80.8364 187.78C80.9653 187.808 81.0692 187.884 81.1482 188.008L81.8593 189.12C81.9383 189.243 81.9636 189.37 81.9353 189.499C81.8997 189.616 81.8202 189.715 81.6966 189.794L74.1477 194.62ZM88.4277 185.727C87.4279 186.367 86.4716 186.764 85.5587 186.921C84.6458 187.077 83.846 187.027 83.1593 186.769C82.4726 186.512 81.9348 186.104 81.5461 185.546C81.4814 185.445 81.4613 185.339 81.4856 185.228C81.5099 185.118 81.5726 185.03 81.6737 184.966L83.1734 184.007C83.3082 183.921 83.4272 183.884 83.5305 183.897C83.6379 183.892 83.7612 183.924 83.9004 183.993C84.2569 184.303 84.72 184.458 85.2896 184.458C85.8592 184.458 86.4923 184.235 87.1887 183.79C87.9863 183.28 88.5047 182.766 88.7439 182.249C88.9759 181.721 88.9411 181.221 88.6395 180.749C88.4384 180.435 88.1665 180.245 87.8237 180.179C87.4923 180.106 87.072 180.129 86.563 180.249C86.0652 180.362 85.3437 180.57 84.3984 180.873C82.8718 181.406 81.6343 181.612 80.6861 181.49C79.7419 181.35 78.961 180.797 78.3433 179.831C77.9267 179.179 77.7309 178.49 77.756 177.761C77.7922 177.026 78.0484 176.3 78.5244 175.585C79.0117 174.862 79.6991 174.216 80.5865 173.649C81.5077 173.06 82.4094 172.713 83.2917 172.608C84.174 172.503 84.9473 172.586 85.6115 172.857C86.2798 173.111 86.7796 173.472 87.111 173.94C87.1756 174.041 87.1958 174.147 87.1715 174.258C87.1471 174.368 87.0844 174.456 86.9833 174.52L85.4163 175.522C85.1804 175.673 84.9492 175.671 84.7229 175.515C84.4257 175.198 84.0107 175.044 83.4779 175.053C82.938 175.05 82.3871 175.228 81.8255 175.587C81.1964 175.989 80.7775 176.423 80.5689 176.889C80.3602 177.354 80.3996 177.812 80.6869 178.261C80.888 178.576 81.143 178.777 81.452 178.864C81.7611 178.951 82.1568 178.952 82.6393 178.865C83.133 178.77 83.806 178.585 84.6583 178.31C85.7905 177.902 86.7385 177.652 87.5022 177.56C88.2771 177.46 88.9414 177.533 89.4952 177.781C90.049 178.028 90.5377 178.483 90.9615 179.146C91.4212 179.865 91.6212 180.623 91.5615 181.421C91.5059 182.2 91.2028 182.964 90.6522 183.712C90.1128 184.452 89.3713 185.124 88.4277 185.727ZM97.9042 179.431C97.7919 179.503 97.6712 179.525 97.5423 179.496C97.4134 179.468 97.3131 179.397 97.2412 179.285L91.2835 169.967L88.1662 171.96C88.0538 172.032 87.9332 172.054 87.8043 172.025C87.6754 171.997 87.575 171.927 87.5032 171.814L86.706 170.567C86.627 170.444 86.596 170.321 86.6132 170.199C86.6415 170.07 86.7175 169.966 86.841 169.887L95.4347 164.393C95.5583 164.314 95.6845 164.289 95.8134 164.317C95.9423 164.345 96.0463 164.421 96.1253 164.545L96.9225 165.792C96.9943 165.904 97.0161 166.025 96.9877 166.154C96.9594 166.283 96.8834 166.387 96.7598 166.466L93.6594 168.448L99.6171 177.766C99.6889 177.878 99.7107 177.999 99.6823 178.128C99.654 178.257 99.578 178.361 99.4544 178.44L97.9042 179.431ZM109.534 172.233C108.006 173.21 106.567 173.583 105.218 173.354C103.869 173.125 102.683 172.261 101.661 170.762C101.442 170.443 101.131 169.969 100.729 169.34C100.319 168.7 100.016 168.213 99.8192 167.88C98.9089 166.358 98.6369 164.917 99.0031 163.559C99.3694 162.202 100.294 161.049 101.777 160.101C103.26 159.153 104.694 158.797 106.08 159.035C107.478 159.265 108.676 160.113 109.677 161.578C110.116 162.215 110.436 162.691 110.637 163.005C110.831 163.309 111.125 163.793 111.519 164.459C112.44 166.023 112.721 167.465 112.363 168.786C112.004 170.107 111.061 171.256 109.534 172.233ZM108.295 170.295C109.047 169.814 109.505 169.205 109.667 168.468C109.822 167.72 109.618 166.87 109.055 165.916C108.647 165.227 108.367 164.765 108.216 164.529C108.051 164.271 107.749 163.823 107.31 163.186C106.68 162.275 105.997 161.739 105.26 161.577C104.517 161.403 103.768 161.557 103.016 162.038C102.274 162.512 101.826 163.123 101.671 163.871C101.509 164.608 101.709 165.453 102.272 166.407C102.469 166.74 102.754 167.199 103.128 167.783C103.494 168.356 103.791 168.807 104.017 169.137C104.647 170.048 105.328 170.593 106.061 170.774C106.797 170.936 107.542 170.776 108.295 170.295ZM117.014 167.213C116.902 167.285 116.781 167.306 116.652 167.278C116.523 167.25 116.423 167.179 116.351 167.067L109.337 156.098C109.258 155.974 109.227 155.851 109.245 155.73C109.273 155.601 109.349 155.497 109.472 155.418L114.359 152.293C115.673 151.453 116.837 151.12 117.851 151.295C118.869 151.451 119.698 152.029 120.337 153.029C120.71 153.613 120.884 154.207 120.857 154.809C120.835 155.393 120.691 155.897 120.424 156.321C121.032 156.233 121.648 156.329 122.271 156.611C122.906 156.886 123.42 157.332 123.815 157.95C124.483 158.995 124.668 160.064 124.37 161.157C124.083 162.242 123.305 163.191 122.035 164.002L117.014 167.213ZM117.148 157.323C117.732 156.95 118.086 156.526 118.21 156.051C118.333 155.576 118.244 155.103 117.943 154.631C117.634 154.148 117.245 153.874 116.777 153.81C116.301 153.734 115.771 153.883 115.187 154.257L112.541 155.948L114.502 159.015L117.148 157.323ZM120.624 162.389C121.208 162.015 121.562 161.567 121.687 161.044C121.804 160.51 121.705 159.996 121.389 159.502C121.066 158.996 120.641 158.69 120.114 158.584C119.58 158.467 119.021 158.595 118.437 158.968L115.623 160.767L117.81 164.188L120.624 162.389ZM127.288 160.644C127.199 160.701 127.093 160.721 126.971 160.704C126.861 160.68 126.773 160.617 126.708 160.516L126.645 160.343L123.757 146.878C123.656 146.547 123.763 146.281 124.078 146.08L125.914 144.905C126.206 144.719 126.493 144.733 126.773 144.95L137.783 153.222C137.816 153.248 137.854 153.295 137.897 153.362C137.962 153.464 137.982 153.569 137.957 153.68C137.933 153.79 137.876 153.874 137.786 153.932L136.32 154.869C136.174 154.962 136.04 155.001 135.919 154.983C135.797 154.966 135.7 154.926 135.627 154.861L133.521 153.312L128.516 156.512L129.038 159.074C129.085 159.345 128.99 159.556 128.754 159.706L127.288 160.644ZM131.692 151.751L126.442 147.773L127.867 154.197L131.692 151.751ZM140.101 152.452C139.988 152.524 139.868 152.545 139.739 152.517C139.61 152.489 139.51 152.418 139.438 152.306L132.424 141.337C132.345 141.213 132.314 141.09 132.331 140.969C132.36 140.84 132.436 140.736 132.559 140.657L136.923 137.866C138.294 136.99 139.571 136.624 140.756 136.769C141.952 136.907 142.927 137.565 143.681 138.745C144.205 139.565 144.445 140.385 144.399 141.205C144.358 142.007 144.063 142.758 143.513 143.457L148.72 146.181C148.797 146.227 148.853 146.278 148.889 146.334C148.954 146.435 148.969 146.545 148.933 146.662C148.909 146.773 148.852 146.857 148.762 146.914L147.228 147.895C147.049 148.01 146.883 148.06 146.732 148.046C146.592 148.025 146.435 147.966 146.263 147.871L141.536 145.267L139.194 146.765L141.78 150.809C141.852 150.921 141.873 151.042 141.845 151.17C141.828 151.292 141.758 151.393 141.634 151.472L140.101 152.452ZM140.353 143.341C141.027 142.91 141.435 142.436 141.578 141.917C141.733 141.391 141.627 140.841 141.26 140.268C140.894 139.696 140.436 139.363 139.887 139.271C139.349 139.172 138.743 139.338 138.069 139.769L135.693 141.288L137.977 144.86L140.353 143.341Z" fill="#EFE8E0"/>
</g>
</svg>
