<svg width="297" height="238" viewBox="0 0 297 238" fill="none" xmlns="http://www.w3.org/2000/svg">
<g id="Group 27">
<path id="Ellipse 12" d="M142.446 128.429C159.888 161.639 146.53 185.864 121.314 199.108C96.0971 212.352 40.626 224.277 23.1839 191.067C5.74184 157.858 48.7245 122.155 73.941 108.911C99.1575 95.6673 125.003 95.2199 142.446 128.429Z" fill="#C21E4E" fill-opacity="0.9"/>
<path id="COMIDA PARA TODOS" d="M54.2065 158.947C52.6562 159.938 51.1993 160.307 49.8356 160.056C48.4831 159.797 47.3155 158.961 46.3329 157.548C46.1277 157.251 45.8061 156.761 45.3679 156.076C44.9226 155.379 44.605 154.87 44.4152 154.548C43.552 153.074 43.2923 151.666 43.6361 150.322C43.984 148.961 44.9218 147.791 46.4495 146.814C47.4493 146.175 48.4312 145.793 49.3953 145.667C50.3522 145.53 51.2232 145.63 52.0082 145.967C52.7861 146.292 53.4233 146.818 53.9198 147.546L53.9414 147.579C53.9988 147.669 54.0098 147.773 53.9742 147.891C53.9428 147.99 53.8821 148.068 53.7922 148.126L52.1914 149.149C52.0566 149.235 51.9376 149.272 51.8343 149.259C51.7309 149.246 51.6065 149.175 51.4611 149.046C50.8288 148.454 50.2151 148.15 49.6199 148.135C49.0175 148.108 48.3681 148.318 47.6716 148.763C46.054 149.797 45.7897 151.24 46.8786 153.092C47.0613 153.402 47.3538 153.872 47.756 154.501C48.1582 155.13 48.4691 155.604 48.6886 155.923C49.9123 157.688 51.333 158.054 52.9507 157.02C53.6471 156.574 54.1098 156.073 54.3387 155.515C54.5789 154.95 54.5605 154.265 54.2837 153.461C54.2169 153.282 54.1992 153.143 54.2307 153.044C54.2734 152.938 54.3622 152.841 54.497 152.755L56.0977 151.732C56.1988 151.667 56.3046 151.647 56.4151 151.671C56.5369 151.688 56.6244 151.751 56.6778 151.859C57.1294 152.615 57.3433 153.42 57.3196 154.274C57.2886 155.116 57.0138 155.949 56.495 156.771C55.9691 157.582 55.2062 158.307 54.2065 158.947ZM65.7083 151.593C64.1806 152.569 62.742 152.943 61.3927 152.714C60.0434 152.485 58.8579 151.621 57.8361 150.122C57.6166 149.803 57.3057 149.329 56.9035 148.7C56.4941 148.06 56.1909 147.573 55.9939 147.24C55.0835 145.717 54.8115 144.277 55.1778 142.919C55.5441 141.561 56.4686 140.409 57.9514 139.46C59.4343 138.512 60.8687 138.157 62.2549 138.394C63.6523 138.625 64.8511 139.472 65.8513 140.938C66.2903 141.575 66.6104 142.051 66.8115 142.365C67.0054 142.669 67.2994 143.153 67.6935 143.819C68.6142 145.383 68.8954 146.825 68.5372 148.146C68.1791 149.467 67.2361 150.616 65.7083 151.593ZM64.4694 149.655C65.222 149.174 65.6794 148.565 65.8414 147.828C65.9963 147.08 65.7925 146.229 65.2301 145.275C64.8216 144.587 64.542 144.125 64.3911 143.889C64.2259 143.631 63.9238 143.183 63.4848 142.546C62.8549 141.635 62.1717 141.098 61.4351 140.936C60.6913 140.763 59.943 140.917 59.1904 141.398C58.449 141.872 58.0008 142.483 57.846 143.231C57.6839 143.968 57.8841 144.813 58.4465 145.767C58.6436 146.1 58.9289 146.558 59.3023 147.143C59.6686 147.716 59.9651 148.167 60.1918 148.497C60.8217 149.408 61.5029 149.953 62.2355 150.134C62.9721 150.296 63.7167 150.136 64.4694 149.655ZM73.2053 146.562C73.0818 146.641 72.9591 146.672 72.8374 146.655C72.7085 146.626 72.6045 146.55 72.5255 146.427L65.512 135.457C65.433 135.334 65.4077 135.208 65.436 135.079C65.4644 134.95 65.5403 134.846 65.6639 134.767L66.9951 133.916C67.231 133.765 67.4677 133.764 67.7053 133.913L74.8358 137.899L74.2432 129.733C74.2191 129.447 74.3193 129.233 74.544 129.089L75.8583 128.249C75.9819 128.17 76.1081 128.144 76.237 128.173C76.3659 128.201 76.4699 128.277 76.5489 128.401L83.5625 139.37C83.6415 139.494 83.6668 139.62 83.6384 139.749C83.6029 139.867 83.5233 139.965 83.3998 140.044L81.9843 140.949C81.872 141.021 81.7514 141.043 81.6225 141.014C81.4936 140.986 81.3932 140.915 81.3214 140.803L76.6564 133.507L77.1739 139.514C77.1859 139.855 77.0739 140.1 76.838 140.251L76.1472 140.693C75.9113 140.844 75.6413 140.842 75.3373 140.689L70.1017 137.698L74.7666 144.994C74.8384 145.106 74.8602 145.227 74.8318 145.356C74.8147 145.478 74.7443 145.578 74.6208 145.657L73.2053 146.562ZM86.8464 137.84C86.7341 137.912 86.6135 137.934 86.4846 137.906C86.3557 137.877 86.2553 137.807 86.1835 137.694L79.1591 126.708C79.0801 126.585 79.0584 126.464 79.0939 126.346C79.1223 126.217 79.1927 126.117 79.305 126.045L80.8889 125.032C81.0125 124.953 81.1331 124.932 81.2508 124.967C81.3725 124.984 81.4729 125.055 81.5519 125.178L88.5762 136.165C88.648 136.277 88.6698 136.398 88.6414 136.527C88.6243 136.648 88.5539 136.749 88.4304 136.828L86.8464 137.84ZM91.8818 134.621C91.7694 134.693 91.6488 134.714 91.5199 134.686C91.391 134.658 91.2906 134.587 91.2188 134.475L84.2053 123.506C84.1262 123.382 84.0953 123.259 84.1124 123.138C84.1408 123.009 84.2168 122.905 84.3403 122.826L88.4518 120.197C91.7544 118.085 94.4163 118.536 96.4373 121.548C96.8763 122.185 97.1676 122.616 97.3113 122.841C97.4478 123.054 97.713 123.494 98.1072 124.16C99.0677 125.761 99.3899 127.193 99.0735 128.456C98.75 129.707 97.7513 130.868 96.0775 131.938L91.8818 134.621ZM94.7543 130.054C95.6979 129.451 96.2447 128.809 96.3945 128.127C96.5373 127.435 96.311 126.598 95.7158 125.618C95.3073 124.929 95.0492 124.501 94.9415 124.332C94.8266 124.153 94.5496 123.744 94.1105 123.107C93.4991 122.2 92.8287 121.671 92.0992 121.521C91.381 121.363 90.5501 121.585 89.6065 122.189L87.5171 123.525L92.5806 131.444L94.7543 130.054ZM102.37 127.915C102.28 127.972 102.175 127.993 102.053 127.975C101.942 127.951 101.855 127.888 101.79 127.787L101.727 127.614L98.8389 114.149C98.738 113.818 98.8448 113.552 99.1593 113.351L100.996 112.177C101.288 111.99 101.574 112.005 101.855 112.221L112.865 120.493C112.898 120.519 112.936 120.566 112.979 120.634C113.043 120.735 113.064 120.841 113.039 120.951C113.015 121.062 112.958 121.146 112.868 121.203L111.402 122.14C111.256 122.234 111.122 122.272 111 122.255C110.879 122.238 110.781 122.197 110.709 122.133L108.602 120.583L103.598 123.783L104.12 126.345C104.167 126.616 104.072 126.827 103.836 126.978L102.37 127.915ZM106.774 119.022L101.524 115.044L102.949 121.468L106.774 119.022ZM74.4334 174.263C74.3211 174.335 74.2004 174.357 74.0715 174.328C73.9426 174.3 73.8423 174.229 73.7704 174.117L66.7569 163.148C66.6779 163.024 66.6469 162.901 66.6641 162.78C66.6924 162.651 66.7684 162.547 66.892 162.468L71.4078 159.58C72.7558 158.719 74.0221 158.36 75.2066 158.505C76.3839 158.638 77.364 159.317 78.1469 160.542C78.9298 161.766 79.1348 162.941 78.7619 164.065C78.393 165.172 77.529 166.159 76.1697 167.028L73.659 168.634L76.18 172.577C76.2518 172.689 76.2736 172.809 76.2452 172.938C76.2281 173.06 76.1577 173.16 76.0342 173.24L74.4334 174.263ZM74.8896 165.212C75.5411 164.795 75.9441 164.324 76.0984 163.798C76.2455 163.261 76.1252 162.689 75.7373 162.082C75.3638 161.498 74.9045 161.151 74.3592 161.041C73.8067 160.919 73.1934 161.074 72.5194 161.505L70.0593 163.078L72.4295 166.785L74.8896 165.212ZM83.6713 168.357C83.5814 168.414 83.4756 168.434 83.3539 168.417C83.2434 168.393 83.1558 168.33 83.0912 168.229L83.0279 168.056L80.14 154.591C80.039 154.26 80.1458 153.994 80.4604 153.793L82.2971 152.618C82.5891 152.432 82.8755 152.446 83.1562 152.662L94.166 160.934C94.1988 160.961 94.2367 161.008 94.2798 161.075C94.3444 161.176 94.3646 161.282 94.3403 161.393C94.316 161.503 94.2589 161.587 94.169 161.645L92.703 162.582C92.557 162.675 92.4231 162.713 92.3014 162.696C92.1797 162.679 92.0824 162.639 92.0097 162.574L89.9034 161.025L84.8988 164.225L85.4212 166.787C85.4678 167.058 85.3732 167.268 85.1373 167.419L83.6713 168.357ZM88.0747 159.464L82.8247 155.486L84.2496 161.91L88.0747 159.464ZM96.4836 160.165C96.3712 160.237 96.2506 160.258 96.1217 160.23C95.9928 160.202 95.8924 160.131 95.8206 160.019L88.807 149.049C88.728 148.926 88.6971 148.803 88.7142 148.682C88.7426 148.553 88.8185 148.449 88.9421 148.37L93.3063 145.579C94.6768 144.703 95.9543 144.337 97.1388 144.482C98.3346 144.62 99.3095 145.278 100.064 146.458C100.588 147.278 100.827 148.098 100.782 148.918C100.741 149.72 100.445 150.471 99.8958 151.17L105.103 153.894C105.18 153.94 105.236 153.991 105.272 154.047C105.337 154.148 105.351 154.258 105.316 154.375C105.292 154.486 105.234 154.57 105.145 154.627L103.611 155.608C103.431 155.723 103.266 155.773 103.115 155.759C102.974 155.738 102.818 155.679 102.646 155.584L97.9193 152.98L95.5771 154.477L98.1628 158.521C98.2346 158.634 98.2563 158.754 98.228 158.883C98.2109 159.005 98.1405 159.105 98.0169 159.184L96.4836 160.165ZM96.7356 151.054C97.4096 150.623 97.8182 150.148 97.9613 149.63C98.1156 149.104 98.0096 148.554 97.6433 147.981C97.277 147.408 96.8192 147.076 96.2698 146.984C95.7317 146.885 95.1257 147.051 94.4516 147.482L92.0758 149.001L94.3597 152.573L96.7356 151.054ZM106.692 153.638C106.602 153.695 106.497 153.715 106.375 153.698C106.264 153.674 106.177 153.611 106.112 153.51L106.049 153.337L103.161 139.872C103.06 139.541 103.167 139.275 103.481 139.074L105.318 137.899C105.61 137.713 105.897 137.727 106.177 137.944L117.187 146.216C117.22 146.242 117.258 146.289 117.301 146.356C117.365 146.458 117.386 146.563 117.361 146.674C117.337 146.784 117.28 146.868 117.19 146.926L115.724 147.863C115.578 147.956 115.444 147.995 115.322 147.977C115.201 147.96 115.103 147.92 115.031 147.855L112.924 146.306L107.92 149.506L108.442 152.068C108.489 152.339 108.394 152.55 108.158 152.7L106.692 153.638ZM111.096 144.745L105.846 140.767L107.271 147.191L111.096 144.745ZM78.4049 200.21C78.2926 200.282 78.1719 200.303 78.043 200.275C77.9141 200.247 77.8137 200.176 77.7419 200.064L71.7842 190.746L68.6669 192.739C68.5545 192.811 68.4339 192.833 68.305 192.804C68.1761 192.776 68.0757 192.705 68.0039 192.593L67.2067 191.346C67.1277 191.223 67.0967 191.1 67.1138 190.978C67.1422 190.849 67.2182 190.745 67.3417 190.666L75.9354 185.172C76.0589 185.093 76.1852 185.068 76.3141 185.096C76.443 185.124 76.547 185.2 76.626 185.324L77.4232 186.571C77.495 186.683 77.5168 186.804 77.4884 186.933C77.46 187.062 77.3841 187.165 77.2605 187.245L74.1601 189.227L80.1178 198.545C80.1896 198.657 80.2114 198.778 80.183 198.907C80.1546 199.036 80.0787 199.14 79.9551 199.219L78.4049 200.21ZM90.0344 193.012C88.5066 193.989 87.0681 194.362 85.7188 194.133C84.3694 193.904 83.1839 193.04 82.1622 191.541C81.9427 191.222 81.6318 190.748 81.2296 190.119C80.8202 189.479 80.517 188.992 80.3199 188.659C79.4096 187.137 79.1376 185.696 79.5038 184.338C79.8701 182.981 80.7947 181.828 82.2775 180.88C83.7603 179.932 85.1948 179.576 86.581 179.814C87.9783 180.044 89.1771 180.891 90.1773 182.357C90.6164 182.994 90.9364 183.47 91.1375 183.784C91.3315 184.088 91.6255 184.572 92.0196 185.238C92.9402 186.802 93.2214 188.244 92.8633 189.565C92.5051 190.886 91.5622 192.035 90.0344 193.012ZM88.7954 191.074C89.5481 190.593 90.0054 189.984 90.1675 189.247C90.3223 188.499 90.1186 187.648 89.5561 186.695C89.1477 186.006 88.868 185.544 88.7172 185.308C88.552 185.05 88.2499 184.602 87.8108 183.965C87.181 183.054 86.4978 182.518 85.7611 182.355C85.0173 182.182 84.2691 182.336 83.5164 182.817C82.775 183.291 82.3269 183.902 82.172 184.65C82.01 185.387 82.2102 186.232 82.7726 187.186C82.9696 187.519 83.2549 187.978 83.6284 188.562C83.9947 189.135 84.2912 189.586 84.5179 189.916C85.1477 190.827 85.8289 191.372 86.5615 191.553C87.2982 191.715 88.0428 191.555 88.7954 191.074ZM97.5146 187.992C97.4022 188.064 97.2816 188.085 97.1527 188.057C97.0238 188.029 96.9234 187.958 96.8516 187.846L89.838 176.876C89.759 176.753 89.7281 176.63 89.7452 176.509C89.7736 176.38 89.8495 176.276 89.9731 176.197L94.0846 173.568C97.3872 171.456 100.049 171.907 102.07 174.919C102.509 175.556 102.8 175.987 102.944 176.212C103.081 176.425 103.346 176.865 103.74 177.531C104.701 179.132 105.023 180.564 104.706 181.827C104.383 183.078 103.384 184.239 101.71 185.309L97.5146 187.992ZM100.387 183.425C101.331 182.822 101.877 182.18 102.027 181.498C102.17 180.806 101.944 179.969 101.349 178.989C100.94 178.3 100.682 177.872 100.574 177.703C100.459 177.524 100.182 177.115 99.7433 176.478C99.1319 175.571 98.4615 175.042 97.732 174.892C97.0138 174.734 96.1829 174.956 95.2393 175.56L93.1498 176.895L98.2134 184.815L100.387 183.425ZM113.598 177.946C112.071 178.923 110.632 179.296 109.283 179.067C107.933 178.838 106.748 177.974 105.726 176.475C105.507 176.156 105.196 175.682 104.794 175.053C104.384 174.413 104.081 173.926 103.884 173.593C102.974 172.07 102.702 170.63 103.068 169.272C103.434 167.915 104.359 166.762 105.842 165.814C107.324 164.865 108.759 164.51 110.145 164.747C111.542 164.978 112.741 165.825 113.741 167.291C114.18 167.928 114.5 168.404 114.702 168.718C114.896 169.022 115.19 169.506 115.584 170.172C116.504 171.736 116.786 173.178 116.427 174.499C116.069 175.82 115.126 176.969 113.598 177.946ZM112.359 176.008C113.112 175.527 113.569 174.918 113.732 174.181C113.886 173.433 113.683 172.582 113.12 171.628C112.712 170.94 112.432 170.478 112.281 170.242C112.116 169.984 111.814 169.536 111.375 168.899C110.745 167.988 110.062 167.451 109.325 167.289C108.581 167.116 107.833 167.27 107.08 167.751C106.339 168.225 105.891 168.836 105.736 169.584C105.574 170.321 105.774 171.166 106.337 172.12C106.534 172.453 106.819 172.912 107.192 173.496C107.559 174.069 107.855 174.52 108.082 174.85C108.712 175.761 109.393 176.306 110.126 176.487C110.862 176.649 111.607 176.489 112.359 176.008ZM124.877 170.735C123.877 171.374 122.92 171.772 122.008 171.928C121.095 172.085 120.295 172.034 119.608 171.777C118.921 171.52 118.384 171.112 117.995 170.553C117.93 170.452 117.91 170.346 117.934 170.236C117.959 170.125 118.021 170.038 118.123 169.973L119.622 169.014C119.757 168.928 119.876 168.892 119.979 168.905C120.087 168.899 120.21 168.931 120.349 169C120.706 169.311 121.169 169.466 121.738 169.465C122.308 169.465 122.941 169.242 123.638 168.797C124.435 168.287 124.954 167.774 125.193 167.257C125.425 166.729 125.39 166.229 125.088 165.757C124.887 165.442 124.615 165.252 124.273 165.186C123.941 165.113 123.521 165.137 123.012 165.257C122.514 165.369 121.793 165.577 120.847 165.881C119.321 166.414 118.083 166.62 117.135 166.498C116.191 166.358 115.41 165.805 114.792 164.839C114.376 164.187 114.18 163.497 114.205 162.769C114.241 162.034 114.497 161.308 114.973 160.592C115.461 159.869 116.148 159.224 117.035 158.657C117.957 158.068 118.858 157.721 119.741 157.615C120.623 157.51 121.396 157.593 122.06 157.865C122.729 158.118 123.229 158.479 123.56 158.948C123.624 159.049 123.645 159.155 123.62 159.265C123.596 159.376 123.533 159.463 123.432 159.528L121.865 160.53C121.629 160.681 121.398 160.678 121.172 160.522C120.875 160.206 120.46 160.052 119.927 160.06C119.387 160.057 118.836 160.235 118.274 160.594C117.645 160.997 117.226 161.431 117.018 161.896C116.809 162.362 116.848 162.82 117.136 163.269C117.337 163.583 117.592 163.784 117.901 163.872C118.21 163.959 118.606 163.959 119.088 163.872C119.582 163.778 120.255 163.593 121.107 163.317C122.239 162.91 123.187 162.66 123.951 162.567C124.726 162.467 125.39 162.541 125.944 162.788C126.498 163.036 126.987 163.491 127.41 164.154C127.87 164.872 128.07 165.631 128.01 166.429C127.955 167.208 127.652 167.971 127.101 168.719C126.562 169.46 125.82 170.132 124.877 170.735Z" fill="#EFE8E0"/>
</g>
</svg>
