<svg width="987" height="190" viewBox="0 0 987 190" fill="none" xmlns="http://www.w3.org/2000/svg">
<g id="Group 31">
<path id="EMAIL" d="M2.448 26C2.288 26 2.152 25.944 2.04 25.832C1.928 25.72 1.872 25.584 1.872 25.424V9.8C1.872 9.624 1.92 9.48 2.016 9.368C2.128 9.256 2.272 9.2 2.448 9.2H13.008C13.184 9.2 13.328 9.256 13.44 9.368C13.552 9.48 13.608 9.624 13.608 9.8V11.384C13.608 11.56 13.552 11.704 13.44 11.816C13.328 11.912 13.184 11.96 13.008 11.96H5.112V16.208H12.48C12.656 16.208 12.8 16.264 12.912 16.376C13.024 16.472 13.08 16.608 13.08 16.784V18.272C13.08 18.448 13.024 18.592 12.912 18.704C12.8 18.8 12.656 18.848 12.48 18.848H5.112V23.24H13.2C13.376 23.24 13.52 23.296 13.632 23.408C13.744 23.52 13.8 23.664 13.8 23.84V25.424C13.8 25.6 13.744 25.744 13.632 25.856C13.52 25.952 13.376 26 13.2 26H2.448ZM17.4017 26C17.2257 26 17.0817 25.952 16.9697 25.856C16.8577 25.744 16.8017 25.6 16.8017 25.424V9.8C16.8017 9.624 16.8577 9.48 16.9697 9.368C17.0817 9.256 17.2257 9.2 17.4017 9.2H19.2977C19.6337 9.2 19.8737 9.352 20.0177 9.656L24.6497 18.296L29.3297 9.656C29.4897 9.352 29.7297 9.2 30.0497 9.2H31.9217C32.0977 9.2 32.2417 9.256 32.3537 9.368C32.4657 9.48 32.5217 9.624 32.5217 9.8V25.424C32.5217 25.6 32.4657 25.744 32.3537 25.856C32.2417 25.952 32.0977 26 31.9217 26H29.9057C29.7457 26 29.6097 25.944 29.4977 25.832C29.3857 25.72 29.3297 25.584 29.3297 25.424V15.032L25.9697 21.44C25.7617 21.792 25.4897 21.968 25.1537 21.968H24.1697C23.8337 21.968 23.5617 21.792 23.3537 21.44L19.9937 15.032V25.424C19.9937 25.584 19.9377 25.72 19.8257 25.832C19.7297 25.944 19.5937 26 19.4177 26H17.4017ZM35.2228 26C35.0948 26 34.9748 25.952 34.8628 25.856C34.7668 25.76 34.7188 25.64 34.7188 25.496L34.7668 25.28L40.5508 9.8C40.6628 9.4 40.9428 9.2 41.3908 9.2H44.0068C44.4228 9.2 44.7028 9.4 44.8468 9.8L50.6308 25.28C50.6468 25.328 50.6548 25.4 50.6548 25.496C50.6548 25.64 50.6068 25.76 50.5108 25.856C50.4148 25.952 50.3028 26 50.1748 26H48.0868C47.8788 26 47.7188 25.952 47.6068 25.856C47.4948 25.76 47.4228 25.656 47.3908 25.544L46.2628 22.616H39.1348L38.0068 25.544C37.8788 25.848 37.6468 26 37.3108 26H35.2228ZM45.4228 19.856L42.6868 12.44L39.9748 19.856H45.4228ZM53.4714 26C53.3114 26 53.1754 25.944 53.0634 25.832C52.9514 25.72 52.8954 25.584 52.8954 25.424V9.776C52.8954 9.6 52.9514 9.464 53.0634 9.368C53.1754 9.256 53.3114 9.2 53.4714 9.2H55.7274C55.9034 9.2 56.0394 9.256 56.1354 9.368C56.2474 9.464 56.3034 9.6 56.3034 9.776V25.424C56.3034 25.584 56.2474 25.72 56.1354 25.832C56.0394 25.944 55.9034 26 55.7274 26H53.4714ZM60.6433 26C60.4833 26 60.3473 25.944 60.2353 25.832C60.1233 25.72 60.0673 25.584 60.0673 25.424V9.776C60.0673 9.6 60.1233 9.464 60.2353 9.368C60.3473 9.256 60.4833 9.2 60.6433 9.2H62.8753C63.0513 9.2 63.1873 9.256 63.2833 9.368C63.3953 9.464 63.4513 9.6 63.4513 9.776V23.144H71.0593C71.2353 23.144 71.3793 23.2 71.4913 23.312C71.6033 23.424 71.6593 23.568 71.6593 23.744V25.424C71.6593 25.6 71.6033 25.744 71.4913 25.856C71.3793 25.952 71.2353 26 71.0593 26H60.6433Z" fill="#4D4E4C"/>
<rect id="Rectangle 38" x="86" y="15" width="60" height="7" fill="#FB997E"/>
<path id="FONO" d="M2.448 70C2.288 70 2.152 69.944 2.04 69.832C1.928 69.72 1.872 69.584 1.872 69.424V53.8C1.872 53.624 1.92 53.48 2.016 53.368C2.128 53.256 2.272 53.2 2.448 53.2H12.864C13.04 53.2 13.184 53.256 13.296 53.368C13.408 53.48 13.464 53.624 13.464 53.8V55.48C13.464 55.656 13.408 55.8 13.296 55.912C13.184 56.008 13.04 56.056 12.864 56.056H5.16V60.616H12.384C12.56 60.616 12.704 60.672 12.816 60.784C12.928 60.896 12.984 61.04 12.984 61.216V62.896C12.984 63.072 12.928 63.216 12.816 63.328C12.704 63.424 12.56 63.472 12.384 63.472H5.16V69.424C5.16 69.6 5.104 69.744 4.992 69.856C4.88 69.952 4.736 70 4.56 70H2.448ZM22.6249 70.24C20.4489 70.24 18.7529 69.688 17.5369 68.584C16.3209 67.48 15.6809 65.84 15.6169 63.664C15.6009 63.2 15.5929 62.52 15.5929 61.624C15.5929 60.712 15.6009 60.024 15.6169 59.56C15.6809 57.432 16.3369 55.8 17.5849 54.664C18.8329 53.528 20.5129 52.96 22.6249 52.96C24.7369 52.96 26.4169 53.528 27.6649 54.664C28.9289 55.8 29.5929 57.432 29.6569 59.56C29.6889 60.488 29.7049 61.176 29.7049 61.624C29.7049 62.056 29.6889 62.736 29.6569 63.664C29.5769 65.84 28.9289 67.48 27.7129 68.584C26.4969 69.688 24.8009 70.24 22.6249 70.24ZM22.6249 67.48C23.6969 67.48 24.5529 67.16 25.1929 66.52C25.8329 65.864 26.1769 64.872 26.2249 63.544C26.2569 62.584 26.2729 61.936 26.2729 61.6C26.2729 61.232 26.2569 60.584 26.2249 59.656C26.1769 58.328 25.8329 57.344 25.1929 56.704C24.5529 56.048 23.6969 55.72 22.6249 55.72C21.5689 55.72 20.7209 56.048 20.0809 56.704C19.4409 57.344 19.0969 58.328 19.0489 59.656C19.0329 60.12 19.0249 60.768 19.0249 61.6C19.0249 62.416 19.0329 63.064 19.0489 63.544C19.0969 64.872 19.4329 65.864 20.0569 66.52C20.6969 67.16 21.5529 67.48 22.6249 67.48ZM33.4324 70C33.2724 70 33.1364 69.944 33.0244 69.832C32.9124 69.72 32.8564 69.584 32.8564 69.424V53.8C32.8564 53.624 32.9044 53.48 33.0004 53.368C33.1124 53.256 33.2564 53.2 33.4324 53.2H35.2804C35.4724 53.2 35.6164 53.24 35.7124 53.32C35.8084 53.384 35.8964 53.472 35.9764 53.584L42.8884 64.336V53.8C42.8884 53.624 42.9364 53.48 43.0324 53.368C43.1444 53.256 43.2884 53.2 43.4644 53.2H45.4804C45.6564 53.2 45.8004 53.256 45.9124 53.368C46.0244 53.48 46.0804 53.624 46.0804 53.8V69.4C46.0804 69.576 46.0244 69.72 45.9124 69.832C45.8004 69.944 45.6644 70 45.5044 70H43.6324C43.3604 70 43.1284 69.872 42.9364 69.616L36.0484 59.104V69.424C36.0484 69.6 35.9924 69.744 35.8804 69.856C35.7684 69.952 35.6244 70 35.4484 70H33.4324ZM56.2811 70.24C54.1051 70.24 52.4091 69.688 51.1931 68.584C49.9771 67.48 49.3371 65.84 49.2731 63.664C49.2571 63.2 49.2491 62.52 49.2491 61.624C49.2491 60.712 49.2571 60.024 49.2731 59.56C49.3371 57.432 49.9931 55.8 51.2411 54.664C52.4891 53.528 54.1691 52.96 56.2811 52.96C58.3931 52.96 60.0731 53.528 61.3211 54.664C62.5851 55.8 63.2491 57.432 63.3131 59.56C63.3451 60.488 63.3611 61.176 63.3611 61.624C63.3611 62.056 63.3451 62.736 63.3131 63.664C63.2331 65.84 62.5851 67.48 61.3691 68.584C60.1531 69.688 58.4571 70.24 56.2811 70.24ZM56.2811 67.48C57.3531 67.48 58.2091 67.16 58.8491 66.52C59.4891 65.864 59.8331 64.872 59.8811 63.544C59.9131 62.584 59.9291 61.936 59.9291 61.6C59.9291 61.232 59.9131 60.584 59.8811 59.656C59.8331 58.328 59.4891 57.344 58.8491 56.704C58.2091 56.048 57.3531 55.72 56.2811 55.72C55.2251 55.72 54.3771 56.048 53.7371 56.704C53.0971 57.344 52.7531 58.328 52.7051 59.656C52.6891 60.12 52.6811 60.768 52.6811 61.6C52.6811 62.416 52.6891 63.064 52.7051 63.544C52.7531 64.872 53.0891 65.864 53.7131 66.52C54.3531 67.16 55.2091 67.48 56.2811 67.48Z" fill="#4D4E4C"/>
<rect id="Rectangle 39" x="86" y="53" width="60" height="7" fill="#FB997E"/>
<g id="MARCELA.ORTEGAO@MAYOR.CL">
<path d="M171.472 22C171.296 22 171.152 21.952 171.04 21.856C170.928 21.744 170.872 21.6 170.872 21.424V5.8C170.872 5.624 170.928 5.48 171.04 5.368C171.152 5.256 171.296 5.2 171.472 5.2H173.368C173.704 5.2 173.944 5.352 174.088 5.656L178.72 14.296L183.4 5.656C183.56 5.352 183.8 5.2 184.12 5.2H185.992C186.168 5.2 186.312 5.256 186.424 5.368C186.536 5.48 186.592 5.624 186.592 5.8V21.424C186.592 21.6 186.536 21.744 186.424 21.856C186.312 21.952 186.168 22 185.992 22H183.976C183.816 22 183.68 21.944 183.568 21.832C183.456 21.72 183.4 21.584 183.4 21.424V11.032L180.04 17.44C179.832 17.792 179.56 17.968 179.224 17.968H178.24C177.904 17.968 177.632 17.792 177.424 17.44L174.064 11.032V21.424C174.064 21.584 174.008 21.72 173.896 21.832C173.8 21.944 173.664 22 173.488 22H171.472ZM189.293 22C189.165 22 189.045 21.952 188.933 21.856C188.837 21.76 188.789 21.64 188.789 21.496L188.837 21.28L194.621 5.8C194.733 5.4 195.013 5.2 195.461 5.2H198.077C198.493 5.2 198.773 5.4 198.917 5.8L204.701 21.28C204.717 21.328 204.725 21.4 204.725 21.496C204.725 21.64 204.677 21.76 204.581 21.856C204.485 21.952 204.373 22 204.245 22H202.157C201.949 22 201.789 21.952 201.677 21.856C201.565 21.76 201.493 21.656 201.461 21.544L200.333 18.616H193.205L192.077 21.544C191.949 21.848 191.717 22 191.381 22H189.293ZM199.493 15.856L196.757 8.44L194.045 15.856H199.493ZM207.542 22C207.382 22 207.246 21.944 207.134 21.832C207.022 21.72 206.966 21.584 206.966 21.424V5.8C206.966 5.624 207.014 5.48 207.11 5.368C207.222 5.256 207.366 5.2 207.542 5.2H213.758C215.71 5.2 217.238 5.656 218.342 6.568C219.462 7.48 220.022 8.776 220.022 10.456C220.022 11.624 219.734 12.608 219.158 13.408C218.598 14.192 217.814 14.76 216.806 15.112L220.31 21.232C220.358 21.328 220.382 21.416 220.382 21.496C220.382 21.64 220.326 21.76 220.214 21.856C220.118 21.952 220.006 22 219.878 22H217.694C217.438 22 217.238 21.944 217.094 21.832C216.966 21.72 216.846 21.56 216.734 21.352L213.638 15.664H210.302V21.424C210.302 21.584 210.246 21.72 210.134 21.832C210.038 21.944 209.902 22 209.726 22H207.542ZM213.686 12.952C214.646 12.952 215.366 12.736 215.846 12.304C216.342 11.872 216.59 11.248 216.59 10.432C216.59 9.616 216.342 8.984 215.846 8.536C215.366 8.088 214.646 7.864 213.686 7.864H210.302V12.952H213.686ZM229.547 22.24C227.339 22.24 225.627 21.672 224.411 20.536C223.211 19.4 222.571 17.8 222.491 15.736C222.475 15.304 222.467 14.6 222.467 13.624C222.467 12.632 222.475 11.912 222.491 11.464C222.571 9.416 223.219 7.824 224.435 6.688C225.667 5.536 227.371 4.96 229.547 4.96C230.971 4.96 232.211 5.208 233.267 5.704C234.323 6.184 235.139 6.848 235.715 7.696C236.291 8.528 236.595 9.472 236.627 10.528V10.576C236.627 10.704 236.571 10.816 236.459 10.912C236.363 10.992 236.251 11.032 236.123 11.032H233.843C233.651 11.032 233.507 10.992 233.411 10.912C233.315 10.832 233.235 10.68 233.171 10.456C232.915 9.448 232.491 8.744 231.899 8.344C231.307 7.928 230.515 7.72 229.523 7.72C227.219 7.72 226.019 9.008 225.923 11.584C225.907 12.016 225.899 12.68 225.899 13.576C225.899 14.472 225.907 15.152 225.923 15.616C226.019 18.192 227.219 19.48 229.523 19.48C230.515 19.48 231.307 19.272 231.899 18.856C232.507 18.44 232.931 17.736 233.171 16.744C233.219 16.52 233.291 16.368 233.387 16.288C233.499 16.208 233.651 16.168 233.843 16.168H236.123C236.267 16.168 236.387 16.216 236.483 16.312C236.595 16.408 236.643 16.528 236.627 16.672C236.595 17.728 236.291 18.68 235.715 19.528C235.139 20.36 234.323 21.024 233.267 21.52C232.211 22 230.971 22.24 229.547 22.24ZM240.05 22C239.89 22 239.754 21.944 239.642 21.832C239.53 21.72 239.474 21.584 239.474 21.424V5.8C239.474 5.624 239.522 5.48 239.618 5.368C239.73 5.256 239.874 5.2 240.05 5.2H250.61C250.786 5.2 250.93 5.256 251.042 5.368C251.154 5.48 251.21 5.624 251.21 5.8V7.384C251.21 7.56 251.154 7.704 251.042 7.816C250.93 7.912 250.786 7.96 250.61 7.96H242.714V12.208H250.082C250.258 12.208 250.402 12.264 250.514 12.376C250.626 12.472 250.682 12.608 250.682 12.784V14.272C250.682 14.448 250.626 14.592 250.514 14.704C250.402 14.8 250.258 14.848 250.082 14.848H242.714V19.24H250.802C250.978 19.24 251.122 19.296 251.234 19.408C251.346 19.52 251.402 19.664 251.402 19.84V21.424C251.402 21.6 251.346 21.744 251.234 21.856C251.122 21.952 250.978 22 250.802 22H240.05ZM254.979 22C254.819 22 254.683 21.944 254.571 21.832C254.459 21.72 254.403 21.584 254.403 21.424V5.776C254.403 5.6 254.459 5.464 254.571 5.368C254.683 5.256 254.819 5.2 254.979 5.2H257.211C257.387 5.2 257.523 5.256 257.619 5.368C257.731 5.464 257.787 5.6 257.787 5.776V19.144H265.395C265.571 19.144 265.715 19.2 265.827 19.312C265.939 19.424 265.995 19.568 265.995 19.744V21.424C265.995 21.6 265.939 21.744 265.827 21.856C265.715 21.952 265.571 22 265.395 22H254.979ZM267.293 22C267.165 22 267.045 21.952 266.933 21.856C266.837 21.76 266.789 21.64 266.789 21.496L266.837 21.28L272.621 5.8C272.733 5.4 273.013 5.2 273.461 5.2H276.077C276.493 5.2 276.773 5.4 276.917 5.8L282.701 21.28C282.717 21.328 282.725 21.4 282.725 21.496C282.725 21.64 282.677 21.76 282.581 21.856C282.485 21.952 282.373 22 282.245 22H280.157C279.949 22 279.789 21.952 279.677 21.856C279.565 21.76 279.493 21.656 279.461 21.544L278.333 18.616H271.205L270.077 21.544C269.949 21.848 269.717 22 269.381 22H267.293ZM277.493 15.856L274.757 8.44L272.045 15.856H277.493ZM285.11 22C284.95 22 284.814 21.944 284.702 21.832C284.59 21.72 284.534 21.584 284.534 21.424V19.048C284.534 18.888 284.59 18.752 284.702 18.64C284.814 18.512 284.95 18.448 285.11 18.448H287.51C287.67 18.448 287.806 18.512 287.918 18.64C288.03 18.752 288.086 18.888 288.086 19.048V21.424C288.086 21.584 288.03 21.72 287.918 21.832C287.806 21.944 287.67 22 287.51 22H285.11ZM297.562 22.24C295.386 22.24 293.69 21.688 292.474 20.584C291.258 19.48 290.618 17.84 290.554 15.664C290.538 15.2 290.53 14.52 290.53 13.624C290.53 12.712 290.538 12.024 290.554 11.56C290.618 9.432 291.274 7.8 292.522 6.664C293.77 5.528 295.45 4.96 297.562 4.96C299.674 4.96 301.354 5.528 302.602 6.664C303.866 7.8 304.53 9.432 304.594 11.56C304.626 12.488 304.642 13.176 304.642 13.624C304.642 14.056 304.626 14.736 304.594 15.664C304.514 17.84 303.866 19.48 302.65 20.584C301.434 21.688 299.738 22.24 297.562 22.24ZM297.562 19.48C298.634 19.48 299.49 19.16 300.13 18.52C300.77 17.864 301.114 16.872 301.162 15.544C301.194 14.584 301.21 13.936 301.21 13.6C301.21 13.232 301.194 12.584 301.162 11.656C301.114 10.328 300.77 9.344 300.13 8.704C299.49 8.048 298.634 7.72 297.562 7.72C296.506 7.72 295.658 8.048 295.018 8.704C294.378 9.344 294.034 10.328 293.986 11.656C293.97 12.12 293.962 12.768 293.962 13.6C293.962 14.416 293.97 15.064 293.986 15.544C294.034 16.872 294.37 17.864 294.994 18.52C295.634 19.16 296.49 19.48 297.562 19.48ZM308.37 22C308.21 22 308.074 21.944 307.962 21.832C307.85 21.72 307.794 21.584 307.794 21.424V5.8C307.794 5.624 307.842 5.48 307.938 5.368C308.05 5.256 308.194 5.2 308.37 5.2H314.586C316.538 5.2 318.066 5.656 319.17 6.568C320.29 7.48 320.85 8.776 320.85 10.456C320.85 11.624 320.562 12.608 319.986 13.408C319.426 14.192 318.642 14.76 317.634 15.112L321.138 21.232C321.186 21.328 321.21 21.416 321.21 21.496C321.21 21.64 321.154 21.76 321.042 21.856C320.946 21.952 320.834 22 320.706 22H318.522C318.266 22 318.066 21.944 317.922 21.832C317.794 21.72 317.674 21.56 317.562 21.352L314.466 15.664H311.13V21.424C311.13 21.584 311.074 21.72 310.962 21.832C310.866 21.944 310.73 22 310.554 22H308.37ZM314.514 12.952C315.474 12.952 316.194 12.736 316.674 12.304C317.17 11.872 317.418 11.248 317.418 10.432C317.418 9.616 317.17 8.984 316.674 8.536C316.194 8.088 315.474 7.864 314.514 7.864H311.13V12.952H314.514ZM328.027 22C327.867 22 327.731 21.944 327.619 21.832C327.507 21.72 327.451 21.584 327.451 21.424V8.152H323.011C322.851 8.152 322.715 8.096 322.603 7.984C322.491 7.872 322.435 7.736 322.435 7.576V5.8C322.435 5.624 322.483 5.48 322.579 5.368C322.691 5.256 322.835 5.2 323.011 5.2H335.251C335.427 5.2 335.571 5.256 335.683 5.368C335.795 5.48 335.851 5.624 335.851 5.8V7.576C335.851 7.736 335.795 7.872 335.683 7.984C335.571 8.096 335.427 8.152 335.251 8.152H330.835V21.424C330.835 21.584 330.779 21.72 330.667 21.832C330.555 21.944 330.411 22 330.235 22H328.027ZM338.862 22C338.702 22 338.566 21.944 338.454 21.832C338.342 21.72 338.286 21.584 338.286 21.424V5.8C338.286 5.624 338.334 5.48 338.43 5.368C338.542 5.256 338.686 5.2 338.862 5.2H349.422C349.598 5.2 349.742 5.256 349.854 5.368C349.966 5.48 350.022 5.624 350.022 5.8V7.384C350.022 7.56 349.966 7.704 349.854 7.816C349.742 7.912 349.598 7.96 349.422 7.96H341.526V12.208H348.894C349.07 12.208 349.214 12.264 349.326 12.376C349.438 12.472 349.494 12.608 349.494 12.784V14.272C349.494 14.448 349.438 14.592 349.326 14.704C349.214 14.8 349.07 14.848 348.894 14.848H341.526V19.24H349.614C349.79 19.24 349.934 19.296 350.046 19.408C350.158 19.52 350.214 19.664 350.214 19.84V21.424C350.214 21.6 350.158 21.744 350.046 21.856C349.934 21.952 349.79 22 349.614 22H338.862ZM359.603 22.24C357.411 22.24 355.699 21.672 354.467 20.536C353.251 19.4 352.603 17.816 352.523 15.784C352.507 15.32 352.499 14.576 352.499 13.552C352.499 12.528 352.507 11.784 352.523 11.32C352.603 9.336 353.259 7.784 354.491 6.664C355.739 5.528 357.443 4.96 359.603 4.96C361.075 4.96 362.339 5.208 363.395 5.704C364.451 6.2 365.251 6.824 365.795 7.576C366.339 8.312 366.627 9.04 366.659 9.76V9.808C366.659 9.936 366.611 10.048 366.515 10.144C366.419 10.224 366.299 10.264 366.155 10.264H363.683C363.523 10.264 363.403 10.24 363.323 10.192C363.243 10.128 363.171 10.024 363.107 9.88C362.883 9.288 362.491 8.784 361.931 8.368C361.371 7.936 360.595 7.72 359.603 7.72C358.483 7.72 357.603 8.024 356.963 8.632C356.339 9.24 356.003 10.176 355.955 11.44C355.939 11.904 355.931 12.608 355.931 13.552C355.931 14.48 355.939 15.184 355.955 15.664C356.051 18.208 357.283 19.48 359.651 19.48C360.787 19.48 361.699 19.176 362.387 18.568C363.075 17.944 363.419 17.024 363.419 15.808V15.064H360.491C360.315 15.064 360.171 15.008 360.059 14.896C359.963 14.784 359.915 14.64 359.915 14.464V13.192C359.915 13.016 359.963 12.872 360.059 12.76C360.171 12.648 360.315 12.592 360.491 12.592H366.227C366.403 12.592 366.539 12.648 366.635 12.76C366.747 12.872 366.803 13.016 366.803 13.192V15.712C366.803 17.04 366.507 18.2 365.915 19.192C365.339 20.168 364.507 20.92 363.419 21.448C362.331 21.976 361.059 22.24 359.603 22.24ZM368.496 22C368.368 22 368.248 21.952 368.136 21.856C368.04 21.76 367.992 21.64 367.992 21.496L368.04 21.28L373.824 5.8C373.936 5.4 374.216 5.2 374.664 5.2H377.28C377.696 5.2 377.976 5.4 378.12 5.8L383.904 21.28C383.92 21.328 383.928 21.4 383.928 21.496C383.928 21.64 383.88 21.76 383.784 21.856C383.688 21.952 383.576 22 383.448 22H381.36C381.152 22 380.992 21.952 380.88 21.856C380.768 21.76 380.696 21.656 380.664 21.544L379.536 18.616H372.408L371.28 21.544C371.152 21.848 370.92 22 370.584 22H368.496ZM378.696 15.856L375.96 8.44L373.248 15.856H378.696ZM392.297 22.24C390.121 22.24 388.425 21.688 387.209 20.584C385.993 19.48 385.353 17.84 385.289 15.664C385.273 15.2 385.265 14.52 385.265 13.624C385.265 12.712 385.273 12.024 385.289 11.56C385.353 9.432 386.009 7.8 387.257 6.664C388.505 5.528 390.185 4.96 392.297 4.96C394.409 4.96 396.089 5.528 397.337 6.664C398.601 7.8 399.265 9.432 399.329 11.56C399.361 12.488 399.377 13.176 399.377 13.624C399.377 14.056 399.361 14.736 399.329 15.664C399.249 17.84 398.601 19.48 397.385 20.584C396.169 21.688 394.473 22.24 392.297 22.24ZM392.297 19.48C393.369 19.48 394.225 19.16 394.865 18.52C395.505 17.864 395.849 16.872 395.897 15.544C395.929 14.584 395.945 13.936 395.945 13.6C395.945 13.232 395.929 12.584 395.897 11.656C395.849 10.328 395.505 9.344 394.865 8.704C394.225 8.048 393.369 7.72 392.297 7.72C391.241 7.72 390.393 8.048 389.753 8.704C389.113 9.344 388.769 10.328 388.721 11.656C388.705 12.12 388.697 12.768 388.697 13.6C388.697 14.416 388.705 15.064 388.721 15.544C388.769 16.872 389.105 17.864 389.729 18.52C390.369 19.16 391.225 19.48 392.297 19.48ZM410.736 24.976C408.048 24.976 405.968 24.32 404.496 23.008C403.04 21.696 402.2 19.872 401.976 17.536C401.928 17.072 401.904 16.376 401.904 15.448C401.904 14.504 401.928 13.832 401.976 13.432C402.12 11.992 402.536 10.704 403.224 9.568C403.912 8.432 404.872 7.544 406.104 6.904C407.352 6.248 408.832 5.92 410.544 5.92C416.192 5.92 419.176 8.424 419.496 13.432C419.528 14.008 419.544 14.464 419.544 14.8C419.544 15.456 419.528 16.024 419.496 16.504C419.432 17.656 419.08 18.544 418.44 19.168C417.8 19.792 416.992 20.104 416.016 20.104C415.328 20.104 414.744 19.968 414.264 19.696C413.8 19.424 413.456 19.128 413.232 18.808C412.96 19.24 412.6 19.608 412.152 19.912C411.704 20.2 411.04 20.344 410.16 20.344C408.96 20.344 408.008 19.912 407.304 19.048C406.616 18.184 406.272 16.984 406.272 15.448C406.272 13.912 406.616 12.712 407.304 11.848C407.992 10.968 408.928 10.528 410.112 10.528C411.152 10.528 411.96 10.904 412.536 11.656V11.296C412.536 11.12 412.592 10.984 412.704 10.888C412.816 10.776 412.952 10.72 413.112 10.72H414.072C414.232 10.72 414.368 10.776 414.48 10.888C414.592 11 414.648 11.136 414.648 11.296V16.288C414.648 16.88 414.768 17.328 415.008 17.632C415.264 17.936 415.6 18.088 416.016 18.088C416.528 18.088 416.88 17.912 417.072 17.56C417.28 17.192 417.392 16.768 417.408 16.288C417.44 15.808 417.456 15.312 417.456 14.8C417.456 14.544 417.44 14.128 417.408 13.552C417.28 11.632 416.688 10.216 415.632 9.304C414.592 8.376 412.896 7.912 410.544 7.912C408.592 7.912 407.072 8.408 405.984 9.4C404.912 10.392 404.272 11.776 404.064 13.552C404.016 13.952 403.992 14.584 403.992 15.448C403.992 16.296 404.016 16.952 404.064 17.416C404.256 19.208 404.904 20.584 406.008 21.544C407.128 22.504 408.704 22.984 410.736 22.984C411.728 22.984 412.544 22.912 413.184 22.768C413.824 22.624 414.312 22.456 414.648 22.264C414.984 22.088 415.336 21.856 415.704 21.568C415.848 21.456 415.96 21.376 416.04 21.328C416.136 21.28 416.256 21.256 416.4 21.256H417.72C417.88 21.256 418.016 21.312 418.128 21.424C418.24 21.52 418.296 21.648 418.296 21.808C418.296 21.888 418.248 22.008 418.152 22.168C416.472 24.04 414 24.976 410.736 24.976ZM410.448 18.328C411.184 18.328 411.712 18.088 412.032 17.608C412.368 17.128 412.536 16.408 412.536 15.448C412.536 14.488 412.368 13.768 412.032 13.288C411.712 12.792 411.184 12.544 410.448 12.544C409.056 12.544 408.36 13.512 408.36 15.448C408.36 16.328 408.536 17.032 408.888 17.56C409.24 18.072 409.76 18.328 410.448 18.328ZM423.238 22C423.062 22 422.918 21.952 422.806 21.856C422.694 21.744 422.638 21.6 422.638 21.424V5.8C422.638 5.624 422.694 5.48 422.806 5.368C422.918 5.256 423.062 5.2 423.238 5.2H425.134C425.47 5.2 425.71 5.352 425.854 5.656L430.486 14.296L435.166 5.656C435.326 5.352 435.566 5.2 435.886 5.2H437.758C437.934 5.2 438.078 5.256 438.19 5.368C438.302 5.48 438.358 5.624 438.358 5.8V21.424C438.358 21.6 438.302 21.744 438.19 21.856C438.078 21.952 437.934 22 437.758 22H435.742C435.582 22 435.446 21.944 435.334 21.832C435.222 21.72 435.166 21.584 435.166 21.424V11.032L431.806 17.44C431.598 17.792 431.326 17.968 430.99 17.968H430.006C429.67 17.968 429.398 17.792 429.19 17.44L425.83 11.032V21.424C425.83 21.584 425.774 21.72 425.662 21.832C425.566 21.944 425.43 22 425.254 22H423.238ZM441.059 22C440.931 22 440.811 21.952 440.699 21.856C440.603 21.76 440.555 21.64 440.555 21.496L440.603 21.28L446.387 5.8C446.499 5.4 446.779 5.2 447.227 5.2H449.843C450.259 5.2 450.539 5.4 450.683 5.8L456.467 21.28C456.483 21.328 456.491 21.4 456.491 21.496C456.491 21.64 456.443 21.76 456.347 21.856C456.251 21.952 456.139 22 456.011 22H453.923C453.715 22 453.555 21.952 453.443 21.856C453.331 21.76 453.259 21.656 453.227 21.544L452.099 18.616H444.971L443.843 21.544C443.715 21.848 443.483 22 443.147 22H441.059ZM451.259 15.856L448.523 8.44L445.811 15.856H451.259ZM461.895 22C461.735 22 461.599 21.944 461.487 21.832C461.375 21.72 461.319 21.584 461.319 21.424V16L455.655 5.968C455.607 5.888 455.583 5.8 455.583 5.704C455.583 5.56 455.631 5.44 455.727 5.344C455.823 5.248 455.935 5.2 456.063 5.2H458.199C458.375 5.2 458.519 5.248 458.631 5.344C458.759 5.44 458.855 5.544 458.919 5.656L462.999 12.64L467.055 5.656C467.247 5.352 467.495 5.2 467.799 5.2H469.911C470.055 5.2 470.175 5.248 470.271 5.344C470.367 5.44 470.415 5.56 470.415 5.704C470.415 5.8 470.391 5.888 470.343 5.968L464.679 16V21.424C464.679 21.584 464.623 21.72 464.511 21.832C464.399 21.944 464.255 22 464.079 22H461.895ZM478.547 22.24C476.371 22.24 474.675 21.688 473.459 20.584C472.243 19.48 471.603 17.84 471.539 15.664C471.523 15.2 471.515 14.52 471.515 13.624C471.515 12.712 471.523 12.024 471.539 11.56C471.603 9.432 472.259 7.8 473.507 6.664C474.755 5.528 476.435 4.96 478.547 4.96C480.659 4.96 482.339 5.528 483.587 6.664C484.851 7.8 485.515 9.432 485.579 11.56C485.611 12.488 485.627 13.176 485.627 13.624C485.627 14.056 485.611 14.736 485.579 15.664C485.499 17.84 484.851 19.48 483.635 20.584C482.419 21.688 480.723 22.24 478.547 22.24ZM478.547 19.48C479.619 19.48 480.475 19.16 481.115 18.52C481.755 17.864 482.099 16.872 482.147 15.544C482.179 14.584 482.195 13.936 482.195 13.6C482.195 13.232 482.179 12.584 482.147 11.656C482.099 10.328 481.755 9.344 481.115 8.704C480.475 8.048 479.619 7.72 478.547 7.72C477.491 7.72 476.643 8.048 476.003 8.704C475.363 9.344 475.019 10.328 474.971 11.656C474.955 12.12 474.947 12.768 474.947 13.6C474.947 14.416 474.955 15.064 474.971 15.544C475.019 16.872 475.355 17.864 475.979 18.52C476.619 19.16 477.475 19.48 478.547 19.48ZM489.354 22C489.194 22 489.058 21.944 488.946 21.832C488.834 21.72 488.778 21.584 488.778 21.424V5.8C488.778 5.624 488.826 5.48 488.922 5.368C489.034 5.256 489.178 5.2 489.354 5.2H495.57C497.522 5.2 499.05 5.656 500.154 6.568C501.274 7.48 501.834 8.776 501.834 10.456C501.834 11.624 501.546 12.608 500.97 13.408C500.41 14.192 499.626 14.76 498.618 15.112L502.122 21.232C502.17 21.328 502.194 21.416 502.194 21.496C502.194 21.64 502.138 21.76 502.026 21.856C501.93 21.952 501.818 22 501.69 22H499.506C499.25 22 499.05 21.944 498.906 21.832C498.778 21.72 498.658 21.56 498.546 21.352L495.45 15.664H492.114V21.424C492.114 21.584 492.058 21.72 491.946 21.832C491.85 21.944 491.714 22 491.538 22H489.354ZM495.498 12.952C496.458 12.952 497.178 12.736 497.658 12.304C498.154 11.872 498.402 11.248 498.402 10.432C498.402 9.616 498.154 8.984 497.658 8.536C497.178 8.088 496.458 7.864 495.498 7.864H492.114V12.952H495.498ZM505.071 22C504.911 22 504.775 21.944 504.663 21.832C504.551 21.72 504.495 21.584 504.495 21.424V19.048C504.495 18.888 504.551 18.752 504.663 18.64C504.775 18.512 504.911 18.448 505.071 18.448H507.471C507.631 18.448 507.767 18.512 507.879 18.64C507.991 18.752 508.047 18.888 508.047 19.048V21.424C508.047 21.584 507.991 21.72 507.879 21.832C507.767 21.944 507.631 22 507.471 22H505.071ZM517.547 22.24C515.339 22.24 513.627 21.672 512.411 20.536C511.211 19.4 510.571 17.8 510.491 15.736C510.475 15.304 510.467 14.6 510.467 13.624C510.467 12.632 510.475 11.912 510.491 11.464C510.571 9.416 511.219 7.824 512.435 6.688C513.667 5.536 515.371 4.96 517.547 4.96C518.971 4.96 520.211 5.208 521.267 5.704C522.323 6.184 523.139 6.848 523.715 7.696C524.291 8.528 524.595 9.472 524.627 10.528V10.576C524.627 10.704 524.571 10.816 524.459 10.912C524.363 10.992 524.251 11.032 524.123 11.032H521.843C521.651 11.032 521.507 10.992 521.411 10.912C521.315 10.832 521.235 10.68 521.171 10.456C520.915 9.448 520.491 8.744 519.899 8.344C519.307 7.928 518.515 7.72 517.523 7.72C515.219 7.72 514.019 9.008 513.923 11.584C513.907 12.016 513.899 12.68 513.899 13.576C513.899 14.472 513.907 15.152 513.923 15.616C514.019 18.192 515.219 19.48 517.523 19.48C518.515 19.48 519.307 19.272 519.899 18.856C520.507 18.44 520.931 17.736 521.171 16.744C521.219 16.52 521.291 16.368 521.387 16.288C521.499 16.208 521.651 16.168 521.843 16.168H524.123C524.267 16.168 524.387 16.216 524.483 16.312C524.595 16.408 524.643 16.528 524.627 16.672C524.595 17.728 524.291 18.68 523.715 19.528C523.139 20.36 522.323 21.024 521.267 21.52C520.211 22 518.971 22.24 517.547 22.24ZM528.05 22C527.89 22 527.754 21.944 527.642 21.832C527.53 21.72 527.474 21.584 527.474 21.424V5.776C527.474 5.6 527.53 5.464 527.642 5.368C527.754 5.256 527.89 5.2 528.05 5.2H530.282C530.458 5.2 530.594 5.256 530.69 5.368C530.802 5.464 530.858 5.6 530.858 5.776V19.144H538.466C538.642 19.144 538.786 19.2 538.898 19.312C539.01 19.424 539.066 19.568 539.066 19.744V21.424C539.066 21.6 539.01 21.744 538.898 21.856C538.786 21.952 538.642 22 538.466 22H528.05Z" fill="#4D4E4C"/>
<path d="M169 23.8H539.522V25H169V23.8Z" fill="#4D4E4C"/>
</g>
<a href="mailto:MARCELA.ORTEGAO@MAYOR.CL">
<rect fill="black" fill-opacity="0" y="-0.220001" width="370.522" height="28.44"/>
</a>
<path id="56 9 4937 4143" d="M177.828 63.264C176.5 63.264 175.356 63.04 174.396 62.592C173.452 62.144 172.724 61.552 172.212 60.816C171.716 60.08 171.452 59.288 171.42 58.44V58.392C171.42 58.264 171.468 58.16 171.564 58.08C171.66 58 171.78 57.96 171.924 57.96H174.156C174.524 57.96 174.764 58.12 174.876 58.44C175.1 59.144 175.468 59.664 175.98 60C176.508 60.336 177.124 60.504 177.828 60.504C178.724 60.504 179.468 60.232 180.06 59.688C180.668 59.144 180.972 58.384 180.972 57.408C180.972 56.544 180.668 55.84 180.06 55.296C179.468 54.752 178.724 54.48 177.828 54.48C177.348 54.48 176.956 54.544 176.652 54.672C176.348 54.8 176.052 54.976 175.764 55.2C175.572 55.344 175.42 55.448 175.308 55.512C175.212 55.56 175.092 55.584 174.948 55.584H172.74C172.596 55.584 172.468 55.536 172.356 55.44C172.26 55.328 172.212 55.2 172.212 55.056L173.052 46.848C173.068 46.656 173.132 46.504 173.244 46.392C173.372 46.264 173.532 46.2 173.724 46.2H182.748C182.908 46.2 183.044 46.256 183.156 46.368C183.268 46.48 183.324 46.616 183.324 46.776V48.384C183.324 48.544 183.268 48.68 183.156 48.792C183.044 48.904 182.908 48.96 182.748 48.96H175.812L175.428 52.872C176.212 52.328 177.26 52.056 178.572 52.056C179.612 52.056 180.572 52.28 181.452 52.728C182.348 53.16 183.06 53.792 183.588 54.624C184.116 55.44 184.38 56.392 184.38 57.48C184.38 58.648 184.108 59.672 183.564 60.552C183.02 61.416 182.252 62.088 181.26 62.568C180.284 63.032 179.14 63.264 177.828 63.264ZM193.023 63.24C191.679 63.24 190.503 62.984 189.495 62.472C188.487 61.96 187.711 61.264 187.167 60.384C186.623 59.488 186.351 58.48 186.351 57.36C186.351 55.936 186.967 54.384 188.199 52.704L192.591 46.68C192.687 46.536 192.791 46.424 192.903 46.344C193.031 46.248 193.199 46.2 193.407 46.2H195.639C195.783 46.2 195.903 46.256 195.999 46.368C196.095 46.464 196.143 46.584 196.143 46.728C196.143 46.808 196.103 46.912 196.023 47.04L192.663 51.696C192.983 51.616 193.327 51.576 193.695 51.576C194.767 51.608 195.751 51.88 196.647 52.392C197.559 52.888 198.279 53.568 198.807 54.432C199.351 55.296 199.623 56.256 199.623 57.312C199.623 58.384 199.351 59.376 198.807 60.288C198.279 61.184 197.511 61.904 196.503 62.448C195.511 62.976 194.351 63.24 193.023 63.24ZM192.999 60.48C193.911 60.48 194.679 60.208 195.303 59.664C195.927 59.104 196.239 58.328 196.239 57.336C196.239 56.36 195.927 55.6 195.303 55.056C194.679 54.496 193.911 54.216 192.999 54.216C192.087 54.216 191.319 54.496 190.695 55.056C190.071 55.6 189.759 56.36 189.759 57.336C189.759 58.328 190.071 59.104 190.695 59.664C191.319 60.208 192.087 60.48 192.999 60.48ZM210.314 63C210.17 63 210.05 62.952 209.954 62.856C209.858 62.744 209.81 62.616 209.81 62.472C209.81 62.36 209.842 62.256 209.906 62.16L213.434 57.288C213.082 57.368 212.754 57.4 212.45 57.384C211.378 57.352 210.402 57.088 209.522 56.592C208.642 56.096 207.946 55.424 207.434 54.576C206.938 53.728 206.69 52.8 206.69 51.792C206.69 50.784 206.938 49.84 207.434 48.96C207.93 48.064 208.666 47.344 209.642 46.8C210.618 46.24 211.794 45.96 213.17 45.96C214.546 45.96 215.73 46.224 216.722 46.752C217.714 47.264 218.458 47.96 218.954 48.84C219.466 49.704 219.722 50.656 219.722 51.696C219.722 52.336 219.618 52.944 219.41 53.52C219.202 54.096 218.962 54.6 218.69 55.032C218.434 55.448 218.066 55.992 217.586 56.664L213.362 62.52C213.266 62.664 213.154 62.784 213.026 62.88C212.914 62.96 212.754 63 212.546 63H210.314ZM213.194 54.84C214.074 54.84 214.81 54.568 215.402 54.024C216.01 53.464 216.314 52.72 216.314 51.792C216.314 50.864 216.01 50.12 215.402 49.56C214.81 49 214.074 48.72 213.194 48.72C212.314 48.72 211.57 49 210.962 49.56C210.37 50.12 210.074 50.864 210.074 51.792C210.074 52.72 210.37 53.464 210.962 54.024C211.554 54.568 212.298 54.84 213.194 54.84ZM235.675 63C235.515 63 235.379 62.944 235.267 62.832C235.155 62.72 235.099 62.584 235.099 62.424V59.352H227.491C227.331 59.352 227.195 59.296 227.083 59.184C226.971 59.072 226.915 58.936 226.915 58.776V57.144C226.915 56.888 227.003 56.648 227.179 56.424L234.259 46.608C234.339 46.48 234.459 46.384 234.619 46.32C234.779 46.24 234.955 46.2 235.147 46.2H237.763C237.939 46.2 238.075 46.256 238.171 46.368C238.283 46.464 238.339 46.6 238.339 46.776V56.52H240.475C240.651 56.52 240.795 56.576 240.907 56.688C241.019 56.784 241.075 56.92 241.075 57.096V58.776C241.075 58.936 241.019 59.072 240.907 59.184C240.795 59.296 240.659 59.352 240.499 59.352H238.339V62.424C238.339 62.584 238.283 62.72 238.171 62.832C238.075 62.944 237.939 63 237.763 63H235.675ZM235.171 56.616V49.68L230.251 56.616H235.171ZM246.127 63C245.983 63 245.863 62.952 245.767 62.856C245.671 62.744 245.623 62.616 245.623 62.472C245.623 62.36 245.655 62.256 245.719 62.16L249.247 57.288C248.895 57.368 248.567 57.4 248.263 57.384C247.191 57.352 246.215 57.088 245.335 56.592C244.455 56.096 243.759 55.424 243.247 54.576C242.751 53.728 242.503 52.8 242.503 51.792C242.503 50.784 242.751 49.84 243.247 48.96C243.743 48.064 244.479 47.344 245.455 46.8C246.431 46.24 247.607 45.96 248.983 45.96C250.359 45.96 251.543 46.224 252.535 46.752C253.527 47.264 254.271 47.96 254.767 48.84C255.279 49.704 255.535 50.656 255.535 51.696C255.535 52.336 255.431 52.944 255.223 53.52C255.015 54.096 254.775 54.6 254.503 55.032C254.247 55.448 253.879 55.992 253.399 56.664L249.175 62.52C249.079 62.664 248.967 62.784 248.839 62.88C248.727 62.96 248.567 63 248.359 63H246.127ZM249.007 54.84C249.887 54.84 250.623 54.568 251.215 54.024C251.823 53.464 252.127 52.72 252.127 51.792C252.127 50.864 251.823 50.12 251.215 49.56C250.623 49 249.887 48.72 249.007 48.72C248.127 48.72 247.383 49 246.775 49.56C246.183 50.12 245.887 50.864 245.887 51.792C245.887 52.72 246.183 53.464 246.775 54.024C247.367 54.568 248.111 54.84 249.007 54.84ZM263.73 63.24C262.322 63.24 261.122 63.016 260.13 62.568C259.154 62.12 258.418 61.56 257.922 60.888C257.442 60.2 257.186 59.496 257.154 58.776C257.154 58.632 257.202 58.52 257.298 58.44C257.41 58.344 257.538 58.296 257.682 58.296H259.842C260.194 58.296 260.426 58.456 260.538 58.776C260.89 59.928 261.962 60.504 263.754 60.504C264.73 60.504 265.498 60.28 266.058 59.832C266.618 59.368 266.898 58.712 266.898 57.864C266.898 56.264 265.898 55.464 263.898 55.464H261.426C261.25 55.464 261.106 55.408 260.994 55.296C260.882 55.184 260.826 55.048 260.826 54.888V53.88C260.826 53.624 260.938 53.384 261.162 53.16L265.458 48.96H258.594C258.434 48.96 258.298 48.904 258.186 48.792C258.074 48.68 258.018 48.544 258.018 48.384V46.8C258.018 46.624 258.066 46.48 258.162 46.368C258.274 46.256 258.418 46.2 258.594 46.2H268.89C269.066 46.2 269.21 46.256 269.322 46.368C269.434 46.48 269.49 46.624 269.49 46.8V48.24C269.49 48.48 269.386 48.704 269.178 48.912L265.026 53.184L265.314 53.208C266.85 53.336 268.066 53.8 268.962 54.6C269.874 55.4 270.33 56.544 270.33 58.032C270.33 59.088 270.042 60.008 269.466 60.792C268.906 61.576 268.122 62.184 267.114 62.616C266.122 63.032 264.994 63.24 263.73 63.24ZM274.863 63C274.719 63 274.599 62.952 274.503 62.856C274.407 62.744 274.359 62.616 274.359 62.472C274.359 62.424 274.375 62.352 274.407 62.256L280.191 49.056H272.655C272.495 49.056 272.359 49 272.247 48.888C272.135 48.776 272.079 48.64 272.079 48.48V46.8C272.079 46.624 272.127 46.48 272.223 46.368C272.335 46.256 272.479 46.2 272.655 46.2H283.191C283.367 46.2 283.503 46.256 283.599 46.368C283.711 46.48 283.767 46.624 283.767 46.8V48.288C283.767 48.608 283.695 48.952 283.551 49.32L277.815 62.424C277.639 62.808 277.383 63 277.047 63H274.863ZM299.378 63C299.218 63 299.082 62.944 298.97 62.832C298.858 62.72 298.802 62.584 298.802 62.424V59.352H291.194C291.034 59.352 290.898 59.296 290.786 59.184C290.674 59.072 290.618 58.936 290.618 58.776V57.144C290.618 56.888 290.706 56.648 290.882 56.424L297.962 46.608C298.042 46.48 298.162 46.384 298.322 46.32C298.482 46.24 298.658 46.2 298.85 46.2H301.466C301.642 46.2 301.778 46.256 301.874 46.368C301.986 46.464 302.042 46.6 302.042 46.776V56.52H304.178C304.354 56.52 304.498 56.576 304.61 56.688C304.722 56.784 304.778 56.92 304.778 57.096V58.776C304.778 58.936 304.722 59.072 304.61 59.184C304.498 59.296 304.362 59.352 304.202 59.352H302.042V62.424C302.042 62.584 301.986 62.72 301.874 62.832C301.778 62.944 301.642 63 301.466 63H299.378ZM298.874 56.616V49.68L293.954 56.616H298.874ZM311.664 63C311.504 63 311.368 62.944 311.256 62.832C311.144 62.72 311.088 62.584 311.088 62.424V49.992L307.44 52.8C307.344 52.88 307.232 52.92 307.104 52.92C306.912 52.92 306.752 52.832 306.624 52.656L305.616 51.36C305.536 51.232 305.496 51.112 305.496 51C305.496 50.808 305.584 50.648 305.76 50.52L311.136 46.368C311.28 46.256 311.48 46.2 311.736 46.2H313.848C314.024 46.2 314.16 46.256 314.256 46.368C314.368 46.464 314.424 46.6 314.424 46.776V62.424C314.424 62.584 314.368 62.72 314.256 62.832C314.16 62.944 314.024 63 313.848 63H311.664ZM325.605 63C325.445 63 325.309 62.944 325.197 62.832C325.085 62.72 325.029 62.584 325.029 62.424V59.352H317.421C317.261 59.352 317.125 59.296 317.013 59.184C316.901 59.072 316.845 58.936 316.845 58.776V57.144C316.845 56.888 316.933 56.648 317.109 56.424L324.189 46.608C324.269 46.48 324.389 46.384 324.549 46.32C324.709 46.24 324.885 46.2 325.077 46.2H327.693C327.869 46.2 328.005 46.256 328.101 46.368C328.213 46.464 328.269 46.6 328.269 46.776V56.52H330.405C330.581 56.52 330.725 56.576 330.837 56.688C330.949 56.784 331.005 56.92 331.005 57.096V58.776C331.005 58.936 330.949 59.072 330.837 59.184C330.725 59.296 330.589 59.352 330.429 59.352H328.269V62.424C328.269 62.584 328.213 62.72 328.101 62.832C328.005 62.944 327.869 63 327.693 63H325.605ZM325.101 56.616V49.68L320.181 56.616H325.101ZM339.245 63.24C337.837 63.24 336.637 63.016 335.645 62.568C334.669 62.12 333.933 61.56 333.437 60.888C332.957 60.2 332.701 59.496 332.669 58.776C332.669 58.632 332.717 58.52 332.813 58.44C332.925 58.344 333.053 58.296 333.197 58.296H335.357C335.709 58.296 335.941 58.456 336.053 58.776C336.405 59.928 337.477 60.504 339.269 60.504C340.245 60.504 341.013 60.28 341.573 59.832C342.133 59.368 342.413 58.712 342.413 57.864C342.413 56.264 341.413 55.464 339.413 55.464H336.941C336.765 55.464 336.621 55.408 336.509 55.296C336.397 55.184 336.341 55.048 336.341 54.888V53.88C336.341 53.624 336.453 53.384 336.677 53.16L340.973 48.96H334.109C333.949 48.96 333.813 48.904 333.701 48.792C333.589 48.68 333.533 48.544 333.533 48.384V46.8C333.533 46.624 333.581 46.48 333.677 46.368C333.789 46.256 333.933 46.2 334.109 46.2H344.405C344.581 46.2 344.725 46.256 344.837 46.368C344.949 46.48 345.005 46.624 345.005 46.8V48.24C345.005 48.48 344.901 48.704 344.693 48.912L340.541 53.184L340.829 53.208C342.365 53.336 343.581 53.8 344.477 54.6C345.389 55.4 345.845 56.544 345.845 58.032C345.845 59.088 345.557 60.008 344.981 60.792C344.421 61.576 343.637 62.184 342.629 62.616C341.637 63.032 340.509 63.24 339.245 63.24Z" fill="#4D4E4C"/>
</g>
</svg>
