<svg width="164" height="121" viewBox="0 0 164 121" fill="none" xmlns="http://www.w3.org/2000/svg">
<g id="Group 18">
<path id="Ellipse 12" d="M80.7909 1.25516C121.534 -5.01787 156.782 30.3463 156.614 58.993C156.447 87.6397 123.404 124.559 80.0993 119.748C36.7947 114.938 0.172645 90.0828 0.359422 58.081C0.515217 31.3876 36.9171 0.999089 80.7909 1.25516Z" fill="#BB214C" fill-opacity="0.56"/>
<path id="CONTACTAME" d="M17.14 67.2C15.2333 67.2 13.74 66.74 12.66 65.82C11.5933 64.8867 11.0267 63.54 10.96 61.78C10.9467 61.42 10.94 60.8333 10.94 60.02C10.94 59.1933 10.9467 58.5933 10.96 58.22C11.0267 56.4867 11.6067 55.1533 12.7 54.22C13.7933 53.2733 15.2733 52.8 17.14 52.8C18.3133 52.8 19.3667 53 20.3 53.4C21.2333 53.7867 21.9667 54.3467 22.5 55.08C23.0467 55.8 23.3267 56.6467 23.34 57.62V57.66C23.34 57.7667 23.2933 57.86 23.2 57.94C23.12 58.0067 23.0267 58.04 22.92 58.04H20.22C20.0467 58.04 19.9133 58.0067 19.82 57.94C19.7267 57.86 19.6467 57.72 19.58 57.52C19.3933 56.84 19.1 56.3667 18.7 56.1C18.3 55.82 17.7733 55.68 17.12 55.68C15.5467 55.68 14.7333 56.56 14.68 58.32C14.6667 58.68 14.66 59.2333 14.66 59.98C14.66 60.7267 14.6667 61.2933 14.68 61.68C14.7333 63.44 15.5467 64.32 17.12 64.32C17.7733 64.32 18.3067 64.18 18.72 63.9C19.1333 63.6067 19.42 63.1333 19.58 62.48C19.6333 62.28 19.7067 62.1467 19.8 62.08C19.8933 62 20.0333 61.96 20.22 61.96H22.92C23.04 61.96 23.14 62 23.22 62.08C23.3133 62.16 23.3533 62.26 23.34 62.38C23.3267 63.3533 23.0467 64.2067 22.5 64.94C21.9667 65.66 21.2333 66.22 20.3 66.62C19.3667 67.0067 18.3133 67.2 17.14 67.2ZM31.163 67.2C29.283 67.2 27.803 66.74 26.723 65.82C25.643 64.9 25.0696 63.5467 25.003 61.76C24.9896 61.3733 24.983 60.8 24.983 60.04C24.983 59.2667 24.9896 58.6867 25.003 58.3C25.0696 56.54 25.6496 55.1867 26.743 54.24C27.8496 53.28 29.323 52.8 31.163 52.8C33.003 52.8 34.4763 53.28 35.583 54.24C36.6896 55.1867 37.2696 56.54 37.323 58.3C37.3496 59.0733 37.363 59.6533 37.363 60.04C37.363 60.4133 37.3496 60.9867 37.323 61.76C37.2563 63.5467 36.683 64.9 35.603 65.82C34.523 66.74 33.043 67.2 31.163 67.2ZM31.163 64.32C31.8963 64.32 32.4763 64.1 32.903 63.66C33.343 63.22 33.5763 62.5467 33.603 61.64C33.6296 60.8667 33.643 60.32 33.643 60C33.643 59.6533 33.6296 59.1067 33.603 58.36C33.5763 57.4533 33.343 56.78 32.903 56.34C32.463 55.9 31.883 55.68 31.163 55.68C30.443 55.68 29.863 55.9 29.423 56.34C28.9963 56.78 28.763 57.4533 28.723 58.36C28.7096 58.7333 28.703 59.28 28.703 60C28.703 60.7067 28.7096 61.2533 28.723 61.64C28.763 62.5467 28.9963 63.22 29.423 63.66C29.8496 64.1 30.4296 64.32 31.163 64.32ZM40.1813 67C40.0479 67 39.9279 66.9533 39.8213 66.86C39.7279 66.7533 39.6813 66.6333 39.6813 66.5V53.5C39.6813 53.3533 39.7279 53.2333 39.8213 53.14C39.9279 53.0467 40.0479 53 40.1813 53H42.3013C42.6346 53 42.8613 53.1267 42.9813 53.38L47.8613 61.06V53.5C47.8613 53.3533 47.9079 53.2333 48.0013 53.14C48.1079 53.0467 48.2279 53 48.3613 53H50.7613C50.9079 53 51.0279 53.0467 51.1213 53.14C51.2146 53.2333 51.2613 53.3533 51.2613 53.5V66.48C51.2613 66.6267 51.2146 66.7533 51.1213 66.86C51.0279 66.9533 50.9079 67 50.7613 67H48.6213C48.3279 67 48.1079 66.8733 47.9613 66.62L43.0813 59.22V66.5C43.0813 66.6333 43.0346 66.7533 42.9413 66.86C42.8479 66.9533 42.7279 67 42.5813 67H40.1813ZM57.6363 67C57.5029 67 57.3829 66.9533 57.2763 66.86C57.1829 66.7533 57.1363 66.6333 57.1363 66.5V56.14H53.5763C53.4429 56.14 53.3229 56.0933 53.2163 56C53.1229 55.8933 53.0763 55.7733 53.0763 55.64V53.5C53.0763 53.3533 53.1229 53.2333 53.2163 53.14C53.3229 53.0467 53.4429 53 53.5763 53H64.3363C64.4829 53 64.6029 53.0467 64.6963 53.14C64.7896 53.2333 64.8363 53.3533 64.8363 53.5V55.64C64.8363 55.7867 64.7896 55.9067 64.6963 56C64.6029 56.0933 64.4829 56.14 64.3363 56.14H60.7763V66.5C60.7763 66.6333 60.7296 66.7533 60.6363 66.86C60.5429 66.9533 60.4229 67 60.2763 67H57.6363ZM64.4281 67C64.3215 67 64.2215 66.96 64.1281 66.88C64.0481 66.7867 64.0081 66.6867 64.0081 66.58C64.0081 66.5 64.0148 66.44 64.0281 66.4L68.7281 53.56C68.7681 53.4 68.8548 53.2667 68.9881 53.16C69.1215 53.0533 69.2948 53 69.5081 53H72.4681C72.6815 53 72.8548 53.0533 72.9881 53.16C73.1215 53.2667 73.2081 53.4 73.2481 53.56L77.9281 66.4L77.9681 66.58C77.9681 66.6867 77.9215 66.7867 77.8281 66.88C77.7481 66.96 77.6481 67 77.5281 67H75.0681C74.7481 67 74.5348 66.86 74.4281 66.58L73.6481 64.54H68.3081L67.5481 66.58C67.4415 66.86 67.2215 67 66.8881 67H64.4281ZM72.8481 61.66L70.9881 56.38L69.1281 61.66H72.8481ZM84.9916 67.2C83.0849 67.2 81.5916 66.74 80.5116 65.82C79.4449 64.8867 78.8782 63.54 78.8116 61.78C78.7982 61.42 78.7916 60.8333 78.7916 60.02C78.7916 59.1933 78.7982 58.5933 78.8116 58.22C78.8782 56.4867 79.4582 55.1533 80.5516 54.22C81.6449 53.2733 83.1249 52.8 84.9916 52.8C86.1649 52.8 87.2182 53 88.1516 53.4C89.0849 53.7867 89.8182 54.3467 90.3516 55.08C90.8982 55.8 91.1782 56.6467 91.1916 57.62V57.66C91.1916 57.7667 91.1449 57.86 91.0516 57.94C90.9716 58.0067 90.8782 58.04 90.7716 58.04H88.0716C87.8982 58.04 87.7649 58.0067 87.6716 57.94C87.5782 57.86 87.4982 57.72 87.4316 57.52C87.2449 56.84 86.9516 56.3667 86.5516 56.1C86.1516 55.82 85.6249 55.68 84.9716 55.68C83.3982 55.68 82.5849 56.56 82.5316 58.32C82.5182 58.68 82.5116 59.2333 82.5116 59.98C82.5116 60.7267 82.5182 61.2933 82.5316 61.68C82.5849 63.44 83.3982 64.32 84.9716 64.32C85.6249 64.32 86.1582 64.18 86.5716 63.9C86.9849 63.6067 87.2716 63.1333 87.4316 62.48C87.4849 62.28 87.5582 62.1467 87.6516 62.08C87.7449 62 87.8849 61.96 88.0716 61.96H90.7716C90.8916 61.96 90.9916 62 91.0716 62.08C91.1649 62.16 91.2049 62.26 91.1916 62.38C91.1782 63.3533 90.8982 64.2067 90.3516 64.94C89.8182 65.66 89.0849 66.22 88.1516 66.62C87.2182 67.0067 86.1649 67.2 84.9916 67.2ZM96.8745 67C96.7412 67 96.6212 66.9533 96.5145 66.86C96.4212 66.7533 96.3745 66.6333 96.3745 66.5V56.14H92.8145C92.6812 56.14 92.5612 56.0933 92.4545 56C92.3612 55.8933 92.3145 55.7733 92.3145 55.64V53.5C92.3145 53.3533 92.3612 53.2333 92.4545 53.14C92.5612 53.0467 92.6812 53 92.8145 53H103.575C103.721 53 103.841 53.0467 103.935 53.14C104.028 53.2333 104.075 53.3533 104.075 53.5V55.64C104.075 55.7867 104.028 55.9067 103.935 56C103.841 56.0933 103.721 56.14 103.575 56.14H100.015V66.5C100.015 66.6333 99.9679 66.7533 99.8745 66.86C99.7812 66.9533 99.6612 67 99.5145 67H96.8745ZM103.666 67C103.56 67 103.46 66.96 103.366 66.88C103.286 66.7867 103.246 66.6867 103.246 66.58C103.246 66.5 103.253 66.44 103.266 66.4L107.966 53.56C108.006 53.4 108.093 53.2667 108.226 53.16C108.36 53.0533 108.533 53 108.746 53H111.706C111.92 53 112.093 53.0533 112.226 53.16C112.36 53.2667 112.446 53.4 112.486 53.56L117.166 66.4L117.206 66.58C117.206 66.6867 117.16 66.7867 117.066 66.88C116.986 66.96 116.886 67 116.766 67H114.306C113.986 67 113.773 66.86 113.666 66.58L112.886 64.54H107.546L106.786 66.58C106.68 66.86 106.46 67 106.126 67H103.666ZM112.086 61.66L110.226 56.38L108.366 61.66H112.086ZM119.283 67C119.149 67 119.029 66.9533 118.923 66.86C118.829 66.7533 118.783 66.6333 118.783 66.5V53.5C118.783 53.3533 118.829 53.2333 118.923 53.14C119.029 53.0467 119.149 53 119.283 53H121.443C121.763 53 121.996 53.1467 122.143 53.44L125.663 59.74L129.183 53.44C129.329 53.1467 129.563 53 129.883 53H132.023C132.169 53 132.289 53.0467 132.383 53.14C132.489 53.2333 132.543 53.3533 132.543 53.5V66.5C132.543 66.6467 132.489 66.7667 132.383 66.86C132.289 66.9533 132.169 67 132.023 67H129.643C129.496 67 129.369 66.9533 129.263 66.86C129.169 66.7667 129.123 66.6467 129.123 66.5V59L126.883 63.18C126.709 63.4867 126.476 63.64 126.183 63.64H125.143C124.969 63.64 124.829 63.6 124.723 63.52C124.616 63.44 124.523 63.3267 124.443 63.18L122.183 59V66.5C122.183 66.6333 122.136 66.7533 122.043 66.86C121.949 66.9533 121.829 67 121.683 67H119.283ZM135.845 67C135.712 67 135.592 66.9533 135.485 66.86C135.392 66.7533 135.345 66.6333 135.345 66.5V53.5C135.345 53.3533 135.392 53.2333 135.485 53.14C135.592 53.0467 135.712 53 135.845 53H145.185C145.332 53 145.452 53.0467 145.545 53.14C145.639 53.2333 145.685 53.3533 145.685 53.5V55.38C145.685 55.5133 145.639 55.6333 145.545 55.74C145.452 55.8333 145.332 55.88 145.185 55.88H138.805V58.58H144.745C144.892 58.58 145.012 58.6333 145.105 58.74C145.199 58.8333 145.245 58.9533 145.245 59.1V60.84C145.245 60.9733 145.199 61.0933 145.105 61.2C145.012 61.2933 144.892 61.34 144.745 61.34H138.805V64.12H145.345C145.492 64.12 145.612 64.1667 145.705 64.26C145.799 64.3533 145.845 64.4733 145.845 64.62V66.5C145.845 66.6333 145.799 66.7533 145.705 66.86C145.612 66.9533 145.492 67 145.345 67H135.845Z" fill="#EFE8E0"/>
</g>
</svg>
