<svg width="848" height="105" viewBox="0 0 848 105" fill="none" xmlns="http://www.w3.org/2000/svg">
<path id="DEVELOPER" d="M3.68 103C2.72 103 1.856 102.664 1.088 101.992C0.416 101.224 0.08 100.36 0.08 99.4V5.8C0.08 4.74399 0.416 3.87999 1.088 3.208C1.856 2.53599 2.72 2.19999 3.68 2.19999H41.12C55.232 2.19999 66.176 5.55999 73.952 12.28C81.728 19 85.808 28.744 86.192 41.512C86.288 44.296 86.336 47.992 86.336 52.6C86.336 57.208 86.288 60.856 86.192 63.544C85.712 76.888 81.728 86.824 74.24 93.352C66.848 99.784 56.048 103 41.84 103H3.68ZM41.12 82.264C47.456 82.264 52.112 80.776 55.088 77.8C58.064 74.728 59.648 69.88 59.84 63.256C60.032 60.472 60.128 56.872 60.128 52.456C60.128 48.04 60.032 44.488 59.84 41.8C59.648 35.368 57.92 30.616 54.656 27.544C51.488 24.472 46.736 22.936 40.4 22.936H26V82.264H41.12ZM106.758 103C105.798 103 104.934 102.664 104.166 101.992C103.494 101.224 103.158 100.36 103.158 99.4V5.8C103.158 4.74399 103.494 3.87999 104.166 3.208C104.934 2.53599 105.798 2.19999 106.758 2.19999H174.006C175.062 2.19999 175.926 2.53599 176.598 3.208C177.27 3.87999 177.606 4.74399 177.606 5.8V19.336C177.606 20.296 177.27 21.16 176.598 21.928C175.926 22.6 175.062 22.936 174.006 22.936H128.07V42.376H170.838C171.894 42.376 172.758 42.76 173.43 43.528C174.102 44.2 174.438 45.064 174.438 46.12V58.648C174.438 59.608 174.102 60.472 173.43 61.24C172.758 61.912 171.894 62.248 170.838 62.248H128.07V82.264H175.158C176.214 82.264 177.078 82.6 177.75 83.272C178.422 83.944 178.758 84.808 178.758 85.864V99.4C178.758 100.36 178.422 101.224 177.75 101.992C177.078 102.664 176.214 103 175.158 103H106.758ZM223.364 103C220.292 103 218.324 101.56 217.46 98.68L188.084 6.52L187.796 5.224C187.796 4.456 188.084 3.784 188.66 3.208C189.332 2.53599 190.1 2.19999 190.964 2.19999H208.82C210.164 2.19999 211.268 2.58399 212.132 3.352C213.092 4.12 213.716 4.984 214.004 5.944L234.452 72.472L254.756 5.944C255.044 4.984 255.62 4.12 256.484 3.352C257.444 2.58399 258.596 2.19999 259.94 2.19999H277.94C278.708 2.19999 279.38 2.53599 279.956 3.208C280.628 3.784 280.964 4.456 280.964 5.224L280.676 6.52L251.3 98.68C250.436 101.56 248.468 103 245.396 103H223.364ZM298.008 103C297.048 103 296.184 102.664 295.416 101.992C294.744 101.224 294.408 100.36 294.408 99.4V5.8C294.408 4.74399 294.744 3.87999 295.416 3.208C296.184 2.53599 297.048 2.19999 298.008 2.19999H365.256C366.312 2.19999 367.176 2.53599 367.848 3.208C368.52 3.87999 368.856 4.74399 368.856 5.8V19.336C368.856 20.296 368.52 21.16 367.848 21.928C367.176 22.6 366.312 22.936 365.256 22.936H319.32V42.376H362.088C363.144 42.376 364.008 42.76 364.68 43.528C365.352 44.2 365.688 45.064 365.688 46.12V58.648C365.688 59.608 365.352 60.472 364.68 61.24C364.008 61.912 363.144 62.248 362.088 62.248H319.32V82.264H366.408C367.464 82.264 368.328 82.6 369 83.272C369.672 83.944 370.008 84.808 370.008 85.864V99.4C370.008 100.36 369.672 101.224 369 101.992C368.328 102.664 367.464 103 366.408 103H298.008ZM389.977 103C389.017 103 388.153 102.664 387.385 101.992C386.713 101.224 386.377 100.36 386.377 99.4V5.8C386.377 4.74399 386.713 3.87999 387.385 3.208C388.153 2.53599 389.017 2.19999 389.977 2.19999H408.985C410.041 2.19999 410.905 2.53599 411.577 3.208C412.249 3.87999 412.585 4.74399 412.585 5.8V81.256H456.217C457.273 81.256 458.137 81.64 458.809 82.408C459.481 83.08 459.817 83.944 459.817 85V99.4C459.817 100.36 459.481 101.224 458.809 101.992C458.137 102.664 457.273 103 456.217 103H389.977ZM512.217 104.44C498.681 104.44 488.025 101.128 480.249 94.504C472.473 87.88 468.345 78.136 467.865 65.272C467.769 62.488 467.721 58.36 467.721 52.888C467.721 47.32 467.769 43.144 467.865 40.36C468.345 27.688 472.521 17.944 480.393 11.128C488.361 4.216 498.969 0.759995 512.217 0.759995C525.465 0.759995 536.073 4.216 544.041 11.128C552.009 17.944 556.185 27.688 556.569 40.36C556.761 45.928 556.857 50.104 556.857 52.888C556.857 55.576 556.761 59.704 556.569 65.272C556.089 78.136 551.961 87.88 544.185 94.504C536.409 101.128 525.753 104.44 512.217 104.44ZM512.217 83.704C517.497 83.704 521.673 82.12 524.745 78.952C527.913 75.784 529.593 70.936 529.785 64.408C529.977 58.84 530.073 54.904 530.073 52.6C530.073 50.104 529.977 46.168 529.785 40.792C529.593 34.264 527.913 29.416 524.745 26.248C521.577 23.08 517.401 21.496 512.217 21.496C507.033 21.496 502.857 23.08 499.689 26.248C496.617 29.416 494.937 34.264 494.649 40.792C494.553 43.48 494.505 47.416 494.505 52.6C494.505 57.688 494.553 61.624 494.649 64.408C494.937 70.936 496.617 75.784 499.689 78.952C502.761 82.12 506.937 83.704 512.217 83.704ZM577.149 103C576.189 103 575.325 102.664 574.557 101.992C573.885 101.224 573.549 100.36 573.549 99.4V5.8C573.549 4.74399 573.885 3.87999 574.557 3.208C575.325 2.53599 576.189 2.19999 577.149 2.19999H617.469C629.757 2.19999 639.405 5.03199 646.413 10.696C653.517 16.36 657.069 24.616 657.069 35.464C657.069 46.216 653.565 54.328 646.557 59.8C639.549 65.176 629.853 67.864 617.469 67.864H600.333V99.4C600.333 100.456 599.949 101.32 599.181 101.992C598.509 102.664 597.645 103 596.589 103H577.149ZM616.749 47.992C620.973 47.992 624.285 46.936 626.685 44.824C629.085 42.616 630.285 39.4 630.285 35.176C630.285 31.24 629.133 28.12 626.829 25.816C624.621 23.416 621.261 22.216 616.749 22.216H599.901V47.992H616.749ZM674.461 103C673.501 103 672.637 102.664 671.869 101.992C671.197 101.224 670.861 100.36 670.861 99.4V5.8C670.861 4.74399 671.197 3.87999 671.869 3.208C672.637 2.53599 673.501 2.19999 674.461 2.19999H741.709C742.765 2.19999 743.629 2.53599 744.301 3.208C744.973 3.87999 745.309 4.74399 745.309 5.8V19.336C745.309 20.296 744.973 21.16 744.301 21.928C743.629 22.6 742.765 22.936 741.709 22.936H695.773V42.376H738.541C739.597 42.376 740.461 42.76 741.133 43.528C741.805 44.2 742.141 45.064 742.141 46.12V58.648C742.141 59.608 741.805 60.472 741.133 61.24C740.461 61.912 739.597 62.248 738.541 62.248H695.773V82.264H742.861C743.917 82.264 744.781 82.6 745.453 83.272C746.125 83.944 746.461 84.808 746.461 85.864V99.4C746.461 100.36 746.125 101.224 745.453 101.992C744.781 102.664 743.917 103 742.861 103H674.461ZM766.43 103C765.47 103 764.606 102.664 763.838 101.992C763.166 101.224 762.83 100.36 762.83 99.4V5.8C762.83 4.74399 763.166 3.87999 763.838 3.208C764.606 2.53599 765.47 2.19999 766.43 2.19999H805.598C818.174 2.19999 827.966 5.07999 834.974 10.84C842.078 16.504 845.63 24.568 845.63 35.032C845.63 41.752 844.046 47.464 840.878 52.168C837.71 56.872 833.342 60.472 827.774 62.968L847.502 98.392C847.79 98.968 847.934 99.496 847.934 99.976C847.934 100.744 847.598 101.464 846.926 102.136C846.35 102.712 845.678 103 844.91 103H825.758C822.974 103 821.006 101.704 819.854 99.112L803.438 67.432H788.75V99.4C788.75 100.456 788.366 101.32 787.598 101.992C786.926 102.664 786.062 103 785.006 103H766.43ZM805.31 46.984C809.726 46.984 813.086 45.928 815.39 43.816C817.694 41.608 818.846 38.584 818.846 34.744C818.846 30.904 817.694 27.88 815.39 25.672C813.182 23.368 809.822 22.216 805.31 22.216H788.75V46.984H805.31Z" fill="#C21E4E"/>
</svg>
