<svg width="191" height="79" viewBox="0 0 191 79" fill="none" xmlns="http://www.w3.org/2000/svg">
<path id="END" d="M7.20106 78.4875C6.56253 78.5309 5.97267 78.3465 5.43148 77.9342C4.94979 77.4538 4.68725 76.8943 4.64386 76.2558L0.41311 13.9993C0.365378 13.297 0.54981 12.7071 0.966405 12.2298C1.44685 11.7481 2.00634 11.4855 2.64487 11.4421L47.3737 8.40251C48.0761 8.35478 48.6659 8.53922 49.1433 8.95581C49.6206 9.3724 49.8832 9.93189 49.9309 10.6343L50.5427 19.6375C50.5861 20.276 50.4017 20.8659 49.9894 21.4071C49.5728 21.8844 49.0134 22.147 48.311 22.1947L17.7574 24.271L18.6361 37.2012L47.0825 35.2681C47.7849 35.2203 48.3769 35.4367 48.8586 35.9172C49.336 36.3337 49.5985 36.8932 49.6462 37.5956L50.2125 45.9284C50.2559 46.5669 50.0715 47.1568 49.6592 47.698C49.2426 48.1753 48.6831 48.4379 47.9808 48.4856L19.5344 50.4187L20.4391 63.732L51.7589 61.6036C52.4612 61.5559 53.0511 61.7403 53.5284 62.1569C54.0058 62.5735 54.2683 63.133 54.3161 63.8354L54.9279 72.8386C54.9713 73.4771 54.7868 74.067 54.3746 74.6082C53.958 75.0855 53.3985 75.3481 52.6961 75.3958L7.20106 78.4875ZM68.3725 74.3305C67.7339 74.3739 67.1441 74.1895 66.6029 73.7772C66.1212 73.2968 65.8587 72.7373 65.8153 72.0987L61.5845 9.84233C61.5368 9.13995 61.7212 8.55009 62.1378 8.07274C62.6183 7.59106 63.1778 7.32852 63.8163 7.28513L73.9689 6.59519C75.5652 6.48671 76.6919 7.01954 77.349 8.19369L103.219 43.3847L100.758 7.18021C100.71 6.47783 100.895 5.88797 101.311 5.41062C101.792 4.92894 102.351 4.6664 102.99 4.62301L114.483 3.84195C115.186 3.79421 115.776 3.97865 116.253 4.39524C116.73 4.81184 116.993 5.37132 117.041 6.07371L121.265 68.2343C121.313 68.9367 121.13 69.5585 120.718 70.0997C120.301 70.577 119.742 70.8396 119.04 70.8873L108.791 71.5838C107.386 71.6792 106.292 71.1442 105.507 69.9788L79.7285 36.1286L82.0977 70.9922C82.1411 71.6308 81.9567 72.2206 81.5444 72.7618C81.1278 73.2392 80.5683 73.5017 79.866 73.5494L68.3725 74.3305ZM137.214 69.6523C136.575 69.6957 135.985 69.5112 135.444 69.099C134.962 68.6185 134.7 68.059 134.657 67.4205L130.426 5.16409C130.378 4.46171 130.562 3.87185 130.979 3.39451C131.459 2.91282 132.019 2.65028 132.658 2.60689L157.56 0.914591C166.946 0.276723 174.378 2.0169 179.853 6.13511C185.329 10.2533 188.483 16.55 189.316 25.025C189.506 26.8724 189.705 29.3286 189.913 32.3935C190.121 35.4584 190.254 37.887 190.312 39.6792C190.596 48.5764 188.395 55.3653 183.709 60.0457C179.083 64.658 172.045 67.2852 162.595 67.9274L137.214 69.6523ZM161.179 54.1678C165.393 53.8814 168.423 52.6812 170.268 50.5673C172.108 48.3895 172.943 45.0933 172.771 40.6788C172.773 38.8184 172.674 36.4196 172.474 33.4823C172.275 30.5451 172.05 28.1869 171.801 26.4077C171.383 22.1382 170.019 19.0556 167.709 17.1599C165.463 15.2598 162.233 14.4529 158.018 14.7393L148.441 15.3902L151.122 54.8512L161.179 54.1678Z" fill="#605454"/>
</svg>
