<svg width="1099" height="153" viewBox="0 0 1099 153" fill="none" xmlns="http://www.w3.org/2000/svg">
<g id="Group 19">
<path id="PROYECTOS" d="M15.1998 150.007C14.1332 150.007 13.1733 149.633 12.3204 148.886C11.5741 148.032 11.2013 147.072 11.2018 146.005L11.2527 42.0055C11.2533 40.8321 11.6271 39.8723 12.3741 39.126C13.2278 38.3798 14.188 38.0069 15.2546 38.0074L60.0546 38.0294C73.708 38.036 84.4264 41.188 92.21 47.4851C100.1 53.7823 104.042 62.9576 104.037 75.0109C104.031 86.9576 100.133 95.969 92.3433 102.045C84.5537 108.015 73.7789 110.996 60.0189 110.989L40.9789 110.98L40.9618 146.02C40.9612 147.193 40.5341 148.153 39.6804 148.899C38.9333 149.646 37.9732 150.019 36.7998 150.018L15.1998 150.007ZM59.2297 88.909C63.9231 88.9113 67.6036 87.7397 70.2715 85.3944C72.9393 82.9423 74.2744 79.3697 74.2767 74.6763C74.2788 70.303 73.0005 66.8357 70.4418 64.2745C67.9898 61.6066 64.2571 60.2714 59.2438 60.269L40.5238 60.2598L40.5097 88.8998L59.2297 88.909ZM123.325 150.06C122.258 150.06 121.298 149.686 120.445 148.939C119.699 148.085 119.326 147.125 119.327 146.058L119.378 42.0584C119.378 40.8851 119.752 39.9252 120.499 39.1789C121.353 38.4327 122.313 38.0598 123.38 38.0604L166.9 38.0817C180.873 38.0885 191.751 41.2938 199.535 47.6976C207.425 53.9948 211.367 62.9568 211.362 74.5834C211.358 82.0501 209.595 88.3959 206.072 93.6208C202.55 98.8458 197.695 102.843 191.507 105.614L213.407 144.984C213.727 145.625 213.887 146.211 213.886 146.745C213.886 147.598 213.512 148.398 212.765 149.144C212.125 149.784 211.378 150.103 210.525 150.103L189.245 150.093C186.151 150.091 183.966 148.65 182.687 145.769L164.464 110.56L148.144 110.552L148.127 146.072C148.126 147.246 147.699 148.206 146.845 148.952C146.098 149.698 145.138 150.071 143.965 150.07L123.325 150.06ZM166.555 87.8415C171.462 87.8439 175.196 86.6724 177.757 84.327C180.318 81.8749 181.6 78.5155 181.602 74.2489C181.604 69.9822 180.326 66.6216 177.767 64.167C175.315 61.6058 171.582 60.324 166.569 60.3215L148.169 60.3125L148.155 87.8325L166.555 87.8415ZM275.24 151.735C260.2 151.727 248.362 148.042 239.726 140.677C231.089 133.313 226.508 122.484 225.982 108.191C225.876 105.097 225.825 100.511 225.828 94.4305C225.831 88.2438 225.887 83.6039 225.995 80.5106C226.535 66.4309 231.181 55.6065 239.931 48.0374C248.788 40.3617 260.577 36.5275 275.297 36.5347C290.017 36.5419 301.801 40.3877 310.651 48.072C319.501 55.6497 324.135 66.4786 324.555 80.5588C324.765 86.7456 324.87 91.3857 324.868 94.479C324.867 97.4657 324.758 102.052 324.542 108.239C324.001 122.532 319.409 133.356 310.766 140.712C302.122 148.068 290.28 151.742 275.24 151.735ZM275.252 128.695C281.118 128.698 285.759 126.94 289.174 123.422C292.696 119.903 294.565 114.518 294.782 107.264C294.998 101.078 295.107 96.7044 295.108 94.1444C295.11 91.3711 295.005 86.9977 294.795 81.0243C294.585 73.7708 292.721 68.3833 289.203 64.8615C285.685 61.3398 281.045 59.5775 275.285 59.5747C269.525 59.5719 264.885 61.3296 261.363 64.8479C257.948 68.3662 256.078 73.752 255.755 81.0052C255.647 83.9918 255.591 88.3651 255.588 94.1251C255.586 99.7784 255.637 104.152 255.742 107.245C256.058 114.499 257.923 119.886 261.334 123.408C264.746 126.93 269.385 128.692 275.252 128.695ZM371.031 150.182C369.964 150.181 369.005 149.807 368.152 149.06C367.405 148.206 367.032 147.246 367.033 146.18L367.05 111.78L329.963 43.2815C329.644 42.3213 329.484 41.7346 329.484 41.5212C329.485 40.6679 329.805 39.9214 330.445 39.2817C331.192 38.5354 332.046 38.1625 333.006 38.163L353.006 38.1728C355.139 38.1738 357.005 39.2947 358.604 41.5355L381.464 82.8267L404.524 41.558C405.805 39.3186 407.673 38.1995 410.126 38.2007L430.126 38.2105C431.086 38.211 431.886 38.5847 432.525 39.3317C433.165 39.972 433.485 40.7188 433.484 41.5721C433.484 42.1055 433.377 42.6921 433.163 43.332L396.01 111.794L395.993 146.194C395.992 147.367 395.565 148.327 394.712 149.073C393.965 149.819 393.004 150.192 391.831 150.192L371.031 150.182ZM451.137 150.221C450.071 150.22 449.111 149.846 448.258 149.099C447.512 148.246 447.139 147.286 447.139 146.219L447.19 42.2189C447.191 41.0455 447.565 40.0857 448.312 39.3394C449.165 38.5932 450.125 38.2203 451.192 38.2208L525.912 38.2574C527.085 38.258 528.045 38.6318 528.792 39.3788C529.538 40.1258 529.911 41.086 529.91 42.2593L529.903 57.2993C529.902 58.366 529.528 59.3258 528.781 60.1788C528.034 60.9251 527.074 61.298 525.901 61.2974L474.861 61.2724L474.85 82.8724L522.37 82.8957C523.544 82.8962 524.503 83.3234 525.25 84.1771C525.996 84.9241 526.369 85.8843 526.368 87.0576L526.361 100.978C526.361 102.044 525.987 103.004 525.24 103.857C524.493 104.603 523.533 104.976 522.359 104.976L474.839 104.952L474.829 127.192L527.149 127.218C528.322 127.219 529.282 127.592 530.028 128.339C530.774 129.086 531.147 130.047 531.147 131.22L531.139 146.26C531.139 147.327 530.765 148.286 530.018 149.139C529.271 149.886 528.311 150.259 527.137 150.258L451.137 150.221ZM594.307 151.891C579.053 151.883 567.108 148.198 558.472 140.833C549.942 133.363 545.414 122.587 544.888 108.507C544.782 105.627 544.731 100.933 544.735 94.4266C544.738 87.8133 544.794 83.0133 544.902 80.0267C545.442 66.1603 550.087 55.4959 558.837 48.0335C567.588 40.4645 579.43 36.6836 594.363 36.6909C603.75 36.6955 612.175 38.2996 619.641 41.5033C627.106 44.6003 632.97 49.0831 637.234 54.9519C641.604 60.714 643.841 67.4884 643.944 75.2752L643.944 75.5952C643.943 76.4485 643.57 77.195 642.823 77.8346C642.183 78.3676 641.436 78.6339 640.582 78.6335L618.982 78.623C617.596 78.6223 616.529 78.3551 615.783 77.8214C615.036 77.181 614.397 76.0607 613.864 74.4604C612.374 69.0197 610.029 65.2319 606.83 63.097C603.631 60.8554 599.418 59.7334 594.192 59.7308C581.605 59.7246 575.095 66.7615 574.661 80.8413C574.553 83.7212 574.498 88.1478 574.495 94.1212C574.492 100.095 574.543 104.628 574.648 107.721C575.068 121.801 581.571 128.845 594.158 128.851C599.384 128.853 603.652 127.735 606.959 125.497C610.267 123.152 612.562 119.366 613.845 114.14C614.272 112.541 614.86 111.474 615.607 110.941C616.354 110.302 617.474 109.982 618.967 109.983L640.567 109.994C641.527 109.994 642.327 110.314 642.967 110.955C643.713 111.595 644.033 112.395 643.925 113.355C643.815 121.142 641.572 127.967 637.195 133.832C632.926 139.59 627.057 144.067 619.589 147.263C612.121 150.353 603.693 151.895 594.307 151.891ZM689.371 150.337C688.304 150.337 687.345 149.963 686.492 149.216C685.745 148.362 685.372 147.402 685.373 146.335L685.414 63.4555L656.934 63.4415C655.867 63.441 654.907 63.0672 654.054 62.3201C653.308 61.4664 652.935 60.5062 652.936 59.4396L652.944 42.3196C652.944 41.1462 653.318 40.1864 654.065 39.4401C654.919 38.6939 655.879 38.321 656.946 38.3215L743.026 38.3637C744.199 38.3642 745.159 38.738 745.905 39.4851C746.652 40.2321 747.024 41.1923 747.024 42.3656L747.016 59.4856C747.015 60.6589 746.641 61.6188 745.894 62.3651C745.147 63.1114 744.187 63.4842 743.014 63.4837L714.534 63.4697L714.493 146.35C714.492 147.416 714.119 148.376 713.372 149.229C712.625 149.975 711.664 150.348 710.491 150.348L689.371 150.337ZM805.553 151.994C790.513 151.987 778.675 148.301 770.038 140.937C761.402 133.573 756.82 122.744 756.294 108.45C756.189 105.357 756.138 100.77 756.141 94.6901C756.144 88.5034 756.199 83.8635 756.308 80.7702C756.848 66.6904 761.493 55.866 770.243 48.297C779.101 40.6213 790.889 36.7871 805.609 36.7943C820.329 36.8015 832.114 40.6473 840.963 48.3316C849.813 55.9093 854.448 66.7382 854.868 80.8184C855.078 87.0052 855.182 91.6452 855.181 94.7386C855.179 97.7252 855.07 102.312 854.854 108.498C854.314 122.791 849.722 133.616 841.078 140.972C832.435 148.327 820.593 152.002 805.553 151.994ZM805.564 128.954C811.431 128.957 816.072 127.199 819.487 123.681C823.008 120.163 824.878 114.777 825.095 107.524C825.311 101.337 825.42 96.964 825.421 94.404C825.422 91.6307 825.318 87.2573 825.107 81.2838C824.898 74.0304 823.034 68.6428 819.515 65.1211C815.997 61.5994 811.358 59.8371 805.598 59.8343C799.838 59.8315 795.197 61.5892 791.675 65.1075C788.26 68.6258 786.391 74.0116 786.067 81.2647C785.959 84.2514 785.904 88.6247 785.901 94.3847C785.898 100.038 785.949 104.411 786.055 107.505C786.371 114.758 788.235 120.146 791.647 123.667C795.058 127.189 799.697 128.951 805.564 128.954ZM915.459 152.048C905.326 152.043 896.633 150.546 889.381 147.555C882.129 144.565 876.638 140.669 872.907 135.867C869.283 130.959 867.365 125.625 867.155 119.864C867.155 119.011 867.476 118.265 868.116 117.625C868.863 116.879 869.716 116.506 870.676 116.506L890.836 116.516C892.116 116.517 893.13 116.784 893.876 117.318C894.729 117.745 895.582 118.438 896.435 119.399C897.82 122.173 900.059 124.467 903.152 126.282C906.244 128.097 910.35 129.006 915.47 129.008C921.55 129.011 926.191 128.053 929.392 126.135C932.593 124.216 934.194 121.604 934.196 118.297C934.197 115.951 933.344 114.03 931.638 112.536C930.039 111.042 927.48 109.707 923.96 108.532C920.441 107.357 915.215 106.021 908.282 104.525C895.484 101.852 885.885 97.9536 879.488 92.8305C873.197 87.6007 870.054 80.1858 870.059 70.5858C870.062 64.0792 871.878 58.2667 875.507 53.1485C879.137 48.0303 884.312 44.0328 891.033 41.1561C897.755 38.2794 905.595 36.8432 914.555 36.8476C923.835 36.8522 931.888 38.4561 938.713 41.6594C945.538 44.8628 950.709 48.9187 954.227 53.827C957.851 58.6288 959.769 63.3764 959.98 68.0699C959.98 69.0299 959.659 69.8297 959.019 70.4694C958.379 71.1091 957.578 71.4287 956.618 71.4282L935.498 71.4179C934.218 71.4173 933.152 71.2034 932.299 70.7763C931.552 70.3493 930.859 69.6556 930.22 68.6953C929.581 66.2416 927.822 64.1608 924.943 62.4527C922.17 60.7447 918.704 59.8897 914.544 59.8876C909.744 59.8853 906.064 60.7368 903.503 62.4422C900.942 64.1476 899.661 66.6537 899.659 69.9603C899.658 72.2003 900.35 74.0673 901.736 75.5614C903.229 77.0554 905.575 78.4432 908.774 79.7248C912.08 80.8997 916.773 82.1287 922.853 83.4117C932.772 85.2299 940.664 87.5271 946.529 90.3033C952.501 92.9729 956.873 96.495 959.644 100.87C962.415 105.138 963.799 110.525 963.796 117.032C963.793 124.178 961.71 130.417 957.547 135.749C953.491 140.973 947.782 145.024 940.421 147.9C933.166 150.67 924.846 152.053 915.459 152.048Z" fill="#C21E4E"/>
</g>
</svg>
