<svg width="472" height="105" viewBox="0 0 472 105" fill="none" xmlns="http://www.w3.org/2000/svg">
<path id="FRONT" d="M3.68 103C2.72 103 1.856 102.664 1.088 101.992C0.416 101.224 0.08 100.36 0.08 99.4V5.8C0.08 4.74399 0.416 3.87999 1.088 3.208C1.856 2.53599 2.72 2.19999 3.68 2.19999H69.92C70.976 2.19999 71.84 2.53599 72.512 3.208C73.184 3.87999 73.52 4.74399 73.52 5.8V20.344C73.52 21.304 73.184 22.168 72.512 22.936C71.84 23.608 70.976 23.944 69.92 23.944H25.424V45.112H67.04C68.096 45.112 68.96 45.496 69.632 46.264C70.304 46.936 70.64 47.8 70.64 48.856V63.256C70.64 64.216 70.304 65.08 69.632 65.848C68.96 66.52 68.096 66.856 67.04 66.856H25.424V99.4C25.424 100.456 25.088 101.32 24.416 101.992C23.744 102.664 22.88 103 21.824 103H3.68ZM92.6956 103C91.7356 103 90.8716 102.664 90.1036 101.992C89.4316 101.224 89.0956 100.36 89.0956 99.4V5.8C89.0956 4.74399 89.4316 3.87999 90.1036 3.208C90.8716 2.53599 91.7356 2.19999 92.6956 2.19999H131.864C144.44 2.19999 154.232 5.07999 161.24 10.84C168.344 16.504 171.896 24.568 171.896 35.032C171.896 41.752 170.312 47.464 167.144 52.168C163.976 56.872 159.608 60.472 154.04 62.968L173.768 98.392C174.056 98.968 174.2 99.496 174.2 99.976C174.2 100.744 173.864 101.464 173.192 102.136C172.616 102.712 171.944 103 171.176 103H152.024C149.24 103 147.272 101.704 146.12 99.112L129.704 67.432H115.016V99.4C115.016 100.456 114.632 101.32 113.864 101.992C113.192 102.664 112.328 103 111.272 103H92.6956ZM131.576 46.984C135.992 46.984 139.352 45.928 141.656 43.816C143.96 41.608 145.112 38.584 145.112 34.744C145.112 30.904 143.96 27.88 141.656 25.672C139.448 23.368 136.088 22.216 131.576 22.216H115.016V46.984H131.576ZM229.42 104.44C215.884 104.44 205.228 101.128 197.452 94.504C189.676 87.88 185.548 78.136 185.068 65.272C184.972 62.488 184.924 58.36 184.924 52.888C184.924 47.32 184.972 43.144 185.068 40.36C185.548 27.688 189.724 17.944 197.596 11.128C205.564 4.216 216.172 0.759995 229.42 0.759995C242.668 0.759995 253.276 4.216 261.244 11.128C269.212 17.944 273.388 27.688 273.772 40.36C273.964 45.928 274.06 50.104 274.06 52.888C274.06 55.576 273.964 59.704 273.772 65.272C273.292 78.136 269.164 87.88 261.388 94.504C253.612 101.128 242.956 104.44 229.42 104.44ZM229.42 83.704C234.7 83.704 238.876 82.12 241.948 78.952C245.116 75.784 246.796 70.936 246.988 64.408C247.18 58.84 247.276 54.904 247.276 52.6C247.276 50.104 247.18 46.168 246.988 40.792C246.796 34.264 245.116 29.416 241.948 26.248C238.78 23.08 234.604 21.496 229.42 21.496C224.236 21.496 220.06 23.08 216.892 26.248C213.82 29.416 212.14 34.264 211.852 40.792C211.756 43.48 211.708 47.416 211.708 52.6C211.708 57.688 211.756 61.624 211.852 64.408C212.14 70.936 213.82 75.784 216.892 78.952C219.964 82.12 224.14 83.704 229.42 83.704ZM294.352 103C293.392 103 292.528 102.664 291.76 101.992C291.088 101.224 290.752 100.36 290.752 99.4V5.8C290.752 4.74399 291.088 3.87999 291.76 3.208C292.528 2.53599 293.392 2.19999 294.352 2.19999H309.616C312.016 2.19999 313.648 3.11199 314.512 4.93599L349.648 60.232V5.8C349.648 4.74399 349.984 3.87999 350.656 3.208C351.424 2.53599 352.288 2.19999 353.248 2.19999H370.528C371.584 2.19999 372.448 2.53599 373.12 3.208C373.792 3.87999 374.128 4.74399 374.128 5.8V99.256C374.128 100.312 373.792 101.224 373.12 101.992C372.448 102.664 371.584 103 370.528 103H355.12C353.008 103 351.424 102.088 350.368 100.264L315.232 46.984V99.4C315.232 100.36 314.896 101.224 314.224 101.992C313.552 102.664 312.688 103 311.632 103H294.352ZM420.028 103C419.068 103 418.204 102.664 417.436 101.992C416.764 101.224 416.428 100.36 416.428 99.4V24.808H390.796C389.836 24.808 388.972 24.472 388.204 23.8C387.532 23.032 387.196 22.168 387.196 21.208V5.8C387.196 4.74399 387.532 3.87999 388.204 3.208C388.972 2.53599 389.836 2.19999 390.796 2.19999H468.268C469.324 2.19999 470.188 2.53599 470.86 3.208C471.532 3.87999 471.868 4.74399 471.868 5.8V21.208C471.868 22.264 471.532 23.128 470.86 23.8C470.188 24.472 469.324 24.808 468.268 24.808H442.636V99.4C442.636 100.36 442.3 101.224 441.628 101.992C440.956 102.664 440.092 103 439.036 103H420.028Z" fill="white"/>
</svg>
