<svg width="267" height="141" viewBox="0 0 267 141" fill="none" xmlns="http://www.w3.org/2000/svg">
<g id="Group 13">
<g id="MARCE ORTEGA">
<path d="M6.84 67C6.36 67 5.928 66.832 5.544 66.496C5.208 66.112 5.04 65.68 5.04 65.2V18.4C5.04 17.872 5.208 17.44 5.544 17.104C5.928 16.768 6.36 16.6 6.84 16.6H14.616C15.768 16.6 16.608 17.128 17.136 18.184L29.808 40.864L42.48 18.184C43.008 17.128 43.848 16.6 45 16.6H52.704C53.232 16.6 53.664 16.768 54 17.104C54.384 17.44 54.576 17.872 54.576 18.4V65.2C54.576 65.728 54.384 66.16 54 66.496C53.664 66.832 53.232 67 52.704 67H44.136C43.608 67 43.152 66.832 42.768 66.496C42.432 66.16 42.264 65.728 42.264 65.2V38.2L34.2 53.248C33.576 54.352 32.736 54.904 31.68 54.904H27.936C27.312 54.904 26.808 54.76 26.424 54.472C26.04 54.184 25.704 53.776 25.416 53.248L17.28 38.2V65.2C17.28 65.68 17.112 66.112 16.776 66.496C16.44 66.832 16.008 67 15.48 67H6.84ZM61.065 67C60.809 67 60.569 66.904 60.345 66.712C60.153 66.488 60.057 66.248 60.057 65.992C60.057 65.8 60.073 65.656 60.105 65.56L71.385 34.744C71.481 34.36 71.689 34.04 72.009 33.784C72.329 33.528 72.745 33.4 73.257 33.4H80.361C80.873 33.4 81.289 33.528 81.609 33.784C81.929 34.04 82.137 34.36 82.233 34.744L93.465 65.56L93.561 65.992C93.561 66.248 93.449 66.488 93.225 66.712C93.033 66.904 92.793 67 92.505 67H86.601C85.833 67 85.321 66.664 85.065 65.992L83.193 61.096H70.377L68.553 65.992C68.297 66.664 67.769 67 66.969 67H61.065ZM81.273 54.184L76.809 41.512L72.345 54.184H81.273ZM98.5444 67C98.2244 67 97.9364 66.888 97.6804 66.664C97.4564 66.408 97.3444 66.12 97.3444 65.8V34.6C97.3444 34.248 97.4564 33.96 97.6804 33.736C97.9364 33.512 98.2244 33.4 98.5444 33.4H111.6C115.792 33.4 119.056 34.36 121.392 36.28C123.76 38.168 124.944 40.856 124.944 44.344C124.944 46.584 124.416 48.488 123.36 50.056C122.304 51.624 120.848 52.824 118.992 53.656L125.568 65.464C125.664 65.656 125.712 65.832 125.712 65.992C125.712 66.248 125.6 66.488 125.376 66.712C125.184 66.904 124.96 67 124.704 67H118.32C117.392 67 116.736 66.568 116.352 65.704L110.88 55.144H105.984V65.8C105.984 66.152 105.856 66.44 105.6 66.664C105.376 66.888 105.088 67 104.736 67H98.5444ZM111.504 48.328C112.976 48.328 114.096 47.976 114.864 47.272C115.632 46.536 116.016 45.528 116.016 44.248C116.016 42.968 115.632 41.96 114.864 41.224C114.128 40.456 113.008 40.072 111.504 40.072H105.984V48.328H111.504ZM144.167 67.48C139.591 67.48 136.007 66.376 133.415 64.168C130.855 61.928 129.495 58.696 129.335 54.472C129.303 53.608 129.287 52.2 129.287 50.248C129.287 48.264 129.303 46.824 129.335 45.928C129.495 41.768 130.887 38.568 133.511 36.328C136.135 34.056 139.687 32.92 144.167 32.92C146.983 32.92 149.511 33.4 151.751 34.36C153.991 35.288 155.751 36.632 157.031 38.392C158.343 40.12 159.015 42.152 159.047 44.488V44.584C159.047 44.84 158.935 45.064 158.711 45.256C158.519 45.416 158.295 45.496 158.039 45.496H151.559C151.143 45.496 150.823 45.416 150.599 45.256C150.375 45.064 150.183 44.728 150.023 44.248C149.575 42.616 148.871 41.48 147.911 40.84C146.951 40.168 145.687 39.832 144.119 39.832C140.343 39.832 138.391 41.944 138.263 46.168C138.231 47.032 138.215 48.36 138.215 50.152C138.215 51.944 138.231 53.304 138.263 54.232C138.391 58.456 140.343 60.568 144.119 60.568C145.687 60.568 146.967 60.232 147.959 59.56C148.951 58.856 149.639 57.72 150.023 56.152C150.151 55.672 150.327 55.352 150.551 55.192C150.775 55 151.111 54.904 151.559 54.904H158.039C158.327 54.904 158.567 55 158.759 55.192C158.983 55.384 159.079 55.624 159.047 55.912C159.015 58.248 158.343 60.296 157.031 62.056C155.751 63.784 153.991 65.128 151.751 66.088C149.511 67.016 146.983 67.48 144.167 67.48ZM165.294 67C164.974 67 164.686 66.888 164.43 66.664C164.206 66.408 164.094 66.12 164.094 65.8V34.6C164.094 34.248 164.206 33.96 164.43 33.736C164.686 33.512 164.974 33.4 165.294 33.4H187.71C188.062 33.4 188.35 33.512 188.574 33.736C188.798 33.96 188.91 34.248 188.91 34.6V39.112C188.91 39.432 188.798 39.72 188.574 39.976C188.35 40.2 188.062 40.312 187.71 40.312H172.398V46.792H186.654C187.006 46.792 187.294 46.92 187.518 47.176C187.742 47.4 187.854 47.688 187.854 48.04V52.216C187.854 52.536 187.742 52.824 187.518 53.08C187.294 53.304 187.006 53.416 186.654 53.416H172.398V60.088H188.094C188.446 60.088 188.734 60.2 188.958 60.424C189.182 60.648 189.294 60.936 189.294 61.288V65.8C189.294 66.12 189.182 66.408 188.958 66.664C188.734 66.888 188.446 67 188.094 67H165.294Z" fill="#C21E4E"/>
<path d="M17.088 124.48C12.576 124.48 9.024 123.376 6.432 121.168C3.84 118.96 2.464 115.712 2.304 111.424C2.272 110.496 2.256 109.12 2.256 107.296C2.256 105.44 2.272 104.048 2.304 103.12C2.464 98.896 3.856 95.648 6.48 93.376C9.136 91.072 12.672 89.92 17.088 89.92C21.504 89.92 25.04 91.072 27.696 93.376C30.352 95.648 31.744 98.896 31.872 103.12C31.936 104.976 31.968 106.368 31.968 107.296C31.968 108.192 31.936 109.568 31.872 111.424C31.712 115.712 30.336 118.96 27.744 121.168C25.152 123.376 21.6 124.48 17.088 124.48ZM17.088 117.568C18.848 117.568 20.24 117.04 21.264 115.984C22.32 114.928 22.88 113.312 22.944 111.136C23.008 109.28 23.04 107.968 23.04 107.2C23.04 106.368 23.008 105.056 22.944 103.264C22.88 101.088 22.32 99.472 21.264 98.416C20.208 97.36 18.816 96.832 17.088 96.832C15.36 96.832 13.968 97.36 12.912 98.416C11.888 99.472 11.328 101.088 11.232 103.264C11.2 104.16 11.184 105.472 11.184 107.2C11.184 108.896 11.2 110.208 11.232 111.136C11.328 113.312 11.888 114.928 12.912 115.984C13.936 117.04 15.328 117.568 17.088 117.568ZM38.7319 124C38.4119 124 38.1239 123.888 37.8679 123.664C37.6439 123.408 37.5319 123.12 37.5319 122.8V91.6C37.5319 91.248 37.6439 90.96 37.8679 90.736C38.1239 90.512 38.4119 90.4 38.7319 90.4H51.7879C55.9799 90.4 59.2439 91.36 61.5799 93.28C63.9479 95.168 65.1319 97.856 65.1319 101.344C65.1319 103.584 64.6039 105.488 63.5479 107.056C62.4919 108.624 61.0359 109.824 59.1799 110.656L65.7559 122.464C65.8519 122.656 65.8999 122.832 65.8999 122.992C65.8999 123.248 65.7879 123.488 65.5639 123.712C65.3719 123.904 65.1479 124 64.8919 124H58.5079C57.5799 124 56.9239 123.568 56.5399 122.704L51.0679 112.144H46.1719V122.8C46.1719 123.152 46.0439 123.44 45.7879 123.664C45.5639 123.888 45.2759 124 44.9239 124H38.7319ZM51.6919 105.328C53.1639 105.328 54.2839 104.976 55.0519 104.272C55.8199 103.536 56.2039 102.528 56.2039 101.248C56.2039 99.968 55.8199 98.96 55.0519 98.224C54.3159 97.456 53.1959 97.072 51.6919 97.072H46.1719V105.328H51.6919ZM78.9833 124C78.6633 124 78.3753 123.888 78.1193 123.664C77.8953 123.408 77.7833 123.12 77.7833 122.8V97.936H69.2393C68.9193 97.936 68.6313 97.824 68.3753 97.6C68.1513 97.344 68.0393 97.056 68.0393 96.736V91.6C68.0393 91.248 68.1513 90.96 68.3753 90.736C68.6313 90.512 68.9193 90.4 69.2393 90.4H95.0633C95.4153 90.4 95.7033 90.512 95.9273 90.736C96.1513 90.96 96.2633 91.248 96.2633 91.6V96.736C96.2633 97.088 96.1513 97.376 95.9273 97.6C95.7033 97.824 95.4153 97.936 95.0633 97.936H86.5193V122.8C86.5193 123.12 86.4073 123.408 86.1833 123.664C85.9593 123.888 85.6713 124 85.3193 124H78.9833ZM101.826 124C101.506 124 101.218 123.888 100.962 123.664C100.738 123.408 100.626 123.12 100.626 122.8V91.6C100.626 91.248 100.738 90.96 100.962 90.736C101.218 90.512 101.506 90.4 101.826 90.4H124.242C124.594 90.4 124.882 90.512 125.106 90.736C125.33 90.96 125.442 91.248 125.442 91.6V96.112C125.442 96.432 125.33 96.72 125.106 96.976C124.882 97.2 124.594 97.312 124.242 97.312H108.93V103.792H123.186C123.538 103.792 123.826 103.92 124.05 104.176C124.274 104.4 124.386 104.688 124.386 105.04V109.216C124.386 109.536 124.274 109.824 124.05 110.08C123.826 110.304 123.538 110.416 123.186 110.416H108.93V117.088H124.626C124.978 117.088 125.266 117.2 125.49 117.424C125.714 117.648 125.826 117.936 125.826 118.288V122.8C125.826 123.12 125.714 123.408 125.49 123.664C125.266 123.888 124.978 124 124.626 124H101.826ZM144.873 124.48C140.265 124.48 136.665 123.36 134.073 121.12C131.481 118.848 130.105 115.632 129.945 111.472C129.913 110.544 129.897 109.072 129.897 107.056C129.897 105.04 129.913 103.568 129.945 102.64C130.105 98.576 131.497 95.44 134.121 93.232C136.777 91.024 140.361 89.92 144.873 89.92C147.913 89.92 150.553 90.416 152.793 91.408C155.065 92.4 156.793 93.664 157.977 95.2C159.193 96.736 159.833 98.32 159.897 99.952C159.897 100.24 159.785 100.48 159.561 100.672C159.369 100.864 159.129 100.96 158.841 100.96H151.833C151.513 100.96 151.257 100.912 151.065 100.816C150.873 100.72 150.713 100.544 150.585 100.288C150.169 99.36 149.513 98.56 148.617 97.888C147.721 97.184 146.473 96.832 144.873 96.832C141.065 96.832 139.065 98.848 138.873 102.88C138.841 103.776 138.825 105.168 138.825 107.056C138.825 108.912 138.841 110.304 138.873 111.232C139.065 115.456 141.113 117.568 145.017 117.568C146.905 117.568 148.409 117.088 149.529 116.128C150.681 115.136 151.257 113.632 151.257 111.616V110.704H146.745C146.393 110.704 146.105 110.592 145.881 110.368C145.657 110.112 145.545 109.808 145.545 109.456V105.904C145.545 105.552 145.657 105.264 145.881 105.04C146.105 104.784 146.393 104.656 146.745 104.656H158.841C159.193 104.656 159.481 104.784 159.705 105.04C159.929 105.264 160.041 105.552 160.041 105.904V111.376C160.041 114.096 159.417 116.448 158.169 118.432C156.921 120.384 155.145 121.888 152.841 122.944C150.569 123.968 147.913 124.48 144.873 124.48ZM162.878 124C162.622 124 162.382 123.904 162.158 123.712C161.966 123.488 161.87 123.248 161.87 122.992C161.87 122.8 161.886 122.656 161.918 122.56L173.198 91.744C173.294 91.36 173.502 91.04 173.822 90.784C174.142 90.528 174.558 90.4 175.07 90.4H182.174C182.686 90.4 183.102 90.528 183.422 90.784C183.742 91.04 183.95 91.36 184.046 91.744L195.278 122.56L195.374 122.992C195.374 123.248 195.262 123.488 195.038 123.712C194.846 123.904 194.606 124 194.318 124H188.414C187.646 124 187.134 123.664 186.878 122.992L185.006 118.096H172.19L170.366 122.992C170.11 123.664 169.582 124 168.782 124H162.878ZM183.086 111.184L178.622 98.512L174.158 111.184H183.086Z" fill="#605454"/>
</g>
</g>
</svg>
