<svg width="1099" height="153" viewBox="0 0 1099 153" fill="none" xmlns="http://www.w3.org/2000/svg">
<g id="Group 45">
<path id="HOLA MUNDO" d="M15.2001 150.007C14.0267 150.007 13.0669 149.633 12.3206 148.886C11.5743 148.139 11.2014 147.179 11.202 146.005L11.2529 42.0055C11.2535 40.8321 11.6273 39.8723 12.3743 39.126C13.228 38.3798 14.1882 38.0069 15.2549 38.0074L35.8949 38.0175C37.0682 38.0181 38.028 38.3919 38.7743 39.1389C39.6273 39.886 40.0535 40.8462 40.0529 42.0196L40.0341 80.5796L79.3941 80.5988L79.4129 42.0388C79.4135 40.8655 79.7873 39.9057 80.5343 39.1594C81.2814 38.4131 82.2416 38.0402 83.4149 38.0408L104.055 38.0509C105.228 38.0515 106.188 38.4253 106.934 39.1723C107.681 39.9193 108.053 40.8795 108.053 42.0529L108.002 146.053C108.001 147.226 107.628 148.186 106.881 148.932C106.134 149.679 105.173 150.051 104 150.051L83.3601 150.041C82.1867 150.04 81.2269 149.666 80.4806 148.919C79.7343 148.172 79.3614 147.212 79.362 146.039L79.3815 106.199L40.0215 106.18L40.002 146.02C40.0014 147.193 39.5743 148.153 38.7206 148.899C37.9736 149.645 37.0134 150.018 35.8401 150.018L15.2001 150.007ZM176.178 151.686C161.138 151.679 149.3 147.993 140.663 140.629C132.027 133.265 127.446 122.436 126.919 108.142C126.814 105.049 126.763 100.462 126.766 94.382C126.769 88.1954 126.825 83.5554 126.933 80.4621C127.473 66.3824 132.118 55.558 140.869 47.9889C149.726 40.3133 161.514 36.479 176.234 36.4862C190.954 36.4934 202.739 40.3392 211.589 48.0235C220.438 55.6012 225.073 66.4301 225.493 80.5103C225.703 86.6971 225.808 91.3372 225.806 94.4305C225.805 97.4172 225.696 102.004 225.479 108.19C224.939 122.483 220.347 133.308 211.703 140.664C203.06 148.019 191.218 151.694 176.178 151.686ZM176.189 128.646C182.056 128.649 186.697 126.891 190.112 123.373C193.634 119.855 195.503 114.469 195.72 107.216C195.936 101.029 196.045 96.6559 196.046 94.0959C196.048 91.3226 195.943 86.9492 195.733 80.9758C195.523 73.7223 193.659 68.3348 190.141 64.813C186.622 61.2913 181.983 59.529 176.223 59.5262C170.463 59.5234 165.822 61.2811 162.301 64.7994C158.885 68.3177 157.016 73.7035 156.693 80.9567C156.585 83.9433 156.529 88.3166 156.526 94.0766C156.523 99.7299 156.575 104.103 156.68 107.197C156.996 114.45 158.86 119.838 162.272 123.359C165.683 126.881 170.323 128.643 176.189 128.646ZM248.325 150.122C247.258 150.121 246.299 149.747 245.446 149C244.699 148.146 244.326 147.186 244.327 146.12L244.378 42.1196C244.378 40.9462 244.752 39.9864 245.499 39.2401C246.353 38.4939 247.313 38.121 248.38 38.1215L269.5 38.1319C270.673 38.1325 271.633 38.5063 272.379 39.2533C273.126 40.0003 273.498 40.9605 273.498 42.1338L273.457 125.974L321.937 125.998C323.11 125.998 324.07 126.425 324.816 127.279C325.563 128.026 325.935 128.986 325.935 130.16L325.927 146.16C325.926 147.226 325.553 148.186 324.806 149.039C324.059 149.785 323.098 150.158 321.925 150.158L248.325 150.122ZM333.394 150.163C332.54 150.163 331.741 149.842 330.994 149.202C330.355 148.455 330.035 147.655 330.035 146.802C330.036 146.162 330.089 145.682 330.196 145.362L367.846 42.66C368.167 41.3802 368.861 40.3139 369.928 39.461C370.995 38.6082 372.382 38.1822 374.089 38.1831L397.769 38.1947C399.475 38.1955 400.862 38.6228 401.928 39.4767C402.994 40.3306 403.687 41.3976 404.006 42.6777L441.396 145.416L441.715 146.856C441.715 147.71 441.341 148.509 440.594 149.256C439.954 149.895 439.154 150.215 438.194 150.214L418.514 150.205C415.954 150.204 414.248 149.083 413.395 146.842L407.163 130.519L364.443 130.498L358.355 146.815C357.501 149.055 355.74 150.174 353.074 150.173L333.394 150.163ZM400.775 107.476L385.915 65.2289L371.015 107.462L400.775 107.476ZM488.325 150.239C487.258 150.238 486.299 149.865 485.446 149.118C484.699 148.264 484.326 147.304 484.327 146.237L484.378 42.2371C484.378 41.0637 484.752 40.1039 485.499 39.3576C486.353 38.6114 487.313 38.2385 488.38 38.239L505.66 38.2475C508.22 38.2487 510.086 39.423 511.258 41.7702L539.393 92.184L567.578 41.7978C568.753 39.4517 570.62 38.2793 573.18 38.2805L590.3 38.2889C591.473 38.2895 592.433 38.6633 593.179 39.4103C594.032 40.1574 594.458 41.1176 594.458 42.2909L594.407 146.291C594.406 147.464 593.979 148.424 593.126 149.17C592.379 149.917 591.418 150.289 590.245 150.289L571.205 150.28C570.032 150.279 569.019 149.905 568.166 149.158C567.419 148.411 567.046 147.451 567.047 146.278L567.076 86.2775L549.14 119.709C547.752 122.161 545.885 123.387 543.538 123.386L535.218 123.382C533.832 123.381 532.712 123.061 531.859 122.42C531.006 121.78 530.259 120.873 529.62 119.699L511.556 86.2504L511.527 146.25C511.526 147.317 511.153 148.277 510.406 149.13C509.659 149.876 508.698 150.249 507.525 150.248L488.325 150.239ZM663.864 151.925C648.824 151.918 637.039 148.232 628.51 140.868C620.087 133.504 615.879 122.408 615.886 107.581L615.918 42.3014C615.918 41.1281 616.292 40.1683 617.039 39.422C617.893 38.6757 618.853 38.3029 619.92 38.3034L640.56 38.3135C641.733 38.3141 642.693 38.6879 643.439 39.4349C644.292 40.182 644.718 41.1422 644.718 42.3155L644.686 107.436C644.683 114.369 646.28 119.596 649.478 123.118C652.783 126.533 657.529 128.242 663.716 128.245C669.796 128.248 674.49 126.49 677.798 122.972C681.107 119.453 682.763 114.281 682.766 107.454L682.798 42.3342C682.798 41.1608 683.172 40.201 683.919 39.4547C684.773 38.7085 685.733 38.3356 686.8 38.3361L707.6 38.3463C708.773 38.3469 709.733 38.7207 710.479 39.4677C711.226 40.2148 711.598 41.1749 711.598 42.3483L711.566 107.628C711.559 122.455 707.287 133.546 698.75 140.902C690.319 148.258 678.691 151.932 663.864 151.925ZM736.763 150.361C735.696 150.36 734.736 149.986 733.883 149.239C733.137 148.386 732.764 147.425 732.764 146.359L732.815 42.3587C732.816 41.1853 733.19 40.2255 733.937 39.4792C734.79 38.733 735.751 38.3601 736.817 38.3606L753.777 38.3689C756.444 38.3702 758.257 39.3844 759.216 41.4116L798.226 102.871L798.255 42.3907C798.256 41.2174 798.63 40.2575 799.377 39.5112C800.23 38.765 801.191 38.3921 802.257 38.3926L821.457 38.402C822.631 38.4026 823.59 38.7764 824.337 39.5235C825.083 40.2705 825.456 41.2307 825.455 42.404L825.405 146.244C825.404 147.417 825.03 148.43 824.283 149.283C823.536 150.03 822.576 150.403 821.403 150.402L804.283 150.394C801.936 150.393 800.176 149.378 799.004 147.351L759.993 88.132L759.964 146.372C759.964 147.439 759.59 148.398 758.843 149.251C758.096 149.998 757.136 150.371 755.963 150.37L736.763 150.361ZM851.763 150.417C850.696 150.416 849.736 150.043 848.883 149.295C848.137 148.442 847.764 147.482 847.764 146.415L847.815 42.415C847.816 41.2416 848.19 40.2818 848.937 39.5355C849.79 38.7893 850.751 38.4164 851.817 38.4169L893.417 38.4373C909.097 38.4449 921.256 42.1842 929.892 49.6551C938.528 57.126 943.056 67.9549 943.476 82.1418C943.581 85.2352 943.632 89.3419 943.63 94.4619C943.627 99.5819 943.572 103.635 943.464 106.622C942.923 121.448 938.491 132.486 930.168 139.735C921.951 146.878 909.949 150.445 894.163 150.438L851.763 150.417ZM893.374 127.397C900.414 127.401 905.588 125.75 908.896 122.445C912.205 119.033 913.967 113.647 914.184 106.287C914.399 103.194 914.508 99.1943 914.51 94.2876C914.512 89.3809 914.408 85.4342 914.196 82.4475C913.986 75.3007 912.069 70.0197 908.444 66.6046C904.925 63.1896 899.646 61.4803 892.606 61.4769L876.606 61.469L876.574 127.389L893.374 127.397ZM1008.05 152.093C993.013 152.086 981.175 148.4 972.538 141.036C963.902 133.672 959.321 122.843 958.794 108.549C958.689 105.456 958.638 100.869 958.641 94.7892C958.644 88.6025 958.7 83.9626 958.808 80.8693C959.348 66.7895 963.993 55.9652 972.744 48.3961C981.601 40.7204 993.389 36.8862 1008.11 36.8934C1022.83 36.9006 1034.61 40.7464 1043.46 48.4307C1052.31 56.0084 1056.95 66.8373 1057.37 80.9175C1057.58 87.1043 1057.68 91.7444 1057.68 94.8377C1057.68 97.8244 1057.57 102.411 1057.35 108.598C1056.81 122.891 1052.22 133.715 1043.58 141.071C1034.93 148.427 1023.09 152.101 1008.05 152.093ZM1008.06 129.053C1013.93 129.056 1018.57 127.299 1021.99 123.78C1025.51 120.262 1027.38 114.876 1027.59 107.623C1027.81 101.436 1027.92 97.0631 1027.92 94.5031C1027.92 91.7298 1027.82 87.3564 1027.61 81.383C1027.4 74.1295 1025.53 68.7419 1022.02 65.2202C1018.5 61.6985 1013.86 59.9362 1008.1 59.9334C1002.34 59.9306 997.697 61.6883 994.176 65.2066C990.76 68.7249 988.891 74.1107 988.568 81.3639C988.459 84.3505 988.404 88.7238 988.401 94.4838C988.398 100.137 988.45 104.51 988.555 107.604C988.871 114.857 990.735 120.245 994.147 123.767C997.558 127.288 1002.2 129.051 1008.06 129.053Z" fill="#C21E4E"/>
</g>
</svg>
