<svg width="169" height="121" viewBox="0 0 169 121" fill="none" xmlns="http://www.w3.org/2000/svg">
<g id="Group 16">
<path id="Ellipse 13" d="M80.7909 1.25516C121.534 -5.01787 156.782 30.3463 156.614 58.993C156.447 87.6397 123.404 124.559 80.0993 119.748C36.7947 114.938 0.172645 90.0828 0.359422 58.081C0.515217 31.3876 36.9171 0.999089 80.7909 1.25516Z" fill="#BB214C" fill-opacity="0.56"/>
<path id="PROYECTOS" d="M16.9 61C16.7667 61 16.6467 60.9533 16.54 60.86C16.4467 60.7533 16.4 60.6333 16.4 60.5V47.5C16.4 47.3533 16.4467 47.2333 16.54 47.14C16.6467 47.0467 16.7667 47 16.9 47H22.5C24.2067 47 25.5467 47.3933 26.52 48.18C27.5067 48.9667 28 50.1133 28 51.62C28 53.1133 27.5133 54.24 26.54 55C25.5667 55.7467 24.22 56.12 22.5 56.12H20.12V60.5C20.12 60.6467 20.0667 60.7667 19.96 60.86C19.8667 60.9533 19.7467 61 19.6 61H16.9ZM22.4 53.36C22.9867 53.36 23.4467 53.2133 23.78 52.92C24.1133 52.6133 24.28 52.1667 24.28 51.58C24.28 51.0333 24.12 50.6 23.8 50.28C23.4933 49.9467 23.0267 49.78 22.4 49.78H20.06V53.36H22.4ZM30.4156 61C30.2823 61 30.1623 60.9533 30.0556 60.86C29.9623 60.7533 29.9156 60.6333 29.9156 60.5V47.5C29.9156 47.3533 29.9623 47.2333 30.0556 47.14C30.1623 47.0467 30.2823 47 30.4156 47H35.8556C37.6023 47 38.9623 47.4 39.9356 48.2C40.9223 48.9867 41.4156 50.1067 41.4156 51.56C41.4156 52.4933 41.1956 53.2867 40.7556 53.94C40.3156 54.5933 39.709 55.0933 38.9356 55.44L41.6756 60.36C41.7156 60.44 41.7356 60.5133 41.7356 60.58C41.7356 60.6867 41.689 60.7867 41.5956 60.88C41.5156 60.96 41.4223 61 41.3156 61H38.6556C38.269 61 37.9956 60.82 37.8356 60.46L35.5556 56.06H33.5156V60.5C33.5156 60.6467 33.4623 60.7667 33.3556 60.86C33.2623 60.9533 33.1423 61 32.9956 61H30.4156ZM35.8156 53.22C36.429 53.22 36.8956 53.0733 37.2156 52.78C37.5356 52.4733 37.6956 52.0533 37.6956 51.52C37.6956 50.9867 37.5356 50.5667 37.2156 50.26C36.909 49.94 36.4423 49.78 35.8156 49.78H33.5156V53.22H35.8156ZM49.4052 61.2C47.5252 61.2 46.0452 60.74 44.9652 59.82C43.8852 58.9 43.3118 57.5467 43.2452 55.76C43.2318 55.3733 43.2252 54.8 43.2252 54.04C43.2252 53.2667 43.2318 52.6867 43.2452 52.3C43.3118 50.54 43.8918 49.1867 44.9852 48.24C46.0918 47.28 47.5652 46.8 49.4052 46.8C51.2452 46.8 52.7185 47.28 53.8252 48.24C54.9318 49.1867 55.5118 50.54 55.5652 52.3C55.5918 53.0733 55.6052 53.6533 55.6052 54.04C55.6052 54.4133 55.5918 54.9867 55.5652 55.76C55.4985 57.5467 54.9252 58.9 53.8452 59.82C52.7652 60.74 51.2852 61.2 49.4052 61.2ZM49.4052 58.32C50.1385 58.32 50.7185 58.1 51.1452 57.66C51.5852 57.22 51.8185 56.5467 51.8452 55.64C51.8718 54.8667 51.8852 54.32 51.8852 54C51.8852 53.6533 51.8718 53.1067 51.8452 52.36C51.8185 51.4533 51.5852 50.78 51.1452 50.34C50.7052 49.9 50.1252 49.68 49.4052 49.68C48.6852 49.68 48.1052 49.9 47.6652 50.34C47.2385 50.78 47.0052 51.4533 46.9652 52.36C46.9518 52.7333 46.9452 53.28 46.9452 54C46.9452 54.7067 46.9518 55.2533 46.9652 55.64C47.0052 56.5467 47.2385 57.22 47.6652 57.66C48.0918 58.1 48.6718 58.32 49.4052 58.32ZM61.3789 61C61.2456 61 61.1256 60.9533 61.0189 60.86C60.9256 60.7533 60.8789 60.6333 60.8789 60.5V56.2L56.2389 47.64C56.1989 47.52 56.1789 47.4467 56.1789 47.42C56.1789 47.3133 56.2189 47.22 56.2989 47.14C56.3922 47.0467 56.4989 47 56.6189 47H59.1189C59.3856 47 59.6189 47.14 59.8189 47.42L62.6789 52.58L65.5589 47.42C65.7189 47.14 65.9522 47 66.2589 47H68.7589C68.8789 47 68.9789 47.0467 69.0589 47.14C69.1389 47.22 69.1789 47.3133 69.1789 47.42C69.1789 47.4867 69.1656 47.56 69.1389 47.64L64.4989 56.2V60.5C64.4989 60.6467 64.4456 60.7667 64.3389 60.86C64.2456 60.9533 64.1256 61 63.9789 61H61.3789ZM71.3922 61C71.2589 61 71.1389 60.9533 71.0322 60.86C70.9389 60.7533 70.8922 60.6333 70.8922 60.5V47.5C70.8922 47.3533 70.9389 47.2333 71.0322 47.14C71.1389 47.0467 71.2589 47 71.3922 47H80.7322C80.8789 47 80.9989 47.0467 81.0922 47.14C81.1855 47.2333 81.2322 47.3533 81.2322 47.5V49.38C81.2322 49.5133 81.1855 49.6333 81.0922 49.74C80.9989 49.8333 80.8789 49.88 80.7322 49.88H74.3522V52.58H80.2922C80.4389 52.58 80.5589 52.6333 80.6522 52.74C80.7455 52.8333 80.7922 52.9533 80.7922 53.1V54.84C80.7922 54.9733 80.7455 55.0933 80.6522 55.2C80.5589 55.2933 80.4389 55.34 80.2922 55.34H74.3522V58.12H80.8922C81.0389 58.12 81.1589 58.1667 81.2522 58.26C81.3455 58.3533 81.3922 58.4733 81.3922 58.62V60.5C81.3922 60.6333 81.3455 60.7533 81.2522 60.86C81.1589 60.9533 81.0389 61 80.8922 61H71.3922ZM89.2884 61.2C87.3818 61.2 85.8884 60.74 84.8084 59.82C83.7418 58.8867 83.1751 57.54 83.1084 55.78C83.0951 55.42 83.0884 54.8333 83.0884 54.02C83.0884 53.1933 83.0951 52.5933 83.1084 52.22C83.1751 50.4867 83.7551 49.1533 84.8484 48.22C85.9418 47.2733 87.4218 46.8 89.2884 46.8C90.4618 46.8 91.5151 47 92.4484 47.4C93.3818 47.7867 94.1151 48.3467 94.6484 49.08C95.1951 49.8 95.4751 50.6467 95.4884 51.62V51.66C95.4884 51.7667 95.4418 51.86 95.3484 51.94C95.2684 52.0067 95.1751 52.04 95.0684 52.04H92.3684C92.1951 52.04 92.0618 52.0067 91.9684 51.94C91.8751 51.86 91.7951 51.72 91.7284 51.52C91.5418 50.84 91.2484 50.3667 90.8484 50.1C90.4484 49.82 89.9218 49.68 89.2684 49.68C87.6951 49.68 86.8818 50.56 86.8284 52.32C86.8151 52.68 86.8084 53.2333 86.8084 53.98C86.8084 54.7267 86.8151 55.2933 86.8284 55.68C86.8818 57.44 87.6951 58.32 89.2684 58.32C89.9218 58.32 90.4551 58.18 90.8684 57.9C91.2818 57.6067 91.5684 57.1333 91.7284 56.48C91.7818 56.28 91.8551 56.1467 91.9484 56.08C92.0418 56 92.1818 55.96 92.3684 55.96H95.0684C95.1884 55.96 95.2884 56 95.3684 56.08C95.4618 56.16 95.5018 56.26 95.4884 56.38C95.4751 57.3533 95.1951 58.2067 94.6484 58.94C94.1151 59.66 93.3818 60.22 92.4484 60.62C91.5151 61.0067 90.4618 61.2 89.2884 61.2ZM101.171 61C101.038 61 100.918 60.9533 100.811 60.86C100.718 60.7533 100.671 60.6333 100.671 60.5V50.14H97.1114C96.9781 50.14 96.8581 50.0933 96.7514 50C96.6581 49.8933 96.6114 49.7733 96.6114 49.64V47.5C96.6114 47.3533 96.6581 47.2333 96.7514 47.14C96.8581 47.0467 96.9781 47 97.1114 47H107.871C108.018 47 108.138 47.0467 108.231 47.14C108.325 47.2333 108.371 47.3533 108.371 47.5V49.64C108.371 49.7867 108.325 49.9067 108.231 50C108.138 50.0933 108.018 50.14 107.871 50.14H104.311V60.5C104.311 60.6333 104.265 60.7533 104.171 60.86C104.078 60.9533 103.958 61 103.811 61H101.171ZM115.694 61.2C113.814 61.2 112.334 60.74 111.254 59.82C110.174 58.9 109.601 57.5467 109.534 55.76C109.521 55.3733 109.514 54.8 109.514 54.04C109.514 53.2667 109.521 52.6867 109.534 52.3C109.601 50.54 110.181 49.1867 111.274 48.24C112.381 47.28 113.854 46.8 115.694 46.8C117.534 46.8 119.008 47.28 120.114 48.24C121.221 49.1867 121.801 50.54 121.854 52.3C121.881 53.0733 121.894 53.6533 121.894 54.04C121.894 54.4133 121.881 54.9867 121.854 55.76C121.788 57.5467 121.214 58.9 120.134 59.82C119.054 60.74 117.574 61.2 115.694 61.2ZM115.694 58.32C116.428 58.32 117.008 58.1 117.434 57.66C117.874 57.22 118.108 56.5467 118.134 55.64C118.161 54.8667 118.174 54.32 118.174 54C118.174 53.6533 118.161 53.1067 118.134 52.36C118.108 51.4533 117.874 50.78 117.434 50.34C116.994 49.9 116.414 49.68 115.694 49.68C114.974 49.68 114.394 49.9 113.954 50.34C113.528 50.78 113.294 51.4533 113.254 52.36C113.241 52.7333 113.234 53.28 113.234 54C113.234 54.7067 113.241 55.2533 113.254 55.64C113.294 56.5467 113.528 57.22 113.954 57.66C114.381 58.1 114.961 58.32 115.694 58.32ZM129.433 61.2C128.166 61.2 127.079 61.0133 126.173 60.64C125.266 60.2667 124.579 59.78 124.113 59.18C123.659 58.5667 123.419 57.9 123.393 57.18C123.393 57.0733 123.433 56.98 123.513 56.9C123.606 56.8067 123.713 56.76 123.833 56.76H126.353C126.513 56.76 126.639 56.7933 126.733 56.86C126.839 56.9133 126.946 57 127.053 57.12C127.226 57.4667 127.506 57.7533 127.893 57.98C128.279 58.2067 128.793 58.32 129.433 58.32C130.193 58.32 130.773 58.2 131.173 57.96C131.573 57.72 131.773 57.3933 131.773 56.98C131.773 56.6867 131.666 56.4467 131.453 56.26C131.253 56.0733 130.933 55.9067 130.493 55.76C130.053 55.6133 129.399 55.4467 128.533 55.26C126.933 54.9267 125.733 54.44 124.933 53.8C124.146 53.1467 123.753 52.22 123.753 51.02C123.753 50.2067 123.979 49.48 124.433 48.84C124.886 48.2 125.533 47.7 126.373 47.34C127.213 46.98 128.193 46.8 129.313 46.8C130.473 46.8 131.479 47 132.333 47.4C133.186 47.8 133.833 48.3067 134.273 48.92C134.726 49.52 134.966 50.1133 134.993 50.7C134.993 50.82 134.953 50.92 134.873 51C134.793 51.08 134.693 51.12 134.572 51.12H131.933C131.773 51.12 131.639 51.0933 131.533 51.04C131.439 50.9867 131.353 50.9 131.273 50.78C131.193 50.4733 130.973 50.2133 130.613 50C130.266 49.7867 129.833 49.68 129.313 49.68C128.713 49.68 128.253 49.7867 127.933 50C127.613 50.2133 127.453 50.5267 127.453 50.94C127.453 51.22 127.539 51.4533 127.713 51.64C127.899 51.8267 128.193 52 128.593 52.16C129.006 52.3067 129.593 52.46 130.353 52.62C131.593 52.8467 132.579 53.1333 133.313 53.48C134.059 53.8133 134.606 54.2533 134.953 54.8C135.299 55.3333 135.473 56.0067 135.473 56.82C135.473 57.7133 135.213 58.4933 134.693 59.16C134.186 59.8133 133.473 60.32 132.553 60.68C131.646 61.0267 130.606 61.2 129.433 61.2Z" fill="#EFE8E0"/>
</g>
</svg>
