<svg width="283" height="240" viewBox="0 0 283 240" fill="none" xmlns="http://www.w3.org/2000/svg">
<g id="Group 28">
<path id="Ellipse 15" d="M142.108 130.499C159.55 163.708 146.192 187.933 120.976 201.177C95.7592 214.421 40.2881 226.346 22.846 193.137C5.40395 159.927 48.3866 124.225 73.6031 110.981C98.8196 97.7366 124.666 97.2892 142.108 130.499Z" fill="#C21E4E" fill-opacity="0.9"/>
<path id="MBTI RED SOCIAL" d="M59.5221 154.032C59.3985 154.111 59.2758 154.142 59.1541 154.125C59.0252 154.096 58.9212 154.02 58.8422 153.897L51.8287 142.927C51.7497 142.804 51.7244 142.677 51.7527 142.549C51.7811 142.42 51.857 142.316 51.9806 142.237L53.3118 141.386C53.5477 141.235 53.7844 141.234 54.022 141.383L61.1525 145.369L60.5599 137.202C60.5358 136.917 60.636 136.703 60.8607 136.559L62.175 135.719C62.2986 135.64 62.4248 135.614 62.5537 135.643C62.6827 135.671 62.7866 135.747 62.8656 135.871L69.8792 146.84C69.9582 146.964 69.9835 147.09 69.9551 147.219C69.9196 147.337 69.84 147.435 69.7165 147.514L68.301 148.419C68.1887 148.491 68.0681 148.512 67.9392 148.484C67.8103 148.456 67.7099 148.385 67.6381 148.273L62.9732 140.977L63.4906 146.984C63.5026 147.325 63.3906 147.57 63.1547 147.721L62.4639 148.163C62.228 148.314 61.958 148.312 61.654 148.159L56.4184 145.168L61.0833 152.464C61.1551 152.576 61.1769 152.697 61.1485 152.826C61.1314 152.948 61.061 153.048 60.9375 153.127L59.5221 154.032ZM73.1631 145.31C73.0508 145.382 72.9302 145.404 72.8013 145.375C72.6724 145.347 72.572 145.277 72.5002 145.164L65.4866 134.195C65.4076 134.071 65.3767 133.949 65.3938 133.827C65.4222 133.698 65.4981 133.594 65.6217 133.515L70.5083 130.391C71.8226 129.55 72.9866 129.218 74.0004 129.392C75.0183 129.549 75.8468 130.127 76.486 131.127C76.8595 131.711 77.0331 132.304 77.0068 132.906C76.9845 133.49 76.8399 133.994 76.5728 134.418C77.1811 134.33 77.7969 134.427 78.4203 134.709C79.0549 134.983 79.5697 135.43 79.9648 136.048C80.6327 137.092 80.8175 138.161 80.5192 139.254C80.2321 140.34 79.4539 141.288 78.1845 142.1L73.1631 145.31ZM73.297 135.421C73.8811 135.047 74.235 134.623 74.3588 134.148C74.4825 133.674 74.3936 133.2 74.0919 132.728C73.7831 132.245 73.3944 131.972 72.9259 131.907C72.4502 131.832 71.9203 131.98 71.3362 132.354L68.6907 134.045L70.6515 137.112L73.297 135.421ZM76.7729 140.486C77.3571 140.112 77.7115 139.664 77.8361 139.142C77.9536 138.607 77.8544 138.093 77.5383 137.599C77.2151 137.094 76.7901 136.788 76.2632 136.681C75.7292 136.564 75.17 136.692 74.5859 137.065L71.7719 138.865L73.9589 142.285L76.7729 140.486ZM87.1452 136.371C87.0328 136.442 86.9122 136.464 86.7833 136.436C86.6544 136.407 86.554 136.337 86.4822 136.225L80.5245 126.907L77.4072 128.9C77.2948 128.971 77.1742 128.993 77.0453 128.965C76.9164 128.936 76.816 128.866 76.7442 128.754L75.947 127.507C75.868 127.383 75.837 127.261 75.8541 127.139C75.8825 127.01 75.9585 126.906 76.082 126.827L84.6757 121.333C84.7992 121.254 84.9255 121.228 85.0544 121.257C85.1833 121.285 85.2873 121.361 85.3663 121.484L86.1635 122.731C86.2353 122.844 86.2571 122.964 86.2287 123.093C86.2003 123.222 86.1244 123.326 86.0008 123.405L82.9004 125.387L88.8581 134.706C88.9299 134.818 88.9517 134.939 88.9233 135.068C88.8949 135.196 88.819 135.3 88.6954 135.379L87.1452 136.371ZM94.7526 131.507C94.6402 131.579 94.5196 131.6 94.3907 131.572C94.2618 131.544 94.1614 131.473 94.0896 131.361L87.0653 120.374C86.9863 120.251 86.9645 120.13 87.0001 120.013C87.0284 119.884 87.0988 119.783 87.2111 119.711L88.795 118.699C88.9186 118.62 89.0392 118.598 89.1569 118.634C89.2786 118.651 89.379 118.721 89.458 118.845L96.4823 129.831C96.5541 129.943 96.5759 130.064 96.5475 130.193C96.5304 130.315 96.46 130.415 96.3365 130.494L94.7526 131.507ZM76.284 171.801C76.1716 171.873 76.051 171.895 75.9221 171.866C75.7932 171.838 75.6928 171.768 75.621 171.655L68.6074 160.686C68.5284 160.562 68.4975 160.439 68.5146 160.318C68.543 160.189 68.6189 160.085 68.7425 160.006L73.1067 157.216C74.4772 156.339 75.7547 155.974 76.9392 156.118C78.135 156.256 79.1099 156.914 79.864 158.094C80.3884 158.914 80.6279 159.734 80.5826 160.554C80.5413 161.356 80.2459 162.107 79.6962 162.806L84.9035 165.53C84.9803 165.576 85.0367 165.627 85.0726 165.683C85.1372 165.784 85.1518 165.894 85.1163 166.012C85.092 166.122 85.0349 166.206 84.945 166.263L83.4116 167.244C83.2319 167.359 83.0663 167.409 82.9149 167.395C82.7748 167.374 82.6187 167.316 82.4467 167.22L77.7197 164.616L75.3775 166.114L77.9632 170.158C78.035 170.27 78.0567 170.391 78.0284 170.52C78.0112 170.641 77.9409 170.742 77.8173 170.821L76.284 171.801ZM76.536 162.691C77.21 162.26 77.6186 161.785 77.7617 161.266C77.916 160.74 77.81 160.191 77.4437 159.618C77.0774 159.045 76.6196 158.712 76.0702 158.62C75.5321 158.521 74.926 158.687 74.252 159.118L71.8761 160.637L74.1601 164.21L76.536 162.691ZM87.6217 164.552C87.5094 164.624 87.3887 164.646 87.2598 164.617C87.1309 164.589 87.0305 164.519 86.9587 164.406L79.9452 153.437C79.8662 153.313 79.8352 153.191 79.8523 153.069C79.8807 152.94 79.9567 152.836 80.0802 152.757L87.4944 148.017C87.6179 147.938 87.7442 147.912 87.8731 147.941C88.002 147.969 88.1059 148.045 88.185 148.168L88.896 149.281C88.975 149.404 89.0003 149.53 88.972 149.659C88.9364 149.777 88.8569 149.875 88.7333 149.954L83.1896 153.499L85.0965 156.481L90.2695 153.174C90.3931 153.095 90.5193 153.07 90.6482 153.098C90.77 153.115 90.8703 153.185 90.9493 153.309L91.6173 154.354C91.6963 154.477 91.7216 154.603 91.6933 154.732C91.6577 154.85 91.5782 154.948 91.4546 155.027L86.2816 158.335L88.2531 161.418L93.9317 157.788C94.0552 157.709 94.1815 157.683 94.3104 157.712C94.4393 157.74 94.5432 157.816 94.6223 157.94L95.3333 159.052C95.4123 159.175 95.4376 159.302 95.4093 159.431C95.3737 159.548 95.2942 159.647 95.1706 159.726L87.6217 164.552ZM98.1037 157.85C97.9914 157.922 97.8708 157.944 97.7419 157.915C97.613 157.887 97.5126 157.817 97.4408 157.704L90.4272 146.735C90.3482 146.611 90.3173 146.489 90.3344 146.367C90.3628 146.238 90.4387 146.134 90.5623 146.055L94.6738 143.426C97.9764 141.315 100.638 141.765 102.659 144.778C103.098 145.415 103.39 145.846 103.533 146.07C103.67 146.284 103.935 146.723 104.329 147.389C105.29 148.991 105.612 150.423 105.295 151.685C104.972 152.937 103.973 154.097 102.299 155.168L98.1037 157.85ZM100.976 153.284C101.92 152.68 102.467 152.038 102.617 151.357C102.759 150.664 102.533 149.828 101.938 148.847C101.529 148.159 101.271 147.73 101.163 147.562C101.049 147.382 100.772 146.974 100.333 146.336C99.7211 145.43 99.0507 144.901 98.3212 144.75C97.603 144.592 96.7721 144.815 95.8285 145.418L93.739 146.754L98.8026 154.673L100.976 153.284ZM77.6079 199.678C76.6081 200.317 75.6518 200.715 74.7389 200.872C73.8261 201.028 73.0263 200.977 72.3395 200.72C71.6528 200.463 71.115 200.055 70.7263 199.497C70.6616 199.395 70.6415 199.29 70.6658 199.179C70.6901 199.069 70.7528 198.981 70.8539 198.916L72.3536 197.958C72.4884 197.871 72.6074 197.835 72.7107 197.848C72.8181 197.843 72.9414 197.874 73.0806 197.944C73.4372 198.254 73.9002 198.409 74.4698 198.409C75.0394 198.408 75.6725 198.186 76.3689 197.74C77.1665 197.23 77.6849 196.717 77.9241 196.2C78.1562 195.672 78.1213 195.172 77.8197 194.7C77.6186 194.386 77.3467 194.195 77.004 194.13C76.6725 194.057 76.2522 194.08 75.7432 194.2C75.2454 194.312 74.5239 194.52 73.5786 194.824C72.052 195.357 70.8145 195.563 69.8663 195.441C68.9221 195.301 68.1412 194.748 67.5235 193.782C67.1069 193.13 66.9112 192.44 66.9362 191.712C66.9725 190.977 67.2286 190.251 67.7046 189.535C68.1919 188.812 68.8793 188.167 69.7667 187.6C70.6879 187.011 71.5896 186.664 72.4719 186.559C73.3542 186.453 74.1275 186.537 74.7917 186.808C75.46 187.062 75.9599 187.422 76.2912 187.891C76.3558 187.992 76.376 188.098 76.3517 188.209C76.3274 188.319 76.2647 188.407 76.1636 188.471L74.5965 189.473C74.3606 189.624 74.1295 189.621 73.9031 189.465C73.6059 189.149 73.1909 188.995 72.6581 189.003C72.1182 189 71.5674 189.178 71.0057 189.538C70.3766 189.94 69.9577 190.374 69.7491 190.84C69.5405 191.305 69.5798 191.763 69.8671 192.212C70.0682 192.527 70.3232 192.728 70.6323 192.815C70.9413 192.902 71.337 192.902 71.8195 192.815C72.3132 192.721 72.9862 192.536 73.8385 192.26C74.9707 191.853 75.9187 191.603 76.6824 191.51C77.4573 191.411 78.1217 191.484 78.6754 191.732C79.2292 191.979 79.718 192.434 80.1417 193.097C80.6014 193.816 80.8014 194.574 80.7417 195.372C80.6861 196.151 80.383 196.915 79.8324 197.662C79.293 198.403 78.5515 199.075 77.6079 199.678ZM88.8572 192.486C87.3294 193.463 85.8909 193.836 84.5415 193.607C83.1922 193.378 82.0067 192.514 80.9849 191.015C80.7654 190.696 80.4546 190.222 80.0523 189.593C79.643 188.953 79.3397 188.466 79.1427 188.133C78.2324 186.61 77.9603 185.17 78.3266 183.812C78.6929 182.455 79.6174 181.302 81.1002 180.354C82.5831 179.405 84.0176 179.05 85.4037 179.287C86.8011 179.518 87.9999 180.365 89.0001 181.831C89.4391 182.468 89.7592 182.944 89.9603 183.258C90.1542 183.562 90.4482 184.046 90.8424 184.712C91.763 186.276 92.0442 187.718 91.6861 189.039C91.3279 190.36 90.3849 191.509 88.8572 192.486ZM87.6182 190.548C88.3709 190.067 88.8282 189.458 88.9903 188.721C89.1451 187.973 88.9413 187.122 88.3789 186.169C87.9704 185.48 87.6908 185.018 87.5399 184.782C87.3748 184.524 87.0726 184.076 86.6336 183.439C86.0038 182.528 85.3205 181.991 84.5839 181.829C83.8401 181.656 83.0918 181.81 82.3392 182.291C81.5978 182.765 81.1496 183.376 80.9948 184.124C80.8327 184.861 81.0329 185.706 81.5954 186.66C81.7924 186.993 82.0777 187.452 82.4512 188.036C82.8175 188.609 83.114 189.06 83.3407 189.39C83.9705 190.301 84.6517 190.846 85.3843 191.027C86.1209 191.189 86.8656 191.029 87.6182 190.548ZM100.59 184.984C99.04 185.975 97.583 186.345 96.2193 186.093C94.8669 185.834 93.6993 184.998 92.7166 183.585C92.5115 183.289 92.1898 182.798 91.7517 182.113C91.3064 181.416 90.9888 180.907 90.7989 180.586C89.9358 179.112 89.6761 177.703 90.0199 176.36C90.3677 174.998 91.3055 173.829 92.8333 172.852C93.8331 172.213 94.815 171.83 95.7791 171.704C96.736 171.567 97.6069 171.667 98.392 172.004C99.1699 172.33 99.8071 172.856 100.304 173.583L100.325 173.617C100.383 173.706 100.394 173.81 100.358 173.928C100.327 174.027 100.266 174.106 100.176 174.163L98.5752 175.186C98.4404 175.273 98.3213 175.309 98.218 175.296C98.1147 175.283 97.9903 175.212 97.8448 175.084C97.2126 174.491 96.5989 174.187 96.0037 174.172C95.4013 174.146 94.7519 174.355 94.0554 174.8C92.4378 175.835 92.1734 177.278 93.2624 179.129C93.4451 179.44 93.7375 179.91 94.1397 180.539C94.542 181.168 94.8528 181.642 95.0723 181.96C96.2961 183.726 97.7168 184.091 99.3344 183.057C100.031 182.612 100.494 182.11 100.722 181.552C100.963 180.987 100.944 180.303 100.667 179.499C100.601 179.32 100.583 179.181 100.614 179.081C100.657 178.975 100.746 178.879 100.881 178.792L102.481 177.769C102.583 177.704 102.688 177.684 102.799 177.708C102.921 177.726 103.008 177.788 103.062 177.897C103.513 178.652 103.727 179.457 103.703 180.311C103.672 181.154 103.398 181.986 102.879 182.809C102.353 183.62 101.59 184.345 100.59 184.984ZM107.856 180.101C107.744 180.173 107.623 180.195 107.494 180.166C107.365 180.138 107.265 180.068 107.193 179.955L100.169 168.969C100.09 168.845 100.068 168.725 100.104 168.607C100.132 168.478 100.202 168.378 100.315 168.306L101.899 167.293C102.022 167.214 102.143 167.192 102.26 167.228C102.382 167.245 102.483 167.315 102.562 167.439L109.586 178.425C109.658 178.538 109.679 178.658 109.651 178.787C109.634 178.909 109.564 179.009 109.44 179.088L107.856 180.101ZM111.762 177.604C111.673 177.661 111.567 177.681 111.445 177.664C111.335 177.64 111.247 177.577 111.182 177.476L111.119 177.303L108.231 163.838C108.13 163.507 108.237 163.241 108.551 163.04L110.388 161.865C110.68 161.678 110.967 161.693 111.247 161.909L122.257 170.181C122.29 170.208 122.328 170.255 122.371 170.322C122.436 170.423 122.456 170.529 122.431 170.64C122.407 170.75 122.35 170.834 122.26 170.892L120.794 171.829C120.648 171.922 120.514 171.96 120.393 171.943C120.271 171.926 120.174 171.885 120.101 171.821L117.994 170.272L112.99 173.472L113.512 176.034C113.559 176.305 113.464 176.515 113.228 176.666L111.762 177.604ZM116.166 168.711L110.916 164.733L112.341 171.157L116.166 168.711ZM124.575 169.412C124.462 169.484 124.342 169.505 124.213 169.477C124.084 169.449 123.984 169.378 123.912 169.266L116.887 158.28C116.808 158.156 116.787 158.035 116.822 157.918C116.851 157.789 116.921 157.688 117.033 157.617L118.6 156.615C118.724 156.536 118.845 156.514 118.962 156.549C119.084 156.567 119.184 156.637 119.263 156.76L125.264 166.146L130.606 162.731C130.729 162.652 130.855 162.627 130.984 162.655C131.113 162.683 131.217 162.759 131.296 162.883L132.05 164.062C132.129 164.186 132.155 164.312 132.126 164.441C132.091 164.559 132.011 164.657 131.888 164.736L124.575 169.412Z" fill="#EFE8E0"/>
</g>
</svg>
