<svg width="289" height="236" viewBox="0 0 289 236" fill="none" xmlns="http://www.w3.org/2000/svg">
<g id="Group 38">
<path id="Ellipse 15" d="M142.108 126.498C159.55 159.708 146.192 183.933 120.976 197.177C95.7592 210.421 40.2881 222.346 22.846 189.136C5.40395 155.927 48.3866 120.225 73.6031 106.98C98.8196 93.7364 124.666 93.289 142.108 126.498Z" fill="#C21E4E" fill-opacity="0.9"/>
<path id="REVELIO DATA LOVERS" d="M41.9536 161.428C41.8412 161.5 41.7206 161.522 41.5917 161.494C41.4628 161.465 41.3624 161.395 41.2906 161.283L34.277 150.313C34.198 150.189 34.1671 150.067 34.1842 149.945C34.2126 149.816 34.2885 149.712 34.4121 149.633L38.7763 146.843C40.1468 145.967 41.4243 145.601 42.6088 145.746C43.8046 145.883 44.7795 146.542 45.5336 147.721C46.058 148.541 46.2975 149.361 46.2522 150.182C46.2109 150.983 45.9155 151.734 45.3658 152.434L50.5731 155.158C50.6499 155.204 50.7063 155.255 50.7422 155.311C50.8068 155.412 50.8214 155.521 50.7859 155.639C50.7615 155.749 50.7045 155.833 50.6146 155.891L49.0812 156.871C48.9015 156.986 48.7359 157.037 48.5845 157.023C48.4444 157.001 48.2883 156.943 48.1163 156.847L43.3893 154.243L41.0471 155.741L43.6328 159.785C43.7046 159.897 43.7263 160.018 43.698 160.147C43.6808 160.269 43.6105 160.369 43.4869 160.448L41.9536 161.428ZM42.2056 152.318C42.8796 151.887 43.2882 151.412 43.4313 150.893C43.5856 150.367 43.4796 149.818 43.1133 149.245C42.747 148.672 42.2892 148.34 41.7398 148.248C41.2017 148.149 40.5956 148.315 39.9216 148.746L37.5457 150.265L39.8297 153.837L42.2056 152.318ZM53.2913 154.179C53.1789 154.251 53.0583 154.273 52.9294 154.245C52.8005 154.216 52.7001 154.146 52.6283 154.034L45.6148 143.064C45.5358 142.94 45.5048 142.818 45.5219 142.696C45.5503 142.567 45.6263 142.463 45.7498 142.384L53.164 137.644C53.2875 137.565 53.4138 137.54 53.5427 137.568C53.6716 137.596 53.7755 137.672 53.8546 137.796L54.5656 138.908C54.6446 139.032 54.6699 139.158 54.6416 139.287C54.606 139.404 54.5265 139.503 54.4029 139.582L48.8592 143.126L50.7661 146.109L55.9391 142.801C56.0627 142.722 56.1889 142.697 56.3178 142.725C56.4396 142.742 56.5399 142.813 56.6189 142.936L57.2869 143.981C57.3659 144.105 57.3912 144.231 57.3629 144.36C57.3273 144.477 57.2478 144.576 57.1242 144.655L51.9512 147.962L53.9227 151.046L59.6013 147.415C59.7248 147.336 59.8511 147.311 59.98 147.339C60.1089 147.368 60.2128 147.443 60.2919 147.567L61.0029 148.679C61.0819 148.803 61.1072 148.929 61.0789 149.058C61.0433 149.176 60.9638 149.274 60.8402 149.353L53.2913 154.179ZM66.7077 145.601C66.3819 145.81 66.0679 145.789 65.7657 145.539L55.2431 137.027L55.1125 136.897C55.0478 136.795 55.0277 136.69 55.052 136.579C55.0763 136.469 55.139 136.381 55.2401 136.316L56.7229 135.368C56.869 135.275 57.0064 135.243 57.1353 135.271C57.2683 135.281 57.384 135.326 57.4823 135.405L65.8783 142.262L63.1777 131.764C63.1427 131.659 63.145 131.539 63.1846 131.403C63.2242 131.267 63.317 131.152 63.463 131.059L64.9459 130.111C65.0357 130.053 65.1359 130.037 65.2464 130.061C65.3681 130.078 65.4613 130.137 65.526 130.239L65.5892 130.412L68.8998 143.535C68.9998 143.914 68.887 144.208 68.5612 144.416L66.7077 145.601ZM75.0288 140.281C74.9165 140.353 74.7958 140.375 74.6669 140.346C74.538 140.318 74.4376 140.248 74.3658 140.135L67.3523 129.166C67.2733 129.042 67.2423 128.92 67.2595 128.798C67.2878 128.669 67.3638 128.565 67.4873 128.486L74.9015 123.746C75.025 123.667 75.1513 123.641 75.2802 123.67C75.4091 123.698 75.5131 123.774 75.5921 123.898L76.3031 125.01C76.3821 125.133 76.4074 125.26 76.3791 125.388C76.3435 125.506 76.264 125.604 76.1404 125.683L70.5967 129.228L72.5036 132.21L77.6766 128.903C77.8002 128.824 77.9264 128.799 78.0553 128.827C78.1771 128.844 78.2774 128.914 78.3564 129.038L79.0244 130.083C79.1034 130.206 79.1287 130.333 79.1004 130.461C79.0648 130.579 78.9853 130.677 78.8617 130.756L73.6887 134.064L75.6602 137.148L81.3388 133.517C81.4623 133.438 81.5886 133.413 81.7175 133.441C81.8464 133.469 81.9504 133.545 82.0294 133.669L82.7404 134.781C82.8194 134.904 82.8447 135.031 82.8164 135.16C82.7808 135.277 82.7013 135.376 82.5777 135.455L75.0288 140.281ZM85.5109 133.579C85.3985 133.651 85.2779 133.673 85.149 133.645C85.0201 133.616 84.9197 133.546 84.8479 133.433L77.8236 122.447C77.7446 122.324 77.7228 122.203 77.7584 122.085C77.7867 121.956 77.8571 121.856 77.9694 121.784L79.5365 120.782C79.66 120.703 79.7807 120.681 79.8983 120.717C80.0201 120.734 80.1204 120.804 80.1994 120.928L86.2003 130.314L91.5418 126.898C91.6654 126.819 91.7916 126.794 91.9205 126.822C92.0495 126.851 92.1534 126.927 92.2324 127.05L92.9866 128.23C93.0656 128.353 93.0909 128.48 93.0625 128.609C93.027 128.726 92.9474 128.825 92.8239 128.904L85.5109 133.579ZM95.2853 127.33C95.173 127.402 95.0524 127.423 94.9235 127.395C94.7945 127.367 94.6942 127.296 94.6224 127.184L87.598 116.198C87.519 116.074 87.4973 115.953 87.5328 115.836C87.5612 115.707 87.6315 115.606 87.7439 115.535L89.3278 114.522C89.4514 114.443 89.572 114.421 89.6897 114.457C89.8114 114.474 89.9118 114.544 89.9908 114.668L97.0151 125.654C97.0869 125.767 97.1087 125.887 97.0803 126.016C97.0632 126.138 96.9928 126.238 96.8693 126.317L95.2853 127.33ZM104.557 121.639C103.029 122.616 101.59 122.99 100.241 122.761C98.8918 122.531 97.7062 121.667 96.6845 120.168C96.465 119.85 96.1541 119.376 95.7519 118.747C95.3425 118.106 95.0393 117.62 94.8422 117.287C93.9319 115.764 93.6599 114.324 94.0262 112.966C94.3924 111.608 95.317 110.455 96.7998 109.507C98.2826 108.559 99.7171 108.204 101.103 108.441C102.501 108.671 103.699 109.519 104.7 110.984C105.139 111.622 105.459 112.097 105.66 112.412C105.854 112.715 106.148 113.2 106.542 113.866C107.463 115.429 107.744 116.872 107.386 118.193C107.027 119.514 106.084 120.663 104.557 121.639ZM103.318 119.702C104.07 119.22 104.528 118.611 104.69 117.875C104.845 117.127 104.641 116.276 104.078 115.322C103.67 114.634 103.39 114.172 103.239 113.936C103.074 113.677 102.772 113.23 102.333 112.592C101.703 111.682 101.02 111.145 100.283 110.983C99.5396 110.81 98.7914 110.964 98.0387 111.445C97.2973 111.919 96.8492 112.53 96.6943 113.278C96.5323 114.014 96.7325 114.86 97.2949 115.814C97.492 116.147 97.7772 116.605 98.1507 117.189C98.517 117.762 98.8135 118.214 99.0402 118.543C99.6701 119.454 100.351 120 101.084 120.18C101.82 120.342 102.565 120.183 103.318 119.702ZM66.4334 174.263C66.3211 174.335 66.2004 174.357 66.0715 174.328C65.9426 174.3 65.8423 174.229 65.7704 174.117L58.7569 163.148C58.6779 163.024 58.6469 162.901 58.6641 162.78C58.6924 162.651 58.7684 162.547 58.892 162.468L63.0034 159.839C66.3061 157.727 68.9679 158.178 70.9889 161.19C71.4279 161.827 71.7193 162.258 71.8629 162.483C71.9994 162.696 72.2647 163.136 72.6588 163.802C73.6194 165.403 73.9415 166.836 73.6251 168.098C73.3016 169.349 72.3029 170.51 70.6291 171.58L66.4334 174.263ZM69.3059 169.696C70.2495 169.093 70.7963 168.451 70.9462 167.769C71.0889 167.077 70.8626 166.24 70.2674 165.26C69.859 164.571 69.6009 164.143 69.4931 163.974C69.3782 163.795 69.1012 163.386 68.6622 162.749C68.0508 161.842 67.3803 161.314 66.6509 161.163C65.9327 161.005 65.1017 161.227 64.1581 161.831L62.0687 163.167L67.1322 171.086L69.3059 169.696ZM76.9219 167.557C76.832 167.614 76.7262 167.635 76.6045 167.617C76.494 167.593 76.4065 167.53 76.3418 167.429L76.2785 167.256L73.3906 153.791C73.2896 153.46 73.3964 153.194 73.711 152.993L75.5477 151.819C75.8397 151.632 76.1261 151.647 76.4068 151.863L87.4166 160.135C87.4494 160.161 87.4873 160.208 87.5304 160.276C87.595 160.377 87.6152 160.483 87.5909 160.593C87.5666 160.704 87.5095 160.788 87.4196 160.845L85.9537 161.782C85.8076 161.876 85.6737 161.914 85.552 161.897C85.4303 161.88 85.333 161.839 85.2603 161.775L83.154 160.225L78.1494 163.425L78.6718 165.987C78.7184 166.258 78.6238 166.469 78.3879 166.62L76.9219 167.557ZM81.3253 158.665L76.0753 154.686L77.5002 161.11L81.3253 158.665ZM91.095 158.495C90.9826 158.567 90.862 158.589 90.7331 158.56C90.6042 158.532 90.5038 158.462 90.432 158.349L84.4742 149.031L81.3569 151.024C81.2446 151.096 81.124 151.118 80.9951 151.089C80.8662 151.061 80.7658 150.991 80.694 150.878L79.8967 149.632C79.8177 149.508 79.7868 149.385 79.8039 149.264C79.8323 149.135 79.9082 149.031 80.0318 148.952L88.6254 143.457C88.749 143.378 88.8753 143.353 89.0042 143.381C89.1331 143.41 89.237 143.486 89.316 143.609L90.1133 144.856C90.1851 144.968 90.2068 145.089 90.1785 145.218C90.1501 145.347 90.0742 145.451 89.9506 145.53L86.8501 147.512L92.8079 156.83C92.8797 156.943 92.9014 157.063 92.8731 157.192C92.8447 157.321 92.7688 157.425 92.6452 157.504L91.095 158.495ZM96.3392 155.142C96.2493 155.2 96.1435 155.22 96.0218 155.203C95.9113 155.178 95.8238 155.116 95.7591 155.015L95.6959 154.841L92.8079 141.377C92.7069 141.045 92.8137 140.779 93.1283 140.578L94.965 139.404C95.257 139.217 95.5434 139.232 95.8241 139.448L106.834 147.72C106.867 147.747 106.905 147.794 106.948 147.861C107.012 147.962 107.033 148.068 107.008 148.178C106.984 148.289 106.927 148.373 106.837 148.43L105.371 149.368C105.225 149.461 105.091 149.499 104.969 149.482C104.848 149.465 104.75 149.424 104.678 149.36L102.571 147.811L97.5667 151.01L98.0892 153.572C98.1357 153.843 98.0411 154.054 97.8052 154.205L96.3392 155.142ZM100.743 146.25L95.4926 142.271L96.9176 148.695L100.743 146.25ZM67.8099 201.869C67.6976 201.941 67.577 201.963 67.4481 201.934C67.3192 201.906 67.2188 201.836 67.147 201.723L60.1227 190.737C60.0437 190.613 60.0219 190.493 60.0575 190.375C60.0858 190.246 60.1562 190.146 60.2685 190.074L61.8356 189.072C61.9591 188.993 62.0798 188.971 62.1974 189.007C62.3192 189.024 62.4195 189.094 62.4985 189.218L68.4994 198.603L73.8409 195.188C73.9645 195.109 74.0907 195.084 74.2196 195.112C74.3486 195.141 74.4525 195.217 74.5315 195.34L75.2857 196.52C75.3647 196.643 75.39 196.769 75.3616 196.898C75.3261 197.016 75.2465 197.114 75.123 197.193L67.8099 201.869ZM81.6724 193.243C80.1446 194.22 78.7061 194.594 77.3567 194.365C76.0074 194.135 74.8219 193.271 73.8002 191.772C73.5806 191.454 73.2698 190.98 72.8676 190.351C72.4582 189.71 72.1549 189.224 71.9579 188.891C71.0476 187.368 70.7756 185.928 71.1418 184.57C71.5081 183.212 72.4326 182.059 73.9155 181.111C75.3983 180.163 76.8328 179.808 78.2189 180.045C79.6163 180.275 80.8151 181.123 81.8153 182.588C82.2543 183.225 82.5744 183.701 82.7755 184.016C82.9694 184.319 83.2635 184.804 83.6576 185.47C84.5782 187.033 84.8594 188.476 84.5013 189.797C84.1431 191.118 83.2001 192.266 81.6724 193.243ZM80.4334 191.305C81.1861 190.824 81.6434 190.215 81.8055 189.479C81.9603 188.731 81.7565 187.88 81.1941 186.926C80.7856 186.238 80.506 185.775 80.3552 185.54C80.19 185.281 79.8878 184.833 79.4488 184.196C78.819 183.285 78.1357 182.749 77.3991 182.587C76.6553 182.414 75.9071 182.568 75.1544 183.049C74.413 183.523 73.9649 184.134 73.81 184.882C73.6479 185.618 73.8481 186.464 74.4106 187.418C74.6076 187.75 74.8929 188.209 75.2664 188.793C75.6327 189.366 75.9292 189.817 76.1559 190.147C76.7857 191.058 77.4669 191.604 78.1995 191.784C78.9361 191.946 79.6808 191.787 80.4334 191.305ZM91.8236 186.516C91.4978 186.724 91.1838 186.703 90.8816 186.453L80.3591 177.941L80.2284 177.811C80.1637 177.71 80.1436 177.604 80.1679 177.493C80.1922 177.383 80.2549 177.295 80.356 177.231L81.8388 176.283C81.9849 176.189 82.1223 176.157 82.2512 176.185C82.3842 176.195 82.4999 176.24 82.5982 176.319L90.9942 183.176L88.2936 172.678C88.2586 172.574 88.2609 172.453 88.3005 172.317C88.3401 172.181 88.4329 172.066 88.5789 171.973L90.0618 171.025C90.1516 170.968 90.2518 170.951 90.3623 170.975C90.484 170.992 90.5772 171.052 90.6419 171.153L90.7051 171.326L94.0157 184.449C94.1158 184.828 94.0029 185.122 93.6771 185.33L91.8236 186.516ZM100.145 181.195C100.032 181.267 99.9117 181.289 99.7828 181.26C99.6539 181.232 99.5536 181.162 99.4817 181.049L92.4682 170.08C92.3892 169.956 92.3582 169.834 92.3754 169.712C92.4037 169.583 92.4797 169.479 92.6033 169.4L100.017 164.66C100.141 164.581 100.267 164.555 100.396 164.584C100.525 164.612 100.629 164.688 100.708 164.812L101.419 165.924C101.498 166.047 101.523 166.174 101.495 166.303C101.459 166.42 101.38 166.519 101.256 166.598L95.7126 170.142L97.6195 173.125L102.793 169.817C102.916 169.738 103.042 169.713 103.171 169.741C103.293 169.758 103.393 169.829 103.472 169.952L104.14 170.997C104.219 171.12 104.245 171.247 104.216 171.376C104.181 171.493 104.101 171.592 103.978 171.671L98.8046 174.978L100.776 178.062L106.455 174.431C106.578 174.352 106.704 174.327 106.833 174.355C106.962 174.383 107.066 174.459 107.145 174.583L107.856 175.695C107.935 175.819 107.961 175.945 107.932 176.074C107.897 176.191 107.817 176.29 107.694 176.369L100.145 181.195ZM110.627 174.493C110.514 174.565 110.394 174.587 110.265 174.559C110.136 174.53 110.036 174.46 109.964 174.348L102.95 163.378C102.871 163.254 102.84 163.132 102.857 163.01C102.886 162.881 102.962 162.777 103.085 162.698L107.45 159.908C108.82 159.032 110.098 158.666 111.282 158.811C112.478 158.948 113.453 159.607 114.207 160.786C114.731 161.606 114.971 162.426 114.925 163.247C114.884 164.048 114.589 164.799 114.039 165.499L119.246 168.223C119.323 168.269 119.379 168.32 119.415 168.376C119.48 168.477 119.495 168.586 119.459 168.704C119.435 168.814 119.378 168.898 119.288 168.956L117.754 169.936C117.575 170.051 117.409 170.102 117.258 170.088C117.118 170.066 116.962 170.008 116.79 169.912L112.063 167.308L109.72 168.806L112.306 172.85C112.378 172.962 112.4 173.083 112.371 173.212C112.354 173.334 112.284 173.434 112.16 173.513L110.627 174.493ZM110.879 165.383C111.553 164.952 111.961 164.477 112.104 163.958C112.259 163.432 112.153 162.883 111.786 162.31C111.42 161.737 110.962 161.405 110.413 161.313C109.875 161.214 109.269 161.38 108.595 161.811L106.219 163.33L108.503 166.902L110.879 165.383ZM125.762 165.054C124.763 165.693 123.806 166.091 122.893 166.247C121.981 166.403 121.181 166.353 120.494 166.096C119.807 165.838 119.27 165.43 118.881 164.872C118.816 164.771 118.796 164.665 118.82 164.555C118.845 164.444 118.907 164.356 119.008 164.292L120.508 163.333C120.643 163.247 120.762 163.21 120.865 163.223C120.973 163.218 121.096 163.25 121.235 163.319C121.592 163.629 122.055 163.784 122.624 163.784C123.194 163.784 123.827 163.561 124.523 163.116C125.321 162.606 125.839 162.092 126.079 161.575C126.311 161.047 126.276 160.547 125.974 160.075C125.773 159.761 125.501 159.571 125.158 159.505C124.827 159.432 124.407 159.456 123.898 159.575C123.4 159.688 122.678 159.896 121.733 160.2C120.207 160.733 118.969 160.938 118.021 160.816C117.077 160.676 116.296 160.123 115.678 159.157C115.261 158.506 115.066 157.816 115.091 157.088C115.127 156.352 115.383 155.627 115.859 154.911C116.346 154.188 117.034 153.543 117.921 152.975C118.842 152.386 119.744 152.039 120.626 151.934C121.509 151.829 122.282 151.912 122.946 152.184C123.615 152.437 124.114 152.798 124.446 153.267C124.51 153.368 124.531 153.473 124.506 153.584C124.482 153.694 124.419 153.782 124.318 153.847L122.751 154.849C122.515 154.999 122.284 154.997 122.058 154.841C121.76 154.524 121.345 154.37 120.813 154.379C120.273 154.376 119.722 154.554 119.16 154.913C118.531 155.315 118.112 155.749 117.904 156.215C117.695 156.681 117.734 157.138 118.022 157.588C118.223 157.902 118.478 158.103 118.787 158.19C119.096 158.278 119.492 158.278 119.974 158.191C120.468 158.097 121.141 157.912 121.993 157.636C123.125 157.228 124.073 156.978 124.837 156.886C125.612 156.786 126.276 156.86 126.83 157.107C127.384 157.354 127.872 157.809 128.296 158.472C128.756 159.191 128.956 159.949 128.896 160.747C128.841 161.527 128.538 162.29 127.987 163.038C127.448 163.778 126.706 164.45 125.762 165.054Z" fill="#EFE8E0"/>
</g>
</svg>
