<svg width="1100" height="247" viewBox="0 0 1100 247" fill="none" xmlns="http://www.w3.org/2000/svg">
<g id="Group 44">
<path id="HTML5, CSS, Javascript, Firebase, React.js" d="M39.06 128C38.86 128 38.69 127.93 38.55 127.79C38.41 127.65 38.34 127.48 38.34 127.28V107.75C38.34 107.53 38.4 107.35 38.52 107.21C38.66 107.07 38.84 107 39.06 107H41.79C42.01 107 42.18 107.07 42.3 107.21C42.44 107.35 42.51 107.53 42.51 107.75V115.49H51.36V107.75C51.36 107.53 51.42 107.35 51.54 107.21C51.68 107.07 51.86 107 52.08 107H54.78C55 107 55.18 107.07 55.32 107.21C55.46 107.35 55.53 107.53 55.53 107.75V127.28C55.53 127.5 55.46 127.68 55.32 127.82C55.18 127.94 55 128 54.78 128H52.08C51.88 128 51.71 127.93 51.57 127.79C51.43 127.65 51.36 127.48 51.36 127.28V119.24H42.51V127.28C42.51 127.48 42.44 127.65 42.3 127.79C42.18 127.93 42.01 128 41.79 128H39.06ZM65.5355 128C65.3355 128 65.1655 127.93 65.0255 127.79C64.8855 127.65 64.8155 127.48 64.8155 127.28V110.69H59.2655C59.0655 110.69 58.8955 110.62 58.7555 110.48C58.6155 110.34 58.5455 110.17 58.5455 109.97V107.75C58.5455 107.53 58.6055 107.35 58.7255 107.21C58.8655 107.07 59.0455 107 59.2655 107H74.5655C74.7855 107 74.9655 107.07 75.1055 107.21C75.2455 107.35 75.3155 107.53 75.3155 107.75V109.97C75.3155 110.17 75.2455 110.34 75.1055 110.48C74.9655 110.62 74.7855 110.69 74.5655 110.69H69.0455V127.28C69.0455 127.48 68.9755 127.65 68.8355 127.79C68.6955 127.93 68.5155 128 68.2955 128H65.5355ZM79.1095 128C78.8895 128 78.7095 127.94 78.5695 127.82C78.4295 127.68 78.3595 127.5 78.3595 127.28V107.75C78.3595 107.53 78.4295 107.35 78.5695 107.21C78.7095 107.07 78.8895 107 79.1095 107H81.4795C81.8995 107 82.1995 107.19 82.3795 107.57L88.1695 118.37L94.0195 107.57C94.2195 107.19 94.5195 107 94.9195 107H97.2595C97.4795 107 97.6595 107.07 97.7995 107.21C97.9395 107.35 98.0095 107.53 98.0095 107.75V127.28C98.0095 127.5 97.9395 127.68 97.7995 127.82C97.6595 127.94 97.4795 128 97.2595 128H94.7395C94.5395 128 94.3695 127.93 94.2295 127.79C94.0895 127.65 94.0195 127.48 94.0195 127.28V114.29L89.8195 122.3C89.5595 122.74 89.2195 122.96 88.7995 122.96H87.5695C87.1495 122.96 86.8095 122.74 86.5495 122.3L82.3495 114.29V127.28C82.3495 127.48 82.2795 127.65 82.1395 127.79C82.0195 127.93 81.8495 128 81.6295 128H79.1095ZM103.396 128C103.196 128 103.026 127.93 102.886 127.79C102.746 127.65 102.676 127.48 102.676 127.28V107.72C102.676 107.5 102.746 107.33 102.886 107.21C103.026 107.07 103.196 107 103.396 107H106.186C106.406 107 106.576 107.07 106.696 107.21C106.836 107.33 106.906 107.5 106.906 107.72V124.43H116.416C116.636 124.43 116.816 124.5 116.956 124.64C117.096 124.78 117.166 124.96 117.166 125.18V127.28C117.166 127.5 117.096 127.68 116.956 127.82C116.816 127.94 116.636 128 116.416 128H103.396ZM126.918 128.33C125.258 128.33 123.828 128.05 122.628 127.49C121.448 126.93 120.538 126.19 119.898 125.27C119.278 124.35 118.948 123.36 118.908 122.3V122.24C118.908 122.08 118.968 121.95 119.088 121.85C119.208 121.75 119.358 121.7 119.538 121.7H122.328C122.788 121.7 123.088 121.9 123.228 122.3C123.508 123.18 123.968 123.83 124.608 124.25C125.268 124.67 126.038 124.88 126.918 124.88C128.038 124.88 128.968 124.54 129.708 123.86C130.468 123.18 130.848 122.23 130.848 121.01C130.848 119.93 130.468 119.05 129.708 118.37C128.968 117.69 128.038 117.35 126.918 117.35C126.318 117.35 125.828 117.43 125.448 117.59C125.068 117.75 124.698 117.97 124.338 118.25C124.098 118.43 123.908 118.56 123.768 118.64C123.648 118.7 123.498 118.73 123.318 118.73H120.558C120.378 118.73 120.218 118.67 120.078 118.55C119.958 118.41 119.898 118.25 119.898 118.07L120.948 107.81C120.968 107.57 121.048 107.38 121.188 107.24C121.348 107.08 121.548 107 121.788 107H133.068C133.268 107 133.438 107.07 133.578 107.21C133.718 107.35 133.788 107.52 133.788 107.72V109.73C133.788 109.93 133.718 110.1 133.578 110.24C133.438 110.38 133.268 110.45 133.068 110.45H124.398L123.918 115.34C124.898 114.66 126.208 114.32 127.848 114.32C129.148 114.32 130.348 114.6 131.448 115.16C132.568 115.7 133.458 116.49 134.118 117.53C134.778 118.55 135.108 119.74 135.108 121.1C135.108 122.56 134.768 123.84 134.088 124.94C133.408 126.02 132.448 126.86 131.208 127.46C129.988 128.04 128.558 128.33 126.918 128.33ZM137.937 130.25C137.757 130.25 137.617 130.19 137.517 130.07C137.417 129.95 137.377 129.8 137.397 129.62L138.207 124.52C138.247 124.24 138.347 124.01 138.507 123.83C138.667 123.65 138.887 123.56 139.167 123.56H141.927C142.067 123.56 142.187 123.62 142.287 123.74C142.407 123.84 142.467 123.97 142.467 124.13C142.467 124.23 142.437 124.36 142.377 124.52L140.457 129.5C140.357 129.74 140.227 129.92 140.067 130.04C139.927 130.18 139.727 130.25 139.467 130.25H137.937ZM161.342 128.3C158.582 128.3 156.442 127.59 154.922 126.17C153.422 124.75 152.622 122.75 152.522 120.17C152.502 119.63 152.492 118.75 152.492 117.53C152.492 116.29 152.502 115.39 152.522 114.83C152.622 112.27 153.432 110.28 154.952 108.86C156.492 107.42 158.622 106.7 161.342 106.7C163.122 106.7 164.672 107.01 165.992 107.63C167.312 108.23 168.332 109.06 169.052 110.12C169.772 111.16 170.152 112.34 170.192 113.66V113.72C170.192 113.88 170.122 114.02 169.982 114.14C169.862 114.24 169.722 114.29 169.562 114.29H166.712C166.472 114.29 166.292 114.24 166.172 114.14C166.052 114.04 165.952 113.85 165.872 113.57C165.552 112.31 165.022 111.43 164.282 110.93C163.542 110.41 162.552 110.15 161.312 110.15C158.432 110.15 156.932 111.76 156.812 114.98C156.792 115.52 156.782 116.35 156.782 117.47C156.782 118.59 156.792 119.44 156.812 120.02C156.932 123.24 158.432 124.85 161.312 124.85C162.552 124.85 163.542 124.59 164.282 124.07C165.042 123.55 165.572 122.67 165.872 121.43C165.932 121.15 166.022 120.96 166.142 120.86C166.282 120.76 166.472 120.71 166.712 120.71H169.562C169.742 120.71 169.892 120.77 170.012 120.89C170.152 121.01 170.212 121.16 170.192 121.34C170.152 122.66 169.772 123.85 169.052 124.91C168.332 125.95 167.312 126.78 165.992 127.4C164.672 128 163.122 128.3 161.342 128.3ZM181.04 128.3C179.26 128.3 177.73 128.03 176.45 127.49C175.17 126.95 174.2 126.24 173.54 125.36C172.88 124.48 172.53 123.53 172.49 122.51C172.49 122.33 172.55 122.18 172.67 122.06C172.79 121.94 172.94 121.88 173.12 121.88H175.79C176.03 121.88 176.21 121.93 176.33 122.03C176.47 122.11 176.6 122.25 176.72 122.45C176.92 123.13 177.38 123.7 178.1 124.16C178.82 124.62 179.8 124.85 181.04 124.85C182.46 124.85 183.53 124.62 184.25 124.16C184.97 123.68 185.33 123.02 185.33 122.18C185.33 121.62 185.14 121.16 184.76 120.8C184.4 120.44 183.85 120.13 183.11 119.87C182.39 119.61 181.31 119.29 179.87 118.91C177.51 118.35 175.78 117.61 174.68 116.69C173.6 115.75 173.06 114.42 173.06 112.7C173.06 111.54 173.37 110.51 173.99 109.61C174.63 108.71 175.54 108 176.72 107.48C177.92 106.96 179.31 106.7 180.89 106.7C182.53 106.7 183.95 106.99 185.15 107.57C186.35 108.15 187.26 108.88 187.88 109.76C188.52 110.62 188.86 111.48 188.9 112.34C188.9 112.52 188.84 112.67 188.72 112.79C188.6 112.91 188.45 112.97 188.27 112.97H185.48C185.06 112.97 184.77 112.78 184.61 112.4C184.49 111.76 184.09 111.23 183.41 110.81C182.73 110.37 181.89 110.15 180.89 110.15C179.77 110.15 178.89 110.36 178.25 110.78C177.61 111.2 177.29 111.81 177.29 112.61C177.29 113.17 177.45 113.63 177.77 113.99C178.09 114.35 178.59 114.67 179.27 114.95C179.97 115.23 180.97 115.54 182.27 115.88C184.03 116.28 185.43 116.73 186.47 117.23C187.53 117.73 188.31 118.36 188.81 119.12C189.31 119.88 189.56 120.85 189.56 122.03C189.56 123.31 189.2 124.43 188.48 125.39C187.78 126.33 186.78 127.05 185.48 127.55C184.2 128.05 182.72 128.3 181.04 128.3ZM200.288 128.3C198.508 128.3 196.978 128.03 195.698 127.49C194.418 126.95 193.448 126.24 192.788 125.36C192.128 124.48 191.778 123.53 191.738 122.51C191.738 122.33 191.798 122.18 191.918 122.06C192.038 121.94 192.188 121.88 192.368 121.88H195.038C195.278 121.88 195.458 121.93 195.578 122.03C195.718 122.11 195.848 122.25 195.968 122.45C196.168 123.13 196.628 123.7 197.348 124.16C198.068 124.62 199.048 124.85 200.288 124.85C201.708 124.85 202.778 124.62 203.498 124.16C204.218 123.68 204.578 123.02 204.578 122.18C204.578 121.62 204.388 121.16 204.008 120.8C203.648 120.44 203.098 120.13 202.358 119.87C201.638 119.61 200.558 119.29 199.118 118.91C196.758 118.35 195.028 117.61 193.928 116.69C192.848 115.75 192.308 114.42 192.308 112.7C192.308 111.54 192.618 110.51 193.238 109.61C193.878 108.71 194.788 108 195.968 107.48C197.168 106.96 198.558 106.7 200.138 106.7C201.778 106.7 203.198 106.99 204.398 107.57C205.598 108.15 206.508 108.88 207.128 109.76C207.768 110.62 208.108 111.48 208.148 112.34C208.148 112.52 208.088 112.67 207.968 112.79C207.848 112.91 207.698 112.97 207.518 112.97H204.728C204.308 112.97 204.018 112.78 203.858 112.4C203.738 111.76 203.338 111.23 202.658 110.81C201.978 110.37 201.138 110.15 200.138 110.15C199.018 110.15 198.138 110.36 197.498 110.78C196.858 111.2 196.538 111.81 196.538 112.61C196.538 113.17 196.698 113.63 197.018 113.99C197.338 114.35 197.838 114.67 198.518 114.95C199.218 115.23 200.218 115.54 201.518 115.88C203.278 116.28 204.678 116.73 205.718 117.23C206.778 117.73 207.558 118.36 208.058 119.12C208.558 119.88 208.808 120.85 208.808 122.03C208.808 123.31 208.448 124.43 207.728 125.39C207.028 126.33 206.028 127.05 204.728 127.55C203.448 128.05 201.968 128.3 200.288 128.3ZM211.706 130.25C211.526 130.25 211.386 130.19 211.286 130.07C211.186 129.95 211.146 129.8 211.166 129.62L211.976 124.52C212.016 124.24 212.116 124.01 212.276 123.83C212.436 123.65 212.656 123.56 212.936 123.56H215.696C215.836 123.56 215.956 123.62 216.056 123.74C216.176 123.84 216.236 123.97 216.236 124.13C216.236 124.23 216.206 124.36 216.146 124.52L214.226 129.5C214.126 129.74 213.996 129.92 213.836 130.04C213.696 130.18 213.496 130.25 213.236 130.25H211.706ZM233.792 128.3C232.312 128.3 230.952 128.05 229.712 127.55C228.492 127.05 227.512 126.3 226.772 125.3C226.032 124.3 225.642 123.09 225.602 121.67C225.602 121.49 225.662 121.34 225.782 121.22C225.902 121.08 226.052 121.01 226.232 121.01H229.082C229.522 121.01 229.822 121.27 229.982 121.79C230.122 122.83 230.532 123.6 231.212 124.1C231.912 124.6 232.802 124.85 233.882 124.85C235.142 124.85 236.102 124.44 236.762 123.62C237.442 122.8 237.782 121.66 237.782 120.2V110.54H227.612C227.412 110.54 227.242 110.47 227.102 110.33C226.962 110.19 226.892 110.02 226.892 109.82V107.72C226.892 107.5 226.962 107.33 227.102 107.21C227.242 107.07 227.412 107 227.612 107H241.322C241.542 107 241.722 107.07 241.862 107.21C242.002 107.35 242.072 107.53 242.072 107.75V120.32C242.072 121.98 241.732 123.41 241.052 124.61C240.372 125.81 239.402 126.73 238.142 127.37C236.902 127.99 235.452 128.3 233.792 128.3ZM250.664 128.3C249.644 128.3 248.704 128.1 247.844 127.7C247.004 127.28 246.334 126.72 245.834 126.02C245.354 125.32 245.114 124.55 245.114 123.71C245.114 122.35 245.664 121.25 246.764 120.41C247.864 119.57 249.374 119 251.294 118.7L255.404 118.1V117.47C255.404 116.59 255.184 115.93 254.744 115.49C254.304 115.05 253.594 114.83 252.614 114.83C251.954 114.83 251.414 114.96 250.994 115.22C250.594 115.46 250.274 115.7 250.034 115.94C249.794 116.2 249.634 116.37 249.554 116.45C249.474 116.69 249.324 116.81 249.104 116.81H246.794C246.614 116.81 246.454 116.75 246.314 116.63C246.194 116.51 246.134 116.35 246.134 116.15C246.154 115.65 246.394 115.08 246.854 114.44C247.334 113.8 248.064 113.25 249.044 112.79C250.024 112.33 251.224 112.1 252.644 112.1C255.004 112.1 256.724 112.63 257.804 113.69C258.884 114.75 259.424 116.14 259.424 117.86V127.28C259.424 127.48 259.354 127.65 259.214 127.79C259.094 127.93 258.924 128 258.704 128H256.274C256.074 128 255.904 127.93 255.764 127.79C255.624 127.65 255.554 127.48 255.554 127.28V126.11C255.114 126.75 254.484 127.28 253.664 127.7C252.864 128.1 251.864 128.3 250.664 128.3ZM251.684 125.45C252.784 125.45 253.684 125.09 254.384 124.37C255.084 123.65 255.434 122.6 255.434 121.22V120.59L252.434 121.07C251.274 121.25 250.394 121.54 249.794 121.94C249.214 122.34 248.924 122.83 248.924 123.41C248.924 124.05 249.194 124.55 249.734 124.91C250.274 125.27 250.924 125.45 251.684 125.45ZM268.441 128C268.141 128 267.911 127.94 267.751 127.82C267.591 127.68 267.461 127.49 267.361 127.25L261.751 113.33L261.691 113.06C261.691 112.88 261.751 112.73 261.871 112.61C262.011 112.47 262.171 112.4 262.351 112.4H264.781C265.161 112.4 265.421 112.59 265.561 112.97L269.551 123.5L273.541 112.97C273.601 112.83 273.691 112.7 273.811 112.58C273.951 112.46 274.121 112.4 274.321 112.4H276.781C276.941 112.4 277.081 112.47 277.201 112.61C277.341 112.73 277.411 112.88 277.411 113.06C277.411 113.18 277.401 113.27 277.381 113.33L271.741 127.25C271.641 127.49 271.511 127.68 271.351 127.82C271.191 127.94 270.961 128 270.661 128H268.441ZM284.033 128.3C283.013 128.3 282.073 128.1 281.213 127.7C280.373 127.28 279.703 126.72 279.203 126.02C278.723 125.32 278.483 124.55 278.483 123.71C278.483 122.35 279.033 121.25 280.133 120.41C281.233 119.57 282.743 119 284.663 118.7L288.773 118.1V117.47C288.773 116.59 288.553 115.93 288.113 115.49C287.673 115.05 286.963 114.83 285.983 114.83C285.323 114.83 284.783 114.96 284.363 115.22C283.963 115.46 283.643 115.7 283.403 115.94C283.163 116.2 283.003 116.37 282.923 116.45C282.843 116.69 282.693 116.81 282.473 116.81H280.163C279.983 116.81 279.823 116.75 279.683 116.63C279.563 116.51 279.503 116.35 279.503 116.15C279.523 115.65 279.763 115.08 280.223 114.44C280.703 113.8 281.433 113.25 282.413 112.79C283.393 112.33 284.593 112.1 286.013 112.1C288.373 112.1 290.093 112.63 291.173 113.69C292.253 114.75 292.793 116.14 292.793 117.86V127.28C292.793 127.48 292.723 127.65 292.583 127.79C292.463 127.93 292.293 128 292.073 128H289.643C289.443 128 289.273 127.93 289.133 127.79C288.993 127.65 288.923 127.48 288.923 127.28V126.11C288.483 126.75 287.853 127.28 287.033 127.7C286.233 128.1 285.233 128.3 284.033 128.3ZM285.053 125.45C286.153 125.45 287.053 125.09 287.753 124.37C288.453 123.65 288.803 122.6 288.803 121.22V120.59L285.803 121.07C284.643 121.25 283.763 121.54 283.163 121.94C282.583 122.34 282.293 122.83 282.293 123.41C282.293 124.05 282.563 124.55 283.103 124.91C283.643 125.27 284.293 125.45 285.053 125.45ZM302.552 128.3C301.052 128.3 299.792 128.08 298.772 127.64C297.752 127.18 296.992 126.65 296.492 126.05C296.012 125.43 295.772 124.9 295.772 124.46C295.772 124.26 295.842 124.1 295.982 123.98C296.122 123.86 296.282 123.8 296.462 123.8H298.832C299.012 123.8 299.162 123.87 299.282 124.01C299.362 124.07 299.572 124.25 299.912 124.55C300.252 124.87 300.652 125.12 301.112 125.3C301.572 125.48 302.082 125.57 302.642 125.57C303.442 125.57 304.102 125.41 304.622 125.09C305.142 124.77 305.402 124.33 305.402 123.77C305.402 123.35 305.282 123.01 305.042 122.75C304.822 122.49 304.412 122.26 303.812 122.06C303.212 121.84 302.322 121.61 301.142 121.37C299.442 121.01 298.182 120.46 297.362 119.72C296.562 118.98 296.162 118 296.162 116.78C296.162 115.98 296.402 115.23 296.882 114.53C297.362 113.81 298.072 113.23 299.012 112.79C299.972 112.33 301.112 112.1 302.432 112.1C303.772 112.1 304.932 112.32 305.912 112.76C306.892 113.18 307.632 113.69 308.132 114.29C308.652 114.87 308.912 115.39 308.912 115.85C308.912 116.03 308.842 116.19 308.702 116.33C308.582 116.45 308.432 116.51 308.252 116.51H306.032C305.872 116.51 305.702 116.44 305.522 116.3C305.382 116.2 305.162 116.01 304.862 115.73C304.562 115.45 304.212 115.23 303.812 115.07C303.412 114.91 302.942 114.83 302.402 114.83C301.662 114.83 301.082 114.99 300.662 115.31C300.262 115.63 300.062 116.05 300.062 116.57C300.062 116.95 300.162 117.26 300.362 117.5C300.562 117.74 300.952 117.97 301.532 118.19C302.112 118.41 302.982 118.63 304.142 118.85C306.062 119.23 307.432 119.82 308.252 120.62C309.092 121.42 309.512 122.4 309.512 123.56C309.512 124.96 308.902 126.1 307.682 126.98C306.462 127.86 304.752 128.3 302.552 128.3ZM319.359 128.3C317.159 128.3 315.399 127.69 314.079 126.47C312.779 125.25 312.089 123.56 312.009 121.4L311.979 120.2L312.009 119C312.089 116.84 312.779 115.15 314.079 113.93C315.399 112.71 317.159 112.1 319.359 112.1C320.919 112.1 322.239 112.38 323.319 112.94C324.419 113.5 325.229 114.19 325.749 115.01C326.289 115.81 326.579 116.57 326.619 117.29C326.639 117.49 326.569 117.66 326.409 117.8C326.269 117.94 326.099 118.01 325.899 118.01H323.259C323.059 118.01 322.899 117.97 322.779 117.89C322.679 117.79 322.579 117.63 322.479 117.41C322.179 116.63 321.779 116.07 321.279 115.73C320.799 115.39 320.179 115.22 319.419 115.22C318.399 115.22 317.599 115.55 317.019 116.21C316.439 116.85 316.129 117.83 316.089 119.15L316.059 120.26L316.089 121.25C316.169 123.87 317.279 125.18 319.419 125.18C320.199 125.18 320.829 125.01 321.309 124.67C321.789 124.33 322.179 123.77 322.479 122.99C322.579 122.77 322.679 122.62 322.779 122.54C322.899 122.44 323.059 122.39 323.259 122.39H325.899C326.099 122.39 326.269 122.46 326.409 122.6C326.569 122.74 326.639 122.91 326.619 123.11C326.579 123.81 326.299 124.56 325.779 125.36C325.259 126.16 324.459 126.85 323.379 127.43C322.299 128.01 320.959 128.3 319.359 128.3ZM330.468 128C330.268 128 330.098 127.93 329.958 127.79C329.818 127.65 329.748 127.48 329.748 127.28V113.15C329.748 112.95 329.818 112.78 329.958 112.64C330.098 112.48 330.268 112.4 330.468 112.4H332.898C333.118 112.4 333.298 112.47 333.438 112.61C333.578 112.75 333.648 112.93 333.648 113.15V114.38C334.128 113.74 334.728 113.25 335.448 112.91C336.188 112.57 337.028 112.4 337.968 112.4H339.198C339.418 112.4 339.588 112.47 339.708 112.61C339.848 112.73 339.918 112.9 339.918 113.12V115.28C339.918 115.48 339.848 115.65 339.708 115.79C339.588 115.93 339.418 116 339.198 116H336.858C335.918 116 335.178 116.27 334.638 116.81C334.098 117.35 333.828 118.09 333.828 119.03V127.28C333.828 127.48 333.758 127.65 333.618 127.79C333.478 127.93 333.298 128 333.078 128H330.468ZM342.857 109.82C342.657 109.82 342.487 109.75 342.347 109.61C342.207 109.47 342.137 109.3 342.137 109.1V106.94C342.137 106.74 342.207 106.57 342.347 106.43C342.487 106.29 342.657 106.22 342.857 106.22H345.587C345.787 106.22 345.957 106.29 346.097 106.43C346.257 106.57 346.337 106.74 346.337 106.94V109.1C346.337 109.3 346.267 109.47 346.127 109.61C345.987 109.75 345.807 109.82 345.587 109.82H342.857ZM342.977 128C342.777 128 342.607 127.93 342.467 127.79C342.327 127.65 342.257 127.48 342.257 127.28V113.12C342.257 112.92 342.327 112.75 342.467 112.61C342.607 112.47 342.777 112.4 342.977 112.4H345.467C345.687 112.4 345.857 112.47 345.977 112.61C346.117 112.73 346.187 112.9 346.187 113.12V127.28C346.187 127.48 346.117 127.65 345.977 127.79C345.857 127.93 345.687 128 345.467 128H342.977ZM350.918 133.7C350.718 133.7 350.548 133.63 350.408 133.49C350.268 133.37 350.198 133.2 350.198 132.98V113.12C350.198 112.9 350.268 112.73 350.408 112.61C350.548 112.47 350.718 112.4 350.918 112.4H353.288C353.508 112.4 353.678 112.47 353.798 112.61C353.938 112.73 354.008 112.9 354.008 113.12V114.32C355.128 112.84 356.728 112.1 358.808 112.1C360.828 112.1 362.378 112.74 363.458 114.02C364.538 115.28 365.118 116.99 365.198 119.15C365.218 119.39 365.228 119.74 365.228 120.2C365.228 120.68 365.218 121.04 365.198 121.28C365.118 123.38 364.538 125.08 363.458 126.38C362.378 127.66 360.828 128.3 358.808 128.3C356.788 128.3 355.248 127.59 354.188 126.17V132.98C354.188 133.2 354.118 133.37 353.978 133.49C353.858 133.63 353.688 133.7 353.468 133.7H350.918ZM357.698 125.09C359.858 125.09 361.008 123.76 361.148 121.1C361.168 120.9 361.178 120.6 361.178 120.2C361.178 119.8 361.168 119.5 361.148 119.3C361.008 116.64 359.858 115.31 357.698 115.31C356.538 115.31 355.678 115.68 355.118 116.42C354.558 117.16 354.248 118.07 354.188 119.15L354.158 120.29L354.188 121.46C354.228 122.46 354.538 123.32 355.118 124.04C355.718 124.74 356.578 125.09 357.698 125.09ZM375.528 128C373.708 128 372.338 127.53 371.418 126.59C370.518 125.63 370.068 124.23 370.068 122.39V115.58H367.698C367.498 115.58 367.328 115.51 367.188 115.37C367.048 115.21 366.978 115.03 366.978 114.83V113.12C366.978 112.92 367.048 112.75 367.188 112.61C367.328 112.47 367.498 112.4 367.698 112.4H370.068V107.42C370.068 107.2 370.138 107.03 370.278 106.91C370.418 106.77 370.588 106.7 370.788 106.7H373.218C373.438 106.7 373.608 106.77 373.728 106.91C373.868 107.03 373.938 107.2 373.938 107.42V112.4H377.688C377.908 112.4 378.078 112.47 378.198 112.61C378.338 112.73 378.408 112.9 378.408 113.12V114.83C378.408 115.05 378.338 115.23 378.198 115.37C378.058 115.51 377.888 115.58 377.688 115.58H373.938V122.09C373.938 122.95 374.088 123.6 374.388 124.04C374.688 124.48 375.188 124.7 375.888 124.7H377.958C378.158 124.7 378.328 124.77 378.468 124.91C378.608 125.05 378.678 125.22 378.678 125.42V127.28C378.678 127.48 378.608 127.65 378.468 127.79C378.348 127.93 378.178 128 377.958 128H375.528ZM381.159 130.25C380.979 130.25 380.839 130.19 380.739 130.07C380.639 129.95 380.599 129.8 380.619 129.62L381.429 124.52C381.469 124.24 381.569 124.01 381.729 123.83C381.889 123.65 382.109 123.56 382.389 123.56H385.149C385.289 123.56 385.409 123.62 385.509 123.74C385.629 123.84 385.689 123.97 385.689 124.13C385.689 124.23 385.659 124.36 385.599 124.52L383.679 129.5C383.579 129.74 383.449 129.92 383.289 130.04C383.149 130.18 382.949 130.25 382.689 130.25H381.159ZM397.185 128C396.985 128 396.815 127.93 396.675 127.79C396.535 127.65 396.465 127.48 396.465 127.28V107.75C396.465 107.53 396.525 107.35 396.645 107.21C396.785 107.07 396.965 107 397.185 107H410.205C410.425 107 410.605 107.07 410.745 107.21C410.885 107.35 410.955 107.53 410.955 107.75V109.85C410.955 110.07 410.885 110.25 410.745 110.39C410.605 110.51 410.425 110.57 410.205 110.57H400.575V116.27H409.605C409.825 116.27 410.005 116.34 410.145 116.48C410.285 116.62 410.355 116.8 410.355 117.02V119.12C410.355 119.34 410.285 119.52 410.145 119.66C410.005 119.78 409.825 119.84 409.605 119.84H400.575V127.28C400.575 127.5 400.505 127.68 400.365 127.82C400.225 127.94 400.045 128 399.825 128H397.185ZM414.723 109.82C414.523 109.82 414.353 109.75 414.213 109.61C414.073 109.47 414.003 109.3 414.003 109.1V106.94C414.003 106.74 414.073 106.57 414.213 106.43C414.353 106.29 414.523 106.22 414.723 106.22H417.453C417.653 106.22 417.823 106.29 417.963 106.43C418.123 106.57 418.203 106.74 418.203 106.94V109.1C418.203 109.3 418.133 109.47 417.993 109.61C417.853 109.75 417.673 109.82 417.453 109.82H414.723ZM414.843 128C414.643 128 414.473 127.93 414.333 127.79C414.193 127.65 414.123 127.48 414.123 127.28V113.12C414.123 112.92 414.193 112.75 414.333 112.61C414.473 112.47 414.643 112.4 414.843 112.4H417.333C417.553 112.4 417.723 112.47 417.843 112.61C417.983 112.73 418.053 112.9 418.053 113.12V127.28C418.053 127.48 417.983 127.65 417.843 127.79C417.723 127.93 417.553 128 417.333 128H414.843ZM422.753 128C422.553 128 422.383 127.93 422.243 127.79C422.103 127.65 422.033 127.48 422.033 127.28V113.15C422.033 112.95 422.103 112.78 422.243 112.64C422.383 112.48 422.553 112.4 422.753 112.4H425.183C425.403 112.4 425.583 112.47 425.723 112.61C425.863 112.75 425.933 112.93 425.933 113.15V114.38C426.413 113.74 427.013 113.25 427.733 112.91C428.473 112.57 429.313 112.4 430.253 112.4H431.483C431.703 112.4 431.873 112.47 431.993 112.61C432.133 112.73 432.203 112.9 432.203 113.12V115.28C432.203 115.48 432.133 115.65 431.993 115.79C431.873 115.93 431.703 116 431.483 116H429.143C428.203 116 427.463 116.27 426.923 116.81C426.383 117.35 426.113 118.09 426.113 119.03V127.28C426.113 127.48 426.043 127.65 425.903 127.79C425.763 127.93 425.583 128 425.363 128H422.753ZM441.057 128.3C438.837 128.3 437.067 127.66 435.747 126.38C434.447 125.08 433.757 123.26 433.677 120.92L433.647 120.17L433.677 119.42C433.777 117.14 434.477 115.35 435.777 114.05C437.097 112.75 438.857 112.1 441.057 112.1C443.417 112.1 445.237 112.82 446.517 114.26C447.817 115.7 448.467 117.62 448.467 120.02V120.65C448.467 120.85 448.397 121.02 448.257 121.16C448.117 121.3 447.937 121.37 447.717 121.37H437.757V121.61C437.797 122.71 438.097 123.64 438.657 124.4C439.237 125.14 440.027 125.51 441.027 125.51C442.207 125.51 443.157 125.05 443.877 124.13C444.057 123.91 444.197 123.77 444.297 123.71C444.417 123.65 444.587 123.62 444.807 123.62H447.387C447.567 123.62 447.717 123.68 447.837 123.8C447.977 123.9 448.047 124.03 448.047 124.19C448.047 124.67 447.757 125.24 447.177 125.9C446.617 126.54 445.807 127.1 444.747 127.58C443.687 128.06 442.457 128.3 441.057 128.3ZM444.387 118.85V118.76C444.387 117.58 444.087 116.63 443.487 115.91C442.907 115.19 442.097 114.83 441.057 114.83C440.017 114.83 439.207 115.19 438.627 115.91C438.047 116.63 437.757 117.58 437.757 118.76V118.85H444.387ZM460.292 128.3C458.232 128.3 456.632 127.59 455.492 126.17V127.28C455.492 127.48 455.422 127.65 455.282 127.79C455.162 127.93 454.992 128 454.772 128H452.402C452.202 128 452.032 127.93 451.892 127.79C451.752 127.65 451.682 127.48 451.682 127.28V107.42C451.682 107.2 451.752 107.03 451.892 106.91C452.032 106.77 452.202 106.7 452.402 106.7H454.952C455.172 106.7 455.342 106.77 455.462 106.91C455.602 107.03 455.672 107.2 455.672 107.42V114.08C456.812 112.76 458.352 112.1 460.292 112.1C462.312 112.1 463.862 112.76 464.942 114.08C466.022 115.4 466.602 117.11 466.682 119.21C466.702 119.45 466.712 119.77 466.712 120.17C466.712 120.59 466.702 120.92 466.682 121.16C466.602 123.32 466.022 125.05 464.942 126.35C463.862 127.65 462.312 128.3 460.292 128.3ZM459.182 125.09C461.342 125.09 462.492 123.76 462.632 121.1C462.652 120.9 462.662 120.6 462.662 120.2C462.662 119.8 462.652 119.5 462.632 119.3C462.492 116.64 461.342 115.31 459.182 115.31C458.062 115.31 457.202 115.67 456.602 116.39C456.022 117.09 455.712 117.94 455.672 118.94L455.642 120.08L455.672 121.25C455.732 122.33 456.042 123.24 456.602 123.98C457.162 124.72 458.022 125.09 459.182 125.09ZM474.58 128.3C473.56 128.3 472.62 128.1 471.76 127.7C470.92 127.28 470.25 126.72 469.75 126.02C469.27 125.32 469.03 124.55 469.03 123.71C469.03 122.35 469.58 121.25 470.68 120.41C471.78 119.57 473.29 119 475.21 118.7L479.32 118.1V117.47C479.32 116.59 479.1 115.93 478.66 115.49C478.22 115.05 477.51 114.83 476.53 114.83C475.87 114.83 475.33 114.96 474.91 115.22C474.51 115.46 474.19 115.7 473.95 115.94C473.71 116.2 473.55 116.37 473.47 116.45C473.39 116.69 473.24 116.81 473.02 116.81H470.71C470.53 116.81 470.37 116.75 470.23 116.63C470.11 116.51 470.05 116.35 470.05 116.15C470.07 115.65 470.31 115.08 470.77 114.44C471.25 113.8 471.98 113.25 472.96 112.79C473.94 112.33 475.14 112.1 476.56 112.1C478.92 112.1 480.64 112.63 481.72 113.69C482.8 114.75 483.34 116.14 483.34 117.86V127.28C483.34 127.48 483.27 127.65 483.13 127.79C483.01 127.93 482.84 128 482.62 128H480.19C479.99 128 479.82 127.93 479.68 127.79C479.54 127.65 479.47 127.48 479.47 127.28V126.11C479.03 126.75 478.4 127.28 477.58 127.7C476.78 128.1 475.78 128.3 474.58 128.3ZM475.6 125.45C476.7 125.45 477.6 125.09 478.3 124.37C479 123.65 479.35 122.6 479.35 121.22V120.59L476.35 121.07C475.19 121.25 474.31 121.54 473.71 121.94C473.13 122.34 472.84 122.83 472.84 123.41C472.84 124.05 473.11 124.55 473.65 124.91C474.19 125.27 474.84 125.45 475.6 125.45ZM493.099 128.3C491.599 128.3 490.339 128.08 489.319 127.64C488.299 127.18 487.539 126.65 487.039 126.05C486.559 125.43 486.319 124.9 486.319 124.46C486.319 124.26 486.389 124.1 486.529 123.98C486.669 123.86 486.829 123.8 487.009 123.8H489.379C489.559 123.8 489.709 123.87 489.829 124.01C489.909 124.07 490.119 124.25 490.459 124.55C490.799 124.87 491.199 125.12 491.659 125.3C492.119 125.48 492.629 125.57 493.189 125.57C493.989 125.57 494.649 125.41 495.169 125.09C495.689 124.77 495.949 124.33 495.949 123.77C495.949 123.35 495.829 123.01 495.589 122.75C495.369 122.49 494.959 122.26 494.359 122.06C493.759 121.84 492.869 121.61 491.689 121.37C489.989 121.01 488.729 120.46 487.909 119.72C487.109 118.98 486.709 118 486.709 116.78C486.709 115.98 486.949 115.23 487.429 114.53C487.909 113.81 488.619 113.23 489.559 112.79C490.519 112.33 491.659 112.1 492.979 112.1C494.319 112.1 495.479 112.32 496.459 112.76C497.439 113.18 498.179 113.69 498.679 114.29C499.199 114.87 499.459 115.39 499.459 115.85C499.459 116.03 499.389 116.19 499.249 116.33C499.129 116.45 498.979 116.51 498.799 116.51H496.579C496.419 116.51 496.249 116.44 496.069 116.3C495.929 116.2 495.709 116.01 495.409 115.73C495.109 115.45 494.759 115.23 494.359 115.07C493.959 114.91 493.489 114.83 492.949 114.83C492.209 114.83 491.629 114.99 491.209 115.31C490.809 115.63 490.609 116.05 490.609 116.57C490.609 116.95 490.709 117.26 490.909 117.5C491.109 117.74 491.499 117.97 492.079 118.19C492.659 118.41 493.529 118.63 494.689 118.85C496.609 119.23 497.979 119.82 498.799 120.62C499.639 121.42 500.059 122.4 500.059 123.56C500.059 124.96 499.449 126.1 498.229 126.98C497.009 127.86 495.299 128.3 493.099 128.3ZM509.876 128.3C507.656 128.3 505.886 127.66 504.566 126.38C503.266 125.08 502.576 123.26 502.496 120.92L502.466 120.17L502.496 119.42C502.596 117.14 503.296 115.35 504.596 114.05C505.916 112.75 507.676 112.1 509.876 112.1C512.236 112.1 514.056 112.82 515.336 114.26C516.636 115.7 517.286 117.62 517.286 120.02V120.65C517.286 120.85 517.216 121.02 517.076 121.16C516.936 121.3 516.756 121.37 516.536 121.37H506.576V121.61C506.616 122.71 506.916 123.64 507.476 124.4C508.056 125.14 508.846 125.51 509.846 125.51C511.026 125.51 511.976 125.05 512.696 124.13C512.876 123.91 513.016 123.77 513.116 123.71C513.236 123.65 513.406 123.62 513.626 123.62H516.206C516.386 123.62 516.536 123.68 516.656 123.8C516.796 123.9 516.866 124.03 516.866 124.19C516.866 124.67 516.576 125.24 515.996 125.9C515.436 126.54 514.626 127.1 513.566 127.58C512.506 128.06 511.276 128.3 509.876 128.3ZM513.206 118.85V118.76C513.206 117.58 512.906 116.63 512.306 115.91C511.726 115.19 510.916 114.83 509.876 114.83C508.836 114.83 508.026 115.19 507.446 115.91C506.866 116.63 506.576 117.58 506.576 118.76V118.85H513.206ZM520.29 130.25C520.11 130.25 519.97 130.19 519.87 130.07C519.77 129.95 519.73 129.8 519.75 129.62L520.56 124.52C520.6 124.24 520.7 124.01 520.86 123.83C521.02 123.65 521.24 123.56 521.52 123.56H524.28C524.42 123.56 524.54 123.62 524.64 123.74C524.76 123.84 524.82 123.97 524.82 124.13C524.82 124.23 524.79 124.36 524.73 124.52L522.81 129.5C522.71 129.74 522.58 129.92 522.42 130.04C522.28 130.18 522.08 130.25 521.82 130.25H520.29ZM536.316 128C536.116 128 535.946 127.93 535.806 127.79C535.666 127.65 535.596 127.48 535.596 127.28V107.75C535.596 107.53 535.656 107.35 535.776 107.21C535.916 107.07 536.096 107 536.316 107H544.086C546.526 107 548.436 107.57 549.816 108.71C551.216 109.85 551.916 111.47 551.916 113.57C551.916 115.03 551.556 116.26 550.836 117.26C550.136 118.24 549.156 118.95 547.896 119.39L552.276 127.04C552.336 127.16 552.366 127.27 552.366 127.37C552.366 127.55 552.296 127.7 552.156 127.82C552.036 127.94 551.896 128 551.736 128H549.006C548.686 128 548.436 127.93 548.256 127.79C548.096 127.65 547.946 127.45 547.806 127.19L543.936 120.08H539.766V127.28C539.766 127.48 539.696 127.65 539.556 127.79C539.436 127.93 539.266 128 539.046 128H536.316ZM543.996 116.69C545.196 116.69 546.096 116.42 546.696 115.88C547.316 115.34 547.626 114.56 547.626 113.54C547.626 112.52 547.316 111.73 546.696 111.17C546.096 110.61 545.196 110.33 543.996 110.33H539.766V116.69H543.996ZM561.966 128.3C559.746 128.3 557.976 127.66 556.656 126.38C555.356 125.08 554.666 123.26 554.586 120.92L554.556 120.17L554.586 119.42C554.686 117.14 555.386 115.35 556.686 114.05C558.006 112.75 559.766 112.1 561.966 112.1C564.326 112.1 566.146 112.82 567.426 114.26C568.726 115.7 569.376 117.62 569.376 120.02V120.65C569.376 120.85 569.306 121.02 569.166 121.16C569.026 121.3 568.846 121.37 568.626 121.37H558.666V121.61C558.706 122.71 559.006 123.64 559.566 124.4C560.146 125.14 560.936 125.51 561.936 125.51C563.116 125.51 564.066 125.05 564.786 124.13C564.966 123.91 565.106 123.77 565.206 123.71C565.326 123.65 565.496 123.62 565.716 123.62H568.296C568.476 123.62 568.626 123.68 568.746 123.8C568.886 123.9 568.956 124.03 568.956 124.19C568.956 124.67 568.666 125.24 568.086 125.9C567.526 126.54 566.716 127.1 565.656 127.58C564.596 128.06 563.366 128.3 561.966 128.3ZM565.296 118.85V118.76C565.296 117.58 564.996 116.63 564.396 115.91C563.816 115.19 563.006 114.83 561.966 114.83C560.926 114.83 560.116 115.19 559.536 115.91C558.956 116.63 558.666 117.58 558.666 118.76V118.85H565.296ZM577.09 128.3C576.07 128.3 575.13 128.1 574.27 127.7C573.43 127.28 572.76 126.72 572.26 126.02C571.78 125.32 571.54 124.55 571.54 123.71C571.54 122.35 572.09 121.25 573.19 120.41C574.29 119.57 575.8 119 577.72 118.7L581.83 118.1V117.47C581.83 116.59 581.61 115.93 581.17 115.49C580.73 115.05 580.02 114.83 579.04 114.83C578.38 114.83 577.84 114.96 577.42 115.22C577.02 115.46 576.7 115.7 576.46 115.94C576.22 116.2 576.06 116.37 575.98 116.45C575.9 116.69 575.75 116.81 575.53 116.81H573.22C573.04 116.81 572.88 116.75 572.74 116.63C572.62 116.51 572.56 116.35 572.56 116.15C572.58 115.65 572.82 115.08 573.28 114.44C573.76 113.8 574.49 113.25 575.47 112.79C576.45 112.33 577.65 112.1 579.07 112.1C581.43 112.1 583.15 112.63 584.23 113.69C585.31 114.75 585.85 116.14 585.85 117.86V127.28C585.85 127.48 585.78 127.65 585.64 127.79C585.52 127.93 585.35 128 585.13 128H582.7C582.5 128 582.33 127.93 582.19 127.79C582.05 127.65 581.98 127.48 581.98 127.28V126.11C581.54 126.75 580.91 127.28 580.09 127.7C579.29 128.1 578.29 128.3 577.09 128.3ZM578.11 125.45C579.21 125.45 580.11 125.09 580.81 124.37C581.51 123.65 581.86 122.6 581.86 121.22V120.59L578.86 121.07C577.7 121.25 576.82 121.54 576.22 121.94C575.64 122.34 575.35 122.83 575.35 123.41C575.35 124.05 575.62 124.55 576.16 124.91C576.7 125.27 577.35 125.45 578.11 125.45ZM596.449 128.3C594.249 128.3 592.489 127.69 591.169 126.47C589.869 125.25 589.179 123.56 589.099 121.4L589.069 120.2L589.099 119C589.179 116.84 589.869 115.15 591.169 113.93C592.489 112.71 594.249 112.1 596.449 112.1C598.009 112.1 599.329 112.38 600.409 112.94C601.509 113.5 602.319 114.19 602.839 115.01C603.379 115.81 603.669 116.57 603.709 117.29C603.729 117.49 603.659 117.66 603.499 117.8C603.359 117.94 603.189 118.01 602.989 118.01H600.349C600.149 118.01 599.989 117.97 599.869 117.89C599.769 117.79 599.669 117.63 599.569 117.41C599.269 116.63 598.869 116.07 598.369 115.73C597.889 115.39 597.269 115.22 596.509 115.22C595.489 115.22 594.689 115.55 594.109 116.21C593.529 116.85 593.219 117.83 593.179 119.15L593.149 120.26L593.179 121.25C593.259 123.87 594.369 125.18 596.509 125.18C597.289 125.18 597.919 125.01 598.399 124.67C598.879 124.33 599.269 123.77 599.569 122.99C599.669 122.77 599.769 122.62 599.869 122.54C599.989 122.44 600.149 122.39 600.349 122.39H602.989C603.189 122.39 603.359 122.46 603.499 122.6C603.659 122.74 603.729 122.91 603.709 123.11C603.669 123.81 603.389 124.56 602.869 125.36C602.349 126.16 601.549 126.85 600.469 127.43C599.389 128.01 598.049 128.3 596.449 128.3ZM613.887 128C612.067 128 610.697 127.53 609.777 126.59C608.877 125.63 608.427 124.23 608.427 122.39V115.58H606.057C605.857 115.58 605.687 115.51 605.547 115.37C605.407 115.21 605.337 115.03 605.337 114.83V113.12C605.337 112.92 605.407 112.75 605.547 112.61C605.687 112.47 605.857 112.4 606.057 112.4H608.427V107.42C608.427 107.2 608.497 107.03 608.637 106.91C608.777 106.77 608.947 106.7 609.147 106.7H611.577C611.797 106.7 611.967 106.77 612.087 106.91C612.227 107.03 612.297 107.2 612.297 107.42V112.4H616.047C616.267 112.4 616.437 112.47 616.557 112.61C616.697 112.73 616.767 112.9 616.767 113.12V114.83C616.767 115.05 616.697 115.23 616.557 115.37C616.417 115.51 616.247 115.58 616.047 115.58H612.297V122.09C612.297 122.95 612.447 123.6 612.747 124.04C613.047 124.48 613.547 124.7 614.247 124.7H616.317C616.517 124.7 616.687 124.77 616.827 124.91C616.967 125.05 617.037 125.22 617.037 125.42V127.28C617.037 127.48 616.967 127.65 616.827 127.79C616.707 127.93 616.537 128 616.317 128H613.887ZM620.239 128C620.039 128 619.869 127.93 619.729 127.79C619.589 127.65 619.519 127.48 619.519 127.28V124.31C619.519 124.11 619.589 123.94 619.729 123.8C619.869 123.64 620.039 123.56 620.239 123.56H623.239C623.439 123.56 623.609 123.64 623.749 123.8C623.889 123.94 623.959 124.11 623.959 124.31V127.28C623.959 127.48 623.889 127.65 623.749 127.79C623.609 127.93 623.439 128 623.239 128H620.239ZM628.422 109.82C628.222 109.82 628.052 109.75 627.912 109.61C627.772 109.47 627.702 109.3 627.702 109.1V106.94C627.702 106.74 627.772 106.57 627.912 106.43C628.052 106.29 628.222 106.22 628.422 106.22H631.242C631.442 106.22 631.612 106.29 631.752 106.43C631.912 106.57 631.992 106.74 631.992 106.94V109.1C631.992 109.3 631.922 109.47 631.782 109.61C631.642 109.75 631.462 109.82 631.242 109.82H628.422ZM624.912 133.7C624.692 133.7 624.522 133.63 624.402 133.49C624.262 133.37 624.192 133.2 624.192 132.98V131.27C624.192 131.05 624.262 130.87 624.402 130.73C624.542 130.59 624.712 130.52 624.912 130.52H625.692C626.532 130.52 627.092 130.3 627.372 129.86C627.672 129.44 627.822 128.81 627.822 127.97V113.12C627.822 112.9 627.892 112.73 628.032 112.61C628.172 112.47 628.342 112.4 628.542 112.4H631.152C631.352 112.4 631.522 112.47 631.662 112.61C631.802 112.75 631.872 112.92 631.872 113.12V128.03C631.872 129.83 631.382 131.22 630.402 132.2C629.442 133.2 627.992 133.7 626.052 133.7H624.912ZM641.781 128.3C640.281 128.3 639.021 128.08 638.001 127.64C636.981 127.18 636.221 126.65 635.721 126.05C635.241 125.43 635.001 124.9 635.001 124.46C635.001 124.26 635.071 124.1 635.211 123.98C635.351 123.86 635.511 123.8 635.691 123.8H638.061C638.241 123.8 638.391 123.87 638.511 124.01C638.591 124.07 638.801 124.25 639.141 124.55C639.481 124.87 639.881 125.12 640.341 125.3C640.801 125.48 641.311 125.57 641.871 125.57C642.671 125.57 643.331 125.41 643.851 125.09C644.371 124.77 644.631 124.33 644.631 123.77C644.631 123.35 644.511 123.01 644.271 122.75C644.051 122.49 643.641 122.26 643.041 122.06C642.441 121.84 641.551 121.61 640.371 121.37C638.671 121.01 637.411 120.46 636.591 119.72C635.791 118.98 635.391 118 635.391 116.78C635.391 115.98 635.631 115.23 636.111 114.53C636.591 113.81 637.301 113.23 638.241 112.79C639.201 112.33 640.341 112.1 641.661 112.1C643.001 112.1 644.161 112.32 645.141 112.76C646.121 113.18 646.861 113.69 647.361 114.29C647.881 114.87 648.141 115.39 648.141 115.85C648.141 116.03 648.071 116.19 647.931 116.33C647.811 116.45 647.661 116.51 647.481 116.51H645.261C645.101 116.51 644.931 116.44 644.751 116.3C644.611 116.2 644.391 116.01 644.091 115.73C643.791 115.45 643.441 115.23 643.041 115.07C642.641 114.91 642.171 114.83 641.631 114.83C640.891 114.83 640.311 114.99 639.891 115.31C639.491 115.63 639.291 116.05 639.291 116.57C639.291 116.95 639.391 117.26 639.591 117.5C639.791 117.74 640.181 117.97 640.761 118.19C641.341 118.41 642.211 118.63 643.371 118.85C645.291 119.23 646.661 119.82 647.481 120.62C648.321 121.42 648.741 122.4 648.741 123.56C648.741 124.96 648.131 126.1 646.911 126.98C645.691 127.86 643.981 128.3 641.781 128.3Z" fill="#605454"/>
<path id="Tecnolog&#195;&#173;as utilizadas" d="M16.3678 60.112C15.9411 60.1089 15.5582 59.9569 15.219 59.6558C14.9227 59.3123 14.7761 58.9273 14.7792 58.5006L15.0152 25.3494L3.62353 25.2683C3.19687 25.2653 2.81394 25.1132 2.47475 24.8121C2.17852 24.4687 2.03192 24.0836 2.03496 23.657L2.08372 16.8091C2.08706 16.3398 2.23912 15.9569 2.53991 15.6604C2.88336 15.3641 3.26842 15.2175 3.69507 15.2206L38.1262 15.4657C38.5955 15.4691 38.9785 15.6211 39.275 15.9219C39.5715 16.2227 39.7181 16.6078 39.7148 17.0771L39.666 23.9249C39.6627 24.3942 39.5106 24.7772 39.2098 25.0737C38.909 25.3702 38.524 25.5168 38.0547 25.5135L26.6629 25.4324L26.4269 58.5835C26.4239 59.0102 26.2718 59.3931 25.9707 59.7323C25.6699 60.0289 25.2849 60.1754 24.8155 60.1721L16.3678 60.112ZM54.2497 61.0217C49.1299 60.9853 45.1078 59.5699 42.1837 56.7757C39.2595 53.9815 37.7522 49.9386 37.6619 44.6472L37.6779 42.4072C37.8844 37.3739 39.4696 33.4598 42.4336 30.6648C45.4405 27.8275 49.4399 26.4266 54.4318 26.4621C58.0584 26.4879 61.1037 27.2563 63.5676 28.7672C66.0746 30.2358 67.9376 32.2544 69.1567 34.8232C70.4184 37.3922 71.0374 40.3407 71.0137 43.6686L71.0028 45.2046C70.9997 45.6312 70.8477 46.0142 70.5466 46.3534C70.2458 46.6499 69.8608 46.7965 69.3914 46.7932L48.912 46.6473L48.9088 47.0953C48.9798 49.1012 49.4589 50.726 50.3461 51.9697C51.2333 53.2134 52.5302 53.8413 54.2368 53.8534C55.3034 53.861 56.1796 53.6539 56.8653 53.2321C57.5513 52.7677 58.1739 52.2174 58.7331 51.5814C59.1204 51.1148 59.421 50.8396 59.635 50.7558C59.8919 50.6296 60.2763 50.5684 60.7883 50.572L68.7241 50.6285C69.1081 50.6312 69.4272 50.7615 69.6814 51.0193C69.9785 51.2348 70.1257 51.5345 70.123 51.9185C70.1151 53.0278 69.466 54.3032 68.1757 55.7447C66.928 57.1866 65.1058 58.4323 62.7089 59.4819C60.3121 60.5315 57.4923 61.0448 54.2497 61.0217ZM59.7728 40.3885L59.7737 40.2605C59.7886 38.1699 59.3096 36.5238 58.3368 35.3222C57.407 34.0782 56.0888 33.4501 54.3821 33.4379C52.7182 33.4261 51.3912 34.0353 50.401 35.2656C49.4539 36.4536 48.9729 38.0929 48.958 40.1835L48.9571 40.3115L59.7728 40.3885ZM92.1848 61.2918C87.3636 61.2575 83.4688 59.9497 80.5004 57.3685C77.5324 54.7447 75.9581 51.128 75.7776 46.5186L75.7318 43.9582L75.8145 41.3348C76.0179 36.7281 77.6222 33.1341 80.6274 30.5528C83.6751 27.9717 87.6096 26.6984 92.4309 26.7327C96.0574 26.7585 99.1033 27.4416 101.569 28.7818C104.077 30.0797 105.922 31.6502 107.103 33.4933C108.328 35.2941 108.977 36.9414 109.052 38.4353C109.092 38.8623 108.94 39.2452 108.596 39.5841C108.295 39.8807 107.91 40.0273 107.441 40.0239L99.3128 39.966C98.8435 39.9627 98.4816 39.8534 98.2271 39.6383C97.9726 39.4231 97.7403 39.1015 97.53 38.6733C97.0274 37.347 96.3728 36.4037 95.5661 35.8433C94.802 35.2831 93.8014 34.9987 92.5641 34.9899C89.0655 34.9649 87.2361 37.2133 87.0759 41.735L86.9946 44.1664L87.0435 46.2788C87.1125 48.5834 87.591 50.2935 88.4791 51.4092C89.4101 52.4825 90.7289 53.0252 92.4356 53.0374C93.7582 53.0468 94.8055 52.7769 95.5774 52.2278C96.3493 51.6786 96.9747 50.7443 97.4534 49.425C97.6698 48.9999 97.9067 48.6816 98.1642 48.4701C98.4217 48.2586 98.7852 48.1545 99.2545 48.1578L107.382 48.2157C107.809 48.2187 108.171 48.3707 108.467 48.6714C108.807 48.9299 108.975 49.2724 108.972 49.6991C108.962 51.0644 108.353 52.6601 107.146 54.4862C105.981 56.3126 104.134 57.9208 101.607 59.3109C99.0801 60.6582 95.9394 61.3186 92.1848 61.2918ZM116.243 60.8231C115.773 60.8198 115.39 60.6677 115.094 60.3669C114.797 60.0661 114.651 59.6811 114.654 59.2118L114.868 29.1325C114.872 28.6632 115.024 28.2803 115.325 27.9837C115.625 27.6872 116.01 27.5406 116.48 27.544L123.84 27.5964C124.309 27.5997 124.692 27.7518 124.988 28.0526C125.327 28.3536 125.495 28.7388 125.492 29.2082L125.475 31.6401C126.637 30.2403 128.117 29.1202 129.915 28.2796C131.755 27.4394 133.828 27.0275 136.132 27.0439C139.886 27.0706 142.928 28.3723 145.256 30.9489C147.585 33.4829 148.733 37.0325 148.7 41.5977L148.573 59.4533C148.57 59.8799 148.418 60.2629 148.117 60.6021C147.816 60.8986 147.431 61.0452 146.962 61.0419L138.898 60.9844C138.472 60.9814 138.089 60.8293 137.749 60.5282C137.453 60.1848 137.307 59.7997 137.31 59.3731L137.434 41.9015C137.448 39.8962 136.969 38.3568 135.995 37.2832C135.021 36.1669 133.617 35.6022 131.783 35.5891C129.991 35.5764 128.579 36.121 127.547 37.223C126.515 38.2824 125.993 39.8147 125.978 41.82L125.854 59.2915C125.851 59.7182 125.699 60.1011 125.398 60.4403C125.097 60.7368 124.712 60.8834 124.243 60.8801L116.243 60.8231ZM171.506 61.8566C166.215 61.819 162.15 60.5313 159.309 57.9937C156.468 55.4561 154.936 51.9037 154.713 47.3367C154.674 46.7817 154.66 45.8216 154.669 44.4563C154.679 43.091 154.707 42.1312 154.754 41.5768C155.042 37.0561 156.667 33.5476 159.629 31.0513C162.591 28.5123 166.632 27.261 171.752 27.2975C176.914 27.3343 180.959 28.6431 183.884 31.224C186.81 33.7622 188.385 37.2935 188.609 41.8179C188.648 42.3729 188.662 43.333 188.652 44.6983C188.643 46.0636 188.614 47.0234 188.568 47.5778C188.279 52.1412 186.697 55.6713 183.82 58.1682C180.944 60.6651 176.839 61.8946 171.506 61.8566ZM171.561 54.0488C173.439 54.0622 174.829 53.5174 175.733 52.4145C176.637 51.2689 177.162 49.5233 177.306 47.1776C177.352 46.7512 177.38 45.898 177.389 44.6181C177.398 43.3381 177.383 42.4847 177.343 42.0577C177.231 39.7528 176.71 38.0211 175.78 36.8624C174.892 35.7041 173.531 35.1184 171.696 35.1053C168.155 35.0801 166.261 37.3707 166.015 41.977L165.933 44.5365L165.979 47.0969C166.047 49.4441 166.526 51.1969 167.413 52.3553C168.344 53.4712 169.727 54.0358 171.561 54.0488ZM196.491 61.3945C196.064 61.3915 195.681 61.2394 195.342 60.9383C195.046 60.5949 194.899 60.2098 194.902 59.7832L195.203 17.5442C195.206 17.0749 195.358 16.692 195.659 16.3955C196.003 16.0992 196.388 15.9526 196.814 15.9557L204.366 16.0094C204.835 16.0128 205.218 16.1648 205.515 16.4656C205.811 16.7664 205.958 17.1515 205.955 17.6208L205.654 59.8597C205.651 60.329 205.498 60.712 205.198 61.0085C204.897 61.305 204.512 61.4516 204.043 61.4483L196.491 61.3945ZM228.942 62.2656C223.651 62.2279 219.586 60.9403 216.745 58.4027C213.904 55.865 212.372 52.3127 212.149 47.7457C212.11 47.1907 212.096 46.2306 212.105 44.8653C212.115 43.5 212.143 42.5402 212.19 41.9858C212.478 37.4651 214.103 33.9566 217.065 31.4603C220.027 28.9213 224.068 27.67 229.188 27.7065C234.35 27.7432 238.395 29.0521 241.32 31.633C244.246 34.1712 245.821 37.7025 246.045 42.2269C246.084 42.7818 246.098 43.742 246.088 45.1073C246.079 46.4726 246.051 47.4324 246.004 47.9867C245.715 52.5501 244.133 56.0803 241.256 58.5772C238.38 61.0741 234.275 62.3036 228.942 62.2656ZM228.997 54.4578C230.875 54.4712 232.265 53.9264 233.169 52.8235C234.073 51.6779 234.598 49.9322 234.742 47.5865C234.788 47.1602 234.816 46.307 234.825 45.0271C234.834 43.7471 234.819 42.8936 234.779 42.4667C234.667 40.1618 234.146 38.4301 233.216 37.2714C232.328 36.1131 230.967 35.5273 229.132 35.5143C225.591 35.4891 223.697 37.7796 223.451 42.386L223.369 44.9455L223.415 47.5059C223.483 49.8531 223.962 51.6059 224.849 52.7642C225.78 53.8802 227.163 54.4447 228.997 54.4578ZM268.546 75.988C264.493 75.9591 261.212 75.2744 258.704 73.9338C256.197 72.5933 254.394 71.0657 253.297 69.3512C252.243 67.637 251.719 66.2039 251.728 65.0519C251.73 64.6679 251.903 64.3278 252.247 64.0316C252.59 63.7354 252.975 63.5888 253.402 63.5918L261.53 63.6497C261.956 63.6527 262.276 63.7403 262.488 63.9125C262.742 64.1277 262.975 64.4707 263.185 64.9415C263.604 65.9258 264.175 66.6979 264.896 67.2577C265.617 67.8602 266.746 68.1669 268.282 68.1779C270.244 68.1918 271.698 67.7115 272.644 66.7369C273.589 65.8049 274.07 64.2083 274.086 61.947L274.117 57.6592C271.924 60.0329 268.801 61.2054 264.747 61.1765C260.438 61.1458 257.141 59.8637 254.855 57.33C252.612 54.754 251.401 51.0546 251.222 46.2318L251.17 44.5034C251.207 39.3409 252.387 35.2959 254.712 32.3683C257.038 29.3982 260.461 27.9292 264.984 27.9614C267.16 27.9769 269.077 28.4172 270.735 29.2823C272.393 30.1048 273.793 31.2242 274.935 32.6403L274.952 30.2724C274.955 29.8031 275.107 29.4202 275.408 29.1236C275.751 28.8274 276.136 28.6808 276.563 28.6838L283.923 28.7362C284.392 28.7396 284.775 28.913 285.071 29.2564C285.41 29.5575 285.579 29.9214 285.576 30.348L285.356 61.1313C285.322 65.9951 283.845 69.6967 280.925 72.236C278.006 74.7753 273.879 76.0259 268.546 75.988ZM268.263 52.8813C270.183 52.895 271.616 52.3292 272.563 51.1839C273.51 49.996 274.054 48.5065 274.195 46.7154C274.239 46.4171 274.266 45.7559 274.273 44.7319C274.28 43.7506 274.263 43.1105 274.222 42.8115C274.15 41.019 273.627 39.5432 272.654 38.3842C271.724 37.1829 270.299 36.5754 268.379 36.5618C266.374 36.5475 264.919 37.1345 264.014 38.3227C263.11 39.511 262.607 41.1501 262.507 43.2401L262.433 44.6476C262.415 47.1649 262.828 49.1732 263.67 50.6726C264.513 52.1293 266.044 52.8655 268.263 52.8813ZM294.488 62.0923C294.019 62.089 293.636 61.9369 293.339 61.6361C293.043 61.3353 292.896 60.9503 292.9 60.481L293.114 30.4017C293.117 29.9324 293.269 29.5495 293.57 29.2529C293.871 28.9564 294.256 28.8098 294.725 28.8132L302.277 28.8669C302.746 28.8703 303.129 29.0223 303.426 29.3231C303.722 29.6239 303.869 30.009 303.866 30.4783L303.651 60.5575C303.648 60.9842 303.496 61.3671 303.195 61.7063C302.894 62.0028 302.509 62.1494 302.04 62.1461L294.488 62.0923ZM294.887 24.0142C294.205 24.0093 293.866 23.6656 293.871 22.9829C293.873 22.6416 293.982 22.365 294.197 22.1532L299.877 15.3455C300.308 14.8365 300.672 14.5191 300.972 14.3933C301.272 14.2247 301.699 14.1424 302.254 14.1464L310.702 14.2065C311.086 14.2093 311.383 14.3394 311.595 14.5969C311.807 14.8118 311.911 15.1112 311.908 15.4952C311.906 15.7938 311.798 16.0491 311.583 16.2609L303.022 23.1761C302.635 23.472 302.271 23.7041 301.929 23.8723C301.586 23.9979 301.138 24.0587 300.583 24.0547L294.887 24.0142ZM321.179 62.9224C318.918 62.9063 316.852 62.4649 314.981 61.5982C313.153 60.6892 311.71 59.4842 310.654 57.9833C309.641 56.4401 309.141 54.7511 309.154 52.9165C309.175 49.9726 310.387 47.6132 312.789 45.8382C315.234 44.0636 318.57 42.85 322.799 42.1974L330.808 41.0384L330.814 40.1424C330.825 38.5211 330.493 37.324 329.815 36.5512C329.138 35.7784 327.989 35.3862 326.368 35.3746C325.386 35.3676 324.575 35.5325 323.932 35.8693C323.29 36.2061 322.625 36.6707 321.938 37.2631C321.337 37.7709 320.887 38.109 320.587 38.2775C320.457 38.618 320.221 38.7869 319.879 38.7845L312.904 38.7348C312.477 38.7318 312.115 38.6012 311.818 38.3431C311.564 38.0426 311.46 37.7005 311.506 37.3169C311.556 36.1652 312.12 34.8892 313.197 33.4888C314.316 32.0887 315.989 30.8846 318.215 29.8764C320.483 28.8686 323.26 28.3763 326.545 28.3997C331.793 28.4371 335.668 29.638 338.168 32.0026C340.669 34.3244 341.905 37.448 341.877 41.3732L341.739 60.8287C341.736 61.2554 341.584 61.6383 341.283 61.9775C340.982 62.274 340.597 62.4206 340.128 62.4173L332.704 62.3644C332.277 62.3614 331.894 62.2093 331.555 61.9082C331.259 61.5648 331.112 61.1797 331.115 60.7531L331.131 58.5131C330.183 59.8291 328.853 60.9076 327.14 61.7488C325.47 62.5476 323.483 62.9388 321.179 62.9224ZM324.239 55.648C326.202 55.662 327.785 55.0332 328.989 53.7618C330.235 52.4906 330.867 50.6177 330.885 48.1431L330.891 47.2471L325.445 48.1684C321.6 48.8237 319.67 50.154 319.656 52.1593C319.648 53.2259 320.09 54.0824 320.982 54.7288C321.874 55.3325 322.959 55.6389 324.239 55.648ZM362.64 63.2176C359.185 63.193 356.287 62.6817 353.947 61.6837C351.65 60.686 349.952 59.5005 348.852 58.1273C347.753 56.7541 347.207 55.5342 347.214 54.4675C347.217 54.0409 347.369 53.7006 347.67 53.4468C348.013 53.1505 348.377 53.0038 348.761 53.0065L356.057 53.0585C356.313 53.0603 356.547 53.1686 356.758 53.3835C357.268 53.7284 357.65 54.0085 357.904 54.2237C358.838 54.913 359.645 55.4308 360.325 55.7769C361.049 56.0808 361.922 56.2363 362.946 56.2436C364.183 56.2524 365.188 56.0249 365.959 55.561C366.773 55.0548 367.184 54.3537 367.19 53.4578C367.195 52.7324 366.986 52.1549 366.562 51.7252C366.181 51.2959 365.416 50.8851 364.267 50.4929C363.118 50.058 361.372 49.5976 359.029 49.1115C355.493 48.361 352.77 47.1683 350.862 45.5333C348.997 43.856 348.074 41.6307 348.094 38.8574C348.106 37.1081 348.672 35.4481 349.793 33.8774C350.914 32.3067 352.565 31.0384 354.748 30.0726C356.974 29.1071 359.601 28.6351 362.631 28.6567C365.66 28.6782 368.302 29.1664 370.556 30.1211C372.811 31.0759 374.509 32.24 375.652 33.6135C376.837 34.9446 377.425 36.1649 377.418 37.2742C377.415 37.6582 377.263 37.9984 376.962 38.295C376.704 38.5918 376.383 38.7388 375.999 38.7361L369.343 38.6887C369.002 38.6863 368.683 38.5773 368.386 38.3619C367.833 38.0593 367.345 37.7358 366.92 37.3914C366.199 36.8316 365.519 36.4001 364.882 36.0969C364.244 35.7937 363.456 35.6387 362.517 35.632C361.408 35.6241 360.51 35.8737 359.823 36.3809C359.18 36.8883 358.855 37.5473 358.849 38.358C358.845 38.998 359.012 39.5325 359.35 39.9616C359.731 40.391 360.496 40.8231 361.645 41.258C362.837 41.6505 364.583 42.0682 366.884 42.5113C371.017 43.2661 374.016 44.5675 375.88 46.4155C377.787 48.2637 378.732 50.4252 378.714 52.8998C378.692 56.0571 377.266 58.5856 374.436 60.4855C371.607 62.3428 367.675 63.2535 362.64 63.2176ZM410.167 63.556C406.413 63.5293 403.392 62.2491 401.106 59.7154C398.821 57.1391 397.694 53.5683 397.727 49.0031L397.854 31.1475C397.857 30.6782 398.009 30.2953 398.31 29.9987C398.611 29.7022 398.996 29.5556 399.465 29.559L407.465 29.6159C407.934 29.6193 408.317 29.7713 408.614 30.0721C408.953 30.3732 409.121 30.7584 409.117 31.2277L408.993 48.6993C408.963 52.8805 410.804 54.9843 414.516 55.0108C416.308 55.0235 417.72 54.4789 418.752 53.3769C419.784 52.2749 420.307 50.7426 420.321 48.7799L420.445 31.3084C420.448 30.8391 420.601 30.4561 420.901 30.1596C421.245 29.8634 421.63 29.7168 422.056 29.7198L430.056 29.7768C430.526 29.7801 430.909 29.9322 431.205 30.233C431.502 30.5338 431.648 30.9188 431.645 31.3881L431.431 61.4674C431.428 61.894 431.276 62.277 430.974 62.6162C430.674 62.9127 430.289 63.0593 429.819 63.0559L422.395 63.0031C421.969 63 421.586 62.848 421.247 62.5469C420.95 62.2034 420.804 61.8184 420.807 61.3917L420.824 58.9598C418.583 62.0586 415.031 63.5907 410.167 63.556ZM455.971 63.2422C447.139 63.1793 442.753 58.9453 442.813 50.5401L442.9 38.2525L437.908 38.2169C437.439 38.2136 437.035 38.0613 436.696 37.7603C436.399 37.4595 436.252 37.0744 436.256 36.6051L436.293 31.4212C436.296 30.9519 436.448 30.569 436.749 30.2725C437.092 29.9762 437.499 29.8298 437.968 29.8331L442.96 29.8687L443.035 19.3089C443.038 18.8396 443.191 18.4567 443.491 18.1602C443.835 17.8639 444.22 17.7173 444.646 17.7204L452.07 17.7732C452.54 17.7766 452.923 17.9286 453.219 18.2294C453.516 18.5302 453.662 18.9153 453.659 19.3846L453.584 29.9443L461.583 30.0013C462.053 30.0046 462.436 30.1567 462.732 30.4575C463.071 30.7586 463.239 31.1438 463.236 31.6131L463.199 36.7969C463.196 37.2663 463.022 37.649 462.679 37.9453C462.378 38.2418 461.993 38.3884 461.524 38.3851L453.524 38.3281L453.443 49.7198C453.42 52.8771 454.625 54.4644 457.057 54.4817L461.985 54.5168C462.454 54.5201 462.837 54.6722 463.134 54.9729C463.43 55.2737 463.577 55.6588 463.573 56.1281L463.534 61.696C463.531 62.1226 463.379 62.5056 463.078 62.8447C462.777 63.1413 462.392 63.2879 461.922 63.2845L455.971 63.2422ZM470.628 25.2656C470.159 25.2622 469.776 25.1101 469.48 24.8094C469.183 24.5086 469.037 24.1235 469.04 23.6542L469.081 17.8943C469.084 17.425 469.236 17.0421 469.537 16.7456C469.838 16.449 470.223 16.3024 470.692 16.3058L478.372 16.3605C478.841 16.3638 479.224 16.5159 479.521 16.8167C479.817 17.1174 479.964 17.5025 479.961 17.9718L479.92 23.7317C479.916 24.201 479.764 24.5839 479.463 24.8805C479.163 25.177 478.778 25.3236 478.308 25.3202L470.628 25.2656ZM470.421 63.3451C469.952 63.3417 469.569 63.1896 469.272 62.8889C468.976 62.5881 468.829 62.203 468.833 61.7337L469.047 31.6545C469.05 31.1851 469.202 30.8022 469.503 30.5057C469.804 30.2091 470.189 30.0625 470.658 30.0659L478.21 30.1197C478.679 30.123 479.062 30.2751 479.359 30.5759C479.655 30.8766 479.802 31.2617 479.799 31.731L479.584 61.8103C479.581 62.2369 479.429 62.6198 479.128 62.959C478.827 63.2556 478.442 63.4022 477.973 63.3988L470.421 63.3451ZM488.733 63.4754C488.307 63.4724 487.924 63.3203 487.585 63.0193C487.288 62.6758 487.142 62.2907 487.145 61.8641L487.446 19.6252C487.449 19.1558 487.601 18.7729 487.902 18.4764C488.245 18.1801 488.63 18.0335 489.057 18.0366L496.609 18.0904C497.078 18.0937 497.461 18.2458 497.757 18.5466C498.054 18.8473 498.201 19.2324 498.197 19.7017L497.896 61.9406C497.893 62.41 497.741 62.7929 497.44 63.0894C497.139 63.386 496.754 63.5326 496.285 63.5292L488.733 63.4754ZM507.252 25.5263C506.783 25.523 506.4 25.3709 506.104 25.0701C505.807 24.7694 505.661 24.3843 505.664 23.915L505.705 18.1551C505.708 17.6858 505.86 17.3029 506.161 17.0063C506.462 16.7098 506.847 16.5632 507.316 16.5666L514.996 16.6212C515.465 16.6246 515.848 16.7767 516.145 17.0774C516.441 17.3782 516.588 17.7633 516.585 18.2326L516.544 23.9925C516.54 24.4618 516.388 24.8447 516.087 25.1412C515.787 25.4378 515.402 25.5844 514.932 25.581L507.252 25.5263ZM507.045 63.6058C506.576 63.6025 506.193 63.4504 505.897 63.1496C505.6 62.8489 505.453 62.4638 505.457 61.9945L505.671 31.9152C505.674 31.4459 505.826 31.063 506.127 30.7665C506.428 30.4699 506.813 30.3233 507.282 30.3267L514.834 30.3804C515.303 30.3838 515.686 30.5359 515.983 30.8366C516.279 31.1374 516.426 31.5225 516.423 31.9918L516.209 62.071C516.205 62.4977 516.053 62.8806 515.752 63.2198C515.452 63.5164 515.066 63.6629 514.597 63.6596L507.045 63.6058ZM524.013 63.7267C523.587 63.7236 523.204 63.5716 522.865 63.2705C522.568 62.927 522.422 62.542 522.425 62.1153L522.46 57.1234C522.466 56.3554 522.812 55.6326 523.5 54.9548L538.591 38.8058L524.768 38.7074C524.298 38.704 523.894 38.5518 523.555 38.2507C523.258 37.95 523.112 37.5649 523.115 37.0956L523.151 32.0397C523.154 31.5704 523.306 31.1875 523.607 30.8909C523.951 30.5947 524.357 30.4483 524.826 30.4516L550.554 30.6348C551.023 30.6381 551.406 30.7902 551.703 31.091C551.999 31.3918 552.146 31.7768 552.142 32.2461L552.104 37.686C552.099 38.2833 551.796 38.9212 551.194 39.5996L536.488 55.5593L551.656 55.6673C552.125 55.6706 552.508 55.8227 552.804 56.1235C553.143 56.4246 553.311 56.8098 553.308 57.2791L553.272 62.335C553.269 62.8043 553.095 63.187 552.752 63.4833C552.451 63.7798 552.066 63.9264 551.597 63.9231L524.013 63.7267ZM569.111 64.6878C566.849 64.6717 564.783 64.2303 562.912 63.3636C561.084 62.4546 559.642 61.2496 558.586 59.7487C557.573 58.2055 557.073 56.5165 557.086 54.6819C557.107 51.738 558.318 49.3785 560.72 47.6036C563.165 45.829 566.502 44.6154 570.73 43.9628L578.739 42.8038L578.745 41.9078C578.757 40.2865 578.424 39.0894 577.747 38.3166C577.07 37.5438 575.92 37.1516 574.299 37.14C573.318 37.133 572.506 37.2979 571.863 37.6347C571.221 37.9715 570.556 38.4361 569.869 39.0285C569.268 39.5363 568.818 39.8744 568.518 40.0429C568.388 40.3834 568.152 40.5523 567.811 40.5499L560.835 40.5002C560.408 40.4972 560.046 40.3666 559.749 40.1085C559.496 39.808 559.391 39.4659 559.437 39.0823C559.488 37.9306 560.051 36.6546 561.128 35.2542C562.247 33.8541 563.92 32.65 566.146 31.6418C568.415 30.634 571.191 30.1417 574.477 30.1651C579.725 30.2025 583.599 31.4034 586.099 33.768C588.6 36.0898 589.837 39.2134 589.809 43.1386L589.67 62.5941C589.667 63.0208 589.515 63.4037 589.214 63.7429C588.913 64.0394 588.528 64.186 588.059 64.1827L580.635 64.1298C580.208 64.1268 579.825 63.9747 579.486 63.6736C579.19 63.3302 579.043 62.9451 579.046 62.5185L579.062 60.2785C578.114 61.5945 576.784 62.673 575.071 63.5142C573.402 64.313 571.415 64.7042 569.111 64.6878ZM572.171 57.4134C574.133 57.4274 575.716 56.7986 576.92 55.5272C578.167 54.256 578.799 52.3831 578.816 49.9085L578.823 49.0125L573.376 49.9338C569.531 50.5891 567.602 51.9194 567.587 53.9247C567.58 54.9913 568.022 55.8478 568.913 56.4942C569.805 57.0979 570.891 57.4043 572.171 57.4134ZM609.292 64.9739C605.11 64.9441 601.856 63.6196 599.528 61.0003C597.243 58.3386 596.01 54.6177 595.831 49.8377L595.783 47.5973L595.863 45.2938C596.067 40.6871 597.352 37.0482 599.717 34.3769C602.126 31.706 605.399 30.3853 609.538 30.4148C613.42 30.4424 616.547 31.7234 618.919 34.2577L619.016 20.562C619.02 20.0927 619.172 19.7098 619.472 19.4132C619.773 19.1167 620.158 18.9701 620.628 18.9734L628.435 19.029C628.905 19.0324 629.288 19.1844 629.584 19.4852C629.881 19.786 630.027 20.1711 630.024 20.6404L629.723 62.8793C629.72 63.306 629.568 63.6889 629.267 64.0281C628.966 64.3246 628.581 64.4712 628.112 64.4679L620.88 64.4164C620.453 64.4134 620.07 64.2613 619.731 63.9602C619.435 63.6168 619.288 63.2317 619.291 62.805L619.306 60.7571C616.939 63.599 613.601 65.0046 609.292 64.9739ZM612.873 56.4232C614.793 56.4368 616.226 55.8497 617.173 54.6618C618.121 53.4311 618.665 51.8563 618.807 49.9373C618.854 49.3829 618.881 48.5724 618.888 47.5058C618.896 46.4818 618.88 45.6923 618.841 45.1374C618.768 43.3875 618.245 41.9331 617.272 40.7741C616.299 39.6151 614.874 39.029 612.997 39.0156C610.991 39.0013 609.536 39.5883 608.632 40.7766C607.77 41.9651 607.268 43.6043 607.125 45.694C607.079 46.1203 607.053 46.7815 607.047 47.6775C607.04 48.5734 607.057 49.2349 607.097 49.6619C607.21 51.7534 607.689 53.3995 608.534 54.6002C609.421 55.8013 610.867 56.4089 612.873 56.4232ZM647.234 65.2441C644.972 65.228 642.906 64.7866 641.035 63.9199C639.207 63.0109 637.765 61.8059 636.709 60.305C635.696 58.7617 635.196 57.0728 635.209 55.2382C635.23 52.2943 636.441 49.9348 638.843 48.1599C641.288 46.3852 644.625 45.1716 648.853 44.5191L656.862 43.3601L656.868 42.4641C656.88 40.8428 656.547 39.6457 655.87 38.8729C655.193 38.1 654.043 37.7078 652.422 37.6963C651.441 37.6893 650.629 37.8542 649.986 38.191C649.344 38.5277 648.679 38.9924 647.992 39.5848C647.392 40.0925 646.941 40.4307 646.641 40.5992C646.511 40.9396 646.275 41.1086 645.934 41.1062L638.958 41.0565C638.531 41.0535 638.169 40.9229 637.873 40.6648C637.619 40.3643 637.514 40.0222 637.56 39.6385C637.611 38.4869 638.174 37.2108 639.251 35.8105C640.37 34.4104 642.043 33.2063 644.269 32.1981C646.538 31.1902 649.314 30.698 652.6 30.7214C657.848 30.7588 661.722 31.9597 664.222 34.3242C666.723 36.6461 667.96 39.7697 667.932 43.6949L667.793 63.1504C667.79 63.5771 667.638 63.96 667.337 64.2992C667.036 64.5957 666.651 64.7423 666.182 64.739L658.758 64.6861C658.331 64.6831 657.948 64.531 657.609 64.2299C657.313 63.8865 657.166 63.5014 657.169 63.0748L657.185 60.8348C656.237 62.1508 654.907 63.2293 653.194 64.0705C651.525 64.8693 649.538 65.2605 647.234 65.2441ZM650.294 57.9697C652.256 57.9836 653.839 57.3549 655.043 56.0834C656.29 54.8123 656.922 52.9394 656.939 50.4648L656.946 49.5688L651.499 50.4901C647.654 51.1454 645.725 52.4757 645.71 54.4809C645.703 55.5476 646.145 56.4041 647.036 57.0504C647.928 57.6541 649.014 57.9606 650.294 57.9697ZM688.695 65.5393C685.239 65.5147 682.341 65.0034 680.001 64.0053C677.704 63.0076 676.006 61.8222 674.907 60.449C673.807 59.0758 673.261 57.8559 673.269 56.7892C673.272 56.3626 673.423 56.0223 673.724 55.7684C674.067 55.4722 674.431 55.3255 674.815 55.3282L682.111 55.3801C682.367 55.382 682.601 55.4903 682.813 55.7052C683.322 56.0501 683.704 56.3302 683.959 56.5453C684.892 57.2347 685.699 57.7524 686.38 58.0986C687.103 58.4024 687.976 58.558 689 58.5653C690.238 58.5741 691.242 58.3466 692.013 57.8827C692.828 57.3765 693.238 56.6754 693.244 55.7794C693.249 55.0541 693.04 54.4766 692.617 54.0469C692.236 53.6175 691.471 53.2067 690.321 52.8145C689.172 52.3797 687.426 51.9192 685.083 51.4332C681.547 50.6827 678.825 49.4899 676.916 47.855C675.051 46.1776 674.128 43.9524 674.148 41.1791C674.16 39.4298 674.727 37.7698 675.847 36.1991C676.968 34.6283 678.62 33.3601 680.803 32.3942C683.028 31.4287 685.656 30.9568 688.685 30.9783C691.714 30.9999 694.356 31.4881 696.611 32.4428C698.865 33.3976 700.564 34.5617 701.706 35.9352C702.891 37.2663 703.48 38.4865 703.472 39.5958C703.469 39.9798 703.317 40.3201 703.017 40.6166C702.758 40.9135 702.437 41.0605 702.053 41.0578L695.398 41.0104C695.056 41.008 694.737 40.899 694.44 40.6836C693.887 40.381 693.399 40.0575 692.975 39.7131C692.253 39.1533 691.574 38.7218 690.936 38.4186C690.298 38.1153 689.51 37.9604 688.571 37.9537C687.462 37.9458 686.564 38.1954 685.878 38.7025C685.234 39.21 684.909 39.869 684.904 40.6797C684.899 41.3196 685.066 41.8542 685.404 42.2833C685.785 42.7127 686.55 43.1448 687.699 43.5796C688.891 43.9721 690.637 44.3899 692.938 44.833C697.072 45.5878 700.07 46.8891 701.935 48.7371C703.842 50.5854 704.786 52.7469 704.769 55.2215C704.746 58.3787 703.32 60.9073 700.49 62.8072C697.661 64.6644 693.729 65.5751 688.695 65.5393Z" fill="#C21E4E"/>
</g>
</svg>
