<svg width="489" height="314" viewBox="0 0 489 314" fill="none" xmlns="http://www.w3.org/2000/svg">
<g id="Group 37">
<path id="Tecnolog&#195;&#173;as utilizadas" d="M16.3678 60.112C15.9411 60.1089 15.5582 59.9569 15.219 59.6558C14.9227 59.3123 14.7761 58.9273 14.7792 58.5006L15.0152 25.3494L3.62353 25.2683C3.19687 25.2653 2.81394 25.1132 2.47475 24.8121C2.17852 24.4687 2.03192 24.0836 2.03496 23.657L2.08372 16.8091C2.08706 16.3398 2.23912 15.9569 2.53991 15.6604C2.88336 15.3641 3.26842 15.2175 3.69507 15.2206L38.1262 15.4657C38.5955 15.4691 38.9785 15.6211 39.275 15.9219C39.5715 16.2227 39.7181 16.6078 39.7148 17.0771L39.666 23.9249C39.6627 24.3942 39.5106 24.7772 39.2098 25.0737C38.909 25.3702 38.524 25.5168 38.0547 25.5135L26.6629 25.4324L26.4269 58.5835C26.4239 59.0102 26.2718 59.3931 25.9707 59.7323C25.6699 60.0289 25.2849 60.1754 24.8155 60.1721L16.3678 60.112ZM54.2497 61.0217C49.1299 60.9853 45.1078 59.5699 42.1837 56.7757C39.2595 53.9815 37.7522 49.9386 37.6619 44.6472L37.6779 42.4072C37.8844 37.3739 39.4696 33.4598 42.4336 30.6648C45.4405 27.8275 49.4399 26.4266 54.4318 26.4621C58.0584 26.4879 61.1037 27.2563 63.5676 28.7672C66.0746 30.2358 67.9376 32.2544 69.1567 34.8232C70.4184 37.3922 71.0374 40.3407 71.0137 43.6686L71.0028 45.2046C70.9997 45.6312 70.8477 46.0142 70.5466 46.3534C70.2458 46.6499 69.8608 46.7965 69.3914 46.7932L48.912 46.6473L48.9088 47.0953C48.9798 49.1012 49.4589 50.726 50.3461 51.9697C51.2333 53.2134 52.5302 53.8413 54.2368 53.8534C55.3034 53.861 56.1796 53.6539 56.8653 53.2321C57.5513 52.7677 58.1739 52.2174 58.7331 51.5814C59.1204 51.1148 59.421 50.8396 59.635 50.7558C59.8919 50.6296 60.2763 50.5684 60.7883 50.572L68.7241 50.6285C69.1081 50.6312 69.4272 50.7615 69.6814 51.0193C69.9785 51.2348 70.1257 51.5345 70.123 51.9185C70.1151 53.0278 69.466 54.3032 68.1757 55.7447C66.928 57.1866 65.1058 58.4323 62.7089 59.4819C60.3121 60.5315 57.4923 61.0448 54.2497 61.0217ZM59.7728 40.3885L59.7737 40.2605C59.7886 38.1699 59.3096 36.5238 58.3368 35.3222C57.407 34.0782 56.0888 33.4501 54.3821 33.4379C52.7182 33.4261 51.3912 34.0353 50.401 35.2656C49.4539 36.4536 48.9729 38.0929 48.958 40.1835L48.9571 40.3115L59.7728 40.3885ZM92.1848 61.2918C87.3636 61.2575 83.4688 59.9497 80.5004 57.3685C77.5324 54.7447 75.9581 51.128 75.7776 46.5186L75.7318 43.9582L75.8145 41.3348C76.0179 36.7281 77.6222 33.1341 80.6274 30.5528C83.6751 27.9717 87.6096 26.6984 92.4309 26.7327C96.0574 26.7585 99.1033 27.4416 101.569 28.7818C104.077 30.0797 105.922 31.6502 107.103 33.4933C108.328 35.2941 108.977 36.9414 109.052 38.4353C109.092 38.8623 108.94 39.2452 108.596 39.5841C108.295 39.8807 107.91 40.0273 107.441 40.0239L99.3128 39.966C98.8435 39.9627 98.4816 39.8534 98.2271 39.6383C97.9726 39.4231 97.7403 39.1015 97.53 38.6733C97.0274 37.347 96.3728 36.4037 95.5661 35.8433C94.802 35.2831 93.8014 34.9987 92.5641 34.9899C89.0655 34.9649 87.2361 37.2133 87.0759 41.735L86.9946 44.1664L87.0435 46.2788C87.1125 48.5834 87.591 50.2935 88.4791 51.4092C89.4101 52.4825 90.7289 53.0252 92.4356 53.0374C93.7582 53.0468 94.8055 52.7769 95.5774 52.2278C96.3493 51.6786 96.9747 50.7443 97.4534 49.425C97.6698 48.9999 97.9067 48.6816 98.1642 48.4701C98.4217 48.2586 98.7852 48.1545 99.2545 48.1578L107.382 48.2157C107.809 48.2187 108.171 48.3707 108.467 48.6714C108.807 48.9299 108.975 49.2724 108.972 49.6991C108.962 51.0644 108.353 52.6601 107.146 54.4862C105.981 56.3126 104.134 57.9208 101.607 59.3109C99.0801 60.6582 95.9394 61.3186 92.1848 61.2918ZM116.243 60.8231C115.773 60.8198 115.39 60.6677 115.094 60.3669C114.797 60.0661 114.651 59.6811 114.654 59.2118L114.868 29.1325C114.872 28.6632 115.024 28.2803 115.325 27.9837C115.625 27.6872 116.01 27.5406 116.48 27.544L123.84 27.5964C124.309 27.5997 124.692 27.7518 124.988 28.0526C125.327 28.3536 125.495 28.7388 125.492 29.2082L125.475 31.6401C126.637 30.2403 128.117 29.1202 129.915 28.2796C131.755 27.4394 133.828 27.0275 136.132 27.0439C139.886 27.0706 142.928 28.3723 145.256 30.9489C147.585 33.4829 148.733 37.0325 148.7 41.5977L148.573 59.4533C148.57 59.8799 148.418 60.2629 148.117 60.6021C147.816 60.8986 147.431 61.0452 146.962 61.0419L138.898 60.9844C138.472 60.9814 138.089 60.8293 137.749 60.5282C137.453 60.1848 137.307 59.7997 137.31 59.3731L137.434 41.9015C137.448 39.8962 136.969 38.3568 135.995 37.2832C135.021 36.1669 133.617 35.6022 131.783 35.5891C129.991 35.5764 128.579 36.121 127.547 37.223C126.515 38.2824 125.993 39.8147 125.978 41.82L125.854 59.2915C125.851 59.7182 125.699 60.1011 125.398 60.4403C125.097 60.7368 124.712 60.8834 124.243 60.8801L116.243 60.8231ZM171.506 61.8566C166.215 61.819 162.15 60.5313 159.309 57.9937C156.468 55.4561 154.936 51.9037 154.713 47.3367C154.674 46.7817 154.66 45.8216 154.669 44.4563C154.679 43.091 154.707 42.1312 154.754 41.5768C155.042 37.0561 156.667 33.5476 159.629 31.0513C162.591 28.5123 166.632 27.261 171.752 27.2975C176.914 27.3343 180.959 28.6431 183.884 31.224C186.81 33.7622 188.385 37.2935 188.609 41.8179C188.648 42.3729 188.662 43.333 188.652 44.6983C188.643 46.0636 188.614 47.0234 188.568 47.5778C188.279 52.1412 186.697 55.6713 183.82 58.1682C180.944 60.6651 176.839 61.8946 171.506 61.8566ZM171.561 54.0488C173.439 54.0622 174.829 53.5174 175.733 52.4145C176.637 51.2689 177.162 49.5233 177.306 47.1776C177.352 46.7512 177.38 45.898 177.389 44.6181C177.398 43.3381 177.383 42.4847 177.343 42.0577C177.231 39.7528 176.71 38.0211 175.78 36.8624C174.892 35.7041 173.531 35.1184 171.696 35.1053C168.155 35.0801 166.261 37.3707 166.015 41.977L165.933 44.5365L165.979 47.0969C166.047 49.4441 166.526 51.1969 167.413 52.3553C168.344 53.4712 169.727 54.0358 171.561 54.0488ZM196.491 61.3945C196.064 61.3915 195.681 61.2394 195.342 60.9383C195.046 60.5949 194.899 60.2098 194.902 59.7832L195.203 17.5442C195.206 17.0749 195.358 16.692 195.659 16.3955C196.003 16.0992 196.388 15.9526 196.814 15.9557L204.366 16.0094C204.835 16.0128 205.218 16.1648 205.515 16.4656C205.811 16.7664 205.958 17.1515 205.955 17.6208L205.654 59.8597C205.651 60.329 205.498 60.712 205.198 61.0085C204.897 61.305 204.512 61.4516 204.043 61.4483L196.491 61.3945ZM228.942 62.2656C223.651 62.2279 219.586 60.9403 216.745 58.4027C213.904 55.865 212.372 52.3127 212.149 47.7457C212.11 47.1907 212.096 46.2306 212.105 44.8653C212.115 43.5 212.143 42.5402 212.19 41.9858C212.478 37.4651 214.103 33.9566 217.065 31.4603C220.027 28.9213 224.068 27.67 229.188 27.7065C234.35 27.7432 238.395 29.0521 241.32 31.633C244.246 34.1712 245.821 37.7025 246.045 42.2269C246.084 42.7818 246.098 43.742 246.088 45.1073C246.079 46.4726 246.051 47.4324 246.004 47.9867C245.715 52.5501 244.133 56.0803 241.256 58.5772C238.38 61.0741 234.275 62.3036 228.942 62.2656ZM228.997 54.4578C230.875 54.4712 232.265 53.9264 233.169 52.8235C234.073 51.6779 234.598 49.9322 234.742 47.5865C234.788 47.1602 234.816 46.307 234.825 45.0271C234.834 43.7471 234.819 42.8936 234.779 42.4667C234.667 40.1618 234.146 38.4301 233.216 37.2714C232.328 36.1131 230.967 35.5273 229.132 35.5143C225.591 35.4891 223.697 37.7796 223.451 42.386L223.369 44.9455L223.415 47.5059C223.483 49.8531 223.962 51.6059 224.849 52.7642C225.78 53.8802 227.163 54.4447 228.997 54.4578ZM268.546 75.988C264.493 75.9591 261.212 75.2744 258.704 73.9338C256.197 72.5933 254.394 71.0657 253.297 69.3512C252.243 67.637 251.719 66.2039 251.728 65.0519C251.73 64.6679 251.903 64.3278 252.247 64.0316C252.59 63.7354 252.975 63.5888 253.402 63.5918L261.53 63.6497C261.956 63.6527 262.276 63.7403 262.488 63.9125C262.742 64.1277 262.975 64.4707 263.185 64.9415C263.604 65.9258 264.175 66.6979 264.896 67.2577C265.617 67.8602 266.746 68.1669 268.282 68.1779C270.244 68.1918 271.698 67.7115 272.644 66.7369C273.589 65.8049 274.07 64.2083 274.086 61.947L274.117 57.6592C271.924 60.0329 268.801 61.2054 264.747 61.1765C260.438 61.1458 257.141 59.8637 254.855 57.33C252.612 54.754 251.401 51.0546 251.222 46.2318L251.17 44.5034C251.207 39.3409 252.387 35.2959 254.712 32.3683C257.038 29.3982 260.461 27.9292 264.984 27.9614C267.16 27.9769 269.077 28.4172 270.735 29.2823C272.393 30.1048 273.793 31.2242 274.935 32.6403L274.952 30.2724C274.955 29.8031 275.107 29.4202 275.408 29.1236C275.751 28.8274 276.136 28.6808 276.563 28.6838L283.923 28.7362C284.392 28.7396 284.775 28.913 285.071 29.2564C285.41 29.5575 285.579 29.9214 285.576 30.348L285.356 61.1313C285.322 65.9951 283.845 69.6967 280.925 72.236C278.006 74.7753 273.879 76.0259 268.546 75.988ZM268.263 52.8813C270.183 52.895 271.616 52.3292 272.563 51.1839C273.51 49.996 274.054 48.5065 274.195 46.7154C274.239 46.4171 274.266 45.7559 274.273 44.7319C274.28 43.7506 274.263 43.1105 274.222 42.8115C274.15 41.019 273.627 39.5432 272.654 38.3842C271.724 37.1829 270.299 36.5754 268.379 36.5618C266.374 36.5475 264.919 37.1345 264.014 38.3227C263.11 39.511 262.607 41.1501 262.507 43.2401L262.433 44.6476C262.415 47.1649 262.828 49.1732 263.67 50.6726C264.513 52.1293 266.044 52.8655 268.263 52.8813ZM294.488 62.0923C294.019 62.089 293.636 61.9369 293.339 61.6361C293.043 61.3353 292.896 60.9503 292.9 60.481L293.114 30.4017C293.117 29.9324 293.269 29.5495 293.57 29.2529C293.871 28.9564 294.256 28.8098 294.725 28.8132L302.277 28.8669C302.746 28.8703 303.129 29.0223 303.426 29.3231C303.722 29.6239 303.869 30.009 303.866 30.4783L303.651 60.5575C303.648 60.9842 303.496 61.3671 303.195 61.7063C302.894 62.0028 302.509 62.1494 302.04 62.1461L294.488 62.0923ZM294.887 24.0142C294.205 24.0093 293.866 23.6656 293.871 22.9829C293.873 22.6416 293.982 22.365 294.197 22.1532L299.877 15.3455C300.308 14.8365 300.672 14.5191 300.972 14.3933C301.272 14.2247 301.699 14.1424 302.254 14.1464L310.702 14.2065C311.086 14.2093 311.383 14.3394 311.595 14.5969C311.807 14.8118 311.911 15.1112 311.908 15.4952C311.906 15.7938 311.798 16.0491 311.583 16.2609L303.022 23.1761C302.635 23.472 302.271 23.7041 301.929 23.8723C301.586 23.9979 301.138 24.0587 300.583 24.0547L294.887 24.0142ZM321.179 62.9224C318.918 62.9063 316.852 62.4649 314.981 61.5982C313.153 60.6892 311.71 59.4842 310.654 57.9833C309.641 56.4401 309.141 54.7511 309.154 52.9165C309.175 49.9726 310.387 47.6132 312.789 45.8382C315.234 44.0636 318.57 42.85 322.799 42.1974L330.808 41.0384L330.814 40.1424C330.825 38.5211 330.493 37.324 329.815 36.5512C329.138 35.7784 327.989 35.3862 326.368 35.3746C325.386 35.3676 324.575 35.5325 323.932 35.8693C323.29 36.2061 322.625 36.6707 321.938 37.2631C321.337 37.7709 320.887 38.109 320.587 38.2775C320.457 38.618 320.221 38.7869 319.879 38.7845L312.904 38.7348C312.477 38.7318 312.115 38.6012 311.818 38.3431C311.564 38.0426 311.46 37.7005 311.506 37.3169C311.556 36.1652 312.12 34.8892 313.197 33.4888C314.316 32.0887 315.989 30.8846 318.215 29.8764C320.483 28.8686 323.26 28.3763 326.545 28.3997C331.793 28.4371 335.668 29.638 338.168 32.0026C340.669 34.3244 341.905 37.448 341.877 41.3732L341.739 60.8287C341.736 61.2554 341.584 61.6383 341.283 61.9775C340.982 62.274 340.597 62.4206 340.128 62.4173L332.704 62.3644C332.277 62.3614 331.894 62.2093 331.555 61.9082C331.259 61.5648 331.112 61.1797 331.115 60.7531L331.131 58.5131C330.183 59.8291 328.853 60.9076 327.14 61.7488C325.47 62.5476 323.483 62.9388 321.179 62.9224ZM324.239 55.648C326.202 55.662 327.785 55.0332 328.989 53.7618C330.235 52.4906 330.867 50.6177 330.885 48.1431L330.891 47.2471L325.445 48.1684C321.6 48.8237 319.67 50.154 319.656 52.1593C319.648 53.2259 320.09 54.0824 320.982 54.7288C321.874 55.3325 322.959 55.6389 324.239 55.648ZM362.64 63.2176C359.185 63.193 356.287 62.6817 353.947 61.6837C351.65 60.686 349.952 59.5005 348.852 58.1273C347.753 56.7541 347.207 55.5342 347.214 54.4675C347.217 54.0409 347.369 53.7006 347.67 53.4468C348.013 53.1505 348.377 53.0038 348.761 53.0065L356.057 53.0585C356.313 53.0603 356.547 53.1686 356.758 53.3835C357.268 53.7284 357.65 54.0085 357.904 54.2237C358.838 54.913 359.645 55.4308 360.325 55.7769C361.049 56.0808 361.922 56.2363 362.946 56.2436C364.183 56.2524 365.188 56.0249 365.959 55.561C366.773 55.0548 367.184 54.3537 367.19 53.4578C367.195 52.7324 366.986 52.1549 366.562 51.7252C366.181 51.2959 365.416 50.8851 364.267 50.4929C363.118 50.058 361.372 49.5976 359.029 49.1115C355.493 48.361 352.77 47.1683 350.862 45.5333C348.997 43.856 348.074 41.6307 348.094 38.8574C348.106 37.1081 348.672 35.4481 349.793 33.8774C350.914 32.3067 352.565 31.0384 354.748 30.0726C356.974 29.1071 359.601 28.6351 362.631 28.6567C365.66 28.6782 368.302 29.1664 370.556 30.1211C372.811 31.0759 374.509 32.24 375.652 33.6135C376.837 34.9446 377.425 36.1649 377.418 37.2742C377.415 37.6582 377.263 37.9984 376.962 38.295C376.704 38.5918 376.383 38.7388 375.999 38.7361L369.343 38.6887C369.002 38.6863 368.683 38.5773 368.386 38.3619C367.833 38.0593 367.345 37.7358 366.92 37.3914C366.199 36.8316 365.519 36.4001 364.882 36.0969C364.244 35.7937 363.456 35.6387 362.517 35.632C361.408 35.6241 360.51 35.8737 359.823 36.3809C359.18 36.8883 358.855 37.5473 358.849 38.358C358.845 38.998 359.012 39.5325 359.35 39.9616C359.731 40.391 360.496 40.8231 361.645 41.258C362.837 41.6505 364.583 42.0682 366.884 42.5113C371.017 43.2661 374.016 44.5675 375.88 46.4155C377.787 48.2637 378.732 50.4252 378.714 52.8998C378.692 56.0571 377.266 58.5856 374.436 60.4855C371.607 62.3428 367.675 63.2535 362.64 63.2176ZM15.886 136.75C12.1315 136.724 9.11118 135.444 6.82516 132.91C4.53945 130.334 3.41285 126.763 3.44535 122.198L3.57249 104.342C3.57584 103.873 3.7279 103.49 4.02869 103.193C4.32947 102.897 4.71452 102.75 5.18385 102.753L13.1836 102.81C13.653 102.814 14.0359 102.966 14.3324 103.267C14.6716 103.568 14.8396 103.953 14.8362 104.422L14.7118 121.894C14.682 126.075 16.5231 128.179 20.235 128.205C22.027 128.218 23.4389 127.673 24.4707 126.571C25.5026 125.469 26.0255 123.937 26.0395 121.974L26.1639 104.503C26.1673 104.034 26.3193 103.651 26.6201 103.354C26.9636 103.058 27.3486 102.911 27.7753 102.914L35.7751 102.971C36.2444 102.975 36.6273 103.127 36.9239 103.427C37.2204 103.728 37.367 104.113 37.3636 104.583L37.1495 134.662C37.1464 135.088 36.9944 135.471 36.6933 135.811C36.3925 136.107 36.0074 136.254 35.5381 136.25L28.1143 136.198C27.6876 136.194 27.3047 136.042 26.9655 135.741C26.6693 135.398 26.5227 135.013 26.5257 134.586L26.543 132.154C24.3023 135.253 20.7499 136.785 15.886 136.75ZM61.6894 136.437C52.8577 136.374 48.4717 132.14 48.5316 123.735L48.6191 111.447L43.6272 111.411C43.1579 111.408 42.7536 111.256 42.4144 110.955C42.1179 110.654 41.9713 110.269 41.9746 109.8L42.0115 104.616C42.0149 104.146 42.1669 103.763 42.4677 103.467C42.8112 103.171 43.2176 103.024 43.6869 103.028L48.6787 103.063L48.7539 92.5034C48.7573 92.0341 48.9093 91.6511 49.2101 91.3546C49.5536 91.0584 49.9386 90.9118 50.3653 90.9148L57.7891 90.9677C58.2584 90.971 58.6414 91.1231 58.9379 91.4239C59.2344 91.7246 59.381 92.1097 59.3777 92.579L59.3025 103.139L67.3023 103.196C67.7716 103.199 68.1545 103.351 68.4511 103.652C68.7903 103.953 68.9582 104.338 68.9548 104.808L68.9179 109.991C68.9146 110.461 68.7412 110.843 68.3977 111.14C68.097 111.436 67.7119 111.583 67.2426 111.58L59.2428 111.523L59.1617 122.914C59.1392 126.072 60.3439 127.659 62.7759 127.676L67.7037 127.711C68.1731 127.715 68.556 127.867 68.8525 128.167C69.149 128.468 69.2956 128.853 69.2923 129.323L69.2526 134.89C69.2496 135.317 69.0975 135.7 68.7965 136.039C68.4957 136.336 68.1106 136.482 67.6413 136.479L61.6894 136.437ZM76.3472 98.46C75.8779 98.4567 75.495 98.3046 75.1984 98.0038C74.9019 97.703 74.7553 97.318 74.7587 96.8487L74.7997 91.0888C74.803 90.6195 74.9551 90.2365 75.2559 89.94C75.5566 89.6435 75.9417 89.4969 76.411 89.5002L84.0908 89.5549C84.5602 89.5583 84.9431 89.7103 85.2396 90.0111C85.5361 90.3119 85.6827 90.6969 85.6794 91.1663L85.6384 96.9261C85.635 97.3954 85.483 97.7784 85.1822 98.0749C84.8814 98.3714 84.4964 98.518 84.027 98.5147L76.3472 98.46ZM76.1401 136.539C75.6708 136.536 75.2878 136.384 74.9913 136.083C74.6948 135.783 74.5482 135.397 74.5515 134.928L74.7657 104.849C74.769 104.38 74.9211 103.997 75.2219 103.7C75.5227 103.404 75.9077 103.257 76.377 103.26L83.9289 103.314C84.3982 103.317 84.7811 103.47 85.0776 103.77C85.3742 104.071 85.5208 104.456 85.5174 104.925L85.3032 135.005C85.3002 135.431 85.1481 135.814 84.8471 136.153C84.5463 136.45 84.1612 136.597 83.6919 136.593L76.1401 136.539ZM94.4521 136.67C94.0255 136.667 93.6425 136.515 93.3033 136.214C93.0071 135.87 92.8605 135.485 92.8636 135.059L93.1643 92.8196C93.1677 92.3503 93.3197 91.9674 93.6205 91.6708C93.964 91.3746 94.349 91.228 94.7757 91.231L102.327 91.2848C102.797 91.2881 103.18 91.4402 103.476 91.741C103.773 92.0418 103.919 92.4268 103.916 92.8962L103.615 135.135C103.612 135.604 103.46 135.987 103.159 136.284C102.858 136.58 102.473 136.727 102.004 136.724L94.4521 136.67ZM112.971 98.7208C112.502 98.7174 112.119 98.5654 111.823 98.2646C111.526 97.9638 111.379 97.5788 111.383 97.1094L111.424 91.3496C111.427 90.8803 111.579 90.4973 111.88 90.2008C112.181 89.9043 112.566 89.7577 113.035 89.761L120.715 89.8157C121.184 89.819 121.567 89.9711 121.864 90.2719C122.16 90.5727 122.307 90.9577 122.303 91.427L122.262 97.1869C122.259 97.6562 122.107 98.0391 121.806 98.3357C121.505 98.6322 121.12 98.7788 120.651 98.7755L112.971 98.7208ZM112.764 136.8C112.295 136.797 111.912 136.645 111.615 136.344C111.319 136.043 111.172 135.658 111.176 135.189L111.39 105.11C111.393 104.64 111.545 104.257 111.846 103.961C112.147 103.664 112.532 103.518 113.001 103.521L120.553 103.575C121.022 103.578 121.405 103.73 121.702 104.031C121.998 104.332 122.145 104.717 122.141 105.186L121.927 135.265C121.924 135.692 121.772 136.075 121.471 136.414C121.17 136.711 120.785 136.857 120.316 136.854L112.764 136.8ZM129.732 136.921C129.306 136.918 128.923 136.766 128.583 136.465C128.287 136.121 128.141 135.736 128.144 135.31L128.179 130.318C128.185 129.55 128.531 128.827 129.219 128.149L144.31 112L130.486 111.902C130.017 111.898 129.613 111.746 129.274 111.445C128.977 111.144 128.83 110.759 128.834 110.29L128.87 105.234C128.873 104.765 129.025 104.382 129.326 104.085C129.669 103.789 130.076 103.643 130.545 103.646L156.273 103.829C156.742 103.833 157.125 103.985 157.421 104.285C157.718 104.586 157.864 104.971 157.861 105.441L157.822 110.88C157.818 111.478 157.515 112.116 156.913 112.794L142.207 128.754L157.374 128.862C157.844 128.865 158.227 129.017 158.523 129.318C158.862 129.619 159.03 130.004 159.027 130.474L158.991 135.529C158.988 135.999 158.814 136.381 158.471 136.678C158.17 136.974 157.785 137.121 157.316 137.118L129.732 136.921ZM174.83 137.882C172.568 137.866 170.502 137.425 168.631 136.558C166.803 135.649 165.36 134.444 164.304 132.943C163.291 131.4 162.791 129.711 162.804 127.876C162.825 124.932 164.037 122.573 166.439 120.798C168.884 119.023 172.22 117.81 176.449 117.157L184.458 115.998L184.464 115.102C184.476 113.481 184.143 112.284 183.466 111.511C182.788 110.738 181.639 110.346 180.018 110.334C179.037 110.327 178.225 110.492 177.582 110.829C176.94 111.166 176.275 111.631 175.588 112.223C174.987 112.731 174.537 113.069 174.237 113.237C174.107 113.578 173.871 113.747 173.529 113.744L166.554 113.695C166.127 113.692 165.765 113.561 165.468 113.303C165.214 113.002 165.11 112.66 165.156 112.277C165.206 111.125 165.77 109.849 166.847 108.449C167.966 107.049 169.639 105.844 171.865 104.836C174.133 103.828 176.91 103.336 180.195 103.36C185.443 103.397 189.318 104.598 191.818 106.962C194.319 109.284 195.555 112.408 195.527 116.333L195.389 135.789C195.386 136.215 195.234 136.598 194.933 136.937C194.632 137.234 194.247 137.38 193.778 137.377L186.354 137.324C185.927 137.321 185.544 137.169 185.205 136.868C184.909 136.525 184.762 136.14 184.765 135.713L184.781 133.473C183.833 134.789 182.503 135.867 180.79 136.709C179.12 137.507 177.133 137.899 174.83 137.882ZM177.889 130.608C179.852 130.622 181.435 129.993 182.639 128.722C183.885 127.45 184.517 125.578 184.535 123.103L184.541 122.207L179.095 123.128C175.25 123.784 173.32 125.114 173.306 127.119C173.299 128.186 173.74 129.042 174.632 129.689C175.524 130.292 176.609 130.599 177.889 130.608ZM215.011 138.168C210.829 138.139 207.575 136.814 205.247 134.195C202.961 131.533 201.729 127.812 201.55 123.032L201.502 120.792L201.582 118.488C201.786 113.882 203.07 110.243 205.436 107.571C207.845 104.9 211.118 103.58 215.257 103.609C219.139 103.637 222.266 104.918 224.637 107.452L224.735 93.7565C224.738 93.2871 224.89 92.9042 225.191 92.6077C225.492 92.3111 225.877 92.1645 226.346 92.1679L234.154 92.2235C234.623 92.2268 235.006 92.3789 235.303 92.6797C235.599 92.9805 235.746 93.3655 235.743 93.8348L235.442 136.074C235.439 136.5 235.287 136.883 234.986 137.223C234.685 137.519 234.3 137.666 233.831 137.662L226.599 137.611C226.172 137.608 225.789 137.456 225.45 137.155C225.154 136.811 225.007 136.426 225.01 135.999L225.025 133.952C222.658 136.793 219.32 138.199 215.011 138.168ZM218.591 129.618C220.511 129.631 221.945 129.044 222.892 127.856C223.84 126.626 224.384 125.051 224.526 123.132C224.572 122.577 224.6 121.767 224.607 120.7C224.614 119.676 224.599 118.887 224.56 118.332C224.487 116.582 223.964 115.128 222.991 113.969C222.018 112.81 220.593 112.223 218.715 112.21C216.71 112.196 215.255 112.783 214.351 113.971C213.489 115.16 212.987 116.799 212.844 118.888C212.798 119.315 212.772 119.976 212.766 120.872C212.759 121.768 212.776 122.429 212.815 122.856C212.929 124.948 213.408 126.594 214.252 127.795C215.14 128.996 216.586 129.603 218.591 129.618ZM252.953 138.439C250.691 138.422 248.625 137.981 246.754 137.114C244.926 136.205 243.483 135 242.427 133.499C241.414 131.956 240.914 130.267 240.927 128.433C240.948 125.489 242.16 123.129 244.562 121.354C247.007 119.58 250.343 118.366 254.572 117.714L262.581 116.555L262.587 115.659C262.599 114.037 262.266 112.84 261.589 112.067C260.911 111.294 259.762 110.902 258.141 110.891C257.16 110.884 256.348 111.049 255.705 111.385C255.063 111.722 254.398 112.187 253.711 112.779C253.11 113.287 252.66 113.625 252.36 113.794C252.23 114.134 251.994 114.303 251.652 114.301L244.677 114.251C244.25 114.248 243.888 114.117 243.591 113.859C243.337 113.559 243.233 113.217 243.279 112.833C243.329 111.681 243.893 110.405 244.97 109.005C246.089 107.605 247.762 106.401 249.988 105.393C252.256 104.385 255.033 103.892 258.319 103.916C263.566 103.953 267.441 105.154 269.941 107.519C272.442 109.841 273.678 112.964 273.651 116.889L273.512 136.345C273.509 136.772 273.357 137.154 273.056 137.494C272.755 137.79 272.37 137.937 271.901 137.933L264.477 137.881C264.05 137.878 263.667 137.725 263.328 137.424C263.032 137.081 262.885 136.696 262.888 136.269L262.904 134.029C261.956 135.345 260.626 136.424 258.913 137.265C257.243 138.064 255.256 138.455 252.953 138.439ZM256.012 131.164C257.975 131.178 259.558 130.549 260.762 129.278C262.008 128.007 262.64 126.134 262.658 123.659L262.664 122.763L257.218 123.685C253.373 124.34 251.443 125.67 251.429 127.675C251.422 128.742 251.863 129.599 252.755 130.245C253.647 130.849 254.732 131.155 256.012 131.164ZM294.414 138.734C290.958 138.709 288.06 138.198 285.72 137.2C283.423 136.202 281.725 135.017 280.625 133.643C279.526 132.27 278.98 131.05 278.987 129.984C278.99 129.557 279.142 129.217 279.443 128.963C279.786 128.667 280.15 128.52 280.534 128.523L287.83 128.575C288.086 128.576 288.32 128.685 288.531 128.9C289.041 129.245 289.423 129.525 289.677 129.74C290.611 130.429 291.418 130.947 292.098 131.293C292.822 131.597 293.695 131.752 294.719 131.76C295.956 131.769 296.961 131.541 297.732 131.077C298.546 130.571 298.957 129.87 298.963 128.974C298.968 128.249 298.759 127.671 298.335 127.241C297.954 126.812 297.189 126.401 296.04 126.009C294.891 125.574 293.145 125.114 290.802 124.628C287.266 123.877 284.544 122.684 282.635 121.049C280.77 119.372 279.847 117.147 279.867 114.374C279.879 112.624 280.446 110.964 281.566 109.394C282.687 107.823 284.338 106.555 286.521 105.589C288.747 104.623 291.374 104.151 294.404 104.173C297.433 104.194 300.075 104.683 302.329 105.637C304.584 106.592 306.282 107.756 307.425 109.13C308.61 110.461 309.199 111.681 309.191 112.79C309.188 113.174 309.036 113.515 308.735 113.811C308.477 114.108 308.156 114.255 307.772 114.252L301.116 114.205C300.775 114.202 300.456 114.093 300.159 113.878C299.606 113.575 299.118 113.252 298.694 112.908C297.972 112.348 297.293 111.916 296.655 111.613C296.017 111.31 295.229 111.155 294.29 111.148C293.181 111.14 292.283 111.39 291.597 111.897C290.953 112.404 290.628 113.063 290.622 113.874C290.618 114.514 290.785 115.049 291.123 115.478C291.504 115.907 292.269 116.339 293.418 116.774C294.61 117.167 296.356 117.584 298.657 118.027C302.79 118.782 305.789 120.084 307.653 121.932C309.56 123.78 310.505 125.941 310.487 128.416C310.465 131.573 309.039 134.102 306.209 136.002C303.38 137.859 299.448 138.77 294.414 138.734Z" fill="#C21E4E"/>
<path id="Vanilla Javascript, React.js,Html5,CSS3,Firebase" d="M23.46 195C22.88 195 22.5 194.72 22.32 194.16L15.9 174.9L15.84 174.63C15.84 174.45 15.9 174.3 16.02 174.18C16.14 174.06 16.29 174 16.47 174H19.11C19.37 174 19.57 174.07 19.71 174.21C19.87 174.33 19.98 174.48 20.04 174.66L25.11 190.11L30.18 174.66C30.22 174.5 30.32 174.35 30.48 174.21C30.64 174.07 30.85 174 31.11 174H33.75C33.91 174 34.05 174.06 34.17 174.18C34.31 174.3 34.38 174.45 34.38 174.63L34.32 174.9L27.9 194.16C27.72 194.72 27.34 195 26.76 195H23.46ZM39.9963 195.3C38.9763 195.3 38.0363 195.1 37.1763 194.7C36.3363 194.28 35.6663 193.72 35.1663 193.02C34.6863 192.32 34.4463 191.55 34.4463 190.71C34.4463 189.35 34.9963 188.25 36.0963 187.41C37.1963 186.57 38.7063 186 40.6263 185.7L44.7363 185.1V184.47C44.7363 183.59 44.5163 182.93 44.0763 182.49C43.6363 182.05 42.9263 181.83 41.9463 181.83C41.2863 181.83 40.7463 181.96 40.3263 182.22C39.9263 182.46 39.6063 182.7 39.3663 182.94C39.1263 183.2 38.9663 183.37 38.8863 183.45C38.8063 183.69 38.6563 183.81 38.4363 183.81H36.1263C35.9463 183.81 35.7863 183.75 35.6463 183.63C35.5263 183.51 35.4663 183.35 35.4663 183.15C35.4863 182.65 35.7263 182.08 36.1863 181.44C36.6663 180.8 37.3963 180.25 38.3763 179.79C39.3563 179.33 40.5563 179.1 41.9763 179.1C44.3363 179.1 46.0563 179.63 47.1363 180.69C48.2163 181.75 48.7563 183.14 48.7563 184.86V194.28C48.7563 194.48 48.6863 194.65 48.5463 194.79C48.4263 194.93 48.2563 195 48.0363 195H45.6063C45.4063 195 45.2363 194.93 45.0963 194.79C44.9563 194.65 44.8863 194.48 44.8863 194.28V193.11C44.4463 193.75 43.8163 194.28 42.9963 194.7C42.1963 195.1 41.1963 195.3 39.9963 195.3ZM41.0163 192.45C42.1163 192.45 43.0163 192.09 43.7163 191.37C44.4163 190.65 44.7663 189.6 44.7663 188.22V187.59L41.7663 188.07C40.6063 188.25 39.7263 188.54 39.1263 188.94C38.5463 189.34 38.2563 189.83 38.2563 190.41C38.2563 191.05 38.5263 191.55 39.0663 191.91C39.6063 192.27 40.2563 192.45 41.0163 192.45ZM53.325 195C53.125 195 52.955 194.93 52.815 194.79C52.675 194.65 52.605 194.48 52.605 194.28V180.12C52.605 179.92 52.675 179.75 52.815 179.61C52.955 179.47 53.125 179.4 53.325 179.4H55.785C55.985 179.4 56.155 179.47 56.295 179.61C56.435 179.75 56.505 179.92 56.505 180.12V181.35C57.685 179.85 59.355 179.1 61.515 179.1C63.355 179.1 64.815 179.71 65.895 180.93C66.975 182.13 67.515 183.77 67.515 185.85V194.28C67.515 194.48 67.445 194.65 67.305 194.79C67.185 194.93 67.015 195 66.795 195H64.155C63.955 195 63.785 194.93 63.645 194.79C63.505 194.65 63.435 194.48 63.435 194.28V186.03C63.435 184.85 63.145 183.94 62.565 183.3C62.005 182.64 61.185 182.31 60.105 182.31C59.045 182.31 58.205 182.64 57.585 183.3C56.985 183.96 56.685 184.87 56.685 186.03V194.28C56.685 194.48 56.615 194.65 56.475 194.79C56.355 194.93 56.185 195 55.965 195H53.325ZM71.9257 176.82C71.7257 176.82 71.5557 176.75 71.4157 176.61C71.2757 176.47 71.2057 176.3 71.2057 176.1V173.94C71.2057 173.74 71.2757 173.57 71.4157 173.43C71.5557 173.29 71.7257 173.22 71.9257 173.22H74.6557C74.8557 173.22 75.0257 173.29 75.1657 173.43C75.3257 173.57 75.4057 173.74 75.4057 173.94V176.1C75.4057 176.3 75.3357 176.47 75.1957 176.61C75.0557 176.75 74.8757 176.82 74.6557 176.82H71.9257ZM72.0457 195C71.8457 195 71.6757 194.93 71.5357 194.79C71.3957 194.65 71.3257 194.48 71.3257 194.28V180.12C71.3257 179.92 71.3957 179.75 71.5357 179.61C71.6757 179.47 71.8457 179.4 72.0457 179.4H74.5357C74.7557 179.4 74.9257 179.47 75.0457 179.61C75.1857 179.73 75.2557 179.9 75.2557 180.12V194.28C75.2557 194.48 75.1857 194.65 75.0457 194.79C74.9257 194.93 74.7557 195 74.5357 195H72.0457ZM79.9859 195C79.7859 195 79.6159 194.93 79.4759 194.79C79.3359 194.65 79.2659 194.48 79.2659 194.28V174.42C79.2659 174.2 79.3359 174.03 79.4759 173.91C79.6159 173.77 79.7859 173.7 79.9859 173.7H82.4759C82.6959 173.7 82.8659 173.77 82.9859 173.91C83.1259 174.03 83.1959 174.2 83.1959 174.42V194.28C83.1959 194.48 83.1259 194.65 82.9859 194.79C82.8659 194.93 82.6959 195 82.4759 195H79.9859ZM87.9253 195C87.7253 195 87.5553 194.93 87.4153 194.79C87.2753 194.65 87.2053 194.48 87.2053 194.28V174.42C87.2053 174.2 87.2753 174.03 87.4153 173.91C87.5553 173.77 87.7253 173.7 87.9253 173.7H90.4153C90.6353 173.7 90.8053 173.77 90.9253 173.91C91.0653 174.03 91.1353 174.2 91.1353 174.42V194.28C91.1353 194.48 91.0653 194.65 90.9253 194.79C90.8053 194.93 90.6353 195 90.4153 195H87.9253ZM99.6448 195.3C98.6248 195.3 97.6848 195.1 96.8248 194.7C95.9848 194.28 95.3148 193.72 94.8148 193.02C94.3348 192.32 94.0948 191.55 94.0948 190.71C94.0948 189.35 94.6448 188.25 95.7448 187.41C96.8448 186.57 98.3548 186 100.275 185.7L104.385 185.1V184.47C104.385 183.59 104.165 182.93 103.725 182.49C103.285 182.05 102.575 181.83 101.595 181.83C100.935 181.83 100.395 181.96 99.9748 182.22C99.5748 182.46 99.2548 182.7 99.0148 182.94C98.7748 183.2 98.6148 183.37 98.5348 183.45C98.4548 183.69 98.3048 183.81 98.0848 183.81H95.7748C95.5948 183.81 95.4348 183.75 95.2948 183.63C95.1748 183.51 95.1148 183.35 95.1148 183.15C95.1348 182.65 95.3748 182.08 95.8348 181.44C96.3148 180.8 97.0448 180.25 98.0248 179.79C99.0048 179.33 100.205 179.1 101.625 179.1C103.985 179.1 105.705 179.63 106.785 180.69C107.865 181.75 108.405 183.14 108.405 184.86V194.28C108.405 194.48 108.335 194.65 108.195 194.79C108.075 194.93 107.905 195 107.685 195H105.255C105.055 195 104.885 194.93 104.745 194.79C104.605 194.65 104.535 194.48 104.535 194.28V193.11C104.095 193.75 103.465 194.28 102.645 194.7C101.845 195.1 100.845 195.3 99.6448 195.3ZM100.665 192.45C101.765 192.45 102.665 192.09 103.365 191.37C104.065 190.65 104.415 189.6 104.415 188.22V187.59L101.415 188.07C100.255 188.25 99.3748 188.54 98.7748 188.94C98.1948 189.34 97.9048 189.83 97.9048 190.41C97.9048 191.05 98.1748 191.55 98.7148 191.91C99.2548 192.27 99.9048 192.45 100.665 192.45ZM126.249 195.3C124.769 195.3 123.409 195.05 122.169 194.55C120.949 194.05 119.969 193.3 119.229 192.3C118.489 191.3 118.099 190.09 118.059 188.67C118.059 188.49 118.119 188.34 118.239 188.22C118.359 188.08 118.509 188.01 118.689 188.01H121.539C121.979 188.01 122.279 188.27 122.439 188.79C122.579 189.83 122.989 190.6 123.669 191.1C124.369 191.6 125.259 191.85 126.339 191.85C127.599 191.85 128.559 191.44 129.219 190.62C129.899 189.8 130.239 188.66 130.239 187.2V177.54H120.069C119.869 177.54 119.699 177.47 119.559 177.33C119.419 177.19 119.349 177.02 119.349 176.82V174.72C119.349 174.5 119.419 174.33 119.559 174.21C119.699 174.07 119.869 174 120.069 174H133.779C133.999 174 134.179 174.07 134.319 174.21C134.459 174.35 134.529 174.53 134.529 174.75V187.32C134.529 188.98 134.189 190.41 133.509 191.61C132.829 192.81 131.859 193.73 130.599 194.37C129.359 194.99 127.909 195.3 126.249 195.3ZM143.121 195.3C142.101 195.3 141.161 195.1 140.301 194.7C139.461 194.28 138.791 193.72 138.291 193.02C137.811 192.32 137.571 191.55 137.571 190.71C137.571 189.35 138.121 188.25 139.221 187.41C140.321 186.57 141.831 186 143.751 185.7L147.861 185.1V184.47C147.861 183.59 147.641 182.93 147.201 182.49C146.761 182.05 146.051 181.83 145.071 181.83C144.411 181.83 143.871 181.96 143.451 182.22C143.051 182.46 142.731 182.7 142.491 182.94C142.251 183.2 142.091 183.37 142.011 183.45C141.931 183.69 141.781 183.81 141.561 183.81H139.251C139.071 183.81 138.911 183.75 138.771 183.63C138.651 183.51 138.591 183.35 138.591 183.15C138.611 182.65 138.851 182.08 139.311 181.44C139.791 180.8 140.521 180.25 141.501 179.79C142.481 179.33 143.681 179.1 145.101 179.1C147.461 179.1 149.181 179.63 150.261 180.69C151.341 181.75 151.881 183.14 151.881 184.86V194.28C151.881 194.48 151.811 194.65 151.671 194.79C151.551 194.93 151.381 195 151.161 195H148.731C148.531 195 148.361 194.93 148.221 194.79C148.081 194.65 148.011 194.48 148.011 194.28V193.11C147.571 193.75 146.941 194.28 146.121 194.7C145.321 195.1 144.321 195.3 143.121 195.3ZM144.141 192.45C145.241 192.45 146.141 192.09 146.841 191.37C147.541 190.65 147.891 189.6 147.891 188.22V187.59L144.891 188.07C143.731 188.25 142.851 188.54 142.251 188.94C141.671 189.34 141.381 189.83 141.381 190.41C141.381 191.05 141.651 191.55 142.191 191.91C142.731 192.27 143.381 192.45 144.141 192.45ZM160.898 195C160.598 195 160.368 194.94 160.208 194.82C160.048 194.68 159.918 194.49 159.818 194.25L154.208 180.33L154.148 180.06C154.148 179.88 154.208 179.73 154.328 179.61C154.468 179.47 154.628 179.4 154.808 179.4H157.238C157.618 179.4 157.878 179.59 158.018 179.97L162.008 190.5L165.998 179.97C166.058 179.83 166.148 179.7 166.268 179.58C166.408 179.46 166.578 179.4 166.778 179.4H169.238C169.398 179.4 169.538 179.47 169.658 179.61C169.798 179.73 169.868 179.88 169.868 180.06C169.868 180.18 169.858 180.27 169.838 180.33L164.198 194.25C164.098 194.49 163.968 194.68 163.808 194.82C163.648 194.94 163.418 195 163.118 195H160.898ZM176.49 195.3C175.47 195.3 174.53 195.1 173.67 194.7C172.83 194.28 172.16 193.72 171.66 193.02C171.18 192.32 170.94 191.55 170.94 190.71C170.94 189.35 171.49 188.25 172.59 187.41C173.69 186.57 175.2 186 177.12 185.7L181.23 185.1V184.47C181.23 183.59 181.01 182.93 180.57 182.49C180.13 182.05 179.42 181.83 178.44 181.83C177.78 181.83 177.24 181.96 176.82 182.22C176.42 182.46 176.1 182.7 175.86 182.94C175.62 183.2 175.46 183.37 175.38 183.45C175.3 183.69 175.15 183.81 174.93 183.81H172.62C172.44 183.81 172.28 183.75 172.14 183.63C172.02 183.51 171.96 183.35 171.96 183.15C171.98 182.65 172.22 182.08 172.68 181.44C173.16 180.8 173.89 180.25 174.87 179.79C175.85 179.33 177.05 179.1 178.47 179.1C180.83 179.1 182.55 179.63 183.63 180.69C184.71 181.75 185.25 183.14 185.25 184.86V194.28C185.25 194.48 185.18 194.65 185.04 194.79C184.92 194.93 184.75 195 184.53 195H182.1C181.9 195 181.73 194.93 181.59 194.79C181.45 194.65 181.38 194.48 181.38 194.28V193.11C180.94 193.75 180.31 194.28 179.49 194.7C178.69 195.1 177.69 195.3 176.49 195.3ZM177.51 192.45C178.61 192.45 179.51 192.09 180.21 191.37C180.91 190.65 181.26 189.6 181.26 188.22V187.59L178.26 188.07C177.1 188.25 176.22 188.54 175.62 188.94C175.04 189.34 174.75 189.83 174.75 190.41C174.75 191.05 175.02 191.55 175.56 191.91C176.1 192.27 176.75 192.45 177.51 192.45ZM195.009 195.3C193.509 195.3 192.249 195.08 191.229 194.64C190.209 194.18 189.449 193.65 188.949 193.05C188.469 192.43 188.229 191.9 188.229 191.46C188.229 191.26 188.299 191.1 188.439 190.98C188.579 190.86 188.739 190.8 188.919 190.8H191.289C191.469 190.8 191.619 190.87 191.739 191.01C191.819 191.07 192.029 191.25 192.369 191.55C192.709 191.87 193.109 192.12 193.569 192.3C194.029 192.48 194.539 192.57 195.099 192.57C195.899 192.57 196.559 192.41 197.079 192.09C197.599 191.77 197.859 191.33 197.859 190.77C197.859 190.35 197.739 190.01 197.499 189.75C197.279 189.49 196.869 189.26 196.269 189.06C195.669 188.84 194.779 188.61 193.599 188.37C191.899 188.01 190.639 187.46 189.819 186.72C189.019 185.98 188.619 185 188.619 183.78C188.619 182.98 188.859 182.23 189.339 181.53C189.819 180.81 190.529 180.23 191.469 179.79C192.429 179.33 193.569 179.1 194.889 179.1C196.229 179.1 197.389 179.32 198.369 179.76C199.349 180.18 200.089 180.69 200.589 181.29C201.109 181.87 201.369 182.39 201.369 182.85C201.369 183.03 201.299 183.19 201.159 183.33C201.039 183.45 200.889 183.51 200.709 183.51H198.489C198.329 183.51 198.159 183.44 197.979 183.3C197.839 183.2 197.619 183.01 197.319 182.73C197.019 182.45 196.669 182.23 196.269 182.07C195.869 181.91 195.399 181.83 194.859 181.83C194.119 181.83 193.539 181.99 193.119 182.31C192.719 182.63 192.519 183.05 192.519 183.57C192.519 183.95 192.619 184.26 192.819 184.5C193.019 184.74 193.409 184.97 193.989 185.19C194.569 185.41 195.439 185.63 196.599 185.85C198.519 186.23 199.889 186.82 200.709 187.62C201.549 188.42 201.969 189.4 201.969 190.56C201.969 191.96 201.359 193.1 200.139 193.98C198.919 194.86 197.209 195.3 195.009 195.3ZM211.816 195.3C209.616 195.3 207.856 194.69 206.536 193.47C205.236 192.25 204.546 190.56 204.466 188.4L204.436 187.2L204.466 186C204.546 183.84 205.236 182.15 206.536 180.93C207.856 179.71 209.616 179.1 211.816 179.1C213.376 179.1 214.696 179.38 215.776 179.94C216.876 180.5 217.686 181.19 218.206 182.01C218.746 182.81 219.036 183.57 219.076 184.29C219.096 184.49 219.026 184.66 218.866 184.8C218.726 184.94 218.556 185.01 218.356 185.01H215.716C215.516 185.01 215.356 184.97 215.236 184.89C215.136 184.79 215.036 184.63 214.936 184.41C214.636 183.63 214.236 183.07 213.736 182.73C213.256 182.39 212.636 182.22 211.876 182.22C210.856 182.22 210.056 182.55 209.476 183.21C208.896 183.85 208.586 184.83 208.546 186.15L208.516 187.26L208.546 188.25C208.626 190.87 209.736 192.18 211.876 192.18C212.656 192.18 213.286 192.01 213.766 191.67C214.246 191.33 214.636 190.77 214.936 189.99C215.036 189.77 215.136 189.62 215.236 189.54C215.356 189.44 215.516 189.39 215.716 189.39H218.356C218.556 189.39 218.726 189.46 218.866 189.6C219.026 189.74 219.096 189.91 219.076 190.11C219.036 190.81 218.756 191.56 218.236 192.36C217.716 193.16 216.916 193.85 215.836 194.43C214.756 195.01 213.416 195.3 211.816 195.3ZM222.925 195C222.725 195 222.555 194.93 222.415 194.79C222.275 194.65 222.205 194.48 222.205 194.28V180.15C222.205 179.95 222.275 179.78 222.415 179.64C222.555 179.48 222.725 179.4 222.925 179.4H225.355C225.575 179.4 225.755 179.47 225.895 179.61C226.035 179.75 226.105 179.93 226.105 180.15V181.38C226.585 180.74 227.185 180.25 227.905 179.91C228.645 179.57 229.485 179.4 230.425 179.4H231.655C231.875 179.4 232.045 179.47 232.165 179.61C232.305 179.73 232.375 179.9 232.375 180.12V182.28C232.375 182.48 232.305 182.65 232.165 182.79C232.045 182.93 231.875 183 231.655 183H229.315C228.375 183 227.635 183.27 227.095 183.81C226.555 184.35 226.285 185.09 226.285 186.03V194.28C226.285 194.48 226.215 194.65 226.075 194.79C225.935 194.93 225.755 195 225.535 195H222.925ZM235.314 176.82C235.114 176.82 234.944 176.75 234.804 176.61C234.664 176.47 234.594 176.3 234.594 176.1V173.94C234.594 173.74 234.664 173.57 234.804 173.43C234.944 173.29 235.114 173.22 235.314 173.22H238.044C238.244 173.22 238.414 173.29 238.554 173.43C238.714 173.57 238.794 173.74 238.794 173.94V176.1C238.794 176.3 238.724 176.47 238.584 176.61C238.444 176.75 238.264 176.82 238.044 176.82H235.314ZM235.434 195C235.234 195 235.064 194.93 234.924 194.79C234.784 194.65 234.714 194.48 234.714 194.28V180.12C234.714 179.92 234.784 179.75 234.924 179.61C235.064 179.47 235.234 179.4 235.434 179.4H237.924C238.144 179.4 238.314 179.47 238.434 179.61C238.574 179.73 238.644 179.9 238.644 180.12V194.28C238.644 194.48 238.574 194.65 238.434 194.79C238.314 194.93 238.144 195 237.924 195H235.434ZM243.375 200.7C243.175 200.7 243.005 200.63 242.865 200.49C242.725 200.37 242.655 200.2 242.655 199.98V180.12C242.655 179.9 242.725 179.73 242.865 179.61C243.005 179.47 243.175 179.4 243.375 179.4H245.745C245.965 179.4 246.135 179.47 246.255 179.61C246.395 179.73 246.465 179.9 246.465 180.12V181.32C247.585 179.84 249.185 179.1 251.265 179.1C253.285 179.1 254.835 179.74 255.915 181.02C256.995 182.28 257.575 183.99 257.655 186.15C257.675 186.39 257.685 186.74 257.685 187.2C257.685 187.68 257.675 188.04 257.655 188.28C257.575 190.38 256.995 192.08 255.915 193.38C254.835 194.66 253.285 195.3 251.265 195.3C249.245 195.3 247.705 194.59 246.645 193.17V199.98C246.645 200.2 246.575 200.37 246.435 200.49C246.315 200.63 246.145 200.7 245.925 200.7H243.375ZM250.155 192.09C252.315 192.09 253.465 190.76 253.605 188.1C253.625 187.9 253.635 187.6 253.635 187.2C253.635 186.8 253.625 186.5 253.605 186.3C253.465 183.64 252.315 182.31 250.155 182.31C248.995 182.31 248.135 182.68 247.575 183.42C247.015 184.16 246.705 185.07 246.645 186.15L246.615 187.29L246.645 188.46C246.685 189.46 246.995 190.32 247.575 191.04C248.175 191.74 249.035 192.09 250.155 192.09ZM267.985 195C266.165 195 264.795 194.53 263.875 193.59C262.975 192.63 262.525 191.23 262.525 189.39V182.58H260.155C259.955 182.58 259.785 182.51 259.645 182.37C259.505 182.21 259.435 182.03 259.435 181.83V180.12C259.435 179.92 259.505 179.75 259.645 179.61C259.785 179.47 259.955 179.4 260.155 179.4H262.525V174.42C262.525 174.2 262.595 174.03 262.735 173.91C262.875 173.77 263.045 173.7 263.245 173.7H265.675C265.895 173.7 266.065 173.77 266.185 173.91C266.325 174.03 266.395 174.2 266.395 174.42V179.4H270.145C270.365 179.4 270.535 179.47 270.655 179.61C270.795 179.73 270.865 179.9 270.865 180.12V181.83C270.865 182.05 270.795 182.23 270.655 182.37C270.515 182.51 270.345 182.58 270.145 182.58H266.395V189.09C266.395 189.95 266.545 190.6 266.845 191.04C267.145 191.48 267.645 191.7 268.345 191.7H270.415C270.615 191.7 270.785 191.77 270.925 191.91C271.065 192.05 271.135 192.22 271.135 192.42V194.28C271.135 194.48 271.065 194.65 270.925 194.79C270.805 194.93 270.635 195 270.415 195H267.985ZM273.616 197.25C273.436 197.25 273.296 197.19 273.196 197.07C273.096 196.95 273.056 196.8 273.076 196.62L273.886 191.52C273.926 191.24 274.026 191.01 274.186 190.83C274.346 190.65 274.566 190.56 274.846 190.56H277.606C277.746 190.56 277.866 190.62 277.966 190.74C278.086 190.84 278.146 190.97 278.146 191.13C278.146 191.23 278.116 191.36 278.056 191.52L276.136 196.5C276.036 196.74 275.906 196.92 275.746 197.04C275.606 197.18 275.406 197.25 275.146 197.25H273.616ZM18.06 231C17.86 231 17.69 230.93 17.55 230.79C17.41 230.65 17.34 230.48 17.34 230.28V210.75C17.34 210.53 17.4 210.35 17.52 210.21C17.66 210.07 17.84 210 18.06 210H25.83C28.27 210 30.18 210.57 31.56 211.71C32.96 212.85 33.66 214.47 33.66 216.57C33.66 218.03 33.3 219.26 32.58 220.26C31.88 221.24 30.9 221.95 29.64 222.39L34.02 230.04C34.08 230.16 34.11 230.27 34.11 230.37C34.11 230.55 34.04 230.7 33.9 230.82C33.78 230.94 33.64 231 33.48 231H30.75C30.43 231 30.18 230.93 30 230.79C29.84 230.65 29.69 230.45 29.55 230.19L25.68 223.08H21.51V230.28C21.51 230.48 21.44 230.65 21.3 230.79C21.18 230.93 21.01 231 20.79 231H18.06ZM25.74 219.69C26.94 219.69 27.84 219.42 28.44 218.88C29.06 218.34 29.37 217.56 29.37 216.54C29.37 215.52 29.06 214.73 28.44 214.17C27.84 213.61 26.94 213.33 25.74 213.33H21.51V219.69H25.74ZM43.7098 231.3C41.4898 231.3 39.7198 230.66 38.3998 229.38C37.0998 228.08 36.4098 226.26 36.3298 223.92L36.2998 223.17L36.3298 222.42C36.4298 220.14 37.1298 218.35 38.4298 217.05C39.7498 215.75 41.5098 215.1 43.7098 215.1C46.0698 215.1 47.8898 215.82 49.1698 217.26C50.4698 218.7 51.1198 220.62 51.1198 223.02V223.65C51.1198 223.85 51.0498 224.02 50.9098 224.16C50.7698 224.3 50.5898 224.37 50.3698 224.37H40.4098V224.61C40.4498 225.71 40.7498 226.64 41.3098 227.4C41.8898 228.14 42.6798 228.51 43.6798 228.51C44.8598 228.51 45.8098 228.05 46.5298 227.13C46.7098 226.91 46.8498 226.77 46.9498 226.71C47.0698 226.65 47.2398 226.62 47.4598 226.62H50.0398C50.2198 226.62 50.3698 226.68 50.4898 226.8C50.6298 226.9 50.6998 227.03 50.6998 227.19C50.6998 227.67 50.4098 228.24 49.8298 228.9C49.2698 229.54 48.4598 230.1 47.3998 230.58C46.3398 231.06 45.1098 231.3 43.7098 231.3ZM47.0398 221.85V221.76C47.0398 220.58 46.7398 219.63 46.1398 218.91C45.5598 218.19 44.7498 217.83 43.7098 217.83C42.6698 217.83 41.8598 218.19 41.2798 218.91C40.6998 219.63 40.4098 220.58 40.4098 221.76V221.85H47.0398ZM58.8342 231.3C57.8142 231.3 56.8742 231.1 56.0142 230.7C55.1742 230.28 54.5042 229.72 54.0042 229.02C53.5242 228.32 53.2842 227.55 53.2842 226.71C53.2842 225.35 53.8342 224.25 54.9342 223.41C56.0342 222.57 57.5442 222 59.4642 221.7L63.5742 221.1V220.47C63.5742 219.59 63.3542 218.93 62.9142 218.49C62.4742 218.05 61.7642 217.83 60.7842 217.83C60.1242 217.83 59.5842 217.96 59.1642 218.22C58.7642 218.46 58.4442 218.7 58.2042 218.94C57.9642 219.2 57.8042 219.37 57.7242 219.45C57.6442 219.69 57.4942 219.81 57.2742 219.81H54.9642C54.7842 219.81 54.6242 219.75 54.4842 219.63C54.3642 219.51 54.3042 219.35 54.3042 219.15C54.3242 218.65 54.5642 218.08 55.0242 217.44C55.5042 216.8 56.2342 216.25 57.2142 215.79C58.1942 215.33 59.3942 215.1 60.8142 215.1C63.1742 215.1 64.8942 215.63 65.9742 216.69C67.0542 217.75 67.5942 219.14 67.5942 220.86V230.28C67.5942 230.48 67.5242 230.65 67.3842 230.79C67.2642 230.93 67.0942 231 66.8742 231H64.4442C64.2442 231 64.0742 230.93 63.9342 230.79C63.7942 230.65 63.7242 230.48 63.7242 230.28V229.11C63.2842 229.75 62.6542 230.28 61.8342 230.7C61.0342 231.1 60.0342 231.3 58.8342 231.3ZM59.8542 228.45C60.9542 228.45 61.8542 228.09 62.5542 227.37C63.2542 226.65 63.6042 225.6 63.6042 224.22V223.59L60.6042 224.07C59.4442 224.25 58.5642 224.54 57.9642 224.94C57.3842 225.34 57.0942 225.83 57.0942 226.41C57.0942 227.05 57.3642 227.55 57.9042 227.91C58.4442 228.27 59.0942 228.45 59.8542 228.45ZM78.1929 231.3C75.9929 231.3 74.2329 230.69 72.9129 229.47C71.6129 228.25 70.9229 226.56 70.8429 224.4L70.8129 223.2L70.8429 222C70.9229 219.84 71.6129 218.15 72.9129 216.93C74.2329 215.71 75.9929 215.1 78.1929 215.1C79.7529 215.1 81.0729 215.38 82.1529 215.94C83.2529 216.5 84.0629 217.19 84.5829 218.01C85.1229 218.81 85.4129 219.57 85.4529 220.29C85.4729 220.49 85.4029 220.66 85.2429 220.8C85.1029 220.94 84.9329 221.01 84.7329 221.01H82.0929C81.8929 221.01 81.7329 220.97 81.6129 220.89C81.5129 220.79 81.4129 220.63 81.3129 220.41C81.0129 219.63 80.6129 219.07 80.1129 218.73C79.6329 218.39 79.0129 218.22 78.2529 218.22C77.2329 218.22 76.4329 218.55 75.8529 219.21C75.2729 219.85 74.9629 220.83 74.9229 222.15L74.8929 223.26L74.9229 224.25C75.0029 226.87 76.1129 228.18 78.2529 228.18C79.0329 228.18 79.6629 228.01 80.1429 227.67C80.6229 227.33 81.0129 226.77 81.3129 225.99C81.4129 225.77 81.5129 225.62 81.6129 225.54C81.7329 225.44 81.8929 225.39 82.0929 225.39H84.7329C84.9329 225.39 85.1029 225.46 85.2429 225.6C85.4029 225.74 85.4729 225.91 85.4529 226.11C85.4129 226.81 85.1329 227.56 84.6129 228.36C84.0929 229.16 83.2929 229.85 82.2129 230.43C81.1329 231.01 79.7929 231.3 78.1929 231.3ZM95.6316 231C93.8116 231 92.4416 230.53 91.5216 229.59C90.6216 228.63 90.1716 227.23 90.1716 225.39V218.58H87.8016C87.6016 218.58 87.4316 218.51 87.2916 218.37C87.1516 218.21 87.0816 218.03 87.0816 217.83V216.12C87.0816 215.92 87.1516 215.75 87.2916 215.61C87.4316 215.47 87.6016 215.4 87.8016 215.4H90.1716V210.42C90.1716 210.2 90.2416 210.03 90.3816 209.91C90.5216 209.77 90.6916 209.7 90.8916 209.7H93.3216C93.5416 209.7 93.7116 209.77 93.8316 209.91C93.9716 210.03 94.0416 210.2 94.0416 210.42V215.4H97.7916C98.0116 215.4 98.1816 215.47 98.3016 215.61C98.4416 215.73 98.5116 215.9 98.5116 216.12V217.83C98.5116 218.05 98.4416 218.23 98.3016 218.37C98.1616 218.51 97.9916 218.58 97.7916 218.58H94.0416V225.09C94.0416 225.95 94.1916 226.6 94.4916 227.04C94.7916 227.48 95.2916 227.7 95.9916 227.7H98.0616C98.2616 227.7 98.4316 227.77 98.5716 227.91C98.7116 228.05 98.7816 228.22 98.7816 228.42V230.28C98.7816 230.48 98.7116 230.65 98.5716 230.79C98.4516 230.93 98.2816 231 98.0616 231H95.6316ZM101.983 231C101.783 231 101.613 230.93 101.473 230.79C101.333 230.65 101.263 230.48 101.263 230.28V227.31C101.263 227.11 101.333 226.94 101.473 226.8C101.613 226.64 101.783 226.56 101.983 226.56H104.983C105.183 226.56 105.353 226.64 105.493 226.8C105.633 226.94 105.703 227.11 105.703 227.31V230.28C105.703 230.48 105.633 230.65 105.493 230.79C105.353 230.93 105.183 231 104.983 231H101.983ZM110.166 212.82C109.966 212.82 109.796 212.75 109.656 212.61C109.516 212.47 109.446 212.3 109.446 212.1V209.94C109.446 209.74 109.516 209.57 109.656 209.43C109.796 209.29 109.966 209.22 110.166 209.22H112.986C113.186 209.22 113.356 209.29 113.496 209.43C113.656 209.57 113.736 209.74 113.736 209.94V212.1C113.736 212.3 113.666 212.47 113.526 212.61C113.386 212.75 113.206 212.82 112.986 212.82H110.166ZM106.656 236.7C106.436 236.7 106.266 236.63 106.146 236.49C106.006 236.37 105.936 236.2 105.936 235.98V234.27C105.936 234.05 106.006 233.87 106.146 233.73C106.286 233.59 106.456 233.52 106.656 233.52H107.436C108.276 233.52 108.836 233.3 109.116 232.86C109.416 232.44 109.566 231.81 109.566 230.97V216.12C109.566 215.9 109.636 215.73 109.776 215.61C109.916 215.47 110.086 215.4 110.286 215.4H112.896C113.096 215.4 113.266 215.47 113.406 215.61C113.546 215.75 113.616 215.92 113.616 216.12V231.03C113.616 232.83 113.126 234.22 112.146 235.2C111.186 236.2 109.736 236.7 107.796 236.7H106.656ZM123.525 231.3C122.025 231.3 120.765 231.08 119.745 230.64C118.725 230.18 117.965 229.65 117.465 229.05C116.985 228.43 116.745 227.9 116.745 227.46C116.745 227.26 116.815 227.1 116.955 226.98C117.095 226.86 117.255 226.8 117.435 226.8H119.805C119.985 226.8 120.135 226.87 120.255 227.01C120.335 227.07 120.545 227.25 120.885 227.55C121.225 227.87 121.625 228.12 122.085 228.3C122.545 228.48 123.055 228.57 123.615 228.57C124.415 228.57 125.075 228.41 125.595 228.09C126.115 227.77 126.375 227.33 126.375 226.77C126.375 226.35 126.255 226.01 126.015 225.75C125.795 225.49 125.385 225.26 124.785 225.06C124.185 224.84 123.295 224.61 122.115 224.37C120.415 224.01 119.155 223.46 118.335 222.72C117.535 221.98 117.135 221 117.135 219.78C117.135 218.98 117.375 218.23 117.855 217.53C118.335 216.81 119.045 216.23 119.985 215.79C120.945 215.33 122.085 215.1 123.405 215.1C124.745 215.1 125.905 215.32 126.885 215.76C127.865 216.18 128.605 216.69 129.105 217.29C129.625 217.87 129.885 218.39 129.885 218.85C129.885 219.03 129.815 219.19 129.675 219.33C129.555 219.45 129.405 219.51 129.225 219.51H127.005C126.845 219.51 126.675 219.44 126.495 219.3C126.355 219.2 126.135 219.01 125.835 218.73C125.535 218.45 125.185 218.23 124.785 218.07C124.385 217.91 123.915 217.83 123.375 217.83C122.635 217.83 122.055 217.99 121.635 218.31C121.235 218.63 121.035 219.05 121.035 219.57C121.035 219.95 121.135 220.26 121.335 220.5C121.535 220.74 121.925 220.97 122.505 221.19C123.085 221.41 123.955 221.63 125.115 221.85C127.035 222.23 128.405 222.82 129.225 223.62C130.065 224.42 130.485 225.4 130.485 226.56C130.485 227.96 129.875 229.1 128.655 229.98C127.435 230.86 125.725 231.3 123.525 231.3ZM133.402 233.25C133.222 233.25 133.082 233.19 132.982 233.07C132.882 232.95 132.842 232.8 132.862 232.62L133.672 227.52C133.712 227.24 133.812 227.01 133.972 226.83C134.132 226.65 134.352 226.56 134.632 226.56H137.392C137.532 226.56 137.652 226.62 137.752 226.74C137.872 226.84 137.932 226.97 137.932 227.13C137.932 227.23 137.902 227.36 137.842 227.52L135.922 232.5C135.822 232.74 135.692 232.92 135.532 233.04C135.392 233.18 135.192 233.25 134.932 233.25H133.402ZM142.425 231C142.225 231 142.055 230.93 141.915 230.79C141.775 230.65 141.705 230.48 141.705 230.28V210.75C141.705 210.53 141.765 210.35 141.885 210.21C142.025 210.07 142.205 210 142.425 210H145.155C145.375 210 145.545 210.07 145.665 210.21C145.805 210.35 145.875 210.53 145.875 210.75V218.49H154.725V210.75C154.725 210.53 154.785 210.35 154.905 210.21C155.045 210.07 155.225 210 155.445 210H158.145C158.365 210 158.545 210.07 158.685 210.21C158.825 210.35 158.895 210.53 158.895 210.75V230.28C158.895 230.5 158.825 230.68 158.685 230.82C158.545 230.94 158.365 231 158.145 231H155.445C155.245 231 155.075 230.93 154.935 230.79C154.795 230.65 154.725 230.48 154.725 230.28V222.24H145.875V230.28C145.875 230.48 145.805 230.65 145.665 230.79C145.545 230.93 145.375 231 145.155 231H142.425ZM170.251 231C168.431 231 167.061 230.53 166.141 229.59C165.241 228.63 164.791 227.23 164.791 225.39V218.58H162.421C162.221 218.58 162.051 218.51 161.911 218.37C161.771 218.21 161.701 218.03 161.701 217.83V216.12C161.701 215.92 161.771 215.75 161.911 215.61C162.051 215.47 162.221 215.4 162.421 215.4H164.791V210.42C164.791 210.2 164.861 210.03 165.001 209.91C165.141 209.77 165.311 209.7 165.511 209.7H167.941C168.161 209.7 168.331 209.77 168.451 209.91C168.591 210.03 168.661 210.2 168.661 210.42V215.4H172.411C172.631 215.4 172.801 215.47 172.921 215.61C173.061 215.73 173.131 215.9 173.131 216.12V217.83C173.131 218.05 173.061 218.23 172.921 218.37C172.781 218.51 172.611 218.58 172.411 218.58H168.661V225.09C168.661 225.95 168.811 226.6 169.111 227.04C169.411 227.48 169.911 227.7 170.611 227.7H172.681C172.881 227.7 173.051 227.77 173.191 227.91C173.331 228.05 173.401 228.22 173.401 228.42V230.28C173.401 230.48 173.331 230.65 173.191 230.79C173.071 230.93 172.901 231 172.681 231H170.251ZM176.782 231C176.582 231 176.412 230.93 176.272 230.79C176.132 230.65 176.062 230.48 176.062 230.28V216.12C176.062 215.92 176.132 215.75 176.272 215.61C176.412 215.47 176.582 215.4 176.782 215.4H179.122C179.322 215.4 179.492 215.47 179.632 215.61C179.772 215.75 179.842 215.92 179.842 216.12V217.14C180.882 215.78 182.332 215.1 184.192 215.1C186.412 215.1 187.962 215.99 188.842 217.77C189.322 216.97 190.002 216.33 190.882 215.85C191.762 215.35 192.712 215.1 193.732 215.1C195.372 215.1 196.712 215.66 197.752 216.78C198.792 217.9 199.312 219.53 199.312 221.67V230.28C199.312 230.48 199.242 230.65 199.102 230.79C198.982 230.93 198.812 231 198.592 231H196.132C195.932 231 195.762 230.93 195.622 230.79C195.482 230.65 195.412 230.48 195.412 230.28V221.91C195.412 220.65 195.142 219.74 194.602 219.18C194.082 218.6 193.382 218.31 192.502 218.31C191.722 218.31 191.052 218.6 190.492 219.18C189.952 219.76 189.682 220.67 189.682 221.91V230.28C189.682 230.48 189.612 230.65 189.472 230.79C189.332 230.93 189.162 231 188.962 231H186.502C186.302 231 186.132 230.93 185.992 230.79C185.852 230.65 185.782 230.48 185.782 230.28V221.91C185.782 220.65 185.502 219.74 184.942 219.18C184.402 218.6 183.712 218.31 182.872 218.31C182.072 218.31 181.392 218.6 180.832 219.18C180.292 219.76 180.022 220.67 180.022 221.91V230.28C180.022 230.48 179.952 230.65 179.812 230.79C179.672 230.93 179.502 231 179.302 231H176.782ZM203.882 231C203.682 231 203.512 230.93 203.372 230.79C203.232 230.65 203.162 230.48 203.162 230.28V210.42C203.162 210.2 203.232 210.03 203.372 209.91C203.512 209.77 203.682 209.7 203.882 209.7H206.372C206.592 209.7 206.762 209.77 206.882 209.91C207.022 210.03 207.092 210.2 207.092 210.42V230.28C207.092 230.48 207.022 230.65 206.882 230.79C206.762 230.93 206.592 231 206.372 231H203.882ZM218.272 231.33C216.612 231.33 215.182 231.05 213.982 230.49C212.802 229.93 211.892 229.19 211.252 228.27C210.632 227.35 210.302 226.36 210.262 225.3V225.24C210.262 225.08 210.322 224.95 210.442 224.85C210.562 224.75 210.712 224.7 210.892 224.7H213.682C214.142 224.7 214.442 224.9 214.582 225.3C214.862 226.18 215.322 226.83 215.962 227.25C216.622 227.67 217.392 227.88 218.272 227.88C219.392 227.88 220.322 227.54 221.062 226.86C221.822 226.18 222.202 225.23 222.202 224.01C222.202 222.93 221.822 222.05 221.062 221.37C220.322 220.69 219.392 220.35 218.272 220.35C217.672 220.35 217.182 220.43 216.802 220.59C216.422 220.75 216.052 220.97 215.692 221.25C215.452 221.43 215.262 221.56 215.122 221.64C215.002 221.7 214.852 221.73 214.672 221.73H211.912C211.732 221.73 211.572 221.67 211.432 221.55C211.312 221.41 211.252 221.25 211.252 221.07L212.302 210.81C212.322 210.57 212.402 210.38 212.542 210.24C212.702 210.08 212.902 210 213.142 210H224.422C224.622 210 224.792 210.07 224.932 210.21C225.072 210.35 225.142 210.52 225.142 210.72V212.73C225.142 212.93 225.072 213.1 224.932 213.24C224.792 213.38 224.622 213.45 224.422 213.45H215.752L215.272 218.34C216.252 217.66 217.562 217.32 219.202 217.32C220.502 217.32 221.702 217.6 222.802 218.16C223.922 218.7 224.812 219.49 225.472 220.53C226.132 221.55 226.462 222.74 226.462 224.1C226.462 225.56 226.122 226.84 225.442 227.94C224.762 229.02 223.802 229.86 222.562 230.46C221.342 231.04 219.912 231.33 218.272 231.33ZM229.29 233.25C229.11 233.25 228.97 233.19 228.87 233.07C228.77 232.95 228.73 232.8 228.75 232.62L229.56 227.52C229.6 227.24 229.7 227.01 229.86 226.83C230.02 226.65 230.24 226.56 230.52 226.56H233.28C233.42 226.56 233.54 226.62 233.64 226.74C233.76 226.84 233.82 226.97 233.82 227.13C233.82 227.23 233.79 227.36 233.73 227.52L231.81 232.5C231.71 232.74 231.58 232.92 231.42 233.04C231.28 233.18 231.08 233.25 230.82 233.25H229.29ZM245.489 231.3C242.729 231.3 240.589 230.59 239.069 229.17C237.569 227.75 236.769 225.75 236.669 223.17C236.649 222.63 236.639 221.75 236.639 220.53C236.639 219.29 236.649 218.39 236.669 217.83C236.769 215.27 237.579 213.28 239.099 211.86C240.639 210.42 242.769 209.7 245.489 209.7C247.269 209.7 248.819 210.01 250.139 210.63C251.459 211.23 252.479 212.06 253.199 213.12C253.919 214.16 254.299 215.34 254.339 216.66V216.72C254.339 216.88 254.269 217.02 254.129 217.14C254.009 217.24 253.869 217.29 253.709 217.29H250.859C250.619 217.29 250.439 217.24 250.319 217.14C250.199 217.04 250.099 216.85 250.019 216.57C249.699 215.31 249.169 214.43 248.429 213.93C247.689 213.41 246.699 213.15 245.459 213.15C242.579 213.15 241.079 214.76 240.959 217.98C240.939 218.52 240.929 219.35 240.929 220.47C240.929 221.59 240.939 222.44 240.959 223.02C241.079 226.24 242.579 227.85 245.459 227.85C246.699 227.85 247.689 227.59 248.429 227.07C249.189 226.55 249.719 225.67 250.019 224.43C250.079 224.15 250.169 223.96 250.289 223.86C250.429 223.76 250.619 223.71 250.859 223.71H253.709C253.889 223.71 254.039 223.77 254.159 223.89C254.299 224.01 254.359 224.16 254.339 224.34C254.299 225.66 253.919 226.85 253.199 227.91C252.479 228.95 251.459 229.78 250.139 230.4C248.819 231 247.269 231.3 245.489 231.3ZM265.187 231.3C263.407 231.3 261.877 231.03 260.597 230.49C259.317 229.95 258.347 229.24 257.687 228.36C257.027 227.48 256.677 226.53 256.637 225.51C256.637 225.33 256.697 225.18 256.817 225.06C256.937 224.94 257.087 224.88 257.267 224.88H259.937C260.177 224.88 260.357 224.93 260.477 225.03C260.617 225.11 260.747 225.25 260.867 225.45C261.067 226.13 261.527 226.7 262.247 227.16C262.967 227.62 263.947 227.85 265.187 227.85C266.607 227.85 267.677 227.62 268.397 227.16C269.117 226.68 269.477 226.02 269.477 225.18C269.477 224.62 269.287 224.16 268.907 223.8C268.547 223.44 267.997 223.13 267.257 222.87C266.537 222.61 265.457 222.29 264.017 221.91C261.657 221.35 259.927 220.61 258.827 219.69C257.747 218.75 257.207 217.42 257.207 215.7C257.207 214.54 257.517 213.51 258.137 212.61C258.777 211.71 259.687 211 260.867 210.48C262.067 209.96 263.457 209.7 265.037 209.7C266.677 209.7 268.097 209.99 269.297 210.57C270.497 211.15 271.407 211.88 272.027 212.76C272.667 213.62 273.007 214.48 273.047 215.34C273.047 215.52 272.987 215.67 272.867 215.79C272.747 215.91 272.597 215.97 272.417 215.97H269.627C269.207 215.97 268.917 215.78 268.757 215.4C268.637 214.76 268.237 214.23 267.557 213.81C266.877 213.37 266.037 213.15 265.037 213.15C263.917 213.15 263.037 213.36 262.397 213.78C261.757 214.2 261.437 214.81 261.437 215.61C261.437 216.17 261.597 216.63 261.917 216.99C262.237 217.35 262.737 217.67 263.417 217.95C264.117 218.23 265.117 218.54 266.417 218.88C268.177 219.28 269.577 219.73 270.617 220.23C271.677 220.73 272.457 221.36 272.957 222.12C273.457 222.88 273.707 223.85 273.707 225.03C273.707 226.31 273.347 227.43 272.627 228.39C271.927 229.33 270.927 230.05 269.627 230.55C268.347 231.05 266.867 231.3 265.187 231.3ZM284.435 231.3C282.655 231.3 281.125 231.03 279.845 230.49C278.565 229.95 277.595 229.24 276.935 228.36C276.275 227.48 275.925 226.53 275.885 225.51C275.885 225.33 275.945 225.18 276.065 225.06C276.185 224.94 276.335 224.88 276.515 224.88H279.185C279.425 224.88 279.605 224.93 279.725 225.03C279.865 225.11 279.995 225.25 280.115 225.45C280.315 226.13 280.775 226.7 281.495 227.16C282.215 227.62 283.195 227.85 284.435 227.85C285.855 227.85 286.925 227.62 287.645 227.16C288.365 226.68 288.725 226.02 288.725 225.18C288.725 224.62 288.535 224.16 288.155 223.8C287.795 223.44 287.245 223.13 286.505 222.87C285.785 222.61 284.705 222.29 283.265 221.91C280.905 221.35 279.175 220.61 278.075 219.69C276.995 218.75 276.455 217.42 276.455 215.7C276.455 214.54 276.765 213.51 277.385 212.61C278.025 211.71 278.935 211 280.115 210.48C281.315 209.96 282.705 209.7 284.285 209.7C285.925 209.7 287.345 209.99 288.545 210.57C289.745 211.15 290.655 211.88 291.275 212.76C291.915 213.62 292.255 214.48 292.295 215.34C292.295 215.52 292.235 215.67 292.115 215.79C291.995 215.91 291.845 215.97 291.665 215.97H288.875C288.455 215.97 288.165 215.78 288.005 215.4C287.885 214.76 287.485 214.23 286.805 213.81C286.125 213.37 285.285 213.15 284.285 213.15C283.165 213.15 282.285 213.36 281.645 213.78C281.005 214.2 280.685 214.81 280.685 215.61C280.685 216.17 280.845 216.63 281.165 216.99C281.485 217.35 281.985 217.67 282.665 217.95C283.365 218.23 284.365 218.54 285.665 218.88C287.425 219.28 288.825 219.73 289.865 220.23C290.925 220.73 291.705 221.36 292.205 222.12C292.705 222.88 292.955 223.85 292.955 225.03C292.955 226.31 292.595 227.43 291.875 228.39C291.175 229.33 290.175 230.05 288.875 230.55C287.595 231.05 286.115 231.3 284.435 231.3ZM303.383 231.3C301.623 231.3 300.123 231.02 298.883 230.46C297.663 229.9 296.743 229.2 296.123 228.36C295.523 227.5 295.203 226.62 295.163 225.72C295.163 225.54 295.223 225.4 295.343 225.3C295.483 225.18 295.643 225.12 295.823 225.12H298.523C298.963 225.12 299.253 225.32 299.393 225.72C299.833 227.16 301.173 227.88 303.413 227.88C304.633 227.88 305.593 227.6 306.293 227.04C306.993 226.46 307.343 225.64 307.343 224.58C307.343 222.58 306.093 221.58 303.593 221.58H300.503C300.283 221.58 300.103 221.51 299.963 221.37C299.823 221.23 299.753 221.06 299.753 220.86V219.6C299.753 219.28 299.893 218.98 300.173 218.7L305.543 213.45H296.963C296.763 213.45 296.593 213.38 296.453 213.24C296.313 213.1 296.243 212.93 296.243 212.73V210.75C296.243 210.53 296.303 210.35 296.423 210.21C296.563 210.07 296.743 210 296.963 210H309.833C310.053 210 310.233 210.07 310.373 210.21C310.513 210.35 310.583 210.53 310.583 210.75V212.55C310.583 212.85 310.453 213.13 310.193 213.39L305.003 218.73L305.363 218.76C307.283 218.92 308.803 219.5 309.923 220.5C311.063 221.5 311.633 222.93 311.633 224.79C311.633 226.11 311.273 227.26 310.553 228.24C309.853 229.22 308.873 229.98 307.613 230.52C306.373 231.04 304.963 231.3 303.383 231.3ZM314.749 233.25C314.569 233.25 314.429 233.19 314.329 233.07C314.229 232.95 314.189 232.8 314.209 232.62L315.019 227.52C315.059 227.24 315.159 227.01 315.319 226.83C315.479 226.65 315.699 226.56 315.979 226.56H318.739C318.879 226.56 318.999 226.62 319.099 226.74C319.219 226.84 319.279 226.97 319.279 227.13C319.279 227.23 319.249 227.36 319.189 227.52L317.269 232.5C317.169 232.74 317.039 232.92 316.879 233.04C316.739 233.18 316.539 233.25 316.279 233.25H314.749ZM323.773 231C323.573 231 323.403 230.93 323.263 230.79C323.123 230.65 323.053 230.48 323.053 230.28V210.75C323.053 210.53 323.113 210.35 323.233 210.21C323.373 210.07 323.553 210 323.773 210H336.793C337.013 210 337.193 210.07 337.333 210.21C337.473 210.35 337.543 210.53 337.543 210.75V212.85C337.543 213.07 337.473 213.25 337.333 213.39C337.193 213.51 337.013 213.57 336.793 213.57H327.163V219.27H336.193C336.413 219.27 336.593 219.34 336.733 219.48C336.873 219.62 336.943 219.8 336.943 220.02V222.12C336.943 222.34 336.873 222.52 336.733 222.66C336.593 222.78 336.413 222.84 336.193 222.84H327.163V230.28C327.163 230.5 327.093 230.68 326.953 230.82C326.813 230.94 326.633 231 326.413 231H323.773ZM341.31 212.82C341.11 212.82 340.94 212.75 340.8 212.61C340.66 212.47 340.59 212.3 340.59 212.1V209.94C340.59 209.74 340.66 209.57 340.8 209.43C340.94 209.29 341.11 209.22 341.31 209.22H344.04C344.24 209.22 344.41 209.29 344.55 209.43C344.71 209.57 344.79 209.74 344.79 209.94V212.1C344.79 212.3 344.72 212.47 344.58 212.61C344.44 212.75 344.26 212.82 344.04 212.82H341.31ZM341.43 231C341.23 231 341.06 230.93 340.92 230.79C340.78 230.65 340.71 230.48 340.71 230.28V216.12C340.71 215.92 340.78 215.75 340.92 215.61C341.06 215.47 341.23 215.4 341.43 215.4H343.92C344.14 215.4 344.31 215.47 344.43 215.61C344.57 215.73 344.64 215.9 344.64 216.12V230.28C344.64 230.48 344.57 230.65 344.43 230.79C344.31 230.93 344.14 231 343.92 231H341.43ZM349.341 231C349.141 231 348.971 230.93 348.831 230.79C348.691 230.65 348.621 230.48 348.621 230.28V216.15C348.621 215.95 348.691 215.78 348.831 215.64C348.971 215.48 349.141 215.4 349.341 215.4H351.771C351.991 215.4 352.171 215.47 352.311 215.61C352.451 215.75 352.521 215.93 352.521 216.15V217.38C353.001 216.74 353.601 216.25 354.321 215.91C355.061 215.57 355.901 215.4 356.841 215.4H358.071C358.291 215.4 358.461 215.47 358.581 215.61C358.721 215.73 358.791 215.9 358.791 216.12V218.28C358.791 218.48 358.721 218.65 358.581 218.79C358.461 218.93 358.291 219 358.071 219H355.731C354.791 219 354.051 219.27 353.511 219.81C352.971 220.35 352.701 221.09 352.701 222.03V230.28C352.701 230.48 352.631 230.65 352.491 230.79C352.351 230.93 352.171 231 351.951 231H349.341ZM367.645 231.3C365.425 231.3 363.655 230.66 362.335 229.38C361.035 228.08 360.345 226.26 360.265 223.92L360.235 223.17L360.265 222.42C360.365 220.14 361.065 218.35 362.365 217.05C363.685 215.75 365.445 215.1 367.645 215.1C370.005 215.1 371.825 215.82 373.105 217.26C374.405 218.7 375.055 220.62 375.055 223.02V223.65C375.055 223.85 374.985 224.02 374.845 224.16C374.705 224.3 374.525 224.37 374.305 224.37H364.345V224.61C364.385 225.71 364.685 226.64 365.245 227.4C365.825 228.14 366.615 228.51 367.615 228.51C368.795 228.51 369.745 228.05 370.465 227.13C370.645 226.91 370.785 226.77 370.885 226.71C371.005 226.65 371.175 226.62 371.395 226.62H373.975C374.155 226.62 374.305 226.68 374.425 226.8C374.565 226.9 374.635 227.03 374.635 227.19C374.635 227.67 374.345 228.24 373.765 228.9C373.205 229.54 372.395 230.1 371.335 230.58C370.275 231.06 369.045 231.3 367.645 231.3ZM370.975 221.85V221.76C370.975 220.58 370.675 219.63 370.075 218.91C369.495 218.19 368.685 217.83 367.645 217.83C366.605 217.83 365.795 218.19 365.215 218.91C364.635 219.63 364.345 220.58 364.345 221.76V221.85H370.975ZM386.88 231.3C384.82 231.3 383.22 230.59 382.08 229.17V230.28C382.08 230.48 382.01 230.65 381.87 230.79C381.75 230.93 381.58 231 381.36 231H378.99C378.79 231 378.62 230.93 378.48 230.79C378.34 230.65 378.27 230.48 378.27 230.28V210.42C378.27 210.2 378.34 210.03 378.48 209.91C378.62 209.77 378.79 209.7 378.99 209.7H381.54C381.76 209.7 381.93 209.77 382.05 209.91C382.19 210.03 382.26 210.2 382.26 210.42V217.08C383.4 215.76 384.94 215.1 386.88 215.1C388.9 215.1 390.45 215.76 391.53 217.08C392.61 218.4 393.19 220.11 393.27 222.21C393.29 222.45 393.3 222.77 393.3 223.17C393.3 223.59 393.29 223.92 393.27 224.16C393.19 226.32 392.61 228.05 391.53 229.35C390.45 230.65 388.9 231.3 386.88 231.3ZM385.77 228.09C387.93 228.09 389.08 226.76 389.22 224.1C389.24 223.9 389.25 223.6 389.25 223.2C389.25 222.8 389.24 222.5 389.22 222.3C389.08 219.64 387.93 218.31 385.77 218.31C384.65 218.31 383.79 218.67 383.19 219.39C382.61 220.09 382.3 220.94 382.26 221.94L382.23 223.08L382.26 224.25C382.32 225.33 382.63 226.24 383.19 226.98C383.75 227.72 384.61 228.09 385.77 228.09ZM401.168 231.3C400.148 231.3 399.208 231.1 398.348 230.7C397.508 230.28 396.838 229.72 396.338 229.02C395.858 228.32 395.618 227.55 395.618 226.71C395.618 225.35 396.168 224.25 397.268 223.41C398.368 222.57 399.878 222 401.798 221.7L405.908 221.1V220.47C405.908 219.59 405.688 218.93 405.248 218.49C404.808 218.05 404.098 217.83 403.118 217.83C402.458 217.83 401.918 217.96 401.498 218.22C401.098 218.46 400.778 218.7 400.538 218.94C400.298 219.2 400.138 219.37 400.058 219.45C399.978 219.69 399.828 219.81 399.608 219.81H397.298C397.118 219.81 396.958 219.75 396.818 219.63C396.698 219.51 396.638 219.35 396.638 219.15C396.658 218.65 396.898 218.08 397.358 217.44C397.838 216.8 398.568 216.25 399.548 215.79C400.528 215.33 401.728 215.1 403.148 215.1C405.508 215.1 407.228 215.63 408.308 216.69C409.388 217.75 409.928 219.14 409.928 220.86V230.28C409.928 230.48 409.858 230.65 409.718 230.79C409.598 230.93 409.428 231 409.208 231H406.778C406.578 231 406.408 230.93 406.268 230.79C406.128 230.65 406.058 230.48 406.058 230.28V229.11C405.618 229.75 404.988 230.28 404.168 230.7C403.368 231.1 402.368 231.3 401.168 231.3ZM402.188 228.45C403.288 228.45 404.188 228.09 404.888 227.37C405.588 226.65 405.938 225.6 405.938 224.22V223.59L402.938 224.07C401.778 224.25 400.898 224.54 400.298 224.94C399.718 225.34 399.428 225.83 399.428 226.41C399.428 227.05 399.698 227.55 400.238 227.91C400.778 228.27 401.428 228.45 402.188 228.45ZM419.687 231.3C418.187 231.3 416.927 231.08 415.907 230.64C414.887 230.18 414.127 229.65 413.627 229.05C413.147 228.43 412.907 227.9 412.907 227.46C412.907 227.26 412.977 227.1 413.117 226.98C413.257 226.86 413.417 226.8 413.597 226.8H415.967C416.147 226.8 416.297 226.87 416.417 227.01C416.497 227.07 416.707 227.25 417.047 227.55C417.387 227.87 417.787 228.12 418.247 228.3C418.707 228.48 419.217 228.57 419.777 228.57C420.577 228.57 421.237 228.41 421.757 228.09C422.277 227.77 422.537 227.33 422.537 226.77C422.537 226.35 422.417 226.01 422.177 225.75C421.957 225.49 421.547 225.26 420.947 225.06C420.347 224.84 419.457 224.61 418.277 224.37C416.577 224.01 415.317 223.46 414.497 222.72C413.697 221.98 413.297 221 413.297 219.78C413.297 218.98 413.537 218.23 414.017 217.53C414.497 216.81 415.207 216.23 416.147 215.79C417.107 215.33 418.247 215.1 419.567 215.1C420.907 215.1 422.067 215.32 423.047 215.76C424.027 216.18 424.767 216.69 425.267 217.29C425.787 217.87 426.047 218.39 426.047 218.85C426.047 219.03 425.977 219.19 425.837 219.33C425.717 219.45 425.567 219.51 425.387 219.51H423.167C423.007 219.51 422.837 219.44 422.657 219.3C422.517 219.2 422.297 219.01 421.997 218.73C421.697 218.45 421.347 218.23 420.947 218.07C420.547 217.91 420.077 217.83 419.537 217.83C418.797 217.83 418.217 217.99 417.797 218.31C417.397 218.63 417.197 219.05 417.197 219.57C417.197 219.95 417.297 220.26 417.497 220.5C417.697 220.74 418.087 220.97 418.667 221.19C419.247 221.41 420.117 221.63 421.277 221.85C423.197 222.23 424.567 222.82 425.387 223.62C426.227 224.42 426.647 225.4 426.647 226.56C426.647 227.96 426.037 229.1 424.817 229.98C423.597 230.86 421.887 231.3 419.687 231.3ZM436.464 231.3C434.244 231.3 432.474 230.66 431.154 229.38C429.854 228.08 429.164 226.26 429.084 223.92L429.054 223.17L429.084 222.42C429.184 220.14 429.884 218.35 431.184 217.05C432.504 215.75 434.264 215.1 436.464 215.1C438.824 215.1 440.644 215.82 441.924 217.26C443.224 218.7 443.874 220.62 443.874 223.02V223.65C443.874 223.85 443.804 224.02 443.664 224.16C443.524 224.3 443.344 224.37 443.124 224.37H433.164V224.61C433.204 225.71 433.504 226.64 434.064 227.4C434.644 228.14 435.434 228.51 436.434 228.51C437.614 228.51 438.564 228.05 439.284 227.13C439.464 226.91 439.604 226.77 439.704 226.71C439.824 226.65 439.994 226.62 440.214 226.62H442.794C442.974 226.62 443.124 226.68 443.244 226.8C443.384 226.9 443.454 227.03 443.454 227.19C443.454 227.67 443.164 228.24 442.584 228.9C442.024 229.54 441.214 230.1 440.154 230.58C439.094 231.06 437.864 231.3 436.464 231.3ZM439.794 221.85V221.76C439.794 220.58 439.494 219.63 438.894 218.91C438.314 218.19 437.504 217.83 436.464 217.83C435.424 217.83 434.614 218.19 434.034 218.91C433.454 219.63 433.164 220.58 433.164 221.76V221.85H439.794Z" fill="#605454"/>
</g>
</svg>
