<svg width="1100" height="247" viewBox="0 0 1100 247" fill="none" xmlns="http://www.w3.org/2000/svg">
<g id="Group 35">
<path id="React.js, Javascript, Bootstrap, CSS,Firebase" d="M26.06 128C25.86 128 25.69 127.93 25.55 127.79C25.41 127.65 25.34 127.48 25.34 127.28V107.75C25.34 107.53 25.4 107.35 25.52 107.21C25.66 107.07 25.84 107 26.06 107H33.83C36.27 107 38.18 107.57 39.56 108.71C40.96 109.85 41.66 111.47 41.66 113.57C41.66 115.03 41.3 116.26 40.58 117.26C39.88 118.24 38.9 118.95 37.64 119.39L42.02 127.04C42.08 127.16 42.11 127.27 42.11 127.37C42.11 127.55 42.04 127.7 41.9 127.82C41.78 127.94 41.64 128 41.48 128H38.75C38.43 128 38.18 127.93 38 127.79C37.84 127.65 37.69 127.45 37.55 127.19L33.68 120.08H29.51V127.28C29.51 127.48 29.44 127.65 29.3 127.79C29.18 127.93 29.01 128 28.79 128H26.06ZM33.74 116.69C34.94 116.69 35.84 116.42 36.44 115.88C37.06 115.34 37.37 114.56 37.37 113.54C37.37 112.52 37.06 111.73 36.44 111.17C35.84 110.61 34.94 110.33 33.74 110.33H29.51V116.69H33.74ZM51.7098 128.3C49.4898 128.3 47.7198 127.66 46.3998 126.38C45.0998 125.08 44.4098 123.26 44.3298 120.92L44.2998 120.17L44.3298 119.42C44.4298 117.14 45.1298 115.35 46.4298 114.05C47.7498 112.75 49.5098 112.1 51.7098 112.1C54.0698 112.1 55.8898 112.82 57.1698 114.26C58.4698 115.7 59.1198 117.62 59.1198 120.02V120.65C59.1198 120.85 59.0498 121.02 58.9098 121.16C58.7698 121.3 58.5898 121.37 58.3698 121.37H48.4098V121.61C48.4498 122.71 48.7498 123.64 49.3098 124.4C49.8898 125.14 50.6798 125.51 51.6798 125.51C52.8598 125.51 53.8098 125.05 54.5298 124.13C54.7098 123.91 54.8498 123.77 54.9498 123.71C55.0698 123.65 55.2398 123.62 55.4598 123.62H58.0398C58.2198 123.62 58.3698 123.68 58.4898 123.8C58.6298 123.9 58.6998 124.03 58.6998 124.19C58.6998 124.67 58.4098 125.24 57.8298 125.9C57.2698 126.54 56.4598 127.1 55.3998 127.58C54.3398 128.06 53.1098 128.3 51.7098 128.3ZM55.0398 118.85V118.76C55.0398 117.58 54.7398 116.63 54.1398 115.91C53.5598 115.19 52.7498 114.83 51.7098 114.83C50.6698 114.83 49.8598 115.19 49.2798 115.91C48.6998 116.63 48.4098 117.58 48.4098 118.76V118.85H55.0398ZM66.8342 128.3C65.8142 128.3 64.8742 128.1 64.0142 127.7C63.1742 127.28 62.5042 126.72 62.0042 126.02C61.5242 125.32 61.2842 124.55 61.2842 123.71C61.2842 122.35 61.8342 121.25 62.9342 120.41C64.0342 119.57 65.5442 119 67.4642 118.7L71.5742 118.1V117.47C71.5742 116.59 71.3542 115.93 70.9142 115.49C70.4742 115.05 69.7642 114.83 68.7842 114.83C68.1242 114.83 67.5842 114.96 67.1642 115.22C66.7642 115.46 66.4442 115.7 66.2042 115.94C65.9642 116.2 65.8042 116.37 65.7242 116.45C65.6442 116.69 65.4942 116.81 65.2742 116.81H62.9642C62.7842 116.81 62.6242 116.75 62.4842 116.63C62.3642 116.51 62.3042 116.35 62.3042 116.15C62.3242 115.65 62.5642 115.08 63.0242 114.44C63.5042 113.8 64.2342 113.25 65.2142 112.79C66.1942 112.33 67.3942 112.1 68.8142 112.1C71.1742 112.1 72.8942 112.63 73.9742 113.69C75.0542 114.75 75.5942 116.14 75.5942 117.86V127.28C75.5942 127.48 75.5242 127.65 75.3842 127.79C75.2642 127.93 75.0942 128 74.8742 128H72.4442C72.2442 128 72.0742 127.93 71.9342 127.79C71.7942 127.65 71.7242 127.48 71.7242 127.28V126.11C71.2842 126.75 70.6542 127.28 69.8342 127.7C69.0342 128.1 68.0342 128.3 66.8342 128.3ZM67.8542 125.45C68.9542 125.45 69.8542 125.09 70.5542 124.37C71.2542 123.65 71.6042 122.6 71.6042 121.22V120.59L68.6042 121.07C67.4442 121.25 66.5642 121.54 65.9642 121.94C65.3842 122.34 65.0942 122.83 65.0942 123.41C65.0942 124.05 65.3642 124.55 65.9042 124.91C66.4442 125.27 67.0942 125.45 67.8542 125.45ZM86.1929 128.3C83.9929 128.3 82.2329 127.69 80.9129 126.47C79.6129 125.25 78.9229 123.56 78.8429 121.4L78.8129 120.2L78.8429 119C78.9229 116.84 79.6129 115.15 80.9129 113.93C82.2329 112.71 83.9929 112.1 86.1929 112.1C87.7529 112.1 89.0729 112.38 90.1529 112.94C91.2529 113.5 92.0629 114.19 92.5829 115.01C93.1229 115.81 93.4129 116.57 93.4529 117.29C93.4729 117.49 93.4029 117.66 93.2429 117.8C93.1029 117.94 92.9329 118.01 92.7329 118.01H90.0929C89.8929 118.01 89.7329 117.97 89.6129 117.89C89.5129 117.79 89.4129 117.63 89.3129 117.41C89.0129 116.63 88.6129 116.07 88.1129 115.73C87.6329 115.39 87.0129 115.22 86.2529 115.22C85.2329 115.22 84.4329 115.55 83.8529 116.21C83.2729 116.85 82.9629 117.83 82.9229 119.15L82.8929 120.26L82.9229 121.25C83.0029 123.87 84.1129 125.18 86.2529 125.18C87.0329 125.18 87.6629 125.01 88.1429 124.67C88.6229 124.33 89.0129 123.77 89.3129 122.99C89.4129 122.77 89.5129 122.62 89.6129 122.54C89.7329 122.44 89.8929 122.39 90.0929 122.39H92.7329C92.9329 122.39 93.1029 122.46 93.2429 122.6C93.4029 122.74 93.4729 122.91 93.4529 123.11C93.4129 123.81 93.1329 124.56 92.6129 125.36C92.0929 126.16 91.2929 126.85 90.2129 127.43C89.1329 128.01 87.7929 128.3 86.1929 128.3ZM103.632 128C101.812 128 100.442 127.53 99.5216 126.59C98.6216 125.63 98.1716 124.23 98.1716 122.39V115.58H95.8016C95.6016 115.58 95.4316 115.51 95.2916 115.37C95.1516 115.21 95.0816 115.03 95.0816 114.83V113.12C95.0816 112.92 95.1516 112.75 95.2916 112.61C95.4316 112.47 95.6016 112.4 95.8016 112.4H98.1716V107.42C98.1716 107.2 98.2416 107.03 98.3816 106.91C98.5216 106.77 98.6916 106.7 98.8916 106.7H101.322C101.542 106.7 101.712 106.77 101.832 106.91C101.972 107.03 102.042 107.2 102.042 107.42V112.4H105.792C106.012 112.4 106.182 112.47 106.302 112.61C106.442 112.73 106.512 112.9 106.512 113.12V114.83C106.512 115.05 106.442 115.23 106.302 115.37C106.162 115.51 105.992 115.58 105.792 115.58H102.042V122.09C102.042 122.95 102.192 123.6 102.492 124.04C102.792 124.48 103.292 124.7 103.992 124.7H106.062C106.262 124.7 106.432 124.77 106.572 124.91C106.712 125.05 106.782 125.22 106.782 125.42V127.28C106.782 127.48 106.712 127.65 106.572 127.79C106.452 127.93 106.282 128 106.062 128H103.632ZM109.983 128C109.783 128 109.613 127.93 109.473 127.79C109.333 127.65 109.263 127.48 109.263 127.28V124.31C109.263 124.11 109.333 123.94 109.473 123.8C109.613 123.64 109.783 123.56 109.983 123.56H112.983C113.183 123.56 113.353 123.64 113.493 123.8C113.633 123.94 113.703 124.11 113.703 124.31V127.28C113.703 127.48 113.633 127.65 113.493 127.79C113.353 127.93 113.183 128 112.983 128H109.983ZM118.166 109.82C117.966 109.82 117.796 109.75 117.656 109.61C117.516 109.47 117.446 109.3 117.446 109.1V106.94C117.446 106.74 117.516 106.57 117.656 106.43C117.796 106.29 117.966 106.22 118.166 106.22H120.986C121.186 106.22 121.356 106.29 121.496 106.43C121.656 106.57 121.736 106.74 121.736 106.94V109.1C121.736 109.3 121.666 109.47 121.526 109.61C121.386 109.75 121.206 109.82 120.986 109.82H118.166ZM114.656 133.7C114.436 133.7 114.266 133.63 114.146 133.49C114.006 133.37 113.936 133.2 113.936 132.98V131.27C113.936 131.05 114.006 130.87 114.146 130.73C114.286 130.59 114.456 130.52 114.656 130.52H115.436C116.276 130.52 116.836 130.3 117.116 129.86C117.416 129.44 117.566 128.81 117.566 127.97V113.12C117.566 112.9 117.636 112.73 117.776 112.61C117.916 112.47 118.086 112.4 118.286 112.4H120.896C121.096 112.4 121.266 112.47 121.406 112.61C121.546 112.75 121.616 112.92 121.616 113.12V128.03C121.616 129.83 121.126 131.22 120.146 132.2C119.186 133.2 117.736 133.7 115.796 133.7H114.656ZM131.525 128.3C130.025 128.3 128.765 128.08 127.745 127.64C126.725 127.18 125.965 126.65 125.465 126.05C124.985 125.43 124.745 124.9 124.745 124.46C124.745 124.26 124.815 124.1 124.955 123.98C125.095 123.86 125.255 123.8 125.435 123.8H127.805C127.985 123.8 128.135 123.87 128.255 124.01C128.335 124.07 128.545 124.25 128.885 124.55C129.225 124.87 129.625 125.12 130.085 125.3C130.545 125.48 131.055 125.57 131.615 125.57C132.415 125.57 133.075 125.41 133.595 125.09C134.115 124.77 134.375 124.33 134.375 123.77C134.375 123.35 134.255 123.01 134.015 122.75C133.795 122.49 133.385 122.26 132.785 122.06C132.185 121.84 131.295 121.61 130.115 121.37C128.415 121.01 127.155 120.46 126.335 119.72C125.535 118.98 125.135 118 125.135 116.78C125.135 115.98 125.375 115.23 125.855 114.53C126.335 113.81 127.045 113.23 127.985 112.79C128.945 112.33 130.085 112.1 131.405 112.1C132.745 112.1 133.905 112.32 134.885 112.76C135.865 113.18 136.605 113.69 137.105 114.29C137.625 114.87 137.885 115.39 137.885 115.85C137.885 116.03 137.815 116.19 137.675 116.33C137.555 116.45 137.405 116.51 137.225 116.51H135.005C134.845 116.51 134.675 116.44 134.495 116.3C134.355 116.2 134.135 116.01 133.835 115.73C133.535 115.45 133.185 115.23 132.785 115.07C132.385 114.91 131.915 114.83 131.375 114.83C130.635 114.83 130.055 114.99 129.635 115.31C129.235 115.63 129.035 116.05 129.035 116.57C129.035 116.95 129.135 117.26 129.335 117.5C129.535 117.74 129.925 117.97 130.505 118.19C131.085 118.41 131.955 118.63 133.115 118.85C135.035 119.23 136.405 119.82 137.225 120.62C138.065 121.42 138.485 122.4 138.485 123.56C138.485 124.96 137.875 126.1 136.655 126.98C135.435 127.86 133.725 128.3 131.525 128.3ZM141.402 130.25C141.222 130.25 141.082 130.19 140.982 130.07C140.882 129.95 140.842 129.8 140.862 129.62L141.672 124.52C141.712 124.24 141.812 124.01 141.972 123.83C142.132 123.65 142.352 123.56 142.632 123.56H145.392C145.532 123.56 145.652 123.62 145.752 123.74C145.872 123.84 145.932 123.97 145.932 124.13C145.932 124.23 145.902 124.36 145.842 124.52L143.922 129.5C143.822 129.74 143.692 129.92 143.532 130.04C143.392 130.18 143.192 130.25 142.932 130.25H141.402ZM163.487 128.3C162.007 128.3 160.647 128.05 159.407 127.55C158.187 127.05 157.207 126.3 156.467 125.3C155.727 124.3 155.337 123.09 155.297 121.67C155.297 121.49 155.357 121.34 155.477 121.22C155.597 121.08 155.747 121.01 155.927 121.01H158.777C159.217 121.01 159.517 121.27 159.677 121.79C159.817 122.83 160.227 123.6 160.907 124.1C161.607 124.6 162.497 124.85 163.577 124.85C164.837 124.85 165.797 124.44 166.457 123.62C167.137 122.8 167.477 121.66 167.477 120.2V110.54H157.307C157.107 110.54 156.937 110.47 156.797 110.33C156.657 110.19 156.587 110.02 156.587 109.82V107.72C156.587 107.5 156.657 107.33 156.797 107.21C156.937 107.07 157.107 107 157.307 107H171.017C171.237 107 171.417 107.07 171.557 107.21C171.697 107.35 171.767 107.53 171.767 107.75V120.32C171.767 121.98 171.427 123.41 170.747 124.61C170.067 125.81 169.097 126.73 167.837 127.37C166.597 127.99 165.147 128.3 163.487 128.3ZM180.36 128.3C179.34 128.3 178.4 128.1 177.54 127.7C176.7 127.28 176.03 126.72 175.53 126.02C175.05 125.32 174.81 124.55 174.81 123.71C174.81 122.35 175.36 121.25 176.46 120.41C177.56 119.57 179.07 119 180.99 118.7L185.1 118.1V117.47C185.1 116.59 184.88 115.93 184.44 115.49C184 115.05 183.29 114.83 182.31 114.83C181.65 114.83 181.11 114.96 180.69 115.22C180.29 115.46 179.97 115.7 179.73 115.94C179.49 116.2 179.33 116.37 179.25 116.45C179.17 116.69 179.02 116.81 178.8 116.81H176.49C176.31 116.81 176.15 116.75 176.01 116.63C175.89 116.51 175.83 116.35 175.83 116.15C175.85 115.65 176.09 115.08 176.55 114.44C177.03 113.8 177.76 113.25 178.74 112.79C179.72 112.33 180.92 112.1 182.34 112.1C184.7 112.1 186.42 112.63 187.5 113.69C188.58 114.75 189.12 116.14 189.12 117.86V127.28C189.12 127.48 189.05 127.65 188.91 127.79C188.79 127.93 188.62 128 188.4 128H185.97C185.77 128 185.6 127.93 185.46 127.79C185.32 127.65 185.25 127.48 185.25 127.28V126.11C184.81 126.75 184.18 127.28 183.36 127.7C182.56 128.1 181.56 128.3 180.36 128.3ZM181.38 125.45C182.48 125.45 183.38 125.09 184.08 124.37C184.78 123.65 185.13 122.6 185.13 121.22V120.59L182.13 121.07C180.97 121.25 180.09 121.54 179.49 121.94C178.91 122.34 178.62 122.83 178.62 123.41C178.62 124.05 178.89 124.55 179.43 124.91C179.97 125.27 180.62 125.45 181.38 125.45ZM198.137 128C197.837 128 197.607 127.94 197.447 127.82C197.287 127.68 197.157 127.49 197.057 127.25L191.447 113.33L191.387 113.06C191.387 112.88 191.447 112.73 191.567 112.61C191.707 112.47 191.867 112.4 192.047 112.4H194.477C194.857 112.4 195.117 112.59 195.257 112.97L199.247 123.5L203.237 112.97C203.297 112.83 203.387 112.7 203.507 112.58C203.647 112.46 203.817 112.4 204.017 112.4H206.477C206.637 112.4 206.777 112.47 206.897 112.61C207.037 112.73 207.107 112.88 207.107 113.06C207.107 113.18 207.097 113.27 207.077 113.33L201.437 127.25C201.337 127.49 201.207 127.68 201.047 127.82C200.887 127.94 200.657 128 200.357 128H198.137ZM213.729 128.3C212.709 128.3 211.769 128.1 210.909 127.7C210.069 127.28 209.399 126.72 208.899 126.02C208.419 125.32 208.179 124.55 208.179 123.71C208.179 122.35 208.729 121.25 209.829 120.41C210.929 119.57 212.439 119 214.359 118.7L218.469 118.1V117.47C218.469 116.59 218.249 115.93 217.809 115.49C217.369 115.05 216.659 114.83 215.679 114.83C215.019 114.83 214.479 114.96 214.059 115.22C213.659 115.46 213.339 115.7 213.099 115.94C212.859 116.2 212.699 116.37 212.619 116.45C212.539 116.69 212.389 116.81 212.169 116.81H209.859C209.679 116.81 209.519 116.75 209.379 116.63C209.259 116.51 209.199 116.35 209.199 116.15C209.219 115.65 209.459 115.08 209.919 114.44C210.399 113.8 211.129 113.25 212.109 112.79C213.089 112.33 214.289 112.1 215.709 112.1C218.069 112.1 219.789 112.63 220.869 113.69C221.949 114.75 222.489 116.14 222.489 117.86V127.28C222.489 127.48 222.419 127.65 222.279 127.79C222.159 127.93 221.989 128 221.769 128H219.339C219.139 128 218.969 127.93 218.829 127.79C218.689 127.65 218.619 127.48 218.619 127.28V126.11C218.179 126.75 217.549 127.28 216.729 127.7C215.929 128.1 214.929 128.3 213.729 128.3ZM214.749 125.45C215.849 125.45 216.749 125.09 217.449 124.37C218.149 123.65 218.499 122.6 218.499 121.22V120.59L215.499 121.07C214.339 121.25 213.459 121.54 212.859 121.94C212.279 122.34 211.989 122.83 211.989 123.41C211.989 124.05 212.259 124.55 212.799 124.91C213.339 125.27 213.989 125.45 214.749 125.45ZM232.247 128.3C230.747 128.3 229.487 128.08 228.467 127.64C227.447 127.18 226.687 126.65 226.187 126.05C225.707 125.43 225.467 124.9 225.467 124.46C225.467 124.26 225.537 124.1 225.677 123.98C225.817 123.86 225.977 123.8 226.157 123.8H228.527C228.707 123.8 228.857 123.87 228.977 124.01C229.057 124.07 229.267 124.25 229.607 124.55C229.947 124.87 230.347 125.12 230.807 125.3C231.267 125.48 231.777 125.57 232.337 125.57C233.137 125.57 233.797 125.41 234.317 125.09C234.837 124.77 235.097 124.33 235.097 123.77C235.097 123.35 234.977 123.01 234.737 122.75C234.517 122.49 234.107 122.26 233.507 122.06C232.907 121.84 232.017 121.61 230.837 121.37C229.137 121.01 227.877 120.46 227.057 119.72C226.257 118.98 225.857 118 225.857 116.78C225.857 115.98 226.097 115.23 226.577 114.53C227.057 113.81 227.767 113.23 228.707 112.79C229.667 112.33 230.807 112.1 232.127 112.1C233.467 112.1 234.627 112.32 235.607 112.76C236.587 113.18 237.327 113.69 237.827 114.29C238.347 114.87 238.607 115.39 238.607 115.85C238.607 116.03 238.537 116.19 238.397 116.33C238.277 116.45 238.127 116.51 237.947 116.51H235.727C235.567 116.51 235.397 116.44 235.217 116.3C235.077 116.2 234.857 116.01 234.557 115.73C234.257 115.45 233.907 115.23 233.507 115.07C233.107 114.91 232.637 114.83 232.097 114.83C231.357 114.83 230.777 114.99 230.357 115.31C229.957 115.63 229.757 116.05 229.757 116.57C229.757 116.95 229.857 117.26 230.057 117.5C230.257 117.74 230.647 117.97 231.227 118.19C231.807 118.41 232.677 118.63 233.837 118.85C235.757 119.23 237.127 119.82 237.947 120.62C238.787 121.42 239.207 122.4 239.207 123.56C239.207 124.96 238.597 126.1 237.377 126.98C236.157 127.86 234.447 128.3 232.247 128.3ZM249.054 128.3C246.854 128.3 245.094 127.69 243.774 126.47C242.474 125.25 241.784 123.56 241.704 121.4L241.674 120.2L241.704 119C241.784 116.84 242.474 115.15 243.774 113.93C245.094 112.71 246.854 112.1 249.054 112.1C250.614 112.1 251.934 112.38 253.014 112.94C254.114 113.5 254.924 114.19 255.444 115.01C255.984 115.81 256.274 116.57 256.314 117.29C256.334 117.49 256.264 117.66 256.104 117.8C255.964 117.94 255.794 118.01 255.594 118.01H252.954C252.754 118.01 252.594 117.97 252.474 117.89C252.374 117.79 252.274 117.63 252.174 117.41C251.874 116.63 251.474 116.07 250.974 115.73C250.494 115.39 249.874 115.22 249.114 115.22C248.094 115.22 247.294 115.55 246.714 116.21C246.134 116.85 245.824 117.83 245.784 119.15L245.754 120.26L245.784 121.25C245.864 123.87 246.974 125.18 249.114 125.18C249.894 125.18 250.524 125.01 251.004 124.67C251.484 124.33 251.874 123.77 252.174 122.99C252.274 122.77 252.374 122.62 252.474 122.54C252.594 122.44 252.754 122.39 252.954 122.39H255.594C255.794 122.39 255.964 122.46 256.104 122.6C256.264 122.74 256.334 122.91 256.314 123.11C256.274 123.81 255.994 124.56 255.474 125.36C254.954 126.16 254.154 126.85 253.074 127.43C251.994 128.01 250.654 128.3 249.054 128.3ZM260.163 128C259.963 128 259.793 127.93 259.653 127.79C259.513 127.65 259.443 127.48 259.443 127.28V113.15C259.443 112.95 259.513 112.78 259.653 112.64C259.793 112.48 259.963 112.4 260.163 112.4H262.593C262.813 112.4 262.993 112.47 263.133 112.61C263.273 112.75 263.343 112.93 263.343 113.15V114.38C263.823 113.74 264.423 113.25 265.143 112.91C265.883 112.57 266.723 112.4 267.663 112.4H268.893C269.113 112.4 269.283 112.47 269.403 112.61C269.543 112.73 269.613 112.9 269.613 113.12V115.28C269.613 115.48 269.543 115.65 269.403 115.79C269.283 115.93 269.113 116 268.893 116H266.553C265.613 116 264.873 116.27 264.333 116.81C263.793 117.35 263.523 118.09 263.523 119.03V127.28C263.523 127.48 263.453 127.65 263.313 127.79C263.173 127.93 262.993 128 262.773 128H260.163ZM272.553 109.82C272.353 109.82 272.183 109.75 272.043 109.61C271.903 109.47 271.833 109.3 271.833 109.1V106.94C271.833 106.74 271.903 106.57 272.043 106.43C272.183 106.29 272.353 106.22 272.553 106.22H275.283C275.483 106.22 275.653 106.29 275.793 106.43C275.953 106.57 276.033 106.74 276.033 106.94V109.1C276.033 109.3 275.963 109.47 275.823 109.61C275.683 109.75 275.503 109.82 275.283 109.82H272.553ZM272.673 128C272.473 128 272.303 127.93 272.163 127.79C272.023 127.65 271.953 127.48 271.953 127.28V113.12C271.953 112.92 272.023 112.75 272.163 112.61C272.303 112.47 272.473 112.4 272.673 112.4H275.163C275.383 112.4 275.553 112.47 275.673 112.61C275.813 112.73 275.883 112.9 275.883 113.12V127.28C275.883 127.48 275.813 127.65 275.673 127.79C275.553 127.93 275.383 128 275.163 128H272.673ZM280.613 133.7C280.413 133.7 280.243 133.63 280.103 133.49C279.963 133.37 279.893 133.2 279.893 132.98V113.12C279.893 112.9 279.963 112.73 280.103 112.61C280.243 112.47 280.413 112.4 280.613 112.4H282.983C283.203 112.4 283.373 112.47 283.493 112.61C283.633 112.73 283.703 112.9 283.703 113.12V114.32C284.823 112.84 286.423 112.1 288.503 112.1C290.523 112.1 292.073 112.74 293.153 114.02C294.233 115.28 294.813 116.99 294.893 119.15C294.913 119.39 294.923 119.74 294.923 120.2C294.923 120.68 294.913 121.04 294.893 121.28C294.813 123.38 294.233 125.08 293.153 126.38C292.073 127.66 290.523 128.3 288.503 128.3C286.483 128.3 284.943 127.59 283.883 126.17V132.98C283.883 133.2 283.813 133.37 283.673 133.49C283.553 133.63 283.383 133.7 283.163 133.7H280.613ZM287.393 125.09C289.553 125.09 290.703 123.76 290.843 121.1C290.863 120.9 290.873 120.6 290.873 120.2C290.873 119.8 290.863 119.5 290.843 119.3C290.703 116.64 289.553 115.31 287.393 115.31C286.233 115.31 285.373 115.68 284.813 116.42C284.253 117.16 283.943 118.07 283.883 119.15L283.853 120.29L283.883 121.46C283.923 122.46 284.233 123.32 284.813 124.04C285.413 124.74 286.273 125.09 287.393 125.09ZM305.223 128C303.403 128 302.033 127.53 301.113 126.59C300.213 125.63 299.763 124.23 299.763 122.39V115.58H297.393C297.193 115.58 297.023 115.51 296.883 115.37C296.743 115.21 296.673 115.03 296.673 114.83V113.12C296.673 112.92 296.743 112.75 296.883 112.61C297.023 112.47 297.193 112.4 297.393 112.4H299.763V107.42C299.763 107.2 299.833 107.03 299.973 106.91C300.113 106.77 300.283 106.7 300.483 106.7H302.913C303.133 106.7 303.303 106.77 303.423 106.91C303.563 107.03 303.633 107.2 303.633 107.42V112.4H307.383C307.603 112.4 307.773 112.47 307.893 112.61C308.033 112.73 308.103 112.9 308.103 113.12V114.83C308.103 115.05 308.033 115.23 307.893 115.37C307.753 115.51 307.583 115.58 307.383 115.58H303.633V122.09C303.633 122.95 303.783 123.6 304.083 124.04C304.383 124.48 304.883 124.7 305.583 124.7H307.653C307.853 124.7 308.023 124.77 308.163 124.91C308.303 125.05 308.373 125.22 308.373 125.42V127.28C308.373 127.48 308.303 127.65 308.163 127.79C308.043 127.93 307.873 128 307.653 128H305.223ZM310.855 130.25C310.675 130.25 310.535 130.19 310.435 130.07C310.335 129.95 310.295 129.8 310.315 129.62L311.125 124.52C311.165 124.24 311.265 124.01 311.425 123.83C311.585 123.65 311.805 123.56 312.085 123.56H314.845C314.985 123.56 315.105 123.62 315.205 123.74C315.325 123.84 315.385 123.97 315.385 124.13C315.385 124.23 315.355 124.36 315.295 124.52L313.375 129.5C313.275 129.74 313.145 129.92 312.985 130.04C312.845 130.18 312.645 130.25 312.385 130.25H310.855ZM326.88 128C326.68 128 326.51 127.93 326.37 127.79C326.23 127.65 326.16 127.48 326.16 127.28V107.75C326.16 107.53 326.22 107.35 326.34 107.21C326.48 107.07 326.66 107 326.88 107H335.58C337.92 107 339.66 107.52 340.8 108.56C341.96 109.58 342.54 110.98 342.54 112.76C342.54 113.8 342.28 114.69 341.76 115.43C341.26 116.15 340.67 116.67 339.99 116.99C340.83 117.37 341.53 117.99 342.09 118.85C342.67 119.71 342.96 120.69 342.96 121.79C342.96 123.65 342.33 125.15 341.07 126.29C339.83 127.43 338.08 128 335.82 128H326.88ZM335.04 115.61C336.08 115.61 336.87 115.36 337.41 114.86C337.95 114.36 338.22 113.69 338.22 112.85C338.22 111.99 337.95 111.33 337.41 110.87C336.87 110.39 336.08 110.15 335.04 110.15H330.33V115.61H335.04ZM335.34 124.82C336.38 124.82 337.19 124.54 337.77 123.98C338.35 123.4 338.64 122.67 338.64 121.79C338.64 120.89 338.35 120.16 337.77 119.6C337.19 119.02 336.38 118.73 335.34 118.73H330.33V124.82H335.34ZM353.267 128.3C350.927 128.3 349.117 127.7 347.837 126.5C346.557 125.28 345.867 123.62 345.767 121.52L345.737 120.2L345.767 118.88C345.867 116.8 346.567 115.15 347.867 113.93C349.167 112.71 350.967 112.1 353.267 112.1C355.567 112.1 357.367 112.71 358.667 113.93C359.967 115.15 360.667 116.8 360.767 118.88C360.787 119.12 360.797 119.56 360.797 120.2C360.797 120.84 360.787 121.28 360.767 121.52C360.667 123.62 359.977 125.28 358.697 126.5C357.417 127.7 355.607 128.3 353.267 128.3ZM353.267 125.33C354.327 125.33 355.147 125 355.727 124.34C356.307 123.66 356.627 122.67 356.687 121.37C356.707 121.17 356.717 120.78 356.717 120.2C356.717 119.62 356.707 119.23 356.687 119.03C356.627 117.73 356.307 116.75 355.727 116.09C355.147 115.41 354.327 115.07 353.267 115.07C352.207 115.07 351.387 115.41 350.807 116.09C350.227 116.75 349.907 117.73 349.847 119.03L349.817 120.2L349.847 121.37C349.907 122.67 350.227 123.66 350.807 124.34C351.387 125 352.207 125.33 353.267 125.33ZM371.021 128.3C368.681 128.3 366.871 127.7 365.591 126.5C364.311 125.28 363.621 123.62 363.521 121.52L363.491 120.2L363.521 118.88C363.621 116.8 364.321 115.15 365.621 113.93C366.921 112.71 368.721 112.1 371.021 112.1C373.321 112.1 375.121 112.71 376.421 113.93C377.721 115.15 378.421 116.8 378.521 118.88C378.541 119.12 378.551 119.56 378.551 120.2C378.551 120.84 378.541 121.28 378.521 121.52C378.421 123.62 377.731 125.28 376.451 126.5C375.171 127.7 373.361 128.3 371.021 128.3ZM371.021 125.33C372.081 125.33 372.901 125 373.481 124.34C374.061 123.66 374.381 122.67 374.441 121.37C374.461 121.17 374.471 120.78 374.471 120.2C374.471 119.62 374.461 119.23 374.441 119.03C374.381 117.73 374.061 116.75 373.481 116.09C372.901 115.41 372.081 115.07 371.021 115.07C369.961 115.07 369.141 115.41 368.561 116.09C367.981 116.75 367.661 117.73 367.601 119.03L367.571 120.2L367.601 121.37C367.661 122.67 367.981 123.66 368.561 124.34C369.141 125 369.961 125.33 371.021 125.33ZM388.807 128C386.987 128 385.617 127.53 384.697 126.59C383.797 125.63 383.347 124.23 383.347 122.39V115.58H380.977C380.777 115.58 380.607 115.51 380.467 115.37C380.327 115.21 380.257 115.03 380.257 114.83V113.12C380.257 112.92 380.327 112.75 380.467 112.61C380.607 112.47 380.777 112.4 380.977 112.4H383.347V107.42C383.347 107.2 383.417 107.03 383.557 106.91C383.697 106.77 383.867 106.7 384.067 106.7H386.497C386.717 106.7 386.887 106.77 387.007 106.91C387.147 107.03 387.217 107.2 387.217 107.42V112.4H390.967C391.187 112.4 391.357 112.47 391.477 112.61C391.617 112.73 391.687 112.9 391.687 113.12V114.83C391.687 115.05 391.617 115.23 391.477 115.37C391.337 115.51 391.167 115.58 390.967 115.58H387.217V122.09C387.217 122.95 387.367 123.6 387.667 124.04C387.967 124.48 388.467 124.7 389.167 124.7H391.237C391.437 124.7 391.607 124.77 391.747 124.91C391.887 125.05 391.957 125.22 391.957 125.42V127.28C391.957 127.48 391.887 127.65 391.747 127.79C391.627 127.93 391.457 128 391.237 128H388.807ZM400.529 128.3C399.029 128.3 397.769 128.08 396.749 127.64C395.729 127.18 394.969 126.65 394.469 126.05C393.989 125.43 393.749 124.9 393.749 124.46C393.749 124.26 393.819 124.1 393.959 123.98C394.099 123.86 394.259 123.8 394.439 123.8H396.809C396.989 123.8 397.139 123.87 397.259 124.01C397.339 124.07 397.549 124.25 397.889 124.55C398.229 124.87 398.629 125.12 399.089 125.3C399.549 125.48 400.059 125.57 400.619 125.57C401.419 125.57 402.079 125.41 402.599 125.09C403.119 124.77 403.379 124.33 403.379 123.77C403.379 123.35 403.259 123.01 403.019 122.75C402.799 122.49 402.389 122.26 401.789 122.06C401.189 121.84 400.299 121.61 399.119 121.37C397.419 121.01 396.159 120.46 395.339 119.72C394.539 118.98 394.139 118 394.139 116.78C394.139 115.98 394.379 115.23 394.859 114.53C395.339 113.81 396.049 113.23 396.989 112.79C397.949 112.33 399.089 112.1 400.409 112.1C401.749 112.1 402.909 112.32 403.889 112.76C404.869 113.18 405.609 113.69 406.109 114.29C406.629 114.87 406.889 115.39 406.889 115.85C406.889 116.03 406.819 116.19 406.679 116.33C406.559 116.45 406.409 116.51 406.229 116.51H404.009C403.849 116.51 403.679 116.44 403.499 116.3C403.359 116.2 403.139 116.01 402.839 115.73C402.539 115.45 402.189 115.23 401.789 115.07C401.389 114.91 400.919 114.83 400.379 114.83C399.639 114.83 399.059 114.99 398.639 115.31C398.239 115.63 398.039 116.05 398.039 116.57C398.039 116.95 398.139 117.26 398.339 117.5C398.539 117.74 398.929 117.97 399.509 118.19C400.089 118.41 400.959 118.63 402.119 118.85C404.039 119.23 405.409 119.82 406.229 120.62C407.069 121.42 407.489 122.4 407.489 123.56C407.489 124.96 406.879 126.1 405.659 126.98C404.439 127.86 402.729 128.3 400.529 128.3ZM417.577 128C415.757 128 414.387 127.53 413.467 126.59C412.567 125.63 412.117 124.23 412.117 122.39V115.58H409.747C409.547 115.58 409.377 115.51 409.237 115.37C409.097 115.21 409.027 115.03 409.027 114.83V113.12C409.027 112.92 409.097 112.75 409.237 112.61C409.377 112.47 409.547 112.4 409.747 112.4H412.117V107.42C412.117 107.2 412.187 107.03 412.327 106.91C412.467 106.77 412.637 106.7 412.837 106.7H415.267C415.487 106.7 415.657 106.77 415.777 106.91C415.917 107.03 415.987 107.2 415.987 107.42V112.4H419.737C419.957 112.4 420.127 112.47 420.247 112.61C420.387 112.73 420.457 112.9 420.457 113.12V114.83C420.457 115.05 420.387 115.23 420.247 115.37C420.107 115.51 419.937 115.58 419.737 115.58H415.987V122.09C415.987 122.95 416.137 123.6 416.437 124.04C416.737 124.48 417.237 124.7 417.937 124.7H420.007C420.207 124.7 420.377 124.77 420.517 124.91C420.657 125.05 420.727 125.22 420.727 125.42V127.28C420.727 127.48 420.657 127.65 420.517 127.79C420.397 127.93 420.227 128 420.007 128H417.577ZM424.108 128C423.908 128 423.738 127.93 423.598 127.79C423.458 127.65 423.388 127.48 423.388 127.28V113.15C423.388 112.95 423.458 112.78 423.598 112.64C423.738 112.48 423.908 112.4 424.108 112.4H426.538C426.758 112.4 426.938 112.47 427.078 112.61C427.218 112.75 427.288 112.93 427.288 113.15V114.38C427.768 113.74 428.368 113.25 429.088 112.91C429.828 112.57 430.668 112.4 431.608 112.4H432.838C433.058 112.4 433.228 112.47 433.348 112.61C433.488 112.73 433.558 112.9 433.558 113.12V115.28C433.558 115.48 433.488 115.65 433.348 115.79C433.228 115.93 433.058 116 432.838 116H430.498C429.558 116 428.818 116.27 428.278 116.81C427.738 117.35 427.468 118.09 427.468 119.03V127.28C427.468 127.48 427.398 127.65 427.258 127.79C427.118 127.93 426.938 128 426.718 128H424.108ZM440.194 128.3C439.174 128.3 438.234 128.1 437.374 127.7C436.534 127.28 435.864 126.72 435.364 126.02C434.884 125.32 434.644 124.55 434.644 123.71C434.644 122.35 435.194 121.25 436.294 120.41C437.394 119.57 438.904 119 440.824 118.7L444.934 118.1V117.47C444.934 116.59 444.714 115.93 444.274 115.49C443.834 115.05 443.124 114.83 442.144 114.83C441.484 114.83 440.944 114.96 440.524 115.22C440.124 115.46 439.804 115.7 439.564 115.94C439.324 116.2 439.164 116.37 439.084 116.45C439.004 116.69 438.854 116.81 438.634 116.81H436.324C436.144 116.81 435.984 116.75 435.844 116.63C435.724 116.51 435.664 116.35 435.664 116.15C435.684 115.65 435.924 115.08 436.384 114.44C436.864 113.8 437.594 113.25 438.574 112.79C439.554 112.33 440.754 112.1 442.174 112.1C444.534 112.1 446.254 112.63 447.334 113.69C448.414 114.75 448.954 116.14 448.954 117.86V127.28C448.954 127.48 448.884 127.65 448.744 127.79C448.624 127.93 448.454 128 448.234 128H445.804C445.604 128 445.434 127.93 445.294 127.79C445.154 127.65 445.084 127.48 445.084 127.28V126.11C444.644 126.75 444.014 127.28 443.194 127.7C442.394 128.1 441.394 128.3 440.194 128.3ZM441.214 125.45C442.314 125.45 443.214 125.09 443.914 124.37C444.614 123.65 444.964 122.6 444.964 121.22V120.59L441.964 121.07C440.804 121.25 439.924 121.54 439.324 121.94C438.744 122.34 438.454 122.83 438.454 123.41C438.454 124.05 438.724 124.55 439.264 124.91C439.804 125.27 440.454 125.45 441.214 125.45ZM453.552 133.7C453.352 133.7 453.182 133.63 453.042 133.49C452.902 133.37 452.832 133.2 452.832 132.98V113.12C452.832 112.9 452.902 112.73 453.042 112.61C453.182 112.47 453.352 112.4 453.552 112.4H455.922C456.142 112.4 456.312 112.47 456.432 112.61C456.572 112.73 456.642 112.9 456.642 113.12V114.32C457.762 112.84 459.362 112.1 461.442 112.1C463.462 112.1 465.012 112.74 466.092 114.02C467.172 115.28 467.752 116.99 467.832 119.15C467.852 119.39 467.862 119.74 467.862 120.2C467.862 120.68 467.852 121.04 467.832 121.28C467.752 123.38 467.172 125.08 466.092 126.38C465.012 127.66 463.462 128.3 461.442 128.3C459.422 128.3 457.882 127.59 456.822 126.17V132.98C456.822 133.2 456.752 133.37 456.612 133.49C456.492 133.63 456.322 133.7 456.102 133.7H453.552ZM460.332 125.09C462.492 125.09 463.642 123.76 463.782 121.1C463.802 120.9 463.812 120.6 463.812 120.2C463.812 119.8 463.802 119.5 463.782 119.3C463.642 116.64 462.492 115.31 460.332 115.31C459.172 115.31 458.312 115.68 457.752 116.42C457.192 117.16 456.882 118.07 456.822 119.15L456.792 120.29L456.822 121.46C456.862 122.46 457.172 123.32 457.752 124.04C458.352 124.74 459.212 125.09 460.332 125.09ZM470.845 130.25C470.665 130.25 470.525 130.19 470.425 130.07C470.325 129.95 470.285 129.8 470.305 129.62L471.115 124.52C471.155 124.24 471.255 124.01 471.415 123.83C471.575 123.65 471.795 123.56 472.075 123.56H474.835C474.975 123.56 475.095 123.62 475.195 123.74C475.315 123.84 475.375 123.97 475.375 124.13C475.375 124.23 475.345 124.36 475.285 124.52L473.365 129.5C473.265 129.74 473.135 129.92 472.975 130.04C472.835 130.18 472.635 130.25 472.375 130.25H470.845ZM494.251 128.3C491.491 128.3 489.351 127.59 487.831 126.17C486.331 124.75 485.531 122.75 485.431 120.17C485.411 119.63 485.401 118.75 485.401 117.53C485.401 116.29 485.411 115.39 485.431 114.83C485.531 112.27 486.341 110.28 487.861 108.86C489.401 107.42 491.531 106.7 494.251 106.7C496.031 106.7 497.581 107.01 498.901 107.63C500.221 108.23 501.241 109.06 501.961 110.12C502.681 111.16 503.061 112.34 503.101 113.66V113.72C503.101 113.88 503.031 114.02 502.891 114.14C502.771 114.24 502.631 114.29 502.471 114.29H499.621C499.381 114.29 499.201 114.24 499.081 114.14C498.961 114.04 498.861 113.85 498.781 113.57C498.461 112.31 497.931 111.43 497.191 110.93C496.451 110.41 495.461 110.15 494.221 110.15C491.341 110.15 489.841 111.76 489.721 114.98C489.701 115.52 489.691 116.35 489.691 117.47C489.691 118.59 489.701 119.44 489.721 120.02C489.841 123.24 491.341 124.85 494.221 124.85C495.461 124.85 496.451 124.59 497.191 124.07C497.951 123.55 498.481 122.67 498.781 121.43C498.841 121.15 498.931 120.96 499.051 120.86C499.191 120.76 499.381 120.71 499.621 120.71H502.471C502.651 120.71 502.801 120.77 502.921 120.89C503.061 121.01 503.121 121.16 503.101 121.34C503.061 122.66 502.681 123.85 501.961 124.91C501.241 125.95 500.221 126.78 498.901 127.4C497.581 128 496.031 128.3 494.251 128.3ZM513.948 128.3C512.168 128.3 510.638 128.03 509.358 127.49C508.078 126.95 507.108 126.24 506.448 125.36C505.788 124.48 505.438 123.53 505.398 122.51C505.398 122.33 505.458 122.18 505.578 122.06C505.698 121.94 505.848 121.88 506.028 121.88H508.698C508.938 121.88 509.118 121.93 509.238 122.03C509.378 122.11 509.508 122.25 509.628 122.45C509.828 123.13 510.288 123.7 511.008 124.16C511.728 124.62 512.708 124.85 513.948 124.85C515.368 124.85 516.438 124.62 517.158 124.16C517.878 123.68 518.238 123.02 518.238 122.18C518.238 121.62 518.048 121.16 517.668 120.8C517.308 120.44 516.758 120.13 516.018 119.87C515.298 119.61 514.218 119.29 512.778 118.91C510.418 118.35 508.688 117.61 507.588 116.69C506.508 115.75 505.968 114.42 505.968 112.7C505.968 111.54 506.278 110.51 506.898 109.61C507.538 108.71 508.448 108 509.628 107.48C510.828 106.96 512.218 106.7 513.798 106.7C515.438 106.7 516.858 106.99 518.058 107.57C519.258 108.15 520.168 108.88 520.788 109.76C521.428 110.62 521.768 111.48 521.808 112.34C521.808 112.52 521.748 112.67 521.628 112.79C521.508 112.91 521.358 112.97 521.178 112.97H518.388C517.968 112.97 517.678 112.78 517.518 112.4C517.398 111.76 516.998 111.23 516.318 110.81C515.638 110.37 514.798 110.15 513.798 110.15C512.678 110.15 511.798 110.36 511.158 110.78C510.518 111.2 510.198 111.81 510.198 112.61C510.198 113.17 510.358 113.63 510.678 113.99C510.998 114.35 511.498 114.67 512.178 114.95C512.878 115.23 513.878 115.54 515.178 115.88C516.938 116.28 518.338 116.73 519.378 117.23C520.438 117.73 521.218 118.36 521.718 119.12C522.218 119.88 522.468 120.85 522.468 122.03C522.468 123.31 522.108 124.43 521.388 125.39C520.688 126.33 519.688 127.05 518.388 127.55C517.108 128.05 515.628 128.3 513.948 128.3ZM533.196 128.3C531.416 128.3 529.886 128.03 528.606 127.49C527.326 126.95 526.356 126.24 525.696 125.36C525.036 124.48 524.686 123.53 524.646 122.51C524.646 122.33 524.706 122.18 524.826 122.06C524.946 121.94 525.096 121.88 525.276 121.88H527.946C528.186 121.88 528.366 121.93 528.486 122.03C528.626 122.11 528.756 122.25 528.876 122.45C529.076 123.13 529.536 123.7 530.256 124.16C530.976 124.62 531.956 124.85 533.196 124.85C534.616 124.85 535.686 124.62 536.406 124.16C537.126 123.68 537.486 123.02 537.486 122.18C537.486 121.62 537.296 121.16 536.916 120.8C536.556 120.44 536.006 120.13 535.266 119.87C534.546 119.61 533.466 119.29 532.026 118.91C529.666 118.35 527.936 117.61 526.836 116.69C525.756 115.75 525.216 114.42 525.216 112.7C525.216 111.54 525.526 110.51 526.146 109.61C526.786 108.71 527.696 108 528.876 107.48C530.076 106.96 531.466 106.7 533.046 106.7C534.686 106.7 536.106 106.99 537.306 107.57C538.506 108.15 539.416 108.88 540.036 109.76C540.676 110.62 541.016 111.48 541.056 112.34C541.056 112.52 540.996 112.67 540.876 112.79C540.756 112.91 540.606 112.97 540.426 112.97H537.636C537.216 112.97 536.926 112.78 536.766 112.4C536.646 111.76 536.246 111.23 535.566 110.81C534.886 110.37 534.046 110.15 533.046 110.15C531.926 110.15 531.046 110.36 530.406 110.78C529.766 111.2 529.446 111.81 529.446 112.61C529.446 113.17 529.606 113.63 529.926 113.99C530.246 114.35 530.746 114.67 531.426 114.95C532.126 115.23 533.126 115.54 534.426 115.88C536.186 116.28 537.586 116.73 538.626 117.23C539.686 117.73 540.466 118.36 540.966 119.12C541.466 119.88 541.716 120.85 541.716 122.03C541.716 123.31 541.356 124.43 540.636 125.39C539.936 126.33 538.936 127.05 537.636 127.55C536.356 128.05 534.876 128.3 533.196 128.3ZM544.614 130.25C544.434 130.25 544.294 130.19 544.194 130.07C544.094 129.95 544.054 129.8 544.074 129.62L544.884 124.52C544.924 124.24 545.024 124.01 545.184 123.83C545.344 123.65 545.564 123.56 545.844 123.56H548.604C548.744 123.56 548.864 123.62 548.964 123.74C549.084 123.84 549.144 123.97 549.144 124.13C549.144 124.23 549.114 124.36 549.054 124.52L547.134 129.5C547.034 129.74 546.904 129.92 546.744 130.04C546.604 130.18 546.404 130.25 546.144 130.25H544.614ZM553.638 128C553.438 128 553.268 127.93 553.128 127.79C552.988 127.65 552.918 127.48 552.918 127.28V107.75C552.918 107.53 552.978 107.35 553.098 107.21C553.238 107.07 553.418 107 553.638 107H566.658C566.878 107 567.058 107.07 567.198 107.21C567.338 107.35 567.408 107.53 567.408 107.75V109.85C567.408 110.07 567.338 110.25 567.198 110.39C567.058 110.51 566.878 110.57 566.658 110.57H557.028V116.27H566.058C566.278 116.27 566.458 116.34 566.598 116.48C566.738 116.62 566.808 116.8 566.808 117.02V119.12C566.808 119.34 566.738 119.52 566.598 119.66C566.458 119.78 566.278 119.84 566.058 119.84H557.028V127.28C557.028 127.5 556.958 127.68 556.818 127.82C556.678 127.94 556.498 128 556.278 128H553.638ZM571.176 109.82C570.976 109.82 570.806 109.75 570.666 109.61C570.526 109.47 570.456 109.3 570.456 109.1V106.94C570.456 106.74 570.526 106.57 570.666 106.43C570.806 106.29 570.976 106.22 571.176 106.22H573.906C574.106 106.22 574.276 106.29 574.416 106.43C574.576 106.57 574.656 106.74 574.656 106.94V109.1C574.656 109.3 574.586 109.47 574.446 109.61C574.306 109.75 574.126 109.82 573.906 109.82H571.176ZM571.296 128C571.096 128 570.926 127.93 570.786 127.79C570.646 127.65 570.576 127.48 570.576 127.28V113.12C570.576 112.92 570.646 112.75 570.786 112.61C570.926 112.47 571.096 112.4 571.296 112.4H573.786C574.006 112.4 574.176 112.47 574.296 112.61C574.436 112.73 574.506 112.9 574.506 113.12V127.28C574.506 127.48 574.436 127.65 574.296 127.79C574.176 127.93 574.006 128 573.786 128H571.296ZM579.206 128C579.006 128 578.836 127.93 578.696 127.79C578.556 127.65 578.486 127.48 578.486 127.28V113.15C578.486 112.95 578.556 112.78 578.696 112.64C578.836 112.48 579.006 112.4 579.206 112.4H581.636C581.856 112.4 582.036 112.47 582.176 112.61C582.316 112.75 582.386 112.93 582.386 113.15V114.38C582.866 113.74 583.466 113.25 584.186 112.91C584.926 112.57 585.766 112.4 586.706 112.4H587.936C588.156 112.4 588.326 112.47 588.446 112.61C588.586 112.73 588.656 112.9 588.656 113.12V115.28C588.656 115.48 588.586 115.65 588.446 115.79C588.326 115.93 588.156 116 587.936 116H585.596C584.656 116 583.916 116.27 583.376 116.81C582.836 117.35 582.566 118.09 582.566 119.03V127.28C582.566 127.48 582.496 127.65 582.356 127.79C582.216 127.93 582.036 128 581.816 128H579.206ZM597.511 128.3C595.291 128.3 593.521 127.66 592.201 126.38C590.901 125.08 590.211 123.26 590.131 120.92L590.101 120.17L590.131 119.42C590.231 117.14 590.931 115.35 592.231 114.05C593.551 112.75 595.311 112.1 597.511 112.1C599.871 112.1 601.691 112.82 602.971 114.26C604.271 115.7 604.921 117.62 604.921 120.02V120.65C604.921 120.85 604.851 121.02 604.711 121.16C604.571 121.3 604.391 121.37 604.171 121.37H594.211V121.61C594.251 122.71 594.551 123.64 595.111 124.4C595.691 125.14 596.481 125.51 597.481 125.51C598.661 125.51 599.611 125.05 600.331 124.13C600.511 123.91 600.651 123.77 600.751 123.71C600.871 123.65 601.041 123.62 601.261 123.62H603.841C604.021 123.62 604.171 123.68 604.291 123.8C604.431 123.9 604.501 124.03 604.501 124.19C604.501 124.67 604.211 125.24 603.631 125.9C603.071 126.54 602.261 127.1 601.201 127.58C600.141 128.06 598.911 128.3 597.511 128.3ZM600.841 118.85V118.76C600.841 117.58 600.541 116.63 599.941 115.91C599.361 115.19 598.551 114.83 597.511 114.83C596.471 114.83 595.661 115.19 595.081 115.91C594.501 116.63 594.211 117.58 594.211 118.76V118.85H600.841ZM616.745 128.3C614.685 128.3 613.085 127.59 611.945 126.17V127.28C611.945 127.48 611.875 127.65 611.735 127.79C611.615 127.93 611.445 128 611.225 128H608.855C608.655 128 608.485 127.93 608.345 127.79C608.205 127.65 608.135 127.48 608.135 127.28V107.42C608.135 107.2 608.205 107.03 608.345 106.91C608.485 106.77 608.655 106.7 608.855 106.7H611.405C611.625 106.7 611.795 106.77 611.915 106.91C612.055 107.03 612.125 107.2 612.125 107.42V114.08C613.265 112.76 614.805 112.1 616.745 112.1C618.765 112.1 620.315 112.76 621.395 114.08C622.475 115.4 623.055 117.11 623.135 119.21C623.155 119.45 623.165 119.77 623.165 120.17C623.165 120.59 623.155 120.92 623.135 121.16C623.055 123.32 622.475 125.05 621.395 126.35C620.315 127.65 618.765 128.3 616.745 128.3ZM615.635 125.09C617.795 125.09 618.945 123.76 619.085 121.1C619.105 120.9 619.115 120.6 619.115 120.2C619.115 119.8 619.105 119.5 619.085 119.3C618.945 116.64 617.795 115.31 615.635 115.31C614.515 115.31 613.655 115.67 613.055 116.39C612.475 117.09 612.165 117.94 612.125 118.94L612.095 120.08L612.125 121.25C612.185 122.33 612.495 123.24 613.055 123.98C613.615 124.72 614.475 125.09 615.635 125.09ZM631.033 128.3C630.013 128.3 629.073 128.1 628.213 127.7C627.373 127.28 626.703 126.72 626.203 126.02C625.723 125.32 625.483 124.55 625.483 123.71C625.483 122.35 626.033 121.25 627.133 120.41C628.233 119.57 629.743 119 631.663 118.7L635.773 118.1V117.47C635.773 116.59 635.553 115.93 635.113 115.49C634.673 115.05 633.963 114.83 632.983 114.83C632.323 114.83 631.783 114.96 631.363 115.22C630.963 115.46 630.643 115.7 630.403 115.94C630.163 116.2 630.003 116.37 629.923 116.45C629.843 116.69 629.693 116.81 629.473 116.81H627.163C626.983 116.81 626.823 116.75 626.683 116.63C626.563 116.51 626.503 116.35 626.503 116.15C626.523 115.65 626.763 115.08 627.223 114.44C627.703 113.8 628.433 113.25 629.413 112.79C630.393 112.33 631.593 112.1 633.013 112.1C635.373 112.1 637.093 112.63 638.173 113.69C639.253 114.75 639.793 116.14 639.793 117.86V127.28C639.793 127.48 639.723 127.65 639.583 127.79C639.463 127.93 639.293 128 639.073 128H636.643C636.443 128 636.273 127.93 636.133 127.79C635.993 127.65 635.923 127.48 635.923 127.28V126.11C635.483 126.75 634.853 127.28 634.033 127.7C633.233 128.1 632.233 128.3 631.033 128.3ZM632.053 125.45C633.153 125.45 634.053 125.09 634.753 124.37C635.453 123.65 635.803 122.6 635.803 121.22V120.59L632.803 121.07C631.643 121.25 630.763 121.54 630.163 121.94C629.583 122.34 629.293 122.83 629.293 123.41C629.293 124.05 629.563 124.55 630.103 124.91C630.643 125.27 631.293 125.45 632.053 125.45ZM649.552 128.3C648.052 128.3 646.792 128.08 645.772 127.64C644.752 127.18 643.992 126.65 643.492 126.05C643.012 125.43 642.772 124.9 642.772 124.46C642.772 124.26 642.842 124.1 642.982 123.98C643.122 123.86 643.282 123.8 643.462 123.8H645.832C646.012 123.8 646.162 123.87 646.282 124.01C646.362 124.07 646.572 124.25 646.912 124.55C647.252 124.87 647.652 125.12 648.112 125.3C648.572 125.48 649.082 125.57 649.642 125.57C650.442 125.57 651.102 125.41 651.622 125.09C652.142 124.77 652.402 124.33 652.402 123.77C652.402 123.35 652.282 123.01 652.042 122.75C651.822 122.49 651.412 122.26 650.812 122.06C650.212 121.84 649.322 121.61 648.142 121.37C646.442 121.01 645.182 120.46 644.362 119.72C643.562 118.98 643.162 118 643.162 116.78C643.162 115.98 643.402 115.23 643.882 114.53C644.362 113.81 645.072 113.23 646.012 112.79C646.972 112.33 648.112 112.1 649.432 112.1C650.772 112.1 651.932 112.32 652.912 112.76C653.892 113.18 654.632 113.69 655.132 114.29C655.652 114.87 655.912 115.39 655.912 115.85C655.912 116.03 655.842 116.19 655.702 116.33C655.582 116.45 655.432 116.51 655.252 116.51H653.032C652.872 116.51 652.702 116.44 652.522 116.3C652.382 116.2 652.162 116.01 651.862 115.73C651.562 115.45 651.212 115.23 650.812 115.07C650.412 114.91 649.942 114.83 649.402 114.83C648.662 114.83 648.082 114.99 647.662 115.31C647.262 115.63 647.062 116.05 647.062 116.57C647.062 116.95 647.162 117.26 647.362 117.5C647.562 117.74 647.952 117.97 648.532 118.19C649.112 118.41 649.982 118.63 651.142 118.85C653.062 119.23 654.432 119.82 655.252 120.62C656.092 121.42 656.512 122.4 656.512 123.56C656.512 124.96 655.902 126.1 654.682 126.98C653.462 127.86 651.752 128.3 649.552 128.3ZM666.329 128.3C664.109 128.3 662.339 127.66 661.019 126.38C659.719 125.08 659.029 123.26 658.949 120.92L658.919 120.17L658.949 119.42C659.049 117.14 659.749 115.35 661.049 114.05C662.369 112.75 664.129 112.1 666.329 112.1C668.689 112.1 670.509 112.82 671.789 114.26C673.089 115.7 673.739 117.62 673.739 120.02V120.65C673.739 120.85 673.669 121.02 673.529 121.16C673.389 121.3 673.209 121.37 672.989 121.37H663.029V121.61C663.069 122.71 663.369 123.64 663.929 124.4C664.509 125.14 665.299 125.51 666.299 125.51C667.479 125.51 668.429 125.05 669.149 124.13C669.329 123.91 669.469 123.77 669.569 123.71C669.689 123.65 669.859 123.62 670.079 123.62H672.659C672.839 123.62 672.989 123.68 673.109 123.8C673.249 123.9 673.319 124.03 673.319 124.19C673.319 124.67 673.029 125.24 672.449 125.9C671.889 126.54 671.079 127.1 670.019 127.58C668.959 128.06 667.729 128.3 666.329 128.3ZM669.659 118.85V118.76C669.659 117.58 669.359 116.63 668.759 115.91C668.179 115.19 667.369 114.83 666.329 114.83C665.289 114.83 664.479 115.19 663.899 115.91C663.319 116.63 663.029 117.58 663.029 118.76V118.85H669.659Z" fill="#605454"/>
<path id="Tecnolog&#195;&#173;as utilizadas" d="M16.3678 60.112C15.9411 60.1089 15.5582 59.9569 15.219 59.6558C14.9227 59.3123 14.7761 58.9273 14.7792 58.5006L15.0152 25.3494L3.62353 25.2683C3.19687 25.2653 2.81394 25.1132 2.47475 24.8121C2.17852 24.4687 2.03192 24.0836 2.03496 23.657L2.08372 16.8091C2.08706 16.3398 2.23912 15.9569 2.53991 15.6604C2.88336 15.3641 3.26842 15.2175 3.69507 15.2206L38.1262 15.4657C38.5955 15.4691 38.9785 15.6211 39.275 15.9219C39.5715 16.2227 39.7181 16.6078 39.7148 17.0771L39.666 23.9249C39.6627 24.3942 39.5106 24.7772 39.2098 25.0737C38.909 25.3702 38.524 25.5168 38.0547 25.5135L26.6629 25.4324L26.4269 58.5835C26.4239 59.0102 26.2718 59.3931 25.9707 59.7323C25.6699 60.0289 25.2849 60.1754 24.8155 60.1721L16.3678 60.112ZM54.2497 61.0217C49.1299 60.9853 45.1078 59.5699 42.1837 56.7757C39.2595 53.9815 37.7522 49.9386 37.6619 44.6472L37.6779 42.4072C37.8844 37.3739 39.4696 33.4598 42.4336 30.6648C45.4405 27.8275 49.4399 26.4266 54.4318 26.4621C58.0584 26.4879 61.1037 27.2563 63.5676 28.7672C66.0746 30.2358 67.9376 32.2544 69.1567 34.8232C70.4184 37.3922 71.0374 40.3407 71.0137 43.6686L71.0028 45.2046C70.9997 45.6312 70.8477 46.0142 70.5466 46.3534C70.2458 46.6499 69.8608 46.7965 69.3914 46.7932L48.912 46.6473L48.9088 47.0953C48.9798 49.1012 49.4589 50.726 50.3461 51.9697C51.2333 53.2134 52.5302 53.8413 54.2368 53.8534C55.3034 53.861 56.1796 53.6539 56.8653 53.2321C57.5513 52.7677 58.1739 52.2174 58.7331 51.5814C59.1204 51.1148 59.421 50.8396 59.635 50.7558C59.8919 50.6296 60.2763 50.5684 60.7883 50.572L68.7241 50.6285C69.1081 50.6312 69.4272 50.7615 69.6814 51.0193C69.9785 51.2348 70.1257 51.5345 70.123 51.9185C70.1151 53.0278 69.466 54.3032 68.1757 55.7447C66.928 57.1866 65.1058 58.4323 62.7089 59.4819C60.3121 60.5315 57.4923 61.0448 54.2497 61.0217ZM59.7728 40.3885L59.7737 40.2605C59.7886 38.1699 59.3096 36.5238 58.3368 35.3222C57.407 34.0782 56.0888 33.4501 54.3821 33.4379C52.7182 33.4261 51.3912 34.0353 50.401 35.2656C49.4539 36.4536 48.9729 38.0929 48.958 40.1835L48.9571 40.3115L59.7728 40.3885ZM92.1848 61.2918C87.3636 61.2575 83.4688 59.9497 80.5004 57.3685C77.5324 54.7447 75.9581 51.128 75.7776 46.5186L75.7318 43.9582L75.8145 41.3348C76.0179 36.7281 77.6222 33.1341 80.6274 30.5528C83.6751 27.9717 87.6096 26.6984 92.4309 26.7327C96.0574 26.7585 99.1033 27.4416 101.569 28.7818C104.077 30.0797 105.922 31.6502 107.103 33.4933C108.328 35.2941 108.977 36.9414 109.052 38.4353C109.092 38.8623 108.94 39.2452 108.596 39.5841C108.295 39.8807 107.91 40.0273 107.441 40.0239L99.3128 39.966C98.8435 39.9627 98.4816 39.8534 98.2271 39.6383C97.9726 39.4231 97.7403 39.1015 97.53 38.6733C97.0274 37.347 96.3728 36.4037 95.5661 35.8433C94.802 35.2831 93.8014 34.9987 92.5641 34.9899C89.0655 34.9649 87.2361 37.2133 87.0759 41.735L86.9946 44.1664L87.0435 46.2788C87.1125 48.5834 87.591 50.2935 88.4791 51.4092C89.4101 52.4825 90.7289 53.0252 92.4356 53.0374C93.7582 53.0468 94.8055 52.7769 95.5774 52.2278C96.3493 51.6786 96.9747 50.7443 97.4534 49.425C97.6698 48.9999 97.9067 48.6816 98.1642 48.4701C98.4217 48.2586 98.7852 48.1545 99.2545 48.1578L107.382 48.2157C107.809 48.2187 108.171 48.3707 108.467 48.6714C108.807 48.9299 108.975 49.2724 108.972 49.6991C108.962 51.0644 108.353 52.6601 107.146 54.4862C105.981 56.3126 104.134 57.9208 101.607 59.3109C99.0801 60.6582 95.9394 61.3186 92.1848 61.2918ZM116.243 60.8231C115.773 60.8198 115.39 60.6677 115.094 60.3669C114.797 60.0661 114.651 59.6811 114.654 59.2118L114.868 29.1325C114.872 28.6632 115.024 28.2803 115.325 27.9837C115.625 27.6872 116.01 27.5406 116.48 27.544L123.84 27.5964C124.309 27.5997 124.692 27.7518 124.988 28.0526C125.327 28.3536 125.495 28.7388 125.492 29.2082L125.475 31.6401C126.637 30.2403 128.117 29.1202 129.915 28.2796C131.755 27.4394 133.828 27.0275 136.132 27.0439C139.886 27.0706 142.928 28.3723 145.256 30.9489C147.585 33.4829 148.733 37.0325 148.7 41.5977L148.573 59.4533C148.57 59.8799 148.418 60.2629 148.117 60.6021C147.816 60.8986 147.431 61.0452 146.962 61.0419L138.898 60.9844C138.472 60.9814 138.089 60.8293 137.749 60.5282C137.453 60.1848 137.307 59.7997 137.31 59.3731L137.434 41.9015C137.448 39.8962 136.969 38.3568 135.995 37.2832C135.021 36.1669 133.617 35.6022 131.783 35.5891C129.991 35.5764 128.579 36.121 127.547 37.223C126.515 38.2824 125.993 39.8147 125.978 41.82L125.854 59.2915C125.851 59.7182 125.699 60.1011 125.398 60.4403C125.097 60.7368 124.712 60.8834 124.243 60.8801L116.243 60.8231ZM171.506 61.8566C166.215 61.819 162.15 60.5313 159.309 57.9937C156.468 55.4561 154.936 51.9037 154.713 47.3367C154.674 46.7817 154.66 45.8216 154.669 44.4563C154.679 43.091 154.707 42.1312 154.754 41.5768C155.042 37.0561 156.667 33.5476 159.629 31.0513C162.591 28.5123 166.632 27.261 171.752 27.2975C176.914 27.3343 180.959 28.6431 183.884 31.224C186.81 33.7622 188.385 37.2935 188.609 41.8179C188.648 42.3729 188.662 43.333 188.652 44.6983C188.643 46.0636 188.614 47.0234 188.568 47.5778C188.279 52.1412 186.697 55.6713 183.82 58.1682C180.944 60.6651 176.839 61.8946 171.506 61.8566ZM171.561 54.0488C173.439 54.0622 174.829 53.5174 175.733 52.4145C176.637 51.2689 177.162 49.5233 177.306 47.1776C177.352 46.7512 177.38 45.898 177.389 44.6181C177.398 43.3381 177.383 42.4847 177.343 42.0577C177.231 39.7528 176.71 38.0211 175.78 36.8624C174.892 35.7041 173.531 35.1184 171.696 35.1053C168.155 35.0801 166.261 37.3707 166.015 41.977L165.933 44.5365L165.979 47.0969C166.047 49.4441 166.526 51.1969 167.413 52.3553C168.344 53.4712 169.727 54.0358 171.561 54.0488ZM196.491 61.3945C196.064 61.3915 195.681 61.2394 195.342 60.9383C195.046 60.5949 194.899 60.2098 194.902 59.7832L195.203 17.5442C195.206 17.0749 195.358 16.692 195.659 16.3955C196.003 16.0992 196.388 15.9526 196.814 15.9557L204.366 16.0094C204.835 16.0128 205.218 16.1648 205.515 16.4656C205.811 16.7664 205.958 17.1515 205.955 17.6208L205.654 59.8597C205.651 60.329 205.498 60.712 205.198 61.0085C204.897 61.305 204.512 61.4516 204.043 61.4483L196.491 61.3945ZM228.942 62.2656C223.651 62.2279 219.586 60.9403 216.745 58.4027C213.904 55.865 212.372 52.3127 212.149 47.7457C212.11 47.1907 212.096 46.2306 212.105 44.8653C212.115 43.5 212.143 42.5402 212.19 41.9858C212.478 37.4651 214.103 33.9566 217.065 31.4603C220.027 28.9213 224.068 27.67 229.188 27.7065C234.35 27.7432 238.395 29.0521 241.32 31.633C244.246 34.1712 245.821 37.7025 246.045 42.2269C246.084 42.7818 246.098 43.742 246.088 45.1073C246.079 46.4726 246.051 47.4324 246.004 47.9867C245.715 52.5501 244.133 56.0803 241.256 58.5772C238.38 61.0741 234.275 62.3036 228.942 62.2656ZM228.997 54.4578C230.875 54.4712 232.265 53.9264 233.169 52.8235C234.073 51.6779 234.598 49.9322 234.742 47.5865C234.788 47.1602 234.816 46.307 234.825 45.0271C234.834 43.7471 234.819 42.8936 234.779 42.4667C234.667 40.1618 234.146 38.4301 233.216 37.2714C232.328 36.1131 230.967 35.5273 229.132 35.5143C225.591 35.4891 223.697 37.7796 223.451 42.386L223.369 44.9455L223.415 47.5059C223.483 49.8531 223.962 51.6059 224.849 52.7642C225.78 53.8802 227.163 54.4447 228.997 54.4578ZM268.546 75.988C264.493 75.9591 261.212 75.2744 258.704 73.9338C256.197 72.5933 254.394 71.0657 253.297 69.3512C252.243 67.637 251.719 66.2039 251.728 65.0519C251.73 64.6679 251.903 64.3278 252.247 64.0316C252.59 63.7354 252.975 63.5888 253.402 63.5918L261.53 63.6497C261.956 63.6527 262.276 63.7403 262.488 63.9125C262.742 64.1277 262.975 64.4707 263.185 64.9415C263.604 65.9258 264.175 66.6979 264.896 67.2577C265.617 67.8602 266.746 68.1669 268.282 68.1779C270.244 68.1918 271.698 67.7115 272.644 66.7369C273.589 65.8049 274.07 64.2083 274.086 61.947L274.117 57.6592C271.924 60.0329 268.801 61.2054 264.747 61.1765C260.438 61.1458 257.141 59.8637 254.855 57.33C252.612 54.754 251.401 51.0546 251.222 46.2318L251.17 44.5034C251.207 39.3409 252.387 35.2959 254.712 32.3683C257.038 29.3982 260.461 27.9292 264.984 27.9614C267.16 27.9769 269.077 28.4172 270.735 29.2823C272.393 30.1048 273.793 31.2242 274.935 32.6403L274.952 30.2724C274.955 29.8031 275.107 29.4202 275.408 29.1236C275.751 28.8274 276.136 28.6808 276.563 28.6838L283.923 28.7362C284.392 28.7396 284.775 28.913 285.071 29.2564C285.41 29.5575 285.579 29.9214 285.576 30.348L285.356 61.1313C285.322 65.9951 283.845 69.6967 280.925 72.236C278.006 74.7753 273.879 76.0259 268.546 75.988ZM268.263 52.8813C270.183 52.895 271.616 52.3292 272.563 51.1839C273.51 49.996 274.054 48.5065 274.195 46.7154C274.239 46.4171 274.266 45.7559 274.273 44.7319C274.28 43.7506 274.263 43.1105 274.222 42.8115C274.15 41.019 273.627 39.5432 272.654 38.3842C271.724 37.1829 270.299 36.5754 268.379 36.5618C266.374 36.5475 264.919 37.1345 264.014 38.3227C263.11 39.511 262.607 41.1501 262.507 43.2401L262.433 44.6476C262.415 47.1649 262.828 49.1732 263.67 50.6726C264.513 52.1293 266.044 52.8655 268.263 52.8813ZM294.488 62.0923C294.019 62.089 293.636 61.9369 293.339 61.6361C293.043 61.3353 292.896 60.9503 292.9 60.481L293.114 30.4017C293.117 29.9324 293.269 29.5495 293.57 29.2529C293.871 28.9564 294.256 28.8098 294.725 28.8132L302.277 28.8669C302.746 28.8703 303.129 29.0223 303.426 29.3231C303.722 29.6239 303.869 30.009 303.866 30.4783L303.651 60.5575C303.648 60.9842 303.496 61.3671 303.195 61.7063C302.894 62.0028 302.509 62.1494 302.04 62.1461L294.488 62.0923ZM294.887 24.0142C294.205 24.0093 293.866 23.6656 293.871 22.9829C293.873 22.6416 293.982 22.365 294.197 22.1532L299.877 15.3455C300.308 14.8365 300.672 14.5191 300.972 14.3933C301.272 14.2247 301.699 14.1424 302.254 14.1464L310.702 14.2065C311.086 14.2093 311.383 14.3394 311.595 14.5969C311.807 14.8118 311.911 15.1112 311.908 15.4952C311.906 15.7938 311.798 16.0491 311.583 16.2609L303.022 23.1761C302.635 23.472 302.271 23.7041 301.929 23.8723C301.586 23.9979 301.138 24.0587 300.583 24.0547L294.887 24.0142ZM321.179 62.9224C318.918 62.9063 316.852 62.4649 314.981 61.5982C313.153 60.6892 311.71 59.4842 310.654 57.9833C309.641 56.4401 309.141 54.7511 309.154 52.9165C309.175 49.9726 310.387 47.6132 312.789 45.8382C315.234 44.0636 318.57 42.85 322.799 42.1974L330.808 41.0384L330.814 40.1424C330.825 38.5211 330.493 37.324 329.815 36.5512C329.138 35.7784 327.989 35.3862 326.368 35.3746C325.386 35.3676 324.575 35.5325 323.932 35.8693C323.29 36.2061 322.625 36.6707 321.938 37.2631C321.337 37.7709 320.887 38.109 320.587 38.2775C320.457 38.618 320.221 38.7869 319.879 38.7845L312.904 38.7348C312.477 38.7318 312.115 38.6012 311.818 38.3431C311.564 38.0426 311.46 37.7005 311.506 37.3169C311.556 36.1652 312.12 34.8892 313.197 33.4888C314.316 32.0887 315.989 30.8846 318.215 29.8764C320.483 28.8686 323.26 28.3763 326.545 28.3997C331.793 28.4371 335.668 29.638 338.168 32.0026C340.669 34.3244 341.905 37.448 341.877 41.3732L341.739 60.8287C341.736 61.2554 341.584 61.6383 341.283 61.9775C340.982 62.274 340.597 62.4206 340.128 62.4173L332.704 62.3644C332.277 62.3614 331.894 62.2093 331.555 61.9082C331.259 61.5648 331.112 61.1797 331.115 60.7531L331.131 58.5131C330.183 59.8291 328.853 60.9076 327.14 61.7488C325.47 62.5476 323.483 62.9388 321.179 62.9224ZM324.239 55.648C326.202 55.662 327.785 55.0332 328.989 53.7618C330.235 52.4906 330.867 50.6177 330.885 48.1431L330.891 47.2471L325.445 48.1684C321.6 48.8237 319.67 50.154 319.656 52.1593C319.648 53.2259 320.09 54.0824 320.982 54.7288C321.874 55.3325 322.959 55.6389 324.239 55.648ZM362.64 63.2176C359.185 63.193 356.287 62.6817 353.947 61.6837C351.65 60.686 349.952 59.5005 348.852 58.1273C347.753 56.7541 347.207 55.5342 347.214 54.4675C347.217 54.0409 347.369 53.7006 347.67 53.4468C348.013 53.1505 348.377 53.0038 348.761 53.0065L356.057 53.0585C356.313 53.0603 356.547 53.1686 356.758 53.3835C357.268 53.7284 357.65 54.0085 357.904 54.2237C358.838 54.913 359.645 55.4308 360.325 55.7769C361.049 56.0808 361.922 56.2363 362.946 56.2436C364.183 56.2524 365.188 56.0249 365.959 55.561C366.773 55.0548 367.184 54.3537 367.19 53.4578C367.195 52.7324 366.986 52.1549 366.562 51.7252C366.181 51.2959 365.416 50.8851 364.267 50.4929C363.118 50.058 361.372 49.5976 359.029 49.1115C355.493 48.361 352.77 47.1683 350.862 45.5333C348.997 43.856 348.074 41.6307 348.094 38.8574C348.106 37.1081 348.672 35.4481 349.793 33.8774C350.914 32.3067 352.565 31.0384 354.748 30.0726C356.974 29.1071 359.601 28.6351 362.631 28.6567C365.66 28.6782 368.302 29.1664 370.556 30.1211C372.811 31.0759 374.509 32.24 375.652 33.6135C376.837 34.9446 377.425 36.1649 377.418 37.2742C377.415 37.6582 377.263 37.9984 376.962 38.295C376.704 38.5918 376.383 38.7388 375.999 38.7361L369.343 38.6887C369.002 38.6863 368.683 38.5773 368.386 38.3619C367.833 38.0593 367.345 37.7358 366.92 37.3914C366.199 36.8316 365.519 36.4001 364.882 36.0969C364.244 35.7937 363.456 35.6387 362.517 35.632C361.408 35.6241 360.51 35.8737 359.823 36.3809C359.18 36.8883 358.855 37.5473 358.849 38.358C358.845 38.998 359.012 39.5325 359.35 39.9616C359.731 40.391 360.496 40.8231 361.645 41.258C362.837 41.6505 364.583 42.0682 366.884 42.5113C371.017 43.2661 374.016 44.5675 375.88 46.4155C377.787 48.2637 378.732 50.4252 378.714 52.8998C378.692 56.0571 377.266 58.5856 374.436 60.4855C371.607 62.3428 367.675 63.2535 362.64 63.2176ZM410.167 63.556C406.413 63.5293 403.392 62.2491 401.106 59.7154C398.821 57.1391 397.694 53.5683 397.727 49.0031L397.854 31.1475C397.857 30.6782 398.009 30.2953 398.31 29.9987C398.611 29.7022 398.996 29.5556 399.465 29.559L407.465 29.6159C407.934 29.6193 408.317 29.7713 408.614 30.0721C408.953 30.3732 409.121 30.7584 409.117 31.2277L408.993 48.6993C408.963 52.8805 410.804 54.9843 414.516 55.0108C416.308 55.0235 417.72 54.4789 418.752 53.3769C419.784 52.2749 420.307 50.7426 420.321 48.7799L420.445 31.3084C420.448 30.8391 420.601 30.4561 420.901 30.1596C421.245 29.8634 421.63 29.7168 422.056 29.7198L430.056 29.7768C430.526 29.7801 430.909 29.9322 431.205 30.233C431.502 30.5338 431.648 30.9188 431.645 31.3881L431.431 61.4674C431.428 61.894 431.276 62.277 430.974 62.6162C430.674 62.9127 430.289 63.0593 429.819 63.0559L422.395 63.0031C421.969 63 421.586 62.848 421.247 62.5469C420.95 62.2034 420.804 61.8184 420.807 61.3917L420.824 58.9598C418.583 62.0586 415.031 63.5907 410.167 63.556ZM455.971 63.2422C447.139 63.1793 442.753 58.9453 442.813 50.5401L442.9 38.2525L437.908 38.2169C437.439 38.2136 437.035 38.0613 436.696 37.7603C436.399 37.4595 436.252 37.0744 436.256 36.6051L436.293 31.4212C436.296 30.9519 436.448 30.569 436.749 30.2725C437.092 29.9762 437.499 29.8298 437.968 29.8331L442.96 29.8687L443.035 19.3089C443.038 18.8396 443.191 18.4567 443.491 18.1602C443.835 17.8639 444.22 17.7173 444.646 17.7204L452.07 17.7732C452.54 17.7766 452.923 17.9286 453.219 18.2294C453.516 18.5302 453.662 18.9153 453.659 19.3846L453.584 29.9443L461.583 30.0013C462.053 30.0046 462.436 30.1567 462.732 30.4575C463.071 30.7586 463.239 31.1438 463.236 31.6131L463.199 36.7969C463.196 37.2663 463.022 37.649 462.679 37.9453C462.378 38.2418 461.993 38.3884 461.524 38.3851L453.524 38.3281L453.443 49.7198C453.42 52.8771 454.625 54.4644 457.057 54.4817L461.985 54.5168C462.454 54.5201 462.837 54.6722 463.134 54.9729C463.43 55.2737 463.577 55.6588 463.573 56.1281L463.534 61.696C463.531 62.1226 463.379 62.5056 463.078 62.8447C462.777 63.1413 462.392 63.2879 461.922 63.2845L455.971 63.2422ZM470.628 25.2656C470.159 25.2622 469.776 25.1101 469.48 24.8094C469.183 24.5086 469.037 24.1235 469.04 23.6542L469.081 17.8943C469.084 17.425 469.236 17.0421 469.537 16.7456C469.838 16.449 470.223 16.3024 470.692 16.3058L478.372 16.3605C478.841 16.3638 479.224 16.5159 479.521 16.8167C479.817 17.1174 479.964 17.5025 479.961 17.9718L479.92 23.7317C479.916 24.201 479.764 24.5839 479.463 24.8805C479.163 25.177 478.778 25.3236 478.308 25.3202L470.628 25.2656ZM470.421 63.3451C469.952 63.3417 469.569 63.1896 469.272 62.8889C468.976 62.5881 468.829 62.203 468.833 61.7337L469.047 31.6545C469.05 31.1851 469.202 30.8022 469.503 30.5057C469.804 30.2091 470.189 30.0625 470.658 30.0659L478.21 30.1197C478.679 30.123 479.062 30.2751 479.359 30.5759C479.655 30.8766 479.802 31.2617 479.799 31.731L479.584 61.8103C479.581 62.2369 479.429 62.6198 479.128 62.959C478.827 63.2556 478.442 63.4022 477.973 63.3988L470.421 63.3451ZM488.733 63.4754C488.307 63.4724 487.924 63.3203 487.585 63.0193C487.288 62.6758 487.142 62.2907 487.145 61.8641L487.446 19.6252C487.449 19.1558 487.601 18.7729 487.902 18.4764C488.245 18.1801 488.63 18.0335 489.057 18.0366L496.609 18.0904C497.078 18.0937 497.461 18.2458 497.757 18.5466C498.054 18.8473 498.201 19.2324 498.197 19.7017L497.896 61.9406C497.893 62.41 497.741 62.7929 497.44 63.0894C497.139 63.386 496.754 63.5326 496.285 63.5292L488.733 63.4754ZM507.252 25.5263C506.783 25.523 506.4 25.3709 506.104 25.0701C505.807 24.7694 505.661 24.3843 505.664 23.915L505.705 18.1551C505.708 17.6858 505.86 17.3029 506.161 17.0063C506.462 16.7098 506.847 16.5632 507.316 16.5666L514.996 16.6212C515.465 16.6246 515.848 16.7767 516.145 17.0774C516.441 17.3782 516.588 17.7633 516.585 18.2326L516.544 23.9925C516.54 24.4618 516.388 24.8447 516.087 25.1412C515.787 25.4378 515.402 25.5844 514.932 25.581L507.252 25.5263ZM507.045 63.6058C506.576 63.6025 506.193 63.4504 505.897 63.1496C505.6 62.8489 505.453 62.4638 505.457 61.9945L505.671 31.9152C505.674 31.4459 505.826 31.063 506.127 30.7665C506.428 30.4699 506.813 30.3233 507.282 30.3267L514.834 30.3804C515.303 30.3838 515.686 30.5359 515.983 30.8366C516.279 31.1374 516.426 31.5225 516.423 31.9918L516.209 62.071C516.205 62.4977 516.053 62.8806 515.752 63.2198C515.452 63.5164 515.066 63.6629 514.597 63.6596L507.045 63.6058ZM524.013 63.7267C523.587 63.7236 523.204 63.5716 522.865 63.2705C522.568 62.927 522.422 62.542 522.425 62.1153L522.46 57.1234C522.466 56.3554 522.812 55.6326 523.5 54.9548L538.591 38.8058L524.768 38.7074C524.298 38.704 523.894 38.5518 523.555 38.2507C523.258 37.95 523.112 37.5649 523.115 37.0956L523.151 32.0397C523.154 31.5704 523.306 31.1875 523.607 30.8909C523.951 30.5947 524.357 30.4483 524.826 30.4516L550.554 30.6348C551.023 30.6381 551.406 30.7902 551.703 31.091C551.999 31.3918 552.146 31.7768 552.142 32.2461L552.104 37.686C552.099 38.2833 551.796 38.9212 551.194 39.5996L536.488 55.5593L551.656 55.6673C552.125 55.6706 552.508 55.8227 552.804 56.1235C553.143 56.4246 553.311 56.8098 553.308 57.2791L553.272 62.335C553.269 62.8043 553.095 63.187 552.752 63.4833C552.451 63.7798 552.066 63.9264 551.597 63.9231L524.013 63.7267ZM569.111 64.6878C566.849 64.6717 564.783 64.2303 562.912 63.3636C561.084 62.4546 559.642 61.2496 558.586 59.7487C557.573 58.2055 557.073 56.5165 557.086 54.6819C557.107 51.738 558.318 49.3785 560.72 47.6036C563.165 45.829 566.502 44.6154 570.73 43.9628L578.739 42.8038L578.745 41.9078C578.757 40.2865 578.424 39.0894 577.747 38.3166C577.07 37.5438 575.92 37.1516 574.299 37.14C573.318 37.133 572.506 37.2979 571.863 37.6347C571.221 37.9715 570.556 38.4361 569.869 39.0285C569.268 39.5363 568.818 39.8744 568.518 40.0429C568.388 40.3834 568.152 40.5523 567.811 40.5499L560.835 40.5002C560.408 40.4972 560.046 40.3666 559.749 40.1085C559.496 39.808 559.391 39.4659 559.437 39.0823C559.488 37.9306 560.051 36.6546 561.128 35.2542C562.247 33.8541 563.92 32.65 566.146 31.6418C568.415 30.634 571.191 30.1417 574.477 30.1651C579.725 30.2025 583.599 31.4034 586.099 33.768C588.6 36.0898 589.837 39.2134 589.809 43.1386L589.67 62.5941C589.667 63.0208 589.515 63.4037 589.214 63.7429C588.913 64.0394 588.528 64.186 588.059 64.1827L580.635 64.1298C580.208 64.1268 579.825 63.9747 579.486 63.6736C579.19 63.3302 579.043 62.9451 579.046 62.5185L579.062 60.2785C578.114 61.5945 576.784 62.673 575.071 63.5142C573.402 64.313 571.415 64.7042 569.111 64.6878ZM572.171 57.4134C574.133 57.4274 575.716 56.7986 576.92 55.5272C578.167 54.256 578.799 52.3831 578.816 49.9085L578.823 49.0125L573.376 49.9338C569.531 50.5891 567.602 51.9194 567.587 53.9247C567.58 54.9913 568.022 55.8478 568.913 56.4942C569.805 57.0979 570.891 57.4043 572.171 57.4134ZM609.292 64.9739C605.11 64.9441 601.856 63.6196 599.528 61.0003C597.243 58.3386 596.01 54.6177 595.831 49.8377L595.783 47.5973L595.863 45.2938C596.067 40.6871 597.352 37.0482 599.717 34.3769C602.126 31.706 605.399 30.3853 609.538 30.4148C613.42 30.4424 616.547 31.7234 618.919 34.2577L619.016 20.562C619.02 20.0927 619.172 19.7098 619.472 19.4132C619.773 19.1167 620.158 18.9701 620.628 18.9734L628.435 19.029C628.905 19.0324 629.288 19.1844 629.584 19.4852C629.881 19.786 630.027 20.1711 630.024 20.6404L629.723 62.8793C629.72 63.306 629.568 63.6889 629.267 64.0281C628.966 64.3246 628.581 64.4712 628.112 64.4679L620.88 64.4164C620.453 64.4134 620.07 64.2613 619.731 63.9602C619.435 63.6168 619.288 63.2317 619.291 62.805L619.306 60.7571C616.939 63.599 613.601 65.0046 609.292 64.9739ZM612.873 56.4232C614.793 56.4368 616.226 55.8497 617.173 54.6618C618.121 53.4311 618.665 51.8563 618.807 49.9373C618.854 49.3829 618.881 48.5724 618.888 47.5058C618.896 46.4818 618.88 45.6923 618.841 45.1374C618.768 43.3875 618.245 41.9331 617.272 40.7741C616.299 39.6151 614.874 39.029 612.997 39.0156C610.991 39.0013 609.536 39.5883 608.632 40.7766C607.77 41.9651 607.268 43.6043 607.125 45.694C607.079 46.1203 607.053 46.7815 607.047 47.6775C607.04 48.5734 607.057 49.2349 607.097 49.6619C607.21 51.7534 607.689 53.3995 608.534 54.6002C609.421 55.8013 610.867 56.4089 612.873 56.4232ZM647.234 65.2441C644.972 65.228 642.906 64.7866 641.035 63.9199C639.207 63.0109 637.765 61.8059 636.709 60.305C635.696 58.7617 635.196 57.0728 635.209 55.2382C635.23 52.2943 636.441 49.9348 638.843 48.1599C641.288 46.3852 644.625 45.1716 648.853 44.5191L656.862 43.3601L656.868 42.4641C656.88 40.8428 656.547 39.6457 655.87 38.8729C655.193 38.1 654.043 37.7078 652.422 37.6963C651.441 37.6893 650.629 37.8542 649.986 38.191C649.344 38.5277 648.679 38.9924 647.992 39.5848C647.392 40.0925 646.941 40.4307 646.641 40.5992C646.511 40.9396 646.275 41.1086 645.934 41.1062L638.958 41.0565C638.531 41.0535 638.169 40.9229 637.873 40.6648C637.619 40.3643 637.514 40.0222 637.56 39.6385C637.611 38.4869 638.174 37.2108 639.251 35.8105C640.37 34.4104 642.043 33.2063 644.269 32.1981C646.538 31.1902 649.314 30.698 652.6 30.7214C657.848 30.7588 661.722 31.9597 664.222 34.3242C666.723 36.6461 667.96 39.7697 667.932 43.6949L667.793 63.1504C667.79 63.5771 667.638 63.96 667.337 64.2992C667.036 64.5957 666.651 64.7423 666.182 64.739L658.758 64.6861C658.331 64.6831 657.948 64.531 657.609 64.2299C657.313 63.8865 657.166 63.5014 657.169 63.0748L657.185 60.8348C656.237 62.1508 654.907 63.2293 653.194 64.0705C651.525 64.8693 649.538 65.2605 647.234 65.2441ZM650.294 57.9697C652.256 57.9836 653.839 57.3549 655.043 56.0834C656.29 54.8123 656.922 52.9394 656.939 50.4648L656.946 49.5688L651.499 50.4901C647.654 51.1454 645.725 52.4757 645.71 54.4809C645.703 55.5476 646.145 56.4041 647.036 57.0504C647.928 57.6541 649.014 57.9606 650.294 57.9697ZM688.695 65.5393C685.239 65.5147 682.341 65.0034 680.001 64.0053C677.704 63.0076 676.006 61.8222 674.907 60.449C673.807 59.0758 673.261 57.8559 673.269 56.7892C673.272 56.3626 673.423 56.0223 673.724 55.7684C674.067 55.4722 674.431 55.3255 674.815 55.3282L682.111 55.3801C682.367 55.382 682.601 55.4903 682.813 55.7052C683.322 56.0501 683.704 56.3302 683.959 56.5453C684.892 57.2347 685.699 57.7524 686.38 58.0986C687.103 58.4024 687.976 58.558 689 58.5653C690.238 58.5741 691.242 58.3466 692.013 57.8827C692.828 57.3765 693.238 56.6754 693.244 55.7794C693.249 55.0541 693.04 54.4766 692.617 54.0469C692.236 53.6175 691.471 53.2067 690.321 52.8145C689.172 52.3797 687.426 51.9192 685.083 51.4332C681.547 50.6827 678.825 49.4899 676.916 47.855C675.051 46.1776 674.128 43.9524 674.148 41.1791C674.16 39.4298 674.727 37.7698 675.847 36.1991C676.968 34.6283 678.62 33.3601 680.803 32.3942C683.028 31.4287 685.656 30.9568 688.685 30.9783C691.714 30.9999 694.356 31.4881 696.611 32.4428C698.865 33.3976 700.564 34.5617 701.706 35.9352C702.891 37.2663 703.48 38.4865 703.472 39.5958C703.469 39.9798 703.317 40.3201 703.017 40.6166C702.758 40.9135 702.437 41.0605 702.053 41.0578L695.398 41.0104C695.056 41.008 694.737 40.899 694.44 40.6836C693.887 40.381 693.399 40.0575 692.975 39.7131C692.253 39.1533 691.574 38.7218 690.936 38.4186C690.298 38.1153 689.51 37.9604 688.571 37.9537C687.462 37.9458 686.564 38.1954 685.878 38.7025C685.234 39.21 684.909 39.869 684.904 40.6797C684.899 41.3196 685.066 41.8542 685.404 42.2833C685.785 42.7127 686.55 43.1448 687.699 43.5796C688.891 43.9721 690.637 44.3899 692.938 44.833C697.072 45.5878 700.07 46.8891 701.935 48.7371C703.842 50.5854 704.786 52.7469 704.769 55.2215C704.746 58.3787 703.32 60.9073 700.49 62.8072C697.661 64.6644 693.729 65.5751 688.695 65.5393Z" fill="#C21E4E"/>
</g>
</svg>
