<svg width="1184" height="139" viewBox="0 0 1184 139" fill="none" xmlns="http://www.w3.org/2000/svg">
<g id="Group 40">
<path id="HTML5, CSS3, Vanila Javascript," d="M521.06 90C520.86 90 520.69 89.93 520.55 89.79C520.41 89.65 520.34 89.48 520.34 89.28V69.75C520.34 69.53 520.4 69.35 520.52 69.21C520.66 69.07 520.84 69 521.06 69H523.79C524.01 69 524.18 69.07 524.3 69.21C524.44 69.35 524.51 69.53 524.51 69.75V77.49H533.36V69.75C533.36 69.53 533.42 69.35 533.54 69.21C533.68 69.07 533.86 69 534.08 69H536.78C537 69 537.18 69.07 537.32 69.21C537.46 69.35 537.53 69.53 537.53 69.75V89.28C537.53 89.5 537.46 89.68 537.32 89.82C537.18 89.94 537 90 536.78 90H534.08C533.88 90 533.71 89.93 533.57 89.79C533.43 89.65 533.36 89.48 533.36 89.28V81.24H524.51V89.28C524.51 89.48 524.44 89.65 524.3 89.79C524.18 89.93 524.01 90 523.79 90H521.06ZM547.535 90C547.335 90 547.165 89.93 547.025 89.79C546.885 89.65 546.815 89.48 546.815 89.28V72.69H541.265C541.065 72.69 540.895 72.62 540.755 72.48C540.615 72.34 540.545 72.17 540.545 71.97V69.75C540.545 69.53 540.605 69.35 540.725 69.21C540.865 69.07 541.045 69 541.265 69H556.565C556.785 69 556.965 69.07 557.105 69.21C557.245 69.35 557.315 69.53 557.315 69.75V71.97C557.315 72.17 557.245 72.34 557.105 72.48C556.965 72.62 556.785 72.69 556.565 72.69H551.045V89.28C551.045 89.48 550.975 89.65 550.835 89.79C550.695 89.93 550.515 90 550.295 90H547.535ZM561.11 90C560.89 90 560.71 89.94 560.57 89.82C560.43 89.68 560.36 89.5 560.36 89.28V69.75C560.36 69.53 560.43 69.35 560.57 69.21C560.71 69.07 560.89 69 561.11 69H563.48C563.9 69 564.2 69.19 564.38 69.57L570.17 80.37L576.02 69.57C576.22 69.19 576.52 69 576.92 69H579.26C579.48 69 579.66 69.07 579.8 69.21C579.94 69.35 580.01 69.53 580.01 69.75V89.28C580.01 89.5 579.94 89.68 579.8 89.82C579.66 89.94 579.48 90 579.26 90H576.74C576.54 90 576.37 89.93 576.23 89.79C576.09 89.65 576.02 89.48 576.02 89.28V76.29L571.82 84.3C571.56 84.74 571.22 84.96 570.8 84.96H569.57C569.15 84.96 568.81 84.74 568.55 84.3L564.35 76.29V89.28C564.35 89.48 564.28 89.65 564.14 89.79C564.02 89.93 563.85 90 563.63 90H561.11ZM585.396 90C585.196 90 585.026 89.93 584.886 89.79C584.746 89.65 584.676 89.48 584.676 89.28V69.72C584.676 69.5 584.746 69.33 584.886 69.21C585.026 69.07 585.196 69 585.396 69H588.186C588.406 69 588.576 69.07 588.696 69.21C588.836 69.33 588.906 69.5 588.906 69.72V86.43H598.416C598.636 86.43 598.816 86.5 598.956 86.64C599.096 86.78 599.166 86.96 599.166 87.18V89.28C599.166 89.5 599.096 89.68 598.956 89.82C598.816 89.94 598.636 90 598.416 90H585.396ZM608.918 90.33C607.258 90.33 605.828 90.05 604.628 89.49C603.448 88.93 602.538 88.19 601.898 87.27C601.278 86.35 600.948 85.36 600.908 84.3V84.24C600.908 84.08 600.968 83.95 601.088 83.85C601.208 83.75 601.358 83.7 601.538 83.7H604.328C604.788 83.7 605.088 83.9 605.228 84.3C605.508 85.18 605.968 85.83 606.608 86.25C607.268 86.67 608.038 86.88 608.918 86.88C610.038 86.88 610.968 86.54 611.708 85.86C612.468 85.18 612.848 84.23 612.848 83.01C612.848 81.93 612.468 81.05 611.708 80.37C610.968 79.69 610.038 79.35 608.918 79.35C608.318 79.35 607.828 79.43 607.448 79.59C607.068 79.75 606.698 79.97 606.338 80.25C606.098 80.43 605.908 80.56 605.768 80.64C605.648 80.7 605.498 80.73 605.318 80.73H602.558C602.378 80.73 602.218 80.67 602.078 80.55C601.958 80.41 601.898 80.25 601.898 80.07L602.948 69.81C602.968 69.57 603.048 69.38 603.188 69.24C603.348 69.08 603.548 69 603.788 69H615.068C615.268 69 615.438 69.07 615.578 69.21C615.718 69.35 615.788 69.52 615.788 69.72V71.73C615.788 71.93 615.718 72.1 615.578 72.24C615.438 72.38 615.268 72.45 615.068 72.45H606.398L605.918 77.34C606.898 76.66 608.208 76.32 609.848 76.32C611.148 76.32 612.348 76.6 613.448 77.16C614.568 77.7 615.458 78.49 616.118 79.53C616.778 80.55 617.108 81.74 617.108 83.1C617.108 84.56 616.768 85.84 616.088 86.94C615.408 88.02 614.448 88.86 613.208 89.46C611.988 90.04 610.558 90.33 608.918 90.33ZM619.937 92.25C619.757 92.25 619.617 92.19 619.517 92.07C619.417 91.95 619.377 91.8 619.397 91.62L620.207 86.52C620.247 86.24 620.347 86.01 620.507 85.83C620.667 85.65 620.887 85.56 621.167 85.56H623.927C624.067 85.56 624.187 85.62 624.287 85.74C624.407 85.84 624.467 85.97 624.467 86.13C624.467 86.23 624.437 86.36 624.377 86.52L622.457 91.5C622.357 91.74 622.227 91.92 622.067 92.04C621.927 92.18 621.727 92.25 621.467 92.25H619.937ZM643.342 90.3C640.582 90.3 638.442 89.59 636.922 88.17C635.422 86.75 634.622 84.75 634.522 82.17C634.502 81.63 634.492 80.75 634.492 79.53C634.492 78.29 634.502 77.39 634.522 76.83C634.622 74.27 635.432 72.28 636.952 70.86C638.492 69.42 640.622 68.7 643.342 68.7C645.122 68.7 646.672 69.01 647.992 69.63C649.312 70.23 650.332 71.06 651.052 72.12C651.772 73.16 652.152 74.34 652.192 75.66V75.72C652.192 75.88 652.122 76.02 651.982 76.14C651.862 76.24 651.722 76.29 651.562 76.29H648.712C648.472 76.29 648.292 76.24 648.172 76.14C648.052 76.04 647.952 75.85 647.872 75.57C647.552 74.31 647.022 73.43 646.282 72.93C645.542 72.41 644.552 72.15 643.312 72.15C640.432 72.15 638.932 73.76 638.812 76.98C638.792 77.52 638.782 78.35 638.782 79.47C638.782 80.59 638.792 81.44 638.812 82.02C638.932 85.24 640.432 86.85 643.312 86.85C644.552 86.85 645.542 86.59 646.282 86.07C647.042 85.55 647.572 84.67 647.872 83.43C647.932 83.15 648.022 82.96 648.142 82.86C648.282 82.76 648.472 82.71 648.712 82.71H651.562C651.742 82.71 651.892 82.77 652.012 82.89C652.152 83.01 652.212 83.16 652.192 83.34C652.152 84.66 651.772 85.85 651.052 86.91C650.332 87.95 649.312 88.78 647.992 89.4C646.672 90 645.122 90.3 643.342 90.3ZM663.04 90.3C661.26 90.3 659.73 90.03 658.45 89.49C657.17 88.95 656.2 88.24 655.54 87.36C654.88 86.48 654.53 85.53 654.49 84.51C654.49 84.33 654.55 84.18 654.67 84.06C654.79 83.94 654.94 83.88 655.12 83.88H657.79C658.03 83.88 658.21 83.93 658.33 84.03C658.47 84.11 658.6 84.25 658.72 84.45C658.92 85.13 659.38 85.7 660.1 86.16C660.82 86.62 661.8 86.85 663.04 86.85C664.46 86.85 665.53 86.62 666.25 86.16C666.97 85.68 667.33 85.02 667.33 84.18C667.33 83.62 667.14 83.16 666.76 82.8C666.4 82.44 665.85 82.13 665.11 81.87C664.39 81.61 663.31 81.29 661.87 80.91C659.51 80.35 657.78 79.61 656.68 78.69C655.6 77.75 655.06 76.42 655.06 74.7C655.06 73.54 655.37 72.51 655.99 71.61C656.63 70.71 657.54 70 658.72 69.48C659.92 68.96 661.31 68.7 662.89 68.7C664.53 68.7 665.95 68.99 667.15 69.57C668.35 70.15 669.26 70.88 669.88 71.76C670.52 72.62 670.86 73.48 670.9 74.34C670.9 74.52 670.84 74.67 670.72 74.79C670.6 74.91 670.45 74.97 670.27 74.97H667.48C667.06 74.97 666.77 74.78 666.61 74.4C666.49 73.76 666.09 73.23 665.41 72.81C664.73 72.37 663.89 72.15 662.89 72.15C661.77 72.15 660.89 72.36 660.25 72.78C659.61 73.2 659.29 73.81 659.29 74.61C659.29 75.17 659.45 75.63 659.77 75.99C660.09 76.35 660.59 76.67 661.27 76.95C661.97 77.23 662.97 77.54 664.27 77.88C666.03 78.28 667.43 78.73 668.47 79.23C669.53 79.73 670.31 80.36 670.81 81.12C671.31 81.88 671.56 82.85 671.56 84.03C671.56 85.31 671.2 86.43 670.48 87.39C669.78 88.33 668.78 89.05 667.48 89.55C666.2 90.05 664.72 90.3 663.04 90.3ZM682.288 90.3C680.508 90.3 678.978 90.03 677.698 89.49C676.418 88.95 675.448 88.24 674.788 87.36C674.128 86.48 673.778 85.53 673.738 84.51C673.738 84.33 673.798 84.18 673.918 84.06C674.038 83.94 674.188 83.88 674.368 83.88H677.038C677.278 83.88 677.458 83.93 677.578 84.03C677.718 84.11 677.848 84.25 677.968 84.45C678.168 85.13 678.628 85.7 679.348 86.16C680.068 86.62 681.048 86.85 682.288 86.85C683.708 86.85 684.778 86.62 685.498 86.16C686.218 85.68 686.578 85.02 686.578 84.18C686.578 83.62 686.388 83.16 686.008 82.8C685.648 82.44 685.098 82.13 684.358 81.87C683.638 81.61 682.558 81.29 681.118 80.91C678.758 80.35 677.028 79.61 675.928 78.69C674.848 77.75 674.308 76.42 674.308 74.7C674.308 73.54 674.618 72.51 675.238 71.61C675.878 70.71 676.788 70 677.968 69.48C679.168 68.96 680.558 68.7 682.138 68.7C683.778 68.7 685.198 68.99 686.398 69.57C687.598 70.15 688.508 70.88 689.128 71.76C689.768 72.62 690.108 73.48 690.148 74.34C690.148 74.52 690.088 74.67 689.968 74.79C689.848 74.91 689.698 74.97 689.518 74.97H686.728C686.308 74.97 686.018 74.78 685.858 74.4C685.738 73.76 685.338 73.23 684.658 72.81C683.978 72.37 683.138 72.15 682.138 72.15C681.018 72.15 680.138 72.36 679.498 72.78C678.858 73.2 678.538 73.81 678.538 74.61C678.538 75.17 678.698 75.63 679.018 75.99C679.338 76.35 679.838 76.67 680.518 76.95C681.218 77.23 682.218 77.54 683.518 77.88C685.278 78.28 686.678 78.73 687.718 79.23C688.778 79.73 689.558 80.36 690.058 81.12C690.558 81.88 690.808 82.85 690.808 84.03C690.808 85.31 690.448 86.43 689.728 87.39C689.028 88.33 688.028 89.05 686.728 89.55C685.448 90.05 683.968 90.3 682.288 90.3ZM701.236 90.3C699.476 90.3 697.976 90.02 696.736 89.46C695.516 88.9 694.596 88.2 693.976 87.36C693.376 86.5 693.056 85.62 693.016 84.72C693.016 84.54 693.076 84.4 693.196 84.3C693.336 84.18 693.496 84.12 693.676 84.12H696.376C696.816 84.12 697.106 84.32 697.246 84.72C697.686 86.16 699.026 86.88 701.266 86.88C702.486 86.88 703.446 86.6 704.146 86.04C704.846 85.46 705.196 84.64 705.196 83.58C705.196 81.58 703.946 80.58 701.446 80.58H698.356C698.136 80.58 697.956 80.51 697.816 80.37C697.676 80.23 697.606 80.06 697.606 79.86V78.6C697.606 78.28 697.746 77.98 698.026 77.7L703.396 72.45H694.816C694.616 72.45 694.446 72.38 694.306 72.24C694.166 72.1 694.096 71.93 694.096 71.73V69.75C694.096 69.53 694.156 69.35 694.276 69.21C694.416 69.07 694.596 69 694.816 69H707.686C707.906 69 708.086 69.07 708.226 69.21C708.366 69.35 708.436 69.53 708.436 69.75V71.55C708.436 71.85 708.306 72.13 708.046 72.39L702.856 77.73L703.216 77.76C705.136 77.92 706.656 78.5 707.776 79.5C708.916 80.5 709.486 81.93 709.486 83.79C709.486 85.11 709.126 86.26 708.406 87.24C707.706 88.22 706.726 88.98 705.466 89.52C704.226 90.04 702.816 90.3 701.236 90.3ZM712.603 92.25C712.423 92.25 712.283 92.19 712.183 92.07C712.083 91.95 712.043 91.8 712.063 91.62L712.873 86.52C712.913 86.24 713.013 86.01 713.173 85.83C713.333 85.65 713.553 85.56 713.833 85.56H716.593C716.733 85.56 716.853 85.62 716.953 85.74C717.073 85.84 717.133 85.97 717.133 86.13C717.133 86.23 717.103 86.36 717.043 86.52L715.123 91.5C715.023 91.74 714.893 91.92 714.733 92.04C714.593 92.18 714.393 92.25 714.133 92.25H712.603ZM733.237 90C732.657 90 732.277 89.72 732.097 89.16L725.677 69.9L725.617 69.63C725.617 69.45 725.677 69.3 725.797 69.18C725.917 69.06 726.067 69 726.247 69H728.887C729.147 69 729.347 69.07 729.487 69.21C729.647 69.33 729.757 69.48 729.817 69.66L734.887 85.11L739.957 69.66C739.997 69.5 740.097 69.35 740.257 69.21C740.417 69.07 740.627 69 740.887 69H743.527C743.687 69 743.827 69.06 743.947 69.18C744.087 69.3 744.157 69.45 744.157 69.63L744.097 69.9L737.677 89.16C737.497 89.72 737.117 90 736.537 90H733.237ZM749.774 90.3C748.754 90.3 747.814 90.1 746.954 89.7C746.114 89.28 745.444 88.72 744.944 88.02C744.464 87.32 744.224 86.55 744.224 85.71C744.224 84.35 744.774 83.25 745.874 82.41C746.974 81.57 748.484 81 750.404 80.7L754.514 80.1V79.47C754.514 78.59 754.294 77.93 753.854 77.49C753.414 77.05 752.704 76.83 751.724 76.83C751.064 76.83 750.524 76.96 750.104 77.22C749.704 77.46 749.384 77.7 749.144 77.94C748.904 78.2 748.744 78.37 748.664 78.45C748.584 78.69 748.434 78.81 748.214 78.81H745.904C745.724 78.81 745.564 78.75 745.424 78.63C745.304 78.51 745.244 78.35 745.244 78.15C745.264 77.65 745.504 77.08 745.964 76.44C746.444 75.8 747.174 75.25 748.154 74.79C749.134 74.33 750.334 74.1 751.754 74.1C754.114 74.1 755.834 74.63 756.914 75.69C757.994 76.75 758.534 78.14 758.534 79.86V89.28C758.534 89.48 758.464 89.65 758.324 89.79C758.204 89.93 758.034 90 757.814 90H755.384C755.184 90 755.014 89.93 754.874 89.79C754.734 89.65 754.664 89.48 754.664 89.28V88.11C754.224 88.75 753.594 89.28 752.774 89.7C751.974 90.1 750.974 90.3 749.774 90.3ZM750.794 87.45C751.894 87.45 752.794 87.09 753.494 86.37C754.194 85.65 754.544 84.6 754.544 83.22V82.59L751.544 83.07C750.384 83.25 749.504 83.54 748.904 83.94C748.324 84.34 748.034 84.83 748.034 85.41C748.034 86.05 748.304 86.55 748.844 86.91C749.384 87.27 750.034 87.45 750.794 87.45ZM763.102 90C762.902 90 762.732 89.93 762.592 89.79C762.452 89.65 762.382 89.48 762.382 89.28V75.12C762.382 74.92 762.452 74.75 762.592 74.61C762.732 74.47 762.902 74.4 763.102 74.4H765.562C765.762 74.4 765.932 74.47 766.072 74.61C766.212 74.75 766.282 74.92 766.282 75.12V76.35C767.462 74.85 769.132 74.1 771.292 74.1C773.132 74.1 774.592 74.71 775.672 75.93C776.752 77.13 777.292 78.77 777.292 80.85V89.28C777.292 89.48 777.222 89.65 777.082 89.79C776.962 89.93 776.792 90 776.572 90H773.932C773.732 90 773.562 89.93 773.422 89.79C773.282 89.65 773.212 89.48 773.212 89.28V81.03C773.212 79.85 772.922 78.94 772.342 78.3C771.782 77.64 770.962 77.31 769.882 77.31C768.822 77.31 767.982 77.64 767.362 78.3C766.762 78.96 766.462 79.87 766.462 81.03V89.28C766.462 89.48 766.392 89.65 766.252 89.79C766.132 89.93 765.962 90 765.742 90H763.102ZM781.703 71.82C781.503 71.82 781.333 71.75 781.193 71.61C781.053 71.47 780.983 71.3 780.983 71.1V68.94C780.983 68.74 781.053 68.57 781.193 68.43C781.333 68.29 781.503 68.22 781.703 68.22H784.433C784.633 68.22 784.803 68.29 784.943 68.43C785.103 68.57 785.183 68.74 785.183 68.94V71.1C785.183 71.3 785.113 71.47 784.973 71.61C784.833 71.75 784.653 71.82 784.433 71.82H781.703ZM781.823 90C781.623 90 781.453 89.93 781.313 89.79C781.173 89.65 781.103 89.48 781.103 89.28V75.12C781.103 74.92 781.173 74.75 781.313 74.61C781.453 74.47 781.623 74.4 781.823 74.4H784.313C784.533 74.4 784.703 74.47 784.823 74.61C784.963 74.73 785.033 74.9 785.033 75.12V89.28C785.033 89.48 784.963 89.65 784.823 89.79C784.703 89.93 784.533 90 784.313 90H781.823ZM789.763 90C789.563 90 789.393 89.93 789.253 89.79C789.113 89.65 789.043 89.48 789.043 89.28V69.42C789.043 69.2 789.113 69.03 789.253 68.91C789.393 68.77 789.563 68.7 789.763 68.7H792.253C792.473 68.7 792.643 68.77 792.763 68.91C792.903 69.03 792.973 69.2 792.973 69.42V89.28C792.973 89.48 792.903 89.65 792.763 89.79C792.643 89.93 792.473 90 792.253 90H789.763ZM801.483 90.3C800.463 90.3 799.523 90.1 798.663 89.7C797.823 89.28 797.153 88.72 796.653 88.02C796.173 87.32 795.933 86.55 795.933 85.71C795.933 84.35 796.483 83.25 797.583 82.41C798.683 81.57 800.193 81 802.113 80.7L806.223 80.1V79.47C806.223 78.59 806.003 77.93 805.563 77.49C805.123 77.05 804.413 76.83 803.433 76.83C802.773 76.83 802.233 76.96 801.813 77.22C801.413 77.46 801.093 77.7 800.853 77.94C800.613 78.2 800.453 78.37 800.373 78.45C800.293 78.69 800.143 78.81 799.923 78.81H797.613C797.433 78.81 797.273 78.75 797.133 78.63C797.013 78.51 796.953 78.35 796.953 78.15C796.973 77.65 797.213 77.08 797.673 76.44C798.153 75.8 798.883 75.25 799.863 74.79C800.843 74.33 802.043 74.1 803.463 74.1C805.823 74.1 807.543 74.63 808.623 75.69C809.703 76.75 810.243 78.14 810.243 79.86V89.28C810.243 89.48 810.173 89.65 810.033 89.79C809.913 89.93 809.743 90 809.523 90H807.093C806.893 90 806.723 89.93 806.583 89.79C806.443 89.65 806.373 89.48 806.373 89.28V88.11C805.933 88.75 805.303 89.28 804.483 89.7C803.683 90.1 802.683 90.3 801.483 90.3ZM802.503 87.45C803.603 87.45 804.503 87.09 805.203 86.37C805.903 85.65 806.253 84.6 806.253 83.22V82.59L803.253 83.07C802.093 83.25 801.213 83.54 800.613 83.94C800.033 84.34 799.743 84.83 799.743 85.41C799.743 86.05 800.013 86.55 800.553 86.91C801.093 87.27 801.743 87.45 802.503 87.45ZM828.087 90.3C826.607 90.3 825.247 90.05 824.007 89.55C822.787 89.05 821.807 88.3 821.067 87.3C820.327 86.3 819.937 85.09 819.897 83.67C819.897 83.49 819.957 83.34 820.077 83.22C820.197 83.08 820.347 83.01 820.527 83.01H823.377C823.817 83.01 824.117 83.27 824.277 83.79C824.417 84.83 824.827 85.6 825.507 86.1C826.207 86.6 827.097 86.85 828.177 86.85C829.437 86.85 830.397 86.44 831.057 85.62C831.737 84.8 832.077 83.66 832.077 82.2V72.54H821.907C821.707 72.54 821.537 72.47 821.397 72.33C821.257 72.19 821.187 72.02 821.187 71.82V69.72C821.187 69.5 821.257 69.33 821.397 69.21C821.537 69.07 821.707 69 821.907 69H835.617C835.837 69 836.017 69.07 836.157 69.21C836.297 69.35 836.367 69.53 836.367 69.75V82.32C836.367 83.98 836.027 85.41 835.347 86.61C834.667 87.81 833.697 88.73 832.437 89.37C831.197 89.99 829.747 90.3 828.087 90.3ZM844.959 90.3C843.939 90.3 842.999 90.1 842.139 89.7C841.299 89.28 840.629 88.72 840.129 88.02C839.649 87.32 839.409 86.55 839.409 85.71C839.409 84.35 839.959 83.25 841.059 82.41C842.159 81.57 843.669 81 845.589 80.7L849.699 80.1V79.47C849.699 78.59 849.479 77.93 849.039 77.49C848.599 77.05 847.889 76.83 846.909 76.83C846.249 76.83 845.709 76.96 845.289 77.22C844.889 77.46 844.569 77.7 844.329 77.94C844.089 78.2 843.929 78.37 843.849 78.45C843.769 78.69 843.619 78.81 843.399 78.81H841.089C840.909 78.81 840.749 78.75 840.609 78.63C840.489 78.51 840.429 78.35 840.429 78.15C840.449 77.65 840.689 77.08 841.149 76.44C841.629 75.8 842.359 75.25 843.339 74.79C844.319 74.33 845.519 74.1 846.939 74.1C849.299 74.1 851.019 74.63 852.099 75.69C853.179 76.75 853.719 78.14 853.719 79.86V89.28C853.719 89.48 853.649 89.65 853.509 89.79C853.389 89.93 853.219 90 852.999 90H850.569C850.369 90 850.199 89.93 850.059 89.79C849.919 89.65 849.849 89.48 849.849 89.28V88.11C849.409 88.75 848.779 89.28 847.959 89.7C847.159 90.1 846.159 90.3 844.959 90.3ZM845.979 87.45C847.079 87.45 847.979 87.09 848.679 86.37C849.379 85.65 849.729 84.6 849.729 83.22V82.59L846.729 83.07C845.569 83.25 844.689 83.54 844.089 83.94C843.509 84.34 843.219 84.83 843.219 85.41C843.219 86.05 843.489 86.55 844.029 86.91C844.569 87.27 845.219 87.45 845.979 87.45ZM862.736 90C862.436 90 862.206 89.94 862.046 89.82C861.886 89.68 861.756 89.49 861.656 89.25L856.046 75.33L855.986 75.06C855.986 74.88 856.046 74.73 856.166 74.61C856.306 74.47 856.466 74.4 856.646 74.4H859.076C859.456 74.4 859.716 74.59 859.856 74.97L863.846 85.5L867.836 74.97C867.896 74.83 867.986 74.7 868.106 74.58C868.246 74.46 868.416 74.4 868.616 74.4H871.076C871.236 74.4 871.376 74.47 871.496 74.61C871.636 74.73 871.706 74.88 871.706 75.06C871.706 75.18 871.696 75.27 871.676 75.33L866.036 89.25C865.936 89.49 865.806 89.68 865.646 89.82C865.486 89.94 865.256 90 864.956 90H862.736ZM878.328 90.3C877.308 90.3 876.368 90.1 875.508 89.7C874.668 89.28 873.998 88.72 873.498 88.02C873.018 87.32 872.778 86.55 872.778 85.71C872.778 84.35 873.328 83.25 874.428 82.41C875.528 81.57 877.038 81 878.958 80.7L883.068 80.1V79.47C883.068 78.59 882.848 77.93 882.408 77.49C881.968 77.05 881.258 76.83 880.278 76.83C879.618 76.83 879.078 76.96 878.658 77.22C878.258 77.46 877.938 77.7 877.698 77.94C877.458 78.2 877.298 78.37 877.218 78.45C877.138 78.69 876.988 78.81 876.768 78.81H874.458C874.278 78.81 874.118 78.75 873.978 78.63C873.858 78.51 873.798 78.35 873.798 78.15C873.818 77.65 874.058 77.08 874.518 76.44C874.998 75.8 875.728 75.25 876.708 74.79C877.688 74.33 878.888 74.1 880.308 74.1C882.668 74.1 884.388 74.63 885.468 75.69C886.548 76.75 887.088 78.14 887.088 79.86V89.28C887.088 89.48 887.018 89.65 886.878 89.79C886.758 89.93 886.588 90 886.368 90H883.938C883.738 90 883.568 89.93 883.428 89.79C883.288 89.65 883.218 89.48 883.218 89.28V88.11C882.778 88.75 882.148 89.28 881.328 89.7C880.528 90.1 879.528 90.3 878.328 90.3ZM879.348 87.45C880.448 87.45 881.348 87.09 882.048 86.37C882.748 85.65 883.098 84.6 883.098 83.22V82.59L880.098 83.07C878.938 83.25 878.058 83.54 877.458 83.94C876.878 84.34 876.588 84.83 876.588 85.41C876.588 86.05 876.858 86.55 877.398 86.91C877.938 87.27 878.588 87.45 879.348 87.45ZM896.847 90.3C895.347 90.3 894.087 90.08 893.067 89.64C892.047 89.18 891.287 88.65 890.787 88.05C890.307 87.43 890.067 86.9 890.067 86.46C890.067 86.26 890.137 86.1 890.277 85.98C890.417 85.86 890.577 85.8 890.757 85.8H893.127C893.307 85.8 893.457 85.87 893.577 86.01C893.657 86.07 893.867 86.25 894.207 86.55C894.547 86.87 894.947 87.12 895.407 87.3C895.867 87.48 896.377 87.57 896.937 87.57C897.737 87.57 898.397 87.41 898.917 87.09C899.437 86.77 899.697 86.33 899.697 85.77C899.697 85.35 899.577 85.01 899.337 84.75C899.117 84.49 898.707 84.26 898.107 84.06C897.507 83.84 896.617 83.61 895.437 83.37C893.737 83.01 892.477 82.46 891.657 81.72C890.857 80.98 890.457 80 890.457 78.78C890.457 77.98 890.697 77.23 891.177 76.53C891.657 75.81 892.367 75.23 893.307 74.79C894.267 74.33 895.407 74.1 896.727 74.1C898.067 74.1 899.227 74.32 900.207 74.76C901.187 75.18 901.927 75.69 902.427 76.29C902.947 76.87 903.207 77.39 903.207 77.85C903.207 78.03 903.137 78.19 902.997 78.33C902.877 78.45 902.727 78.51 902.547 78.51H900.327C900.167 78.51 899.997 78.44 899.817 78.3C899.677 78.2 899.457 78.01 899.157 77.73C898.857 77.45 898.507 77.23 898.107 77.07C897.707 76.91 897.237 76.83 896.697 76.83C895.957 76.83 895.377 76.99 894.957 77.31C894.557 77.63 894.357 78.05 894.357 78.57C894.357 78.95 894.457 79.26 894.657 79.5C894.857 79.74 895.247 79.97 895.827 80.19C896.407 80.41 897.277 80.63 898.437 80.85C900.357 81.23 901.727 81.82 902.547 82.62C903.387 83.42 903.807 84.4 903.807 85.56C903.807 86.96 903.197 88.1 901.977 88.98C900.757 89.86 899.047 90.3 896.847 90.3ZM913.654 90.3C911.454 90.3 909.694 89.69 908.374 88.47C907.074 87.25 906.384 85.56 906.304 83.4L906.274 82.2L906.304 81C906.384 78.84 907.074 77.15 908.374 75.93C909.694 74.71 911.454 74.1 913.654 74.1C915.214 74.1 916.534 74.38 917.614 74.94C918.714 75.5 919.524 76.19 920.044 77.01C920.584 77.81 920.874 78.57 920.914 79.29C920.934 79.49 920.864 79.66 920.704 79.8C920.564 79.94 920.394 80.01 920.194 80.01H917.554C917.354 80.01 917.194 79.97 917.074 79.89C916.974 79.79 916.874 79.63 916.774 79.41C916.474 78.63 916.074 78.07 915.574 77.73C915.094 77.39 914.474 77.22 913.714 77.22C912.694 77.22 911.894 77.55 911.314 78.21C910.734 78.85 910.424 79.83 910.384 81.15L910.354 82.26L910.384 83.25C910.464 85.87 911.574 87.18 913.714 87.18C914.494 87.18 915.124 87.01 915.604 86.67C916.084 86.33 916.474 85.77 916.774 84.99C916.874 84.77 916.974 84.62 917.074 84.54C917.194 84.44 917.354 84.39 917.554 84.39H920.194C920.394 84.39 920.564 84.46 920.704 84.6C920.864 84.74 920.934 84.91 920.914 85.11C920.874 85.81 920.594 86.56 920.074 87.36C919.554 88.16 918.754 88.85 917.674 89.43C916.594 90.01 915.254 90.3 913.654 90.3ZM924.763 90C924.563 90 924.393 89.93 924.253 89.79C924.113 89.65 924.042 89.48 924.042 89.28V75.15C924.042 74.95 924.113 74.78 924.253 74.64C924.393 74.48 924.563 74.4 924.763 74.4H927.193C927.413 74.4 927.593 74.47 927.733 74.61C927.873 74.75 927.943 74.93 927.943 75.15V76.38C928.423 75.74 929.023 75.25 929.743 74.91C930.483 74.57 931.323 74.4 932.263 74.4H933.493C933.713 74.4 933.883 74.47 934.003 74.61C934.143 74.73 934.213 74.9 934.213 75.12V77.28C934.213 77.48 934.143 77.65 934.003 77.79C933.883 77.93 933.713 78 933.493 78H931.153C930.213 78 929.473 78.27 928.933 78.81C928.393 79.35 928.123 80.09 928.123 81.03V89.28C928.123 89.48 928.053 89.65 927.913 89.79C927.773 89.93 927.593 90 927.373 90H924.763ZM937.152 71.82C936.952 71.82 936.782 71.75 936.642 71.61C936.502 71.47 936.432 71.3 936.432 71.1V68.94C936.432 68.74 936.502 68.57 936.642 68.43C936.782 68.29 936.952 68.22 937.152 68.22H939.882C940.082 68.22 940.252 68.29 940.392 68.43C940.552 68.57 940.632 68.74 940.632 68.94V71.1C940.632 71.3 940.562 71.47 940.422 71.61C940.282 71.75 940.102 71.82 939.882 71.82H937.152ZM937.272 90C937.072 90 936.902 89.93 936.762 89.79C936.622 89.65 936.552 89.48 936.552 89.28V75.12C936.552 74.92 936.622 74.75 936.762 74.61C936.902 74.47 937.072 74.4 937.272 74.4H939.762C939.982 74.4 940.152 74.47 940.272 74.61C940.412 74.73 940.482 74.9 940.482 75.12V89.28C940.482 89.48 940.412 89.65 940.272 89.79C940.152 89.93 939.982 90 939.762 90H937.272ZM945.212 95.7C945.012 95.7 944.842 95.63 944.702 95.49C944.562 95.37 944.492 95.2 944.492 94.98V75.12C944.492 74.9 944.562 74.73 944.702 74.61C944.842 74.47 945.012 74.4 945.212 74.4H947.582C947.802 74.4 947.972 74.47 948.092 74.61C948.232 74.73 948.302 74.9 948.302 75.12V76.32C949.422 74.84 951.022 74.1 953.102 74.1C955.122 74.1 956.672 74.74 957.752 76.02C958.832 77.28 959.412 78.99 959.492 81.15C959.512 81.39 959.522 81.74 959.522 82.2C959.522 82.68 959.512 83.04 959.492 83.28C959.412 85.38 958.832 87.08 957.752 88.38C956.672 89.66 955.122 90.3 953.102 90.3C951.082 90.3 949.542 89.59 948.482 88.17V94.98C948.482 95.2 948.412 95.37 948.272 95.49C948.152 95.63 947.982 95.7 947.762 95.7H945.212ZM951.992 87.09C954.152 87.09 955.302 85.76 955.442 83.1C955.462 82.9 955.472 82.6 955.472 82.2C955.472 81.8 955.462 81.5 955.442 81.3C955.302 78.64 954.152 77.31 951.992 77.31C950.832 77.31 949.972 77.68 949.412 78.42C948.852 79.16 948.542 80.07 948.482 81.15L948.452 82.29L948.482 83.46C948.522 84.46 948.832 85.32 949.412 86.04C950.012 86.74 950.872 87.09 951.992 87.09ZM969.823 90C968.003 90 966.633 89.53 965.713 88.59C964.813 87.63 964.363 86.23 964.363 84.39V77.58H961.993C961.793 77.58 961.623 77.51 961.483 77.37C961.343 77.21 961.273 77.03 961.273 76.83V75.12C961.273 74.92 961.343 74.75 961.483 74.61C961.623 74.47 961.793 74.4 961.993 74.4H964.363V69.42C964.363 69.2 964.433 69.03 964.573 68.91C964.713 68.77 964.883 68.7 965.083 68.7H967.513C967.733 68.7 967.903 68.77 968.023 68.91C968.163 69.03 968.233 69.2 968.233 69.42V74.4H971.983C972.203 74.4 972.373 74.47 972.493 74.61C972.633 74.73 972.703 74.9 972.703 75.12V76.83C972.703 77.05 972.633 77.23 972.493 77.37C972.353 77.51 972.183 77.58 971.983 77.58H968.233V84.09C968.233 84.95 968.383 85.6 968.683 86.04C968.983 86.48 969.483 86.7 970.183 86.7H972.253C972.453 86.7 972.623 86.77 972.763 86.91C972.903 87.05 972.973 87.22 972.973 87.42V89.28C972.973 89.48 972.903 89.65 972.763 89.79C972.643 89.93 972.473 90 972.253 90H969.823ZM975.454 92.25C975.274 92.25 975.134 92.19 975.034 92.07C974.934 91.95 974.894 91.8 974.914 91.62L975.724 86.52C975.764 86.24 975.864 86.01 976.024 85.83C976.184 85.65 976.404 85.56 976.684 85.56H979.444C979.584 85.56 979.704 85.62 979.804 85.74C979.924 85.84 979.984 85.97 979.984 86.13C979.984 86.23 979.954 86.36 979.894 86.52L977.974 91.5C977.874 91.74 977.744 91.92 977.584 92.04C977.444 92.18 977.244 92.25 976.984 92.25H975.454Z" fill="#605454"/>
<path id="Tecnolog&#195;&#173;as utilizadas" d="M16.3678 60.112C15.9411 60.1089 15.5582 59.9569 15.219 59.6558C14.9227 59.3123 14.7761 58.9273 14.7792 58.5006L15.0152 25.3494L3.62353 25.2683C3.19687 25.2653 2.81394 25.1132 2.47475 24.8121C2.17852 24.4687 2.03192 24.0836 2.03496 23.657L2.08372 16.8091C2.08706 16.3398 2.23912 15.9569 2.53991 15.6604C2.88336 15.3641 3.26842 15.2175 3.69507 15.2206L38.1262 15.4657C38.5955 15.4691 38.9785 15.6211 39.275 15.9219C39.5715 16.2227 39.7181 16.6078 39.7148 17.0771L39.666 23.9249C39.6627 24.3942 39.5106 24.7772 39.2098 25.0737C38.909 25.3702 38.524 25.5168 38.0547 25.5135L26.6629 25.4324L26.4269 58.5835C26.4239 59.0102 26.2718 59.3931 25.9707 59.7323C25.6699 60.0289 25.2849 60.1754 24.8155 60.1721L16.3678 60.112ZM54.2497 61.0217C49.1299 60.9853 45.1078 59.5699 42.1837 56.7757C39.2595 53.9815 37.7522 49.9386 37.6619 44.6472L37.6779 42.4072C37.8844 37.3739 39.4696 33.4598 42.4336 30.6648C45.4405 27.8275 49.4399 26.4266 54.4318 26.4621C58.0584 26.4879 61.1037 27.2563 63.5676 28.7672C66.0746 30.2358 67.9376 32.2544 69.1567 34.8232C70.4184 37.3922 71.0374 40.3407 71.0137 43.6686L71.0028 45.2046C70.9997 45.6312 70.8477 46.0142 70.5466 46.3534C70.2458 46.6499 69.8608 46.7965 69.3914 46.7932L48.912 46.6473L48.9088 47.0953C48.9798 49.1012 49.4589 50.726 50.3461 51.9697C51.2333 53.2134 52.5302 53.8413 54.2368 53.8534C55.3034 53.861 56.1796 53.6539 56.8653 53.2321C57.5513 52.7677 58.1739 52.2174 58.7331 51.5814C59.1204 51.1148 59.421 50.8396 59.635 50.7558C59.8919 50.6296 60.2763 50.5684 60.7883 50.572L68.7241 50.6285C69.1081 50.6312 69.4272 50.7615 69.6814 51.0193C69.9785 51.2348 70.1257 51.5345 70.123 51.9185C70.1151 53.0278 69.466 54.3032 68.1757 55.7447C66.928 57.1866 65.1058 58.4323 62.7089 59.4819C60.3121 60.5315 57.4923 61.0448 54.2497 61.0217ZM59.7728 40.3885L59.7737 40.2605C59.7886 38.1699 59.3096 36.5238 58.3368 35.3222C57.407 34.0782 56.0888 33.4501 54.3821 33.4379C52.7182 33.4261 51.3912 34.0353 50.401 35.2656C49.4539 36.4536 48.9729 38.0929 48.958 40.1835L48.9571 40.3115L59.7728 40.3885ZM92.1848 61.2918C87.3636 61.2575 83.4688 59.9497 80.5004 57.3685C77.5324 54.7447 75.9581 51.128 75.7776 46.5186L75.7318 43.9582L75.8145 41.3348C76.0179 36.7281 77.6222 33.1341 80.6274 30.5528C83.6751 27.9717 87.6096 26.6984 92.4309 26.7327C96.0574 26.7585 99.1033 27.4416 101.569 28.7818C104.077 30.0797 105.922 31.6502 107.103 33.4933C108.328 35.2941 108.977 36.9414 109.052 38.4353C109.092 38.8623 108.94 39.2452 108.596 39.5841C108.295 39.8807 107.91 40.0273 107.441 40.0239L99.3128 39.966C98.8435 39.9627 98.4816 39.8534 98.2271 39.6383C97.9726 39.4231 97.7403 39.1015 97.53 38.6733C97.0274 37.347 96.3728 36.4037 95.5661 35.8433C94.802 35.2831 93.8014 34.9987 92.5641 34.9899C89.0655 34.9649 87.2361 37.2133 87.0759 41.735L86.9946 44.1664L87.0435 46.2788C87.1125 48.5834 87.591 50.2935 88.4791 51.4092C89.4101 52.4825 90.7289 53.0252 92.4356 53.0374C93.7582 53.0468 94.8055 52.7769 95.5774 52.2278C96.3493 51.6786 96.9747 50.7443 97.4534 49.425C97.6698 48.9999 97.9067 48.6816 98.1642 48.4701C98.4217 48.2586 98.7852 48.1545 99.2545 48.1578L107.382 48.2157C107.809 48.2187 108.171 48.3707 108.467 48.6714C108.807 48.9299 108.975 49.2724 108.972 49.6991C108.962 51.0644 108.353 52.6601 107.146 54.4862C105.981 56.3126 104.134 57.9208 101.607 59.3109C99.0801 60.6582 95.9394 61.3186 92.1848 61.2918ZM116.243 60.8231C115.773 60.8198 115.39 60.6677 115.094 60.3669C114.797 60.0661 114.651 59.6811 114.654 59.2118L114.868 29.1325C114.872 28.6632 115.024 28.2803 115.325 27.9837C115.625 27.6872 116.01 27.5406 116.48 27.544L123.84 27.5964C124.309 27.5997 124.692 27.7518 124.988 28.0526C125.327 28.3536 125.495 28.7388 125.492 29.2082L125.475 31.6401C126.637 30.2403 128.117 29.1202 129.915 28.2796C131.755 27.4394 133.828 27.0275 136.132 27.0439C139.886 27.0706 142.928 28.3723 145.256 30.9489C147.585 33.4829 148.733 37.0325 148.7 41.5977L148.573 59.4533C148.57 59.8799 148.418 60.2629 148.117 60.6021C147.816 60.8986 147.431 61.0452 146.962 61.0419L138.898 60.9844C138.472 60.9814 138.089 60.8293 137.749 60.5282C137.453 60.1848 137.307 59.7997 137.31 59.3731L137.434 41.9015C137.448 39.8962 136.969 38.3568 135.995 37.2832C135.021 36.1669 133.617 35.6022 131.783 35.5891C129.991 35.5764 128.579 36.121 127.547 37.223C126.515 38.2824 125.993 39.8147 125.978 41.82L125.854 59.2915C125.851 59.7182 125.699 60.1011 125.398 60.4403C125.097 60.7368 124.712 60.8834 124.243 60.8801L116.243 60.8231ZM171.506 61.8566C166.215 61.819 162.15 60.5313 159.309 57.9937C156.468 55.4561 154.936 51.9037 154.713 47.3367C154.674 46.7817 154.66 45.8216 154.669 44.4563C154.679 43.091 154.707 42.1312 154.754 41.5768C155.042 37.0561 156.667 33.5476 159.629 31.0513C162.591 28.5123 166.632 27.261 171.752 27.2975C176.914 27.3343 180.959 28.6431 183.884 31.224C186.81 33.7622 188.385 37.2935 188.609 41.8179C188.648 42.3729 188.662 43.333 188.652 44.6983C188.643 46.0636 188.614 47.0234 188.568 47.5778C188.279 52.1412 186.697 55.6713 183.82 58.1682C180.944 60.6651 176.839 61.8946 171.506 61.8566ZM171.561 54.0488C173.439 54.0622 174.829 53.5174 175.733 52.4145C176.637 51.2689 177.162 49.5233 177.306 47.1776C177.352 46.7512 177.38 45.898 177.389 44.6181C177.398 43.3381 177.383 42.4847 177.343 42.0577C177.231 39.7528 176.71 38.0211 175.78 36.8624C174.892 35.7041 173.531 35.1184 171.696 35.1053C168.155 35.0801 166.261 37.3707 166.015 41.977L165.933 44.5365L165.979 47.0969C166.047 49.4441 166.526 51.1969 167.413 52.3553C168.344 53.4712 169.727 54.0358 171.561 54.0488ZM196.491 61.3945C196.064 61.3915 195.681 61.2394 195.342 60.9383C195.046 60.5949 194.899 60.2098 194.902 59.7832L195.203 17.5442C195.206 17.0749 195.358 16.692 195.659 16.3955C196.003 16.0992 196.388 15.9526 196.814 15.9557L204.366 16.0094C204.835 16.0128 205.218 16.1648 205.515 16.4656C205.811 16.7664 205.958 17.1515 205.955 17.6208L205.654 59.8597C205.651 60.329 205.498 60.712 205.198 61.0085C204.897 61.305 204.512 61.4516 204.043 61.4483L196.491 61.3945ZM228.942 62.2656C223.651 62.2279 219.586 60.9403 216.745 58.4027C213.904 55.865 212.372 52.3127 212.149 47.7457C212.11 47.1907 212.096 46.2306 212.105 44.8653C212.115 43.5 212.143 42.5402 212.19 41.9858C212.478 37.4651 214.103 33.9566 217.065 31.4603C220.027 28.9213 224.068 27.67 229.188 27.7065C234.35 27.7432 238.395 29.0521 241.32 31.633C244.246 34.1712 245.821 37.7025 246.045 42.2269C246.084 42.7818 246.098 43.742 246.088 45.1073C246.079 46.4726 246.051 47.4324 246.004 47.9867C245.715 52.5501 244.133 56.0803 241.256 58.5772C238.38 61.0741 234.275 62.3036 228.942 62.2656ZM228.997 54.4578C230.875 54.4712 232.265 53.9264 233.169 52.8235C234.073 51.6779 234.598 49.9322 234.742 47.5865C234.788 47.1602 234.816 46.307 234.825 45.0271C234.834 43.7471 234.819 42.8936 234.779 42.4667C234.667 40.1618 234.146 38.4301 233.216 37.2714C232.328 36.1131 230.967 35.5273 229.132 35.5143C225.591 35.4891 223.697 37.7796 223.451 42.386L223.369 44.9455L223.415 47.5059C223.483 49.8531 223.962 51.6059 224.849 52.7642C225.78 53.8802 227.163 54.4447 228.997 54.4578ZM268.546 75.988C264.493 75.9591 261.212 75.2744 258.704 73.9338C256.197 72.5933 254.394 71.0657 253.297 69.3512C252.243 67.637 251.719 66.2039 251.728 65.0519C251.73 64.6679 251.903 64.3278 252.247 64.0316C252.59 63.7354 252.975 63.5888 253.402 63.5918L261.53 63.6497C261.956 63.6527 262.276 63.7403 262.488 63.9125C262.742 64.1277 262.975 64.4707 263.185 64.9415C263.604 65.9258 264.175 66.6979 264.896 67.2577C265.617 67.8602 266.746 68.1669 268.282 68.1779C270.244 68.1918 271.698 67.7115 272.644 66.7369C273.589 65.8049 274.07 64.2083 274.086 61.947L274.117 57.6592C271.924 60.0329 268.801 61.2054 264.747 61.1765C260.438 61.1458 257.141 59.8637 254.855 57.33C252.612 54.754 251.401 51.0546 251.222 46.2318L251.17 44.5034C251.207 39.3409 252.387 35.2959 254.712 32.3683C257.038 29.3982 260.461 27.9292 264.984 27.9614C267.16 27.9769 269.077 28.4172 270.735 29.2823C272.393 30.1048 273.793 31.2242 274.935 32.6403L274.952 30.2724C274.955 29.8031 275.107 29.4201 275.408 29.1236C275.751 28.8274 276.136 28.6808 276.563 28.6838L283.923 28.7362C284.392 28.7396 284.775 28.913 285.071 29.2564C285.41 29.5575 285.579 29.9214 285.576 30.348L285.356 61.1313C285.322 65.9951 283.845 69.6967 280.925 72.236C278.006 74.7753 273.879 76.0259 268.546 75.988ZM268.263 52.8813C270.183 52.895 271.616 52.3292 272.563 51.1839C273.51 49.996 274.054 48.5065 274.195 46.7154C274.239 46.4171 274.266 45.7559 274.273 44.7319C274.28 43.7506 274.263 43.1105 274.222 42.8115C274.15 41.019 273.627 39.5432 272.654 38.3842C271.724 37.1829 270.299 36.5754 268.379 36.5618C266.374 36.5475 264.919 37.1345 264.014 38.3227C263.11 39.511 262.607 41.1501 262.507 43.2401L262.433 44.6476C262.415 47.1649 262.828 49.1732 263.67 50.6726C264.513 52.1293 266.044 52.8655 268.263 52.8813ZM294.488 62.0923C294.019 62.089 293.636 61.9369 293.339 61.6361C293.043 61.3353 292.896 60.9503 292.9 60.481L293.114 30.4017C293.117 29.9324 293.269 29.5495 293.57 29.2529C293.871 28.9564 294.256 28.8098 294.725 28.8132L302.277 28.8669C302.746 28.8703 303.129 29.0223 303.426 29.3231C303.722 29.6239 303.869 30.009 303.866 30.4783L303.651 60.5575C303.648 60.9842 303.496 61.3671 303.195 61.7063C302.894 62.0028 302.509 62.1494 302.04 62.1461L294.488 62.0923ZM294.887 24.0142C294.205 24.0093 293.866 23.6656 293.871 22.9829C293.873 22.6416 293.982 22.365 294.197 22.1532L299.877 15.3455C300.308 14.8365 300.672 14.5191 300.972 14.3933C301.272 14.2247 301.699 14.1424 302.254 14.1464L310.702 14.2065C311.086 14.2093 311.383 14.3394 311.595 14.5969C311.807 14.8118 311.911 15.1112 311.908 15.4952C311.906 15.7938 311.798 16.0491 311.583 16.2609L303.022 23.1761C302.635 23.472 302.271 23.7041 301.929 23.8723C301.586 23.9979 301.138 24.0587 300.583 24.0547L294.887 24.0142ZM321.179 62.9224C318.918 62.9063 316.852 62.4649 314.981 61.5982C313.153 60.6892 311.71 59.4842 310.654 57.9833C309.641 56.4401 309.141 54.7511 309.154 52.9165C309.175 49.9726 310.387 47.6132 312.789 45.8382C315.234 44.0636 318.57 42.85 322.799 42.1974L330.808 41.0384L330.814 40.1424C330.825 38.5211 330.493 37.324 329.815 36.5512C329.138 35.7784 327.989 35.3862 326.368 35.3746C325.386 35.3676 324.575 35.5325 323.932 35.8693C323.29 36.2061 322.625 36.6707 321.938 37.2631C321.337 37.7709 320.887 38.109 320.587 38.2775C320.457 38.618 320.221 38.7869 319.879 38.7845L312.904 38.7348C312.477 38.7318 312.115 38.6012 311.818 38.3431C311.564 38.0426 311.46 37.7005 311.506 37.3169C311.556 36.1652 312.12 34.8892 313.197 33.4888C314.316 32.0887 315.989 30.8846 318.215 29.8764C320.483 28.8686 323.26 28.3763 326.545 28.3997C331.793 28.4371 335.668 29.638 338.168 32.0026C340.669 34.3244 341.905 37.448 341.877 41.3732L341.739 60.8287C341.736 61.2554 341.584 61.6383 341.283 61.9775C340.982 62.274 340.597 62.4206 340.128 62.4173L332.704 62.3644C332.277 62.3614 331.894 62.2093 331.555 61.9082C331.259 61.5648 331.112 61.1797 331.115 60.7531L331.131 58.5131C330.183 59.8291 328.853 60.9076 327.14 61.7488C325.47 62.5476 323.483 62.9388 321.179 62.9224ZM324.239 55.648C326.202 55.662 327.785 55.0332 328.989 53.7618C330.235 52.4906 330.867 50.6177 330.885 48.1431L330.891 47.2471L325.445 48.1684C321.6 48.8237 319.67 50.154 319.656 52.1593C319.648 53.2259 320.09 54.0824 320.982 54.7288C321.874 55.3325 322.959 55.6389 324.239 55.648ZM362.64 63.2176C359.185 63.193 356.287 62.6817 353.947 61.6837C351.65 60.686 349.952 59.5005 348.852 58.1273C347.753 56.7541 347.207 55.5342 347.214 54.4675C347.217 54.0409 347.369 53.7006 347.67 53.4468C348.013 53.1505 348.377 53.0038 348.761 53.0065L356.057 53.0585C356.313 53.0603 356.547 53.1686 356.758 53.3835C357.268 53.7284 357.65 54.0085 357.904 54.2237C358.838 54.913 359.645 55.4308 360.325 55.7769C361.049 56.0808 361.922 56.2363 362.946 56.2436C364.183 56.2524 365.188 56.0249 365.959 55.561C366.773 55.0548 367.184 54.3537 367.19 53.4578C367.195 52.7324 366.986 52.1549 366.562 51.7252C366.181 51.2959 365.416 50.8851 364.267 50.4929C363.118 50.058 361.372 49.5976 359.029 49.1115C355.493 48.361 352.77 47.1683 350.862 45.5333C348.997 43.856 348.074 41.6307 348.094 38.8574C348.106 37.1081 348.672 35.4481 349.793 33.8774C350.914 32.3067 352.565 31.0384 354.748 30.0726C356.974 29.1071 359.601 28.6351 362.631 28.6567C365.66 28.6782 368.302 29.1664 370.556 30.1211C372.811 31.0759 374.509 32.24 375.652 33.6135C376.837 34.9446 377.425 36.1649 377.418 37.2742C377.415 37.6582 377.263 37.9984 376.962 38.295C376.704 38.5918 376.383 38.7388 375.999 38.7361L369.343 38.6887C369.002 38.6863 368.683 38.5773 368.386 38.3619C367.833 38.0593 367.345 37.7358 366.92 37.3914C366.199 36.8316 365.519 36.4001 364.882 36.0969C364.244 35.7937 363.456 35.6387 362.517 35.632C361.408 35.6241 360.51 35.8737 359.823 36.3809C359.18 36.8883 358.855 37.5473 358.849 38.358C358.845 38.998 359.012 39.5325 359.35 39.9616C359.731 40.391 360.496 40.8231 361.645 41.258C362.837 41.6505 364.583 42.0682 366.884 42.5113C371.017 43.2661 374.016 44.5675 375.88 46.4155C377.787 48.2637 378.732 50.4252 378.714 52.8998C378.692 56.0571 377.266 58.5856 374.436 60.4855C371.607 62.3428 367.675 63.2535 362.64 63.2176ZM15.886 136.75C12.1315 136.724 9.11118 135.444 6.82516 132.91C4.53945 130.334 3.41285 126.763 3.44535 122.198L3.57249 104.342C3.57584 103.873 3.7279 103.49 4.02869 103.193C4.32947 102.897 4.71452 102.75 5.18385 102.753L13.1836 102.81C13.653 102.814 14.0359 102.966 14.3324 103.267C14.6716 103.568 14.8396 103.953 14.8362 104.422L14.7118 121.894C14.682 126.075 16.5231 128.179 20.235 128.205C22.027 128.218 23.4389 127.673 24.4707 126.571C25.5026 125.469 26.0255 123.937 26.0395 121.974L26.1639 104.503C26.1673 104.034 26.3193 103.651 26.6201 103.354C26.9636 103.058 27.3486 102.911 27.7753 102.914L35.7751 102.971C36.2444 102.975 36.6273 103.127 36.9239 103.427C37.2204 103.728 37.367 104.113 37.3636 104.583L37.1495 134.662C37.1464 135.088 36.9944 135.471 36.6933 135.811C36.3925 136.107 36.0074 136.254 35.5381 136.25L28.1143 136.198C27.6876 136.194 27.3047 136.042 26.9655 135.741C26.6693 135.398 26.5227 135.013 26.5257 134.586L26.543 132.154C24.3023 135.253 20.7499 136.785 15.886 136.75ZM61.6894 136.437C52.8577 136.374 48.4717 132.14 48.5316 123.735L48.6191 111.447L43.6272 111.411C43.1579 111.408 42.7536 111.256 42.4144 110.955C42.1179 110.654 41.9713 110.269 41.9746 109.8L42.0115 104.616C42.0149 104.146 42.1669 103.763 42.4677 103.467C42.8112 103.171 43.2176 103.024 43.6869 103.028L48.6787 103.063L48.7539 92.5034C48.7573 92.0341 48.9093 91.6511 49.2101 91.3546C49.5536 91.0584 49.9386 90.9118 50.3653 90.9148L57.7891 90.9677C58.2584 90.971 58.6414 91.1231 58.9379 91.4239C59.2344 91.7246 59.381 92.1097 59.3777 92.579L59.3025 103.139L67.3023 103.196C67.7716 103.199 68.1545 103.351 68.4511 103.652C68.7903 103.953 68.9582 104.338 68.9548 104.808L68.9179 109.991C68.9146 110.461 68.7412 110.843 68.3977 111.14C68.097 111.436 67.7119 111.583 67.2426 111.58L59.2428 111.523L59.1617 122.914C59.1392 126.072 60.3439 127.659 62.7759 127.676L67.7037 127.711C68.173 127.715 68.556 127.867 68.8525 128.167C69.149 128.468 69.2956 128.853 69.2923 129.323L69.2526 134.89C69.2496 135.317 69.0975 135.7 68.7965 136.039C68.4957 136.336 68.1106 136.482 67.6413 136.479L61.6894 136.437ZM76.3472 98.46C75.8779 98.4567 75.495 98.3046 75.1984 98.0038C74.9019 97.703 74.7553 97.318 74.7587 96.8487L74.7997 91.0888C74.803 90.6195 74.9551 90.2365 75.2559 89.94C75.5566 89.6435 75.9417 89.4969 76.411 89.5002L84.0908 89.5549C84.5602 89.5583 84.9431 89.7103 85.2396 90.0111C85.5361 90.3119 85.6827 90.6969 85.6794 91.1663L85.6384 96.9261C85.635 97.3954 85.483 97.7784 85.1822 98.0749C84.8814 98.3714 84.4964 98.518 84.027 98.5147L76.3472 98.46ZM76.1401 136.539C75.6708 136.536 75.2878 136.384 74.9913 136.083C74.6948 135.783 74.5482 135.397 74.5515 134.928L74.7657 104.849C74.769 104.38 74.9211 103.997 75.2219 103.7C75.5227 103.404 75.9077 103.257 76.377 103.26L83.9289 103.314C84.3982 103.317 84.7811 103.47 85.0776 103.77C85.3742 104.071 85.5208 104.456 85.5174 104.925L85.3032 135.005C85.3002 135.431 85.1481 135.814 84.8471 136.153C84.5463 136.45 84.1612 136.597 83.6919 136.593L76.1401 136.539ZM94.4521 136.67C94.0255 136.667 93.6425 136.515 93.3033 136.214C93.0071 135.87 92.8605 135.485 92.8636 135.059L93.1643 92.8196C93.1677 92.3503 93.3197 91.9674 93.6205 91.6708C93.964 91.3746 94.349 91.228 94.7757 91.231L102.327 91.2848C102.797 91.2881 103.18 91.4402 103.476 91.741C103.773 92.0418 103.919 92.4268 103.916 92.8962L103.615 135.135C103.612 135.604 103.46 135.987 103.159 136.284C102.858 136.58 102.473 136.727 102.004 136.724L94.4521 136.67ZM112.971 98.7208C112.502 98.7174 112.119 98.5654 111.823 98.2646C111.526 97.9638 111.379 97.5788 111.383 97.1094L111.424 91.3496C111.427 90.8803 111.579 90.4973 111.88 90.2008C112.181 89.9043 112.566 89.7577 113.035 89.761L120.715 89.8157C121.184 89.819 121.567 89.9711 121.864 90.2719C122.16 90.5727 122.307 90.9577 122.303 91.427L122.262 97.1869C122.259 97.6562 122.107 98.0391 121.806 98.3357C121.505 98.6322 121.12 98.7788 120.651 98.7755L112.971 98.7208ZM112.764 136.8C112.295 136.797 111.912 136.645 111.615 136.344C111.319 136.043 111.172 135.658 111.176 135.189L111.39 105.11C111.393 104.64 111.545 104.257 111.846 103.961C112.147 103.664 112.532 103.518 113.001 103.521L120.553 103.575C121.022 103.578 121.405 103.73 121.702 104.031C121.998 104.332 122.145 104.717 122.141 105.186L121.927 135.265C121.924 135.692 121.772 136.075 121.471 136.414C121.17 136.711 120.785 136.857 120.316 136.854L112.764 136.8ZM129.732 136.921C129.306 136.918 128.923 136.766 128.583 136.465C128.287 136.121 128.141 135.736 128.144 135.31L128.179 130.318C128.185 129.55 128.531 128.827 129.219 128.149L144.31 112L130.486 111.902C130.017 111.898 129.613 111.746 129.274 111.445C128.977 111.144 128.83 110.759 128.834 110.29L128.87 105.234C128.873 104.765 129.025 104.382 129.326 104.085C129.669 103.789 130.076 103.643 130.545 103.646L156.273 103.829C156.742 103.833 157.125 103.985 157.421 104.285C157.718 104.586 157.864 104.971 157.861 105.441L157.822 110.88C157.818 111.478 157.515 112.116 156.913 112.794L142.207 128.754L157.374 128.862C157.844 128.865 158.227 129.017 158.523 129.318C158.862 129.619 159.03 130.004 159.027 130.474L158.991 135.529C158.988 135.999 158.814 136.381 158.471 136.678C158.17 136.974 157.785 137.121 157.316 137.118L129.732 136.921ZM174.83 137.882C172.568 137.866 170.502 137.425 168.631 136.558C166.803 135.649 165.36 134.444 164.304 132.943C163.291 131.4 162.791 129.711 162.804 127.876C162.825 124.932 164.037 122.573 166.439 120.798C168.884 119.023 172.22 117.81 176.449 117.157L184.458 115.998L184.464 115.102C184.476 113.481 184.143 112.284 183.466 111.511C182.788 110.738 181.639 110.346 180.018 110.334C179.037 110.327 178.225 110.492 177.582 110.829C176.94 111.166 176.275 111.631 175.588 112.223C174.987 112.731 174.537 113.069 174.237 113.237C174.107 113.578 173.871 113.747 173.529 113.744L166.554 113.695C166.127 113.692 165.765 113.561 165.468 113.303C165.214 113.002 165.11 112.66 165.156 112.277C165.206 111.125 165.77 109.849 166.847 108.449C167.966 107.049 169.639 105.844 171.865 104.836C174.133 103.828 176.91 103.336 180.195 103.36C185.443 103.397 189.318 104.598 191.818 106.962C194.319 109.284 195.555 112.408 195.527 116.333L195.389 135.789C195.386 136.215 195.234 136.598 194.933 136.937C194.632 137.234 194.247 137.38 193.778 137.377L186.354 137.324C185.927 137.321 185.544 137.169 185.205 136.868C184.909 136.525 184.762 136.14 184.765 135.713L184.781 133.473C183.833 134.789 182.503 135.867 180.79 136.709C179.12 137.507 177.133 137.899 174.83 137.882ZM177.889 130.608C179.852 130.622 181.435 129.993 182.639 128.722C183.885 127.45 184.517 125.578 184.535 123.103L184.541 122.207L179.095 123.128C175.25 123.784 173.32 125.114 173.306 127.119C173.299 128.186 173.74 129.042 174.632 129.689C175.524 130.292 176.609 130.599 177.889 130.608ZM215.011 138.168C210.829 138.139 207.575 136.814 205.247 134.195C202.961 131.533 201.729 127.812 201.55 123.032L201.502 120.792L201.582 118.488C201.786 113.882 203.07 110.243 205.436 107.571C207.845 104.9 211.118 103.58 215.257 103.609C219.139 103.637 222.266 104.918 224.637 107.452L224.735 93.7565C224.738 93.2871 224.89 92.9042 225.191 92.6077C225.492 92.3111 225.877 92.1645 226.346 92.1679L234.154 92.2235C234.623 92.2268 235.006 92.3789 235.303 92.6797C235.599 92.9805 235.746 93.3655 235.743 93.8348L235.442 136.074C235.439 136.5 235.287 136.883 234.986 137.223C234.685 137.519 234.3 137.666 233.831 137.662L226.599 137.611C226.172 137.608 225.789 137.456 225.45 137.155C225.154 136.811 225.007 136.426 225.01 135.999L225.025 133.952C222.658 136.793 219.32 138.199 215.011 138.168ZM218.591 129.618C220.511 129.631 221.945 129.044 222.892 127.856C223.84 126.626 224.384 125.051 224.526 123.132C224.572 122.577 224.6 121.767 224.607 120.7C224.614 119.676 224.599 118.887 224.56 118.332C224.487 116.582 223.964 115.128 222.991 113.969C222.018 112.81 220.593 112.223 218.715 112.21C216.71 112.196 215.255 112.783 214.351 113.971C213.489 115.16 212.987 116.799 212.844 118.888C212.798 119.315 212.772 119.976 212.766 120.872C212.759 121.768 212.776 122.429 212.815 122.856C212.929 124.948 213.408 126.594 214.252 127.795C215.14 128.996 216.586 129.603 218.591 129.618ZM252.953 138.439C250.691 138.422 248.625 137.981 246.754 137.114C244.926 136.205 243.483 135 242.427 133.499C241.414 131.956 240.914 130.267 240.927 128.433C240.948 125.489 242.16 123.129 244.562 121.354C247.007 119.58 250.343 118.366 254.572 117.714L262.581 116.555L262.587 115.659C262.599 114.037 262.266 112.84 261.589 112.067C260.911 111.294 259.762 110.902 258.141 110.891C257.16 110.884 256.348 111.049 255.705 111.385C255.063 111.722 254.398 112.187 253.711 112.779C253.11 113.287 252.66 113.625 252.36 113.794C252.23 114.134 251.994 114.303 251.652 114.301L244.677 114.251C244.25 114.248 243.888 114.117 243.591 113.859C243.337 113.559 243.233 113.217 243.279 112.833C243.329 111.681 243.893 110.405 244.97 109.005C246.089 107.605 247.762 106.401 249.988 105.393C252.256 104.385 255.033 103.892 258.319 103.916C263.566 103.953 267.441 105.154 269.941 107.519C272.442 109.841 273.678 112.964 273.651 116.889L273.512 136.345C273.509 136.772 273.357 137.154 273.056 137.494C272.755 137.79 272.37 137.937 271.901 137.933L264.477 137.881C264.05 137.878 263.667 137.725 263.328 137.424C263.032 137.081 262.885 136.696 262.888 136.269L262.904 134.029C261.956 135.345 260.626 136.424 258.913 137.265C257.243 138.064 255.256 138.455 252.953 138.439ZM256.012 131.164C257.975 131.178 259.558 130.549 260.762 129.278C262.008 128.007 262.64 126.134 262.658 123.659L262.664 122.763L257.218 123.685C253.373 124.34 251.443 125.67 251.429 127.675C251.422 128.742 251.863 129.599 252.755 130.245C253.647 130.849 254.732 131.155 256.012 131.164ZM294.414 138.734C290.958 138.709 288.06 138.198 285.72 137.2C283.423 136.202 281.725 135.017 280.625 133.643C279.526 132.27 278.98 131.05 278.987 129.984C278.99 129.557 279.142 129.217 279.443 128.963C279.786 128.667 280.15 128.52 280.534 128.523L287.83 128.575C288.086 128.576 288.32 128.685 288.531 128.9C289.041 129.245 289.423 129.525 289.677 129.74C290.611 130.429 291.418 130.947 292.098 131.293C292.822 131.597 293.695 131.752 294.719 131.76C295.956 131.769 296.961 131.541 297.732 131.077C298.546 130.571 298.957 129.87 298.963 128.974C298.968 128.249 298.759 127.671 298.335 127.241C297.954 126.812 297.189 126.401 296.04 126.009C294.891 125.574 293.145 125.114 290.802 124.628C287.266 123.877 284.544 122.684 282.635 121.049C280.77 119.372 279.847 117.147 279.867 114.374C279.879 112.624 280.446 110.964 281.566 109.394C282.687 107.823 284.338 106.555 286.521 105.589C288.747 104.623 291.374 104.151 294.404 104.173C297.433 104.194 300.075 104.683 302.329 105.637C304.584 106.592 306.282 107.756 307.425 109.13C308.61 110.461 309.199 111.681 309.191 112.79C309.188 113.174 309.036 113.515 308.735 113.811C308.477 114.108 308.156 114.255 307.772 114.252L301.116 114.205C300.775 114.202 300.456 114.093 300.159 113.878C299.606 113.575 299.118 113.252 298.694 112.908C297.972 112.348 297.293 111.916 296.655 111.613C296.017 111.31 295.229 111.155 294.29 111.148C293.181 111.14 292.283 111.39 291.597 111.897C290.953 112.404 290.628 113.063 290.622 113.874C290.618 114.514 290.785 115.049 291.123 115.478C291.504 115.907 292.269 116.339 293.418 116.774C294.61 117.167 296.356 117.584 298.657 118.027C302.79 118.782 305.789 120.084 307.653 121.932C309.56 123.78 310.505 125.941 310.487 128.416C310.465 131.573 309.039 134.102 306.209 136.002C303.38 137.859 299.448 138.77 294.414 138.734Z" fill="#C21E4E"/>
</g>
</svg>
