<svg width="1100" height="129" viewBox="0 0 1100 129" fill="none" xmlns="http://www.w3.org/2000/svg">
<g id="Group 39">
<path id="REVELIO DATA LOVERS" d="M7.22214 67.047C6.74215 67.0436 6.31136 66.8725 5.92976 66.5338C5.5965 66.1474 5.43158 65.7142 5.435 65.2342L5.76823 18.4354C5.77199 17.9074 5.94306 17.4766 6.28145 17.143C6.66783 16.8098 7.10102 16.6449 7.581 16.6483L27.1645 16.7877C33.4524 16.8325 38.338 18.3073 41.8214 21.2122C45.3531 24.0694 47.1004 28.114 47.0631 33.3458C47.0392 36.7057 46.2269 39.556 44.6262 41.8967C43.0255 44.2374 40.8287 46.0218 38.0359 47.2499L47.7735 65.0317C47.9155 65.3207 47.9856 65.5852 47.9839 65.8252C47.9811 66.2092 47.8106 66.568 47.4722 66.9016C47.1822 67.1875 46.8451 67.3291 46.4612 67.3264L36.8854 67.2582C35.4934 67.2483 34.5141 66.5933 33.9473 65.2933L25.8523 49.3952L18.5085 49.3429L18.3947 65.3265C18.3909 65.8545 18.1958 66.2851 17.8095 66.6184C17.4711 66.952 17.0379 67.1169 16.5099 67.1131L7.22214 67.047ZM26.8611 39.1781C29.069 39.1939 30.7527 38.6778 31.9122 37.6301C33.0721 36.5343 33.6588 35.0264 33.6725 33.1065C33.6862 31.1865 33.1209 29.6705 31.9768 28.5583C30.8811 27.3985 29.2052 26.8105 26.9493 26.7944L18.6695 26.7355L18.5813 39.1192L26.8611 39.1781ZM57.0021 67.4015C56.5221 67.3981 56.0914 67.227 55.7098 66.8883C55.3765 66.5019 55.2116 66.0687 55.215 65.5887L55.5482 18.7899C55.552 18.2619 55.7231 17.8311 56.0614 17.4975C56.4478 17.1642 56.881 16.9993 57.361 17.0027L90.9841 17.2422C91.5121 17.2459 91.9429 17.417 92.2765 17.7554C92.6101 18.0938 92.775 18.5269 92.7713 19.0549L92.7231 25.8228C92.7197 26.3027 92.5486 26.7335 92.2099 27.1151C91.8715 27.4487 91.4383 27.6137 90.9103 27.6099L67.9429 27.4464L67.8737 37.1661L89.2572 37.3184C89.7851 37.3221 90.2158 37.5172 90.549 37.9036C90.8826 38.242 91.0475 38.6752 91.0438 39.2031L90.9992 45.467C90.9958 45.947 90.8247 46.3778 90.486 46.7594C90.1476 47.093 89.7144 47.2579 89.1864 47.2541L67.8029 47.1019L67.7317 57.1096L91.2751 57.2772C91.8031 57.281 92.2339 57.4521 92.5675 57.7905C92.9011 58.1288 93.066 58.562 93.0622 59.09L93.014 65.8578C93.0106 66.3378 92.8395 66.7686 92.5008 67.1502C92.1624 67.4838 91.7293 67.6487 91.2013 67.645L57.0021 67.4015ZM115.304 67.8166C113.768 67.8057 112.789 67.0787 112.367 65.6356L98.0077 19.4522L97.8683 18.8032C97.8711 18.4192 98.0175 18.0843 98.3075 17.7983C98.6459 17.4647 99.0311 17.2995 99.4631 17.3025L108.391 17.3661C109.063 17.3709 109.613 17.5668 110.043 17.9539C110.52 18.3413 110.829 18.7755 110.969 19.2565L120.956 52.5925L131.345 19.4016C131.492 18.9226 131.783 18.4927 132.218 18.1118C132.701 17.7312 133.278 17.5433 133.95 17.5481L142.95 17.6122C143.334 17.6149 143.669 17.7853 143.954 18.1233C144.288 18.4137 144.454 18.7509 144.451 19.1349L144.303 19.7819L129.287 65.7561C128.845 67.193 127.855 67.906 126.32 67.895L115.304 67.8166ZM152.625 68.0824C152.145 68.0789 151.714 67.9079 151.332 67.5691C150.999 67.1828 150.834 66.7496 150.838 66.2696L151.171 19.4708C151.175 18.9428 151.346 18.512 151.684 18.1784C152.07 17.8451 152.504 17.6802 152.984 17.6836L186.607 17.923C187.135 17.9268 187.566 18.0979 187.899 18.4363C188.233 18.7746 188.398 19.2078 188.394 19.7358L188.346 26.5036C188.342 26.9836 188.171 27.4144 187.832 27.796C187.494 28.1296 187.061 28.2945 186.533 28.2908L163.565 28.1272L163.496 37.847L184.88 37.9993C185.408 38.003 185.838 38.1981 186.172 38.5845C186.505 38.9228 186.67 39.356 186.666 39.884L186.622 46.1479C186.618 46.6279 186.447 47.0586 186.109 47.4402C185.77 47.7738 185.337 47.9388 184.809 47.935L163.426 47.7827L163.354 57.7905L186.898 57.9581C187.426 57.9619 187.856 58.133 188.19 58.4713C188.524 58.8097 188.689 59.2429 188.685 59.7709L188.637 66.5387C188.633 67.0187 188.462 67.4495 188.123 67.8311C187.785 68.1647 187.352 68.3296 186.824 68.3259L152.625 68.0824ZM198.608 68.4098C198.128 68.4064 197.697 68.2353 197.316 67.8966C196.982 67.5102 196.817 67.077 196.821 66.597L197.154 19.7982C197.158 19.2702 197.329 18.8394 197.667 18.5058C198.054 18.1725 198.487 18.0076 198.967 18.011L208.471 18.0787C208.999 18.0825 209.429 18.2536 209.763 18.5919C210.097 18.9303 210.261 19.3635 210.258 19.8915L209.989 57.6185L231.805 57.7739C232.332 57.7776 232.763 57.9727 233.096 58.3591C233.43 58.6975 233.595 59.1307 233.591 59.6586L233.54 66.8585C233.536 67.3385 233.365 67.7692 233.027 68.1508C232.688 68.4844 232.255 68.6494 231.727 68.6456L198.608 68.4098ZM241.568 68.7157C241.088 68.7123 240.657 68.5412 240.275 68.2025C239.942 67.8161 239.777 67.3829 239.781 66.9029L240.114 20.1041C240.118 19.5761 240.289 19.1453 240.627 18.8117C241.013 18.4784 241.447 18.3135 241.927 18.3169L251.574 18.3856C252.102 18.3894 252.533 18.5605 252.867 18.8989C253.248 19.2376 253.437 19.6709 253.434 20.1989L253.1 66.9977C253.097 67.5257 252.901 67.9564 252.515 68.2896C252.177 68.6232 251.744 68.7881 251.216 68.7844L241.568 68.7157ZM283.697 69.7357C276.93 69.6875 271.613 67.9936 267.749 64.654C263.885 61.3144 261.856 56.4278 261.661 49.9943C261.623 48.602 261.614 46.5378 261.633 43.8019C261.653 41.018 261.692 38.9302 261.75 37.5386C262.035 31.2045 264.158 26.3474 268.118 22.9676C272.126 19.54 277.443 17.8498 284.066 17.897C290.69 17.9441 295.982 19.7099 299.941 23.1942C303.901 26.6304 305.954 31.5172 306.101 37.8544C306.177 40.639 306.21 42.7273 306.2 44.1193C306.191 45.4632 306.128 47.5268 306.012 50.3101C305.726 56.7402 303.628 61.5974 299.716 64.8816C295.805 68.1658 290.465 69.7839 283.697 69.7357ZM283.771 59.3679C286.411 59.3867 288.505 58.6096 290.052 57.0366C291.647 55.4639 292.504 53.046 292.624 49.7827C292.739 46.9995 292.801 45.0319 292.81 43.8799C292.819 42.6319 292.785 40.6636 292.708 37.975C292.635 34.7104 291.812 32.2805 290.24 30.6853C288.667 29.09 286.585 28.2832 283.993 28.2647C281.401 28.2463 279.307 29.0234 277.712 30.5961C276.165 32.1691 275.307 34.587 275.14 37.8499C275.083 39.1936 275.045 41.1613 275.026 43.7533C275.008 46.2972 275.018 48.2653 275.056 49.6576C275.177 52.9226 276 55.3525 277.524 56.9474C279.049 58.5423 281.131 59.3491 283.771 59.3679ZM331.495 69.356C331.015 69.3526 330.584 69.1815 330.203 68.8428C329.87 68.4564 329.705 68.0232 329.708 67.5432L330.041 20.7444C330.045 20.2164 330.216 19.7856 330.555 19.452C330.941 19.1188 331.374 18.9539 331.854 18.9573L350.574 19.0906C357.629 19.1408 363.089 20.8597 366.953 24.2473C370.817 27.6349 372.823 32.5213 372.969 38.9065C373.007 40.2988 373.018 42.147 373.002 44.4509C372.985 46.7548 372.948 48.5786 372.891 49.9223C372.603 56.5924 370.576 61.5461 366.809 64.7833C363.09 67.9729 357.679 69.5424 350.575 69.4919L331.495 69.356ZM350.289 59.1216C353.456 59.1441 355.79 58.4167 357.288 56.9393C358.787 55.414 359.596 52.9957 359.716 49.6844C359.822 48.2932 359.883 46.4935 359.898 44.2856C359.914 42.0777 359.879 40.3014 359.792 38.9567C359.719 35.7401 358.872 33.358 357.251 31.8104C355.678 30.2632 353.308 29.4783 350.14 29.4557L342.94 29.4045L342.729 59.0677L350.289 59.1216ZM377.298 69.6821C376.914 69.6794 376.555 69.5329 376.222 69.2425C375.936 68.9044 375.794 68.5434 375.797 68.1594C375.799 67.8714 375.825 67.6556 375.874 67.5119L393.123 21.4096C393.271 20.8346 393.586 20.3569 394.069 19.9763C394.551 19.5957 395.177 19.4082 395.945 19.4136L406.601 19.4895C407.369 19.495 407.991 19.6914 408.468 20.0788C408.946 20.4662 409.254 20.9484 409.394 21.5254L425.913 67.8682L426.052 68.5173C426.049 68.9012 425.879 69.26 425.54 69.5936C425.25 69.8796 424.889 70.021 424.457 70.0179L415.601 69.9549C414.449 69.9467 413.685 69.4372 413.308 68.4265L410.553 61.0627L391.329 60.9258L388.541 68.2502C388.15 69.2554 387.354 69.7537 386.154 69.7452L377.298 69.6821ZM407.747 50.6745L401.186 31.6193L394.355 50.5791L407.747 50.6745ZM439.471 70.1248C438.991 70.1214 438.56 69.9504 438.179 69.6116C437.845 69.2252 437.681 68.7921 437.684 68.3121L437.95 31.017L425.134 30.9258C424.654 30.9223 424.223 30.7513 423.841 30.4125C423.508 30.0262 423.343 29.593 423.347 29.113L423.402 21.4092C423.405 20.8812 423.576 20.4504 423.915 20.1168C424.301 19.7835 424.734 19.6186 425.214 19.622L463.949 19.8979C464.477 19.9016 464.908 20.0727 465.242 20.4111C465.575 20.7495 465.74 21.1826 465.736 21.7106L465.682 29.4144C465.678 29.9424 465.507 30.3732 465.168 30.7068C464.83 31.0404 464.397 31.2053 463.869 31.2016L451.053 31.1103L450.788 68.4054C450.784 68.8854 450.613 69.3162 450.274 69.6978C449.936 70.0314 449.503 70.1963 448.975 70.1925L439.471 70.1248ZM463.921 70.2989C463.537 70.2962 463.178 70.1497 462.844 69.8593C462.559 69.5212 462.417 69.1602 462.42 68.7762C462.422 68.4882 462.448 68.2724 462.497 68.1287L479.745 22.0264C479.893 21.4514 480.209 20.9737 480.692 20.5931C481.174 20.2125 481.8 20.025 482.568 20.0304L493.223 20.1063C493.991 20.1118 494.614 20.3082 495.091 20.6956C495.568 21.083 495.877 21.5652 496.017 22.1422L512.535 68.485L512.675 69.1341C512.672 69.518 512.501 69.8768 512.163 70.2104C511.873 70.4964 511.512 70.6378 511.08 70.6347L502.224 70.5717C501.072 70.5635 500.308 70.054 499.931 69.0433L497.175 61.6795L477.952 61.5426L475.164 68.867C474.773 69.8722 473.977 70.3705 472.777 70.362L463.921 70.2989ZM494.369 51.2913L487.809 32.2361L480.978 51.1959L494.369 51.2913ZM533.639 70.7954C533.159 70.792 532.728 70.6209 532.346 70.2822C532.013 69.8958 531.848 69.4626 531.851 68.9826L532.185 22.1838C532.188 21.6558 532.359 21.225 532.698 20.8914C533.084 20.5581 533.517 20.3932 533.997 20.3966L543.501 20.4643C544.029 20.4681 544.46 20.6391 544.794 20.9775C545.127 21.3159 545.292 21.7491 545.288 22.2771L545.02 60.0041L566.835 60.1595C567.363 60.1632 567.794 60.3583 568.127 60.7447C568.461 61.0831 568.625 61.5163 568.622 62.0442L568.57 69.2441C568.567 69.724 568.396 70.1548 568.057 70.5364C567.719 70.87 567.286 71.035 566.758 71.0312L533.639 70.7954ZM594.752 71.9505C587.984 71.9024 582.668 70.2085 578.804 66.8689C574.939 63.5293 572.91 58.6427 572.716 52.2091C572.678 50.8168 572.669 48.7527 572.688 46.0168C572.708 43.2329 572.747 41.1451 572.805 39.7535C573.09 33.4193 575.212 28.5623 579.173 25.1824C583.181 21.7549 588.497 20.0647 595.121 20.1119C601.745 20.159 607.036 21.9247 610.996 25.409C614.955 28.8453 617.009 33.732 617.156 40.0693C617.232 42.8539 617.265 44.9422 617.255 46.3341C617.245 47.6781 617.183 49.7417 617.067 52.5249C616.781 58.9551 614.682 63.8123 610.771 67.0965C606.859 70.3807 601.52 71.9987 594.752 71.9505ZM594.826 61.5828C597.466 61.6016 599.559 60.8245 601.107 59.2515C602.702 57.6788 603.559 55.2608 603.678 51.9976C603.794 49.2144 603.856 47.2467 603.864 46.0948C603.873 44.8468 603.839 42.8785 603.762 40.1899C603.69 36.9253 602.867 34.4954 601.294 32.9001C599.722 31.3049 597.639 30.498 595.047 30.4796C592.455 30.4611 590.362 31.2382 588.767 32.8109C587.219 34.384 586.362 36.8019 586.195 40.0648C586.137 41.4084 586.099 43.3762 586.081 45.9681C586.063 48.5121 586.073 50.4802 586.111 51.8725C586.231 55.1374 587.054 57.5674 588.579 59.1623C590.104 60.7572 592.186 61.564 594.826 61.5828ZM638.205 71.5399C636.669 71.529 635.69 70.802 635.268 69.359L620.909 23.1755L620.769 22.5265C620.772 22.1425 620.918 21.8076 621.208 21.5216C621.547 21.188 621.932 21.0228 622.364 21.0259L631.292 21.0894C631.964 21.0942 632.514 21.2901 632.944 21.6772C633.421 22.0646 633.73 22.4988 633.87 22.9798L643.857 56.3158L654.246 23.1249C654.393 22.646 654.684 22.216 655.119 21.8351C655.602 21.4545 656.179 21.2666 656.851 21.2714L665.851 21.3355C666.235 21.3382 666.57 21.5086 666.855 21.8467C667.189 22.1371 667.355 22.4742 667.352 22.8582L667.203 23.5052L652.188 69.4794C651.745 70.9163 650.756 71.6293 649.22 71.6184L638.205 71.5399ZM675.526 71.8057C675.046 71.8023 674.615 71.6312 674.233 71.2925C673.9 70.9061 673.735 70.4729 673.738 69.9929L674.072 23.1941C674.075 22.6661 674.246 22.2353 674.585 21.9017C674.971 21.5685 675.404 21.4035 675.884 21.4069L709.508 21.6464C710.036 21.6501 710.466 21.8212 710.8 22.1596C711.134 22.498 711.298 22.9311 711.295 23.4591L711.247 30.227C711.243 30.707 711.072 31.1377 710.733 31.5193C710.395 31.8529 709.962 32.0179 709.434 32.0141L686.466 31.8506L686.397 41.5703L707.781 41.7226C708.309 41.7263 708.739 41.9214 709.072 42.3078C709.406 42.6462 709.571 43.0794 709.567 43.6073L709.523 49.8712C709.519 50.3512 709.348 50.782 709.009 51.1636C708.671 51.4972 708.238 51.6621 707.71 51.6583L686.326 51.5061L686.255 61.5138L709.799 61.6815C710.327 61.6852 710.757 61.8563 711.091 62.1947C711.425 62.5331 711.589 62.9662 711.586 63.4942L711.537 70.2621C711.534 70.742 711.363 71.1728 711.024 71.5544C710.686 71.888 710.253 72.053 709.725 72.0492L675.526 71.8057ZM721.509 72.1331C721.029 72.1297 720.598 71.9586 720.216 71.6199C719.883 71.2335 719.718 70.8003 719.722 70.3203L720.055 23.5215C720.059 22.9935 720.23 22.5627 720.568 22.2291C720.954 21.8959 721.388 21.731 721.868 21.7344L741.451 21.8738C747.739 21.9186 752.625 23.3934 756.108 26.2983C759.64 29.1555 761.387 33.2001 761.35 38.4319C761.326 41.7918 760.514 44.6421 758.913 46.9828C757.312 49.3235 755.115 51.1079 752.323 52.336L762.06 70.1178C762.202 70.4068 762.272 70.6713 762.271 70.9113C762.268 71.2953 762.097 71.6541 761.759 71.9877C761.469 72.2736 761.132 72.4152 760.748 72.4125L751.172 72.3443C749.78 72.3344 748.801 71.6794 748.234 70.3793L740.139 54.4813L732.795 54.429L732.681 70.4126C732.678 70.9406 732.482 71.3712 732.096 71.7045C731.758 72.0381 731.325 72.203 730.797 72.1992L721.509 72.1331ZM741.148 44.2642C743.356 44.2799 745.039 43.7639 746.199 42.7162C747.359 41.6204 747.945 40.1125 747.959 38.1926C747.973 36.2726 747.408 34.7566 746.263 33.6444C745.168 32.4846 743.492 31.8966 741.236 31.8805L732.956 31.8216L732.868 44.2053L741.148 44.2642ZM788.275 73.3285C783.715 73.2961 779.808 72.5962 776.554 71.229C773.3 69.8618 770.84 68.0923 769.175 65.9203C767.559 63.7008 766.712 61.2947 766.635 58.7021C766.638 58.3181 766.784 57.9831 767.074 57.6972C767.412 57.3636 767.798 57.1983 768.23 57.2014L777.301 57.266C777.877 57.2701 778.332 57.3933 778.667 57.6357C779.049 57.8304 779.431 58.1452 779.812 58.5799C780.427 59.8323 781.428 60.8715 782.814 61.6973C784.2 62.5232 786.045 62.9444 788.349 62.9608C791.085 62.9803 793.176 62.5632 794.622 61.7094C796.068 60.8557 796.797 59.6849 796.807 58.1969C796.815 57.1409 796.437 56.2742 795.674 55.5968C794.958 54.9196 793.811 54.3115 792.231 53.7722C790.65 53.2329 788.303 52.6162 785.188 51.922C779.436 50.681 775.129 48.8983 772.265 46.5739C769.45 44.2017 768.058 40.8558 768.089 36.5359C768.11 33.6079 768.944 30.9978 770.592 28.7055C772.241 26.4132 774.582 24.6298 777.615 23.3554C780.648 22.0809 784.18 21.4581 788.212 21.4868C792.388 21.5165 796.007 22.2623 799.069 23.7241C802.13 25.186 804.445 27.0265 806.014 29.2457C807.63 31.4173 808.479 33.5594 808.56 35.672C808.557 36.104 808.41 36.463 808.12 36.7489C807.83 37.0348 807.469 37.1763 807.037 37.1732L797.533 37.1055C796.957 37.1014 796.478 37.002 796.095 36.8073C795.761 36.6129 795.451 36.2987 795.166 35.8646C794.886 34.7586 794.101 33.817 792.81 33.0398C791.568 32.2629 790.01 31.8678 788.139 31.8545C785.979 31.8391 784.32 32.2113 783.162 32.9711C782.005 33.7309 781.421 34.8547 781.41 36.3427C781.403 37.3507 781.709 38.1929 782.328 38.8693C782.996 39.5461 784.047 40.1776 785.483 40.7638C786.967 41.3024 789.075 41.8694 791.807 42.4649C796.265 43.3127 799.81 44.3699 802.441 45.6367C805.12 46.8558 807.077 48.4538 808.311 50.4306C809.545 52.3594 810.152 54.7878 810.131 57.7158C810.108 60.9317 809.152 63.7329 807.263 66.1195C805.422 68.4585 802.841 70.2642 799.52 71.5366C796.247 72.7613 792.499 73.3586 788.275 73.3285Z" fill="#C21E4E"/>
</g>
</svg>
