<svg width="1099" height="171" viewBox="0 0 1099 171" fill="none" xmlns="http://www.w3.org/2000/svg">
<g id="Group 30">
<path id="CONTACTO" d="M64.2589 169.831C47.0989 169.823 33.6609 165.676 23.945 157.392C14.3491 148.987 9.25504 136.865 8.66279 121.024C8.54438 117.784 8.48697 112.504 8.49055 105.184C8.49419 97.7441 8.55683 92.3442 8.67848 88.9842C9.28611 73.3845 14.512 61.3871 24.3561 52.9919C34.2003 44.4767 47.5224 40.2232 64.3224 40.2314C74.8824 40.2366 84.3615 42.0413 92.7597 45.6454C101.158 49.1295 107.756 54.1727 112.552 60.7751C117.469 67.2575 119.985 74.8787 120.101 83.6388L120.101 83.9988C120.1 84.9588 119.68 85.7986 118.84 86.5181C118.119 87.1178 117.279 87.4174 116.319 87.4169L92.0193 87.405C90.4593 87.4043 89.2594 87.1037 88.4197 86.5033C87.5801 85.7828 86.8607 84.5225 86.2616 82.7222C84.5846 76.6014 81.9466 72.3401 78.3478 69.9383C74.7491 67.4166 70.0097 66.1542 64.1297 66.1514C49.9697 66.1444 42.6458 74.0608 42.158 89.9006C42.0365 93.1406 41.974 98.1205 41.9707 104.841C41.9674 111.561 42.0249 116.661 42.1432 120.141C42.6155 135.981 49.9316 143.904 64.0916 143.911C69.9716 143.914 74.7722 142.657 78.4935 140.138C82.2147 137.5 84.7968 133.241 86.2397 127.362C86.7206 125.562 87.3812 124.363 88.2215 123.763C89.0618 123.044 90.322 122.684 92.002 122.685L116.302 122.697C117.382 122.697 118.282 123.058 119.001 123.778C119.841 124.499 120.201 125.399 120.08 126.479C119.956 135.239 117.432 142.917 112.509 149.515C107.706 155.993 101.103 161.029 92.7015 164.625C84.2998 168.101 74.8189 169.837 64.2589 169.831ZM190.466 169.893C173.546 169.885 160.228 165.738 150.512 157.454C140.796 149.169 135.642 136.986 135.05 120.906C134.931 117.426 134.874 112.266 134.877 105.426C134.881 98.466 134.943 93.246 135.065 89.7661C135.673 73.9264 140.899 61.7489 150.743 53.2338C160.707 44.5986 173.969 40.2851 190.529 40.2932C207.089 40.3013 220.347 44.6278 230.303 53.2727C240.259 61.7976 245.473 73.9801 245.945 89.8204C246.181 96.7805 246.299 102.001 246.297 105.481C246.296 108.841 246.173 114 245.93 120.96C245.322 137.04 240.156 149.218 230.432 157.493C220.708 165.768 207.386 169.902 190.466 169.893ZM190.478 143.973C197.078 143.976 202.299 141.999 206.141 138.041C210.103 134.083 212.206 128.024 212.45 119.864C212.694 112.904 212.816 107.984 212.817 105.104C212.819 101.984 212.701 97.0641 212.465 90.344C212.229 82.1839 210.132 76.1228 206.173 72.1609C202.215 68.1989 196.996 66.2164 190.516 66.2132C184.036 66.21 178.815 68.1875 174.853 72.1456C171.012 76.1037 168.909 82.1627 168.545 90.3225C168.423 93.6824 168.361 98.6024 168.357 105.082C168.354 111.442 168.412 116.362 168.53 119.842C168.886 128.003 170.983 134.064 174.821 138.026C178.659 141.987 183.878 143.97 190.478 143.973ZM271.631 168.133C270.431 168.132 269.351 167.712 268.392 166.871C267.552 165.911 267.133 164.831 267.133 163.631L267.191 46.6307C267.191 45.3107 267.612 44.231 268.452 43.3914C269.413 42.5518 270.493 42.1324 271.693 42.1329L290.773 42.1423C293.773 42.1438 295.812 43.2848 296.891 45.5653L340.777 114.707L340.811 46.6668C340.811 45.3468 341.232 44.267 342.072 43.4274C343.033 42.5879 344.113 42.1684 345.313 42.169L366.913 42.1796C368.233 42.1802 369.313 42.6007 370.152 43.4411C370.992 44.2816 371.411 45.3618 371.411 46.6818L371.353 163.502C371.353 164.822 370.932 165.962 370.092 166.921C369.251 167.761 368.171 168.18 366.851 168.18L347.591 168.17C344.951 168.169 342.972 167.028 341.653 164.747L297.765 98.1257L297.733 163.646C297.733 164.846 297.312 165.926 296.472 166.885C295.631 167.725 294.551 168.144 293.231 168.144L271.631 168.133ZM428.726 168.21C427.526 168.209 426.446 167.789 425.487 166.948C424.647 165.988 424.228 164.908 424.228 163.708L424.274 70.4676L392.234 70.452C391.034 70.4514 389.954 70.0308 388.994 69.1904C388.155 68.23 387.735 67.1498 387.736 65.9498L387.745 46.6898C387.746 45.3698 388.167 44.29 389.007 43.4504C389.967 42.6108 391.048 42.1914 392.248 42.192L489.088 42.2394C490.408 42.24 491.487 42.6605 492.327 43.5009C493.167 44.3414 493.586 45.4216 493.585 46.7416L493.576 66.0016C493.575 67.3216 493.155 68.4014 492.314 69.2409C491.474 70.0805 490.394 70.5 489.074 70.4994L457.034 70.4837L456.988 163.724C456.988 164.924 456.567 166.003 455.727 166.963C454.886 167.803 453.806 168.222 452.486 168.221L428.726 168.21ZM489.853 168.24C488.893 168.239 487.993 167.879 487.153 167.158C486.434 166.318 486.074 165.418 486.075 164.458C486.075 163.738 486.135 163.198 486.256 162.838L528.612 47.2987C528.973 45.8589 529.753 44.6593 530.954 43.6999C532.154 42.7404 533.715 42.2612 535.635 42.2621L562.275 42.2752C564.195 42.2761 565.754 42.7569 566.954 43.7175C568.153 44.6781 568.933 45.8784 569.292 47.3186L611.356 162.899L611.715 164.519C611.714 165.479 611.294 166.379 610.453 167.219C609.733 167.938 608.833 168.298 607.753 168.297L585.613 168.287C582.733 168.285 580.814 167.024 579.855 164.504L572.844 146.14L524.784 146.117L517.935 164.474C516.974 166.993 514.993 168.252 511.993 168.251L489.853 168.24ZM565.656 120.217L548.94 72.6887L532.176 120.2L565.656 120.217ZM674.923 170.13C657.763 170.122 644.325 165.975 634.609 157.691C625.013 149.286 619.919 137.163 619.327 121.323C619.208 118.083 619.151 112.803 619.155 105.483C619.158 98.043 619.221 92.6431 619.343 89.2831C619.95 73.6834 625.176 61.686 635.02 53.2908C644.864 44.7756 658.186 40.5221 674.986 40.5304C685.546 40.5355 695.025 42.3402 703.424 45.9443C711.822 49.4284 718.42 54.4716 723.216 61.074C728.133 67.5564 730.649 75.1776 730.765 83.9377L730.765 84.2977C730.765 85.2577 730.344 86.0975 729.504 86.817C728.783 87.4167 727.943 87.7163 726.983 87.7158L702.683 87.7039C701.123 87.7032 699.923 87.4026 699.084 86.8022C698.244 86.0817 697.525 84.8214 696.926 83.0211C695.249 76.9003 692.611 72.639 689.012 70.2372C685.413 67.7155 680.674 66.4531 674.794 66.4503C660.634 66.4433 653.31 74.3597 652.822 90.1995C652.7 93.4395 652.638 98.4194 652.635 105.139C652.631 111.859 652.689 116.959 652.807 120.44C653.28 136.28 660.596 144.203 674.756 144.21C680.636 144.213 685.436 142.955 689.157 140.437C692.879 137.799 695.461 133.54 696.904 127.661C697.385 125.861 698.045 124.662 698.885 124.062C699.726 123.342 700.986 122.983 702.666 122.984L726.966 122.996C728.046 122.996 728.946 123.357 729.665 124.077C730.505 124.798 730.865 125.698 730.744 126.778C730.62 135.538 728.096 143.216 723.173 149.814C718.37 156.292 711.767 161.328 703.366 164.924C694.964 168.4 685.483 170.136 674.923 170.13ZM781.871 168.383C780.671 168.382 779.591 167.962 778.631 167.121C777.792 166.161 777.372 165.08 777.373 163.88L777.418 70.6405L745.378 70.6248C744.178 70.6242 743.099 70.2037 742.139 69.3632C741.299 68.4028 740.88 67.3226 740.881 66.1226L740.89 46.8626C740.891 45.5426 741.311 44.4628 742.152 43.6232C743.112 42.7837 744.192 42.3642 745.392 42.3648L842.232 42.4122C843.552 42.4129 844.632 42.8334 845.472 43.6738C846.311 44.5142 846.731 45.5944 846.73 46.9144L846.721 66.1744C846.72 67.4944 846.299 68.5742 845.459 69.4138C844.619 70.2534 843.538 70.6729 842.218 70.6722L810.178 70.6565L810.133 163.897C810.132 165.097 809.712 166.176 808.871 167.136C808.031 167.976 806.951 168.395 805.631 168.394L781.871 168.383ZM912.575 170.247C895.655 170.238 882.337 166.092 872.621 157.807C862.905 149.522 857.751 137.34 857.159 121.26C857.041 117.779 856.983 112.619 856.987 105.779C856.99 98.8195 857.052 93.5995 857.174 90.1195C857.782 74.2798 863.008 62.1024 872.852 53.5872C882.816 44.9521 896.078 40.6386 912.638 40.6467C929.198 40.6548 942.456 44.9813 952.412 53.6262C962.368 62.151 967.582 74.3336 968.054 90.1738C968.291 97.1339 968.408 102.354 968.406 105.834C968.405 109.194 968.282 114.354 968.039 121.314C967.431 137.394 962.265 149.571 952.541 157.846C942.817 166.121 929.495 170.255 912.575 170.247ZM912.588 144.327C919.188 144.33 924.409 142.352 928.251 138.394C932.212 134.436 934.315 128.377 934.559 120.217C934.803 113.258 934.925 108.338 934.927 105.458C934.928 102.338 934.811 97.4175 934.574 90.6974C934.338 82.5373 932.241 76.4763 928.283 72.5143C924.325 68.5524 919.106 66.5698 912.626 66.5667C906.146 66.5635 900.925 68.5409 896.963 72.499C893.121 76.4571 891.018 82.5161 890.654 90.6759C890.532 94.0359 890.47 98.9558 890.467 105.436C890.464 111.796 890.521 116.716 890.639 120.196C890.995 128.356 893.092 134.417 896.931 138.379C900.769 142.341 905.988 144.323 912.588 144.327Z" fill="#C21E4E"/>
</g>
</svg>
