<svg width="1100" height="129" viewBox="0 0 1100 129" fill="none" xmlns="http://www.w3.org/2000/svg">
<g id="Group 36">
<path id="RED SOCIAL MBTI" d="M7.22214 67.047C6.74215 67.0436 6.31136 66.8725 5.92976 66.5338C5.5965 66.1474 5.43158 65.7142 5.435 65.2342L5.76823 18.4354C5.77199 17.9074 5.94306 17.4766 6.28145 17.143C6.66783 16.8098 7.10102 16.6449 7.581 16.6483L27.1645 16.7877C33.4524 16.8325 38.338 18.3073 41.8214 21.2122C45.3531 24.0694 47.1004 28.114 47.0631 33.3458C47.0392 36.7057 46.2269 39.556 44.6262 41.8967C43.0255 44.2374 40.8287 46.0218 38.0359 47.2499L47.7735 65.0317C47.9155 65.3207 47.9856 65.5852 47.9839 65.8252C47.9811 66.2092 47.8106 66.568 47.4722 66.9016C47.1822 67.1875 46.8451 67.3291 46.4612 67.3264L36.8854 67.2582C35.4934 67.2483 34.5141 66.5933 33.9473 65.2933L25.8523 49.3952L18.5085 49.3429L18.3947 65.3265C18.3909 65.8545 18.1958 66.2851 17.8095 66.6184C17.4711 66.952 17.0379 67.1169 16.5099 67.1131L7.22214 67.047ZM26.8611 39.1781C29.069 39.1939 30.7527 38.6778 31.9122 37.6301C33.0721 36.5343 33.6588 35.0264 33.6725 33.1065C33.6862 31.1865 33.1209 29.6705 31.9768 28.5583C30.8811 27.3985 29.2052 26.8105 26.9493 26.7944L18.6695 26.7355L18.5813 39.1192L26.8611 39.1781ZM57.0021 67.4015C56.5221 67.3981 56.0914 67.227 55.7098 66.8883C55.3765 66.5019 55.2116 66.0687 55.215 65.5887L55.5482 18.7899C55.552 18.2619 55.7231 17.8311 56.0614 17.4975C56.4478 17.1642 56.881 16.9993 57.361 17.0027L90.9841 17.2422C91.5121 17.2459 91.9429 17.417 92.2765 17.7554C92.6101 18.0938 92.775 18.5269 92.7713 19.0549L92.7231 25.8228C92.7197 26.3027 92.5486 26.7335 92.2099 27.1151C91.8715 27.4487 91.4383 27.6137 90.9103 27.6099L67.9429 27.4464L67.8737 37.1661L89.2572 37.3184C89.7851 37.3221 90.2158 37.5172 90.549 37.9036C90.8826 38.242 91.0475 38.6752 91.0438 39.2031L90.9992 45.467C90.9958 45.947 90.8247 46.3778 90.486 46.7594C90.1476 47.093 89.7144 47.2579 89.1864 47.2541L67.8029 47.1019L67.7317 57.1096L91.2751 57.2772C91.8031 57.281 92.2339 57.4521 92.5675 57.7905C92.9011 58.1288 93.066 58.562 93.0622 59.09L93.014 65.8578C93.0106 66.3378 92.8395 66.7686 92.5008 67.1502C92.1624 67.4838 91.7293 67.6487 91.2013 67.645L57.0021 67.4015ZM102.985 67.7289C102.505 67.7255 102.075 67.5544 101.693 67.2157C101.36 66.8293 101.195 66.3961 101.198 65.9161L101.531 19.1173C101.535 18.5893 101.706 18.1585 102.045 17.8249C102.431 17.4917 102.864 17.3267 103.344 17.3302L122.064 17.4635C129.12 17.5137 134.579 19.2326 138.443 22.6202C142.307 26.0078 144.313 30.8942 144.459 37.2794C144.497 38.6717 144.508 40.5199 144.492 42.8238C144.475 45.1277 144.438 46.9515 144.381 48.2951C144.093 54.9653 142.066 59.919 138.299 63.1562C134.58 66.3458 129.169 67.9153 122.065 67.8647L102.985 67.7289ZM121.779 57.4944C124.947 57.517 127.28 56.7896 128.778 55.3122C130.277 53.7869 131.087 51.3686 131.206 48.0573C131.312 46.6661 131.373 44.8664 131.389 42.6585C131.404 40.4506 131.369 38.6743 131.283 37.3296C131.209 34.113 130.362 31.7309 128.741 30.1833C127.168 28.6361 124.798 27.8512 121.63 27.8286L114.43 27.7774L114.219 57.4406L121.779 57.4944ZM186.837 69.046C182.277 69.0135 178.37 68.3137 175.116 66.9465C171.862 65.5793 169.402 63.8097 167.738 61.6378C166.121 59.4182 165.274 57.0121 165.197 54.4195C165.2 54.0355 165.346 53.7006 165.636 53.4146C165.974 53.081 166.36 52.9158 166.792 52.9188L175.863 52.9834C176.439 52.9875 176.894 53.1108 177.229 53.3532C177.611 53.5479 177.993 53.8626 178.374 54.2973C178.989 55.5498 179.99 56.5889 181.376 57.4148C182.762 58.2407 184.607 58.6618 186.911 58.6782C189.647 58.6977 191.738 58.2806 193.184 57.4269C194.63 56.5732 195.359 55.4023 195.369 53.9143C195.377 52.8584 194.999 51.9917 194.236 51.3142C193.521 50.6371 192.373 50.0289 190.793 49.4896C189.212 48.9504 186.865 48.3337 183.75 47.6395C177.998 46.3985 173.691 44.6158 170.827 42.2913C168.012 39.9192 166.62 36.5732 166.651 32.2533C166.672 29.3254 167.506 26.7153 169.155 24.4229C170.803 22.1306 173.144 20.3472 176.177 19.0728C179.21 17.7984 182.743 17.1755 186.774 17.2042C190.95 17.2339 194.569 17.9797 197.631 19.4416C200.692 20.9034 203.007 22.7439 204.576 24.9632C206.192 27.1347 207.041 29.2768 207.122 31.3895C207.119 31.8214 206.972 32.1804 206.682 32.4664C206.392 32.7523 206.031 32.8937 205.599 32.8907L196.095 32.823C195.519 32.8189 195.04 32.7195 194.658 32.5247C194.323 32.3303 194.013 32.0161 193.728 31.5821C193.448 30.4761 192.663 29.5345 191.372 28.7572C190.13 27.9804 188.573 27.5853 186.701 27.572C184.541 27.5566 182.882 27.9288 181.725 28.6885C180.567 29.4483 179.983 30.5722 179.972 32.0602C179.965 33.0681 180.271 33.9103 180.89 34.5868C181.558 35.2635 182.609 35.895 184.045 36.4813C185.529 37.0199 187.637 37.5869 190.369 38.1823C194.827 39.0301 198.372 40.0874 201.003 41.3541C203.682 42.5732 205.639 44.1712 206.873 46.1481C208.107 48.0769 208.714 50.5053 208.693 53.4332C208.67 56.6491 207.714 59.4504 205.825 61.837C203.984 64.176 201.403 65.9816 198.082 67.254C194.81 68.4787 191.061 69.0761 186.837 69.046ZM236.378 69.3987C229.61 69.3505 224.294 67.6567 220.43 64.3171C216.566 60.9775 214.536 56.0909 214.342 49.6573C214.304 48.265 214.295 46.2009 214.314 43.465C214.334 40.681 214.373 38.5933 214.431 37.2016C214.716 30.8675 216.839 26.0105 220.799 22.6306C224.807 19.2031 230.124 17.5129 236.747 17.56C243.371 17.6072 248.663 19.3729 252.622 22.8572C256.582 26.2935 258.635 31.1802 258.782 37.5174C258.858 40.3021 258.891 42.3904 258.881 43.7823C258.872 45.1263 258.809 47.1899 258.693 49.9731C258.407 56.4033 256.309 61.2604 252.397 64.5447C248.486 67.8289 243.146 69.4469 236.378 69.3987ZM236.452 59.031C239.092 59.0498 241.186 58.2727 242.733 56.6997C244.328 55.127 245.185 52.709 245.305 49.4458C245.42 46.6625 245.482 44.6949 245.491 43.543C245.499 42.295 245.465 40.3267 245.389 37.6381C245.316 34.3735 244.493 31.9436 242.92 30.3483C241.348 28.7531 239.265 27.9462 236.674 27.9278C234.082 27.9093 231.988 28.6864 230.393 30.2591C228.846 31.8321 227.988 34.2501 227.821 37.513C227.763 38.8566 227.725 40.8244 227.707 43.4163C227.689 45.9603 227.699 47.9284 227.737 49.3207C227.858 52.5856 228.68 55.0156 230.205 56.6105C231.73 58.2054 233.812 59.0122 236.452 59.031ZM287.707 69.7642C280.843 69.7154 275.479 68.0211 271.615 64.6815C267.799 61.2943 265.793 56.4319 265.598 50.0943C265.559 48.798 265.55 46.6859 265.571 43.758C265.593 40.782 265.632 38.6223 265.689 37.2786C265.974 31.0405 268.096 26.2555 272.056 22.9236C276.016 19.5437 281.356 17.8777 288.076 17.9255C292.3 17.9556 296.087 18.7026 299.436 20.1665C302.786 21.5824 305.412 23.6171 307.313 26.2707C309.262 28.8767 310.249 31.9318 310.272 35.436L310.271 35.58C310.268 35.964 310.098 36.2988 309.76 36.5844C309.47 36.8223 309.133 36.94 308.749 36.9372L299.029 36.868C298.405 36.8636 297.926 36.7401 297.592 36.4978C297.258 36.2074 296.974 35.7013 296.739 34.9796C296.084 32.5269 295.04 30.8154 293.607 29.8452C292.174 28.827 290.282 28.3095 287.93 28.2928C282.266 28.2524 279.316 31.3995 279.079 37.734C279.021 39.0296 278.983 41.0214 278.964 43.7093C278.945 46.3972 278.954 48.4374 278.992 49.8297C279.139 56.1669 282.045 59.3556 287.709 59.396C290.061 59.4127 291.984 58.9224 293.479 57.925C294.975 56.8796 296.019 55.183 296.612 52.8352C296.809 52.1166 297.076 51.6385 297.414 51.4009C297.752 51.1153 298.257 50.9749 298.929 50.9797L308.649 51.0489C309.081 51.0519 309.439 51.1985 309.725 51.4885C310.059 51.7789 310.201 52.1399 310.15 52.5716C310.077 56.0752 309.047 59.1399 307.06 61.7658C305.122 64.3441 302.467 66.3412 299.097 67.7573C295.727 69.1253 291.931 69.7943 287.707 69.7642ZM319.402 69.2699C318.922 69.2665 318.491 69.0954 318.109 68.7567C317.776 68.3703 317.611 67.9371 317.615 67.4571L317.948 20.6583C317.952 20.1303 318.123 19.6995 318.461 19.3659C318.847 19.0327 319.281 18.8677 319.761 18.8712L329.408 18.9399C329.936 18.9436 330.367 19.1147 330.701 19.4531C331.082 19.7918 331.271 20.2252 331.268 20.7531L330.934 67.552C330.931 68.0799 330.735 68.5106 330.349 68.8438C330.011 69.1774 329.577 69.3423 329.05 69.3386L319.402 69.2699ZM338.065 69.4028C337.681 69.4 337.322 69.2535 336.988 68.9631C336.703 68.6251 336.561 68.264 336.564 67.8801C336.566 67.5921 336.591 67.3762 336.64 67.2326L353.889 21.1302C354.037 20.5553 354.353 20.0775 354.835 19.6969C355.318 19.3164 355.943 19.1288 356.711 19.1343L367.367 19.2101C368.135 19.2156 368.758 19.4121 369.235 19.7995C369.712 20.1869 370.021 20.6691 370.161 21.2461L386.679 67.5889L386.819 68.2379C386.816 68.6219 386.645 68.9807 386.307 69.3143C386.017 69.6002 385.656 69.7417 385.224 69.7386L376.368 69.6755C375.216 69.6673 374.452 69.1579 374.075 68.1472L371.319 60.7833L352.096 60.6465L349.308 67.9708C348.916 68.976 348.121 69.4744 346.921 69.4658L338.065 69.4028ZM368.513 50.3951L361.953 31.3399L355.121 50.2997L368.513 50.3951ZM394.283 69.8031C393.803 69.7997 393.372 69.6286 392.99 69.2899C392.657 68.9035 392.492 68.4703 392.496 67.9903L392.829 21.1915C392.833 20.6635 393.004 20.2327 393.342 19.8991C393.728 19.5659 394.162 19.4009 394.642 19.4044L404.145 19.472C404.673 19.4758 405.104 19.6469 405.438 19.9852C405.771 20.3236 405.936 20.7568 405.932 21.2848L405.664 59.0118L427.479 59.1672C428.007 59.1709 428.438 59.366 428.771 59.7524C429.105 60.0908 429.27 60.524 429.266 61.052L429.215 68.2518C429.211 68.7318 429.04 69.1626 428.701 69.5441C428.363 69.8777 427.93 70.0427 427.402 70.0389L394.283 69.8031ZM450.883 70.2061C450.403 70.2027 449.972 70.0316 449.59 69.6929C449.257 69.3065 449.092 68.8733 449.096 68.3933L449.429 21.5945C449.433 21.0665 449.604 20.6357 449.942 20.3021C450.328 19.9689 450.762 19.804 451.242 19.8074L459.017 19.8627C460.169 19.8709 461.006 20.4049 461.526 21.4646L474.036 44.2343L486.869 21.6451C487.405 20.5929 488.249 20.0709 489.401 20.0791L497.105 20.1339C497.632 20.1377 498.063 20.3088 498.397 20.6472C498.778 20.9859 498.967 21.4192 498.964 21.9472L498.63 68.746C498.627 69.274 498.432 69.7047 498.045 70.0379C497.707 70.3715 497.274 70.5364 496.746 70.5327L488.178 70.4717C487.65 70.4679 487.195 70.2967 486.813 69.9579C486.48 69.6196 486.315 69.1864 486.319 68.6584L486.511 41.6591L478.34 56.6493C477.708 57.7488 476.864 58.2948 475.808 58.2873L472.064 58.2606C471.44 58.2562 470.937 58.1086 470.556 57.8179C470.174 57.5271 469.84 57.1168 469.556 56.5867L461.528 41.4812L461.335 68.4805C461.332 68.9605 461.161 69.3913 460.822 69.7729C460.484 70.1065 460.051 70.2714 459.523 70.2676L450.883 70.2061ZM510.506 70.6307C510.026 70.6272 509.596 70.4562 509.214 70.1174C508.881 69.7311 508.716 69.2979 508.719 68.8179L509.052 22.0191C509.056 21.4911 509.227 21.0603 509.566 20.7267C509.952 20.3934 510.385 20.2285 510.865 20.2319L532.825 20.3883C538.872 20.4314 543.351 21.7113 546.262 24.2281C549.22 26.6972 550.683 30.2117 550.651 34.7716C550.634 37.1715 549.995 39.207 548.735 40.8781C547.524 42.5015 546.147 43.6917 544.606 44.4488C546.567 45.3748 548.213 46.8505 549.542 48.876C550.872 50.9016 551.528 53.1623 551.51 55.6582C551.476 60.4581 549.865 64.1907 546.678 66.8561C543.491 69.5215 538.97 70.8333 533.114 70.7916L510.506 70.6307ZM531.242 40.3935C533.162 40.4072 534.629 39.9376 535.644 38.9848C536.659 37.984 537.173 36.6677 537.184 35.0357C537.196 33.4517 536.701 32.1762 535.7 31.209C534.698 30.2419 533.238 29.7515 531.318 29.7378L521.958 29.6712L521.882 40.3269L531.242 40.3935ZM531.74 61.4216C533.708 61.4356 535.248 60.8706 536.361 59.7265C537.473 58.5824 538.035 57.1943 538.046 55.5624C538.059 53.8344 537.517 52.4145 536.421 51.3027C535.325 50.1428 533.793 49.5559 531.825 49.5419L521.817 49.4707L521.733 61.3504L531.74 61.4216ZM571.726 71.0666C571.246 71.0632 570.815 70.8921 570.433 70.5534C570.1 70.167 569.935 69.7338 569.938 69.2538L570.204 31.9587L557.388 31.8675C556.908 31.8641 556.478 31.693 556.096 31.3543C555.763 30.9679 555.598 30.5347 555.601 30.0547L555.656 22.3509C555.66 21.8229 555.831 21.3921 556.169 21.0585C556.556 20.7253 556.989 20.5603 557.469 20.5638L596.204 20.8396C596.732 20.8433 597.163 21.0144 597.496 21.3528C597.83 21.6912 597.995 22.1244 597.991 22.6524L597.936 30.3562C597.932 30.8841 597.761 31.3149 597.423 31.6485C597.085 31.9821 596.651 32.1471 596.123 32.1433L583.308 32.052L583.042 69.3471C583.039 69.8271 582.868 70.2579 582.529 70.6395C582.19 70.9731 581.757 71.138 581.229 71.1342L571.726 71.0666ZM605.988 71.3105C605.508 71.3071 605.077 71.136 604.696 70.7973C604.363 70.4109 604.198 69.9778 604.201 69.4978L604.534 22.6989C604.538 22.171 604.709 21.7402 605.048 21.4066C605.434 21.0733 605.867 20.9084 606.347 20.9118L615.995 20.9805C616.523 20.9843 616.954 21.1553 617.287 21.4937C617.669 21.8324 617.858 22.2658 617.854 22.7938L617.521 69.5926C617.517 70.1206 617.322 70.5512 616.936 70.8845C616.597 71.2181 616.164 71.383 615.636 71.3792L605.988 71.3105Z" fill="#C21E4E"/>
</g>
</svg>
