<svg width="1100" height="129" viewBox="0 0 1100 129" fill="none" xmlns="http://www.w3.org/2000/svg">
<g id="Group 41">
<path id="AMA PIC&#195;&#129; RESTOBAR" d="M2.54226 67.0137C2.15827 67.011 1.7993 66.8644 1.46536 66.574C1.17976 66.236 1.03833 65.8749 1.04106 65.491C1.04311 65.203 1.06865 64.9871 1.11767 64.8435L18.3664 18.7411C18.5145 18.1662 18.8299 17.6884 19.3126 17.3078C19.7953 16.9273 20.4207 16.7397 21.1887 16.7452L31.8444 16.821C32.6124 16.8265 33.235 17.023 33.7122 17.4104C34.1895 17.7978 34.4981 18.28 34.638 18.857L51.1564 65.1998L51.2958 65.8488C51.2931 66.2328 51.1225 66.5916 50.7841 66.9252C50.4941 67.2111 50.1331 67.3526 49.7011 67.3495L40.8453 67.2864C39.6933 67.2782 38.9289 66.7688 38.5521 65.7581L35.7965 58.3942L16.573 58.2574L13.7847 65.5817C13.3936 66.5869 12.598 67.0853 11.398 67.0767L2.54226 67.0137ZM32.9904 48.006L26.4299 28.9508L19.5987 47.9106L32.9904 48.006ZM58.7599 67.414C58.2799 67.4106 57.8491 67.2395 57.4675 66.9008C57.1343 66.5144 56.9693 66.0812 56.9728 65.6012L57.306 18.8024C57.3098 18.2744 57.4808 17.8436 57.8192 17.51C58.2056 17.1768 58.6388 17.0118 59.1188 17.0153L66.8946 17.0706C68.0465 17.0788 68.8828 17.6128 69.4032 18.6725L81.9134 41.4422L94.7466 18.853C95.2821 17.8008 96.1258 17.2788 97.2778 17.287L104.982 17.3418C105.51 17.3456 105.94 17.5167 106.274 17.855C106.656 18.1938 106.845 18.6271 106.841 19.1551L106.508 65.9539C106.504 66.4819 106.309 66.9125 105.922 67.2458C105.584 67.5794 105.151 67.7443 104.623 67.7406L96.055 67.6795C95.527 67.6758 95.0722 67.5045 94.6906 67.1658C94.357 66.8274 94.1921 66.3942 94.1958 65.8663L94.3881 38.8669L86.2171 53.8571C85.5853 54.9567 84.7414 55.5027 83.6854 55.4952L79.9415 55.4685C79.3175 55.4641 78.8145 55.3165 78.4326 55.0257C78.0507 54.735 77.7176 54.3246 77.4333 53.7946L69.4047 38.689L69.2125 65.6884C69.209 66.1684 69.038 66.5991 68.6992 66.9807C68.3609 67.3143 67.9277 67.4793 67.3997 67.4755L58.7599 67.414ZM113.704 67.8052C113.32 67.8025 112.961 67.6559 112.627 67.3655C112.341 67.0275 112.2 66.6665 112.202 66.2825C112.204 65.9945 112.23 65.7787 112.279 65.635L129.528 19.5327C129.676 18.9577 129.991 18.4799 130.474 18.0994C130.957 17.7188 131.582 17.5312 132.35 17.5367L143.006 17.6126C143.774 17.618 144.396 17.8145 144.873 18.2019C145.351 18.5893 145.659 19.0715 145.799 19.6485L162.318 65.9913L162.457 66.6403C162.454 67.0243 162.284 67.3831 161.945 67.7167C161.655 68.0027 161.294 68.1441 160.862 68.141L152.007 68.078C150.855 68.0697 150.09 67.5603 149.713 66.5496L146.958 59.1858L127.734 59.0489L124.946 66.3732C124.555 67.3785 123.759 67.8768 122.559 67.8683L113.704 67.8052ZM144.152 48.7975L137.591 29.7423L130.76 48.7022L144.152 48.7975ZM183.421 68.3016C182.941 68.2982 182.51 68.1271 182.128 67.7884C181.795 67.402 181.63 66.9689 181.634 66.4889L181.967 19.69C181.971 19.1621 182.142 18.7313 182.48 18.3977C182.867 18.0644 183.3 17.8995 183.78 17.9029L203.939 18.0465C210.083 18.0902 214.897 19.5405 218.381 22.3974C221.912 25.2546 223.659 29.3952 223.62 34.819C223.582 40.1949 221.801 44.2383 218.278 46.9493C214.755 49.6123 209.897 50.9217 203.705 50.8776L195.138 50.8166L195.025 66.5842C195.022 67.1122 194.827 67.5428 194.44 67.8761C194.102 68.2097 193.669 68.3746 193.141 68.3708L183.421 68.3016ZM203.416 40.9393C205.528 40.9543 207.188 40.4382 208.395 39.3907C209.603 38.2953 210.215 36.6916 210.23 34.5797C210.244 32.6117 209.679 31.0477 208.535 29.8875C207.44 28.6796 205.764 28.0677 203.508 28.0516L195.084 27.9917L194.992 40.8793L203.416 40.9393ZM232.076 68.6481C231.596 68.6447 231.165 68.4736 230.783 68.1349C230.45 67.7485 230.285 67.3153 230.289 66.8353L230.622 20.0365C230.626 19.5085 230.797 19.0777 231.135 18.7441C231.522 18.4109 231.955 18.2459 232.435 18.2494L242.082 18.3181C242.61 18.3218 243.041 18.4929 243.375 18.8313C243.756 19.17 243.945 19.6034 243.942 20.1313L243.608 66.9302C243.605 67.4581 243.41 67.8888 243.023 68.222C242.685 68.5556 242.252 68.7205 241.724 68.7168L232.076 68.6481ZM274.277 69.6686C267.414 69.6197 262.049 67.9255 258.185 64.5859C254.369 61.1986 252.364 56.3362 252.169 49.9987C252.13 48.7024 252.121 46.5903 252.142 43.6623C252.163 40.6864 252.203 38.5266 252.26 37.183C252.545 30.9449 254.667 26.1599 258.627 22.828C262.587 19.4481 267.927 17.7821 274.647 17.8299C278.87 17.86 282.657 18.607 286.007 20.0709C289.357 21.4867 291.982 23.5215 293.884 26.1751C295.833 28.781 296.819 31.8361 296.842 35.3404L296.841 35.4844C296.839 35.8684 296.668 36.2032 296.33 36.4888C296.041 36.7267 295.704 36.8443 295.32 36.8416L285.6 36.7724C284.976 36.7679 284.497 36.6445 284.163 36.4021C283.829 36.1118 283.544 35.6057 283.309 34.884C282.655 32.4313 281.611 30.7198 280.178 29.7496C278.745 28.7314 276.853 28.2139 274.501 28.1971C268.837 28.1568 265.886 31.3039 265.649 37.6383C265.592 38.934 265.554 40.9258 265.535 43.6137C265.516 46.3016 265.525 48.3417 265.563 49.734C265.71 56.0713 268.615 59.26 274.279 59.3003C276.631 59.3171 278.555 58.8268 280.05 57.8294C281.545 56.784 282.589 55.0874 283.182 52.7396C283.379 52.021 283.647 51.5429 283.984 51.3053C284.322 51.0197 284.827 50.8792 285.499 50.884L295.219 50.9532C295.651 50.9563 296.01 51.1029 296.296 51.3929C296.63 51.6833 296.771 52.0443 296.72 52.476C296.647 55.9795 295.618 59.0443 293.631 61.6702C291.692 64.2485 289.038 66.2456 285.668 67.6617C282.298 69.0297 278.501 69.6987 274.277 69.6686ZM300.66 69.1364C300.276 69.1337 299.917 68.9871 299.583 68.6968C299.297 68.3587 299.156 67.9977 299.159 67.6137C299.161 67.3257 299.186 67.1099 299.235 66.9662L316.484 20.8639C316.632 20.2889 316.947 19.8112 317.43 19.4306C317.913 19.05 318.538 18.8625 319.306 18.8679L329.962 18.9438C330.73 18.9493 331.352 19.1457 331.83 19.5331C332.307 19.9205 332.616 20.4027 332.755 20.9797L349.274 67.3225L349.413 67.9716C349.411 68.3555 349.24 68.7143 348.902 69.0479C348.612 69.3339 348.251 69.4753 347.819 69.4722L338.963 69.4092C337.811 69.401 337.046 68.8915 336.67 67.8808L333.914 60.517L314.69 60.3801L311.902 67.7045C311.511 68.7097 310.715 69.208 309.516 69.1995L300.66 69.1364ZM331.108 50.1288L324.547 31.0736L317.716 50.0334L331.108 50.1288ZM320.124 15.2737C319.356 15.2682 318.975 14.8815 318.98 14.1135C318.983 13.7295 319.105 13.4184 319.347 13.1801L325.737 5.52138C326.221 4.94881 326.632 4.59172 326.969 4.45012C327.306 4.26052 327.787 4.16794 328.411 4.17238L338.491 4.24416C338.923 4.24723 339.258 4.39362 339.496 4.68332C339.734 4.92502 339.852 5.26187 339.848 5.69386C339.846 6.02985 339.724 6.31699 339.482 6.55527L329.851 14.3349C329.416 14.6678 329.006 14.9289 328.621 15.1182C328.236 15.2594 327.732 15.3278 327.108 15.3234L320.124 15.2737ZM370.377 69.6329C369.897 69.6294 369.466 69.4584 369.085 69.1196C368.751 68.7333 368.586 68.3001 368.59 67.8201L368.923 21.0213C368.927 20.4933 369.098 20.0625 369.436 19.7289C369.823 19.3956 370.256 19.2307 370.736 19.2341L390.319 19.3736C396.607 19.4183 401.493 20.8932 404.976 23.7981C408.508 26.6553 410.255 30.6998 410.218 35.9317C410.194 39.2916 409.382 42.1419 407.781 44.4826C406.18 46.8232 403.984 48.6076 401.191 49.8358L410.928 67.6175C411.07 67.9066 411.14 68.1711 411.139 68.4111C411.136 68.7951 410.965 69.1539 410.627 69.4875C410.337 69.7734 410 69.915 409.616 69.9123L400.04 69.8441C398.648 69.8342 397.669 69.1792 397.102 67.8791L389.007 51.9811L381.663 51.9288L381.55 67.9124C381.546 68.4404 381.351 68.871 380.964 69.2042C380.626 69.5378 380.193 69.7028 379.665 69.699L370.377 69.6329ZM390.016 41.764C392.224 41.7797 393.908 41.2637 395.067 40.2159C396.227 39.1201 396.814 37.6123 396.827 35.6923C396.841 33.7724 396.276 32.2563 395.132 31.1441C394.036 29.9843 392.36 29.3964 390.104 29.3803L381.824 29.3213L381.736 41.705L390.016 41.764ZM420.157 69.9873C419.677 69.9839 419.246 69.8128 418.865 69.4741C418.531 69.0877 418.366 68.6545 418.37 68.1745L418.703 21.3757C418.707 20.8477 418.878 20.417 419.216 20.0834C419.603 19.7501 420.036 19.5852 420.516 19.5886L454.139 19.828C454.667 19.8318 455.098 20.0028 455.431 20.3412C455.765 20.6796 455.93 21.1128 455.926 21.6408L455.878 28.4086C455.875 28.8886 455.703 29.3194 455.365 29.701C455.026 30.0346 454.593 30.1995 454.065 30.1957L431.098 30.0322L431.029 39.752L452.412 39.9042C452.94 39.908 453.371 40.1031 453.704 40.4894C454.038 40.8278 454.202 41.261 454.199 41.789L454.154 48.0528C454.151 48.5328 453.98 48.9636 453.641 49.3452C453.302 49.6788 452.869 49.8437 452.341 49.84L430.958 49.6877L430.887 59.6955L454.43 59.8631C454.958 59.8669 455.389 60.0379 455.722 60.3763C456.056 60.7147 456.221 61.1479 456.217 61.6759L456.169 68.4437C456.166 68.9237 455.994 69.3545 455.656 69.7361C455.317 70.0697 454.884 70.2346 454.356 70.2308L420.157 69.9873ZM483.127 71.1557C478.567 71.1232 474.66 70.4234 471.405 69.0562C468.151 67.689 465.692 65.9194 464.027 63.7475C462.411 61.528 461.564 59.1219 461.486 56.5293C461.489 56.1453 461.635 55.8103 461.925 55.5244C462.264 55.1908 462.649 55.0255 463.081 55.0286L472.153 55.0932C472.729 55.0973 473.184 55.2205 473.518 55.4629C473.901 55.6576 474.283 55.9724 474.663 56.4071C475.279 57.6595 476.279 58.6986 477.665 59.5245C479.052 60.3504 480.897 60.7716 483.2 60.788C485.936 60.8075 488.027 60.3903 489.474 59.5366C490.92 58.6829 491.648 57.512 491.659 56.0241C491.666 54.9681 491.288 54.1014 490.525 53.4239C489.81 52.7468 488.662 52.1386 487.082 51.5994C485.502 51.0601 483.154 50.4434 480.039 49.7492C474.288 48.5082 469.98 46.7255 467.117 44.401C464.302 42.0289 462.909 38.6829 462.94 34.363C462.961 31.4351 463.796 28.825 465.444 26.5327C467.092 24.2404 469.433 22.457 472.466 21.1825C475.499 19.9081 479.032 19.2852 483.064 19.3139C487.24 19.3437 490.858 20.0895 493.92 21.5513C496.982 23.0131 499.297 24.8537 500.865 27.0729C502.482 29.2445 503.33 31.3866 503.411 33.4992C503.408 33.9312 503.262 34.2901 502.972 34.5761C502.682 34.862 502.321 35.0035 501.889 35.0004L492.385 34.9327C491.809 34.9286 491.33 34.8292 490.947 34.6345C490.612 34.4401 490.303 34.1259 490.018 33.6918C489.737 32.5858 488.952 31.6442 487.662 30.867C486.419 30.0901 484.862 29.695 482.99 29.6817C480.83 29.6663 479.171 30.0385 478.014 30.7983C476.856 31.5581 476.272 32.6819 476.262 34.1699C476.255 35.1779 476.561 36.0201 477.18 36.6965C477.847 37.3733 478.899 38.0048 480.334 38.591C481.819 39.1296 483.927 39.6966 486.659 40.2921C491.117 41.1398 494.661 42.1971 497.292 43.4639C499.972 44.683 501.928 46.281 503.162 48.2578C504.397 50.1866 505.003 52.615 504.982 55.5429C504.959 58.7589 504.004 61.5601 502.114 63.9467C500.274 66.2857 497.693 68.0914 494.372 69.3637C491.099 70.5885 487.351 71.1858 483.127 71.1557ZM524.477 70.7301C523.997 70.7267 523.566 70.5556 523.184 70.2169C522.851 69.8305 522.686 69.3973 522.69 68.9174L522.955 31.6223L510.14 31.531C509.66 31.5276 509.229 31.3566 508.847 31.0178C508.514 30.6314 508.349 30.1983 508.352 29.7183L508.407 22.0145C508.411 21.4865 508.582 21.0557 508.92 20.7221C509.307 20.3888 509.74 20.2239 510.22 20.2273L548.955 20.5031C549.483 20.5069 549.914 20.678 550.247 21.0164C550.581 21.3547 550.746 21.7879 550.742 22.3159L550.687 30.0197C550.684 30.5477 550.512 30.9785 550.174 31.3121C549.836 31.6457 549.403 31.8106 548.875 31.8069L536.059 31.7156L535.793 69.0107C535.79 69.4907 535.619 69.9214 535.28 70.303C534.942 70.6366 534.509 70.8016 533.981 70.7978L524.477 70.7301ZM576.752 71.8224C569.985 71.7742 564.669 70.0803 560.804 66.7407C556.94 63.4011 554.911 58.5145 554.716 52.081C554.678 50.6887 554.669 48.6245 554.689 45.8886C554.708 43.1047 554.747 41.0169 554.805 39.6253C555.09 33.2912 557.213 28.4341 561.173 25.0543C565.182 21.6267 570.498 19.9365 577.122 19.9837C583.745 20.0309 589.037 21.7966 592.996 25.2809C596.956 28.7171 599.009 33.6039 599.156 39.9411C599.232 42.7257 599.265 44.814 599.255 46.206C599.246 47.5499 599.183 49.6135 599.067 52.3968C598.782 58.8269 596.683 63.6841 592.771 66.9683C588.86 70.2525 583.52 71.8706 576.752 71.8224ZM576.826 61.4546C579.466 61.4734 581.56 60.6963 583.107 59.1233C584.702 57.5506 585.559 55.1327 585.679 51.8694C585.795 49.0862 585.857 47.1186 585.865 45.9666C585.874 44.7186 585.84 42.7503 585.763 40.0617C585.69 36.7971 584.867 34.3672 583.295 32.772C581.722 31.1767 579.64 30.3699 577.048 30.3514C574.456 30.333 572.362 31.1101 570.767 32.6828C569.22 34.2558 568.362 36.6737 568.195 39.9366C568.138 41.2803 568.1 43.248 568.081 45.84C568.063 48.3839 568.073 50.352 568.111 51.7443C568.232 55.0093 569.055 57.4392 570.579 59.0341C572.104 60.629 574.186 61.4358 576.826 61.4546ZM609.223 71.3336C608.743 71.3301 608.312 71.1591 607.93 70.8204C607.597 70.434 607.432 70.0008 607.435 69.5208L607.769 22.722C607.772 22.194 607.943 21.7632 608.282 21.4296C608.668 21.0963 609.101 20.9314 609.581 20.9348L631.541 21.0912C637.589 21.1343 642.068 22.4142 644.978 24.931C647.936 27.4001 649.399 30.9146 649.367 35.4745C649.35 37.8744 648.711 39.9099 647.451 41.581C646.24 43.2044 644.863 44.3947 643.322 45.1517C645.283 46.0777 646.929 47.5534 648.258 49.579C649.588 51.6045 650.244 53.8652 650.226 56.3611C650.192 61.161 648.581 64.8937 645.394 67.559C642.207 70.2244 637.686 71.5362 631.83 71.4945L609.223 71.3336ZM629.958 41.0964C631.878 41.1101 633.346 40.6405 634.361 39.6877C635.376 38.687 635.889 37.3706 635.901 35.7386C635.912 34.1547 635.417 32.8791 634.416 31.9119C633.415 30.9448 631.954 30.4544 630.034 30.4407L620.674 30.3741L620.599 41.0298L629.958 41.0964ZM630.457 62.1245C632.425 62.1385 633.965 61.5735 635.077 60.4294C636.189 59.2853 636.751 57.8972 636.763 56.2653C636.775 54.5373 636.233 53.1174 635.137 52.0056C634.041 50.8458 632.509 50.2588 630.541 50.2448L620.534 50.1736L620.449 62.0533L630.457 62.1245ZM654.534 71.6562C654.15 71.6535 653.791 71.5069 653.457 71.2165C653.171 70.8785 653.03 70.5175 653.032 70.1335C653.034 69.8455 653.06 69.6297 653.109 69.486L670.358 23.3836C670.506 22.8087 670.821 22.3309 671.304 21.9503C671.787 21.5698 672.412 21.3822 673.18 21.3877L683.836 21.4636C684.604 21.469 685.226 21.6655 685.704 22.0529C686.181 22.4403 686.489 22.9225 686.629 23.4995L703.148 69.8423L703.287 70.4913C703.284 70.8753 703.114 71.2341 702.775 71.5677C702.485 71.8536 702.124 71.9951 701.692 71.992L692.837 71.9289C691.685 71.9207 690.92 71.4113 690.543 70.4006L687.788 63.0368L668.564 62.8999L665.776 70.2242C665.385 71.2295 664.589 71.7278 663.389 71.7193L654.534 71.6562ZM684.982 52.6485L678.421 33.5933L671.59 52.5532L684.982 52.6485ZM710.751 72.0565C710.271 72.0531 709.84 71.882 709.459 71.5433C709.126 71.1569 708.961 70.7237 708.964 70.2437L709.297 23.4449C709.301 22.9169 709.472 22.4861 709.811 22.1525C710.197 21.8193 710.63 21.6544 711.11 21.6578L730.694 21.7972C736.981 21.842 741.867 23.3168 745.35 26.2217C748.882 29.0789 750.629 33.1235 750.592 38.3553C750.568 41.7152 749.756 44.5655 748.155 46.9062C746.555 49.2469 744.358 51.0313 741.565 52.2594L751.303 70.0412C751.445 70.3302 751.515 70.5947 751.513 70.8347C751.51 71.2187 751.34 71.5775 751.001 71.9111C750.711 72.197 750.374 72.3386 749.99 72.3359L740.414 72.2677C739.023 72.2578 738.043 71.6028 737.476 70.3028L729.381 54.4047L722.038 54.3524L721.924 70.336C721.92 70.864 721.725 71.2946 721.339 71.6279C721 71.9615 720.567 72.1264 720.039 72.1226L710.751 72.0565ZM730.39 44.1876C732.598 44.2033 734.282 43.6873 735.441 42.6396C736.601 41.5438 737.188 40.0359 737.202 38.116C737.215 36.196 736.65 34.68 735.506 33.5678C734.41 32.408 732.734 31.82 730.478 31.8039L722.199 31.745L722.11 44.1287L730.39 44.1876Z" fill="#C21E4E"/>
</g>
</svg>
