<svg width="1100" height="129" viewBox="0 0 1100 129" fill="none" xmlns="http://www.w3.org/2000/svg">
<g id="Group 31">
<path id="COMIDA PARA TODOS" d="M26.0805 67.9013C19.2167 67.8524 13.8526 66.1582 9.98832 62.8186C6.17234 59.4313 4.16691 54.5689 3.97203 48.2314C3.93326 46.9351 3.9243 44.823 3.94515 41.895C3.96634 38.9191 4.00572 36.7593 4.06328 35.4157C4.34771 29.1776 6.46983 24.3926 10.4297 21.0607C14.3898 17.6808 19.7298 16.0148 26.4497 16.0626C30.6735 16.0927 34.4603 16.8397 37.81 18.3036C41.16 19.7195 43.7856 21.7542 45.6867 24.4078C47.6362 27.0138 48.6225 30.0689 48.6455 33.5731L48.6445 33.7171C48.6418 34.1011 48.4714 34.4359 48.1334 34.7215C47.8436 34.9594 47.5068 35.077 47.1228 35.0743L37.4031 35.0051C36.7791 35.0006 36.2999 34.8772 35.9657 34.6348C35.6317 34.3445 35.3473 33.8384 35.1124 33.1167C34.4579 30.664 33.4141 28.9525 31.9809 27.9823C30.5481 26.9641 28.6558 26.4466 26.3038 26.4298C20.64 26.3895 17.6895 29.5366 17.4524 35.8711C17.3952 37.1667 17.357 39.1585 17.3378 41.8464C17.3187 44.5343 17.3282 46.5744 17.3663 47.9668C17.5131 54.304 20.4185 57.4927 26.0824 57.5331C28.4343 57.5498 30.3578 57.0595 31.853 56.0621C33.3485 55.0167 34.3926 53.3201 34.9853 50.9723C35.1824 50.2537 35.4498 49.7756 35.7875 49.538C36.1256 49.2524 36.6306 49.112 37.3026 49.1167L47.0223 49.1859C47.4543 49.189 47.8133 49.3356 48.0992 49.6256C48.4332 49.916 48.5746 50.277 48.5235 50.7087C48.4506 54.2122 47.4207 57.277 45.434 59.9029C43.4956 62.4812 40.8413 64.4783 37.4711 65.8944C34.1013 67.2624 30.3044 67.9314 26.0805 67.9013ZM76.5619 68.2608C69.7941 68.2126 64.478 66.5187 60.6137 63.1791C56.7494 59.8395 54.7201 54.9529 54.526 48.5194C54.4879 47.1271 54.4786 45.0629 54.498 42.327C54.5179 39.5431 54.5567 37.4553 54.6146 36.0637C54.8998 29.7295 57.0224 24.8725 60.9826 21.4926C64.9911 18.0651 70.3072 16.3749 76.9311 16.4221C83.5549 16.4692 88.8465 18.235 92.8058 21.7192C96.7654 25.1555 98.8186 30.0423 98.9655 36.3795C99.0417 39.1641 99.0748 41.2524 99.0649 42.6443C99.0553 43.9883 98.9927 46.0519 98.8768 48.8352C98.591 55.2653 96.4924 60.1225 92.5809 63.4067C88.6694 66.6909 83.3298 68.309 76.5619 68.2608ZM76.6358 57.893C79.2757 57.9118 81.3693 57.1347 82.9165 55.5617C84.5118 53.989 85.369 51.571 85.4882 48.3078C85.6041 45.5246 85.6661 43.557 85.6743 42.405C85.6832 41.157 85.6492 39.1887 85.5723 36.5001C85.4996 33.2355 84.6768 30.8056 83.1042 29.2103C81.5315 27.6151 79.4492 26.8083 76.8572 26.7898C74.2653 26.7714 72.1717 27.5485 70.5765 29.1211C69.0292 30.6942 68.172 33.1121 68.0048 36.375C67.9472 37.7186 67.9092 39.6864 67.8907 42.2784C67.8726 44.8223 67.8826 46.7904 67.9207 48.1827C68.0414 51.4477 68.8642 53.8776 70.3888 55.4725C71.9135 57.0674 73.9958 57.8742 76.6358 57.893ZM109.032 67.7719C108.552 67.7685 108.121 67.5975 107.74 67.2587C107.406 66.8724 107.242 66.4392 107.245 65.9592L107.578 19.1604C107.582 18.6324 107.753 18.2016 108.091 17.868C108.478 17.5347 108.911 17.3698 109.391 17.3732L117.167 17.4286C118.319 17.4368 119.155 17.9708 119.675 19.0305L132.186 41.8001L145.019 19.2109C145.554 18.1587 146.398 17.6367 147.55 17.6449L155.254 17.6998C155.782 17.7035 156.213 17.8746 156.546 18.213C156.928 18.5517 157.117 18.9851 157.113 19.5131L156.78 66.3119C156.776 66.8399 156.581 67.2705 156.194 67.6038C155.856 67.9374 155.423 68.1023 154.895 68.0985L146.327 68.0375C145.799 68.0338 145.344 67.8625 144.963 67.5238C144.629 67.1854 144.464 66.7522 144.468 66.2242L144.66 39.2249L136.489 54.2151C135.857 55.3146 135.014 55.8606 133.958 55.8531L130.214 55.8265C129.59 55.822 129.087 55.6744 128.705 55.3837C128.323 55.093 127.99 54.6826 127.706 54.1526L119.677 39.047L119.485 66.0463C119.481 66.5263 119.31 66.9571 118.971 67.3387C118.633 67.6723 118.2 67.8372 117.672 67.8335L109.032 67.7719ZM168.656 68.1965C168.176 68.1931 167.745 68.022 167.363 67.6833C167.03 67.2969 166.865 66.8637 166.868 66.3837L167.202 19.5849C167.205 19.0569 167.376 18.6261 167.715 18.2925C168.101 17.9593 168.534 17.7944 169.014 17.7978L178.662 17.8665C179.19 17.8702 179.621 18.0413 179.955 18.3797C180.336 18.7184 180.525 19.1518 180.521 19.6798L180.188 66.4786C180.184 67.0066 179.989 67.4372 179.603 67.7704C179.264 68.104 178.831 68.269 178.303 68.2652L168.656 68.1965ZM191.999 68.3627C191.519 68.3593 191.088 68.1882 190.706 67.8495C190.373 67.4631 190.208 67.0299 190.212 66.5499L190.545 19.7511C190.549 19.2231 190.72 18.7923 191.058 18.4587C191.444 18.1255 191.878 17.9606 192.358 17.964L211.077 18.0973C218.133 18.1475 223.593 19.8664 227.457 23.254C231.321 26.6416 233.326 31.528 233.473 37.9132C233.511 39.3056 233.522 41.1537 233.505 43.4576C233.489 45.7616 233.452 47.5853 233.394 48.929C233.107 55.5991 231.079 60.5528 227.312 63.79C223.593 66.9796 218.182 68.5492 211.078 68.4986L191.999 68.3627ZM210.792 58.1283C213.96 58.1508 216.293 57.4234 217.792 55.9461C219.291 54.4207 220.1 52.0024 220.22 48.6912C220.325 47.2999 220.386 45.5003 220.402 43.2923C220.418 41.0844 220.382 39.3081 220.296 37.9634C220.223 34.7468 219.376 32.3647 217.755 30.8171C216.182 29.2699 213.811 28.485 210.643 28.4625L203.443 28.4112L203.232 58.0744L210.792 58.1283ZM237.802 68.6889C237.418 68.6861 237.059 68.5396 236.725 68.2492C236.439 67.9111 236.298 67.5501 236.301 67.1661C236.303 66.8781 236.328 66.6623 236.377 66.5187L253.626 20.4163C253.774 19.8413 254.09 19.3636 254.572 18.983C255.055 18.6024 255.68 18.4149 256.448 18.4203L267.104 18.4962C267.872 18.5017 268.495 18.6981 268.972 19.0855C269.449 19.4729 269.758 19.9552 269.898 20.5322L286.416 66.875L286.555 67.524C286.553 67.908 286.382 68.2668 286.044 68.6004C285.754 68.8863 285.393 69.0277 284.961 69.0247L276.105 68.9616C274.953 68.9534 274.189 68.4439 273.812 67.4332L271.056 60.0694L251.833 59.9325L249.044 67.2569C248.653 68.2621 247.858 68.7605 246.658 68.7519L237.802 68.6889ZM268.25 49.6812L261.69 30.626L254.858 49.5858L268.25 49.6812ZM307.519 69.1853C307.039 69.1819 306.608 69.0108 306.227 68.6721C305.894 68.2857 305.729 67.8525 305.732 67.3725L306.065 20.5737C306.069 20.0457 306.24 19.6149 306.579 19.2813C306.965 18.9481 307.398 18.7831 307.878 18.7866L328.038 18.9301C334.181 18.9738 338.995 20.4242 342.479 23.281C346.011 26.1383 347.757 30.2788 347.719 35.7027C347.68 41.0785 345.9 45.1219 342.376 47.8329C338.853 50.4959 333.996 51.8054 327.804 51.7613L319.236 51.7003L319.124 67.4679C319.12 67.9959 318.925 68.4265 318.539 68.7597C318.2 69.0933 317.767 69.2583 317.239 69.2545L307.519 69.1853ZM327.515 41.823C329.627 41.838 331.286 41.3218 332.494 40.2744C333.702 39.1789 334.313 37.5753 334.328 35.4633C334.342 33.4954 333.777 31.9313 332.633 30.7711C331.538 29.5633 329.862 28.9513 327.606 28.9353L319.183 28.8753L319.091 41.763L327.515 41.823ZM348.049 69.4739C347.665 69.4711 347.306 69.3246 346.972 69.0342C346.687 68.6962 346.545 68.3351 346.548 67.9511C346.55 67.6632 346.576 67.4473 346.625 67.3037L363.873 21.2013C364.021 20.6264 364.337 20.1486 364.82 19.768C365.302 19.3874 365.928 19.1999 366.696 19.2054L377.351 19.2812C378.119 19.2867 378.742 19.4831 379.219 19.8706C379.696 20.258 380.005 20.7402 380.145 21.3172L396.663 67.66L396.803 68.309C396.8 68.693 396.629 69.0518 396.291 69.3854C396.001 69.6713 395.64 69.8127 395.208 69.8097L386.352 69.7466C385.2 69.7384 384.436 69.229 384.059 68.2182L381.303 60.8544L362.08 60.7176L359.292 68.0419C358.9 69.0471 358.105 69.5455 356.905 69.5369L348.049 69.4739ZM378.497 50.4662L371.937 31.411L365.106 50.3708L378.497 50.4662ZM404.267 69.8742C403.787 69.8708 403.356 69.6997 402.974 69.361C402.641 68.9746 402.476 68.5414 402.48 68.0614L402.813 21.2626C402.817 20.7346 402.988 20.3038 403.326 19.9702C403.712 19.6369 404.146 19.472 404.626 19.4754L424.209 19.6149C430.497 19.6597 435.383 21.1345 438.866 24.0394C442.398 26.8966 444.145 30.9411 444.108 36.173C444.084 39.5329 443.272 42.3832 441.671 44.7239C440.07 47.0645 437.873 48.8489 435.081 50.0771L444.818 67.8589C444.96 68.1479 445.03 68.4124 445.029 68.6524C445.026 69.0364 444.855 69.3952 444.517 69.7288C444.227 70.0147 443.89 70.1563 443.506 70.1536L433.93 70.0854C432.538 70.0755 431.559 69.4205 430.992 68.1204L422.897 52.2224L415.553 52.1701L415.439 68.1537C415.436 68.6817 415.24 69.1123 414.854 69.4455C414.516 69.7791 414.083 69.9441 413.555 69.9403L404.267 69.8742ZM423.906 42.0053C426.114 42.021 427.797 41.505 428.957 40.4572C430.117 39.3615 430.703 37.8536 430.717 35.9336C430.731 34.0137 430.166 32.4976 429.021 31.3855C427.926 30.2256 426.25 29.6377 423.994 29.6216L415.714 29.5627L415.626 41.9463L423.906 42.0053ZM449.367 70.1953C448.983 70.1926 448.624 70.046 448.29 69.7556C448.004 69.4176 447.863 69.0566 447.866 68.6726C447.868 68.3846 447.893 68.1688 447.942 68.0251L465.191 21.9228C465.339 21.3478 465.655 20.87 466.137 20.4895C466.62 20.1089 467.245 19.9213 468.013 19.9268L478.669 20.0027C479.437 20.0081 480.06 20.2046 480.537 20.592C481.014 20.9794 481.323 21.4616 481.463 22.0386L497.981 68.3814L498.12 69.0304C498.118 69.4144 497.947 69.7732 497.609 70.1068C497.319 70.3927 496.958 70.5342 496.526 70.5311L487.67 70.468C486.518 70.4598 485.754 69.9504 485.377 68.9397L482.621 61.5759L463.398 61.439L460.609 68.7633C460.218 69.7686 459.423 70.2669 458.223 70.2584L449.367 70.1953ZM479.815 51.1876L473.255 32.1324L466.423 51.0923L479.815 51.1876ZM528.484 70.7587C528.004 70.7553 527.574 70.5842 527.192 70.2455C526.859 69.8591 526.694 69.4259 526.697 68.9459L526.963 31.6508L514.147 31.5596C513.667 31.5562 513.236 31.3851 512.855 31.0464C512.522 30.66 512.357 30.2268 512.36 29.7468L512.415 22.043C512.419 21.515 512.59 21.0842 512.928 20.7506C513.315 20.4174 513.748 20.2525 514.228 20.2559L552.963 20.5317C553.491 20.5354 553.922 20.7065 554.255 21.0449C554.589 21.3833 554.754 21.8165 554.75 22.3445L554.695 30.0483C554.691 30.5762 554.52 31.007 554.182 31.3406C553.843 31.6742 553.41 31.8392 552.882 31.8354L540.067 31.7441L539.801 69.0392C539.798 69.5192 539.627 69.95 539.288 70.3316C538.949 70.6652 538.516 70.8301 537.988 70.8263L528.484 70.7587ZM580.76 71.8509C573.992 71.8027 568.676 70.1088 564.812 66.7692C560.948 63.4296 558.918 58.5431 558.724 52.1095C558.686 50.7172 558.677 48.6531 558.696 45.9172C558.716 43.1332 558.755 41.0454 558.813 39.6538C559.098 33.3197 561.221 28.4627 565.181 25.0828C569.189 21.6552 574.505 19.9651 581.129 20.0122C587.753 20.0594 593.045 21.8251 597.004 25.3094C600.964 28.7457 603.017 33.6324 603.164 39.9696C603.24 42.7542 603.273 44.8425 603.263 46.2345C603.254 47.5785 603.191 49.6421 603.075 52.4253C602.789 58.8554 600.691 63.7126 596.779 66.9969C592.868 70.2811 587.528 71.8991 580.76 71.8509ZM580.834 61.4832C583.474 61.502 585.567 60.7249 587.115 59.1518C588.71 57.5792 589.567 55.1612 589.686 51.898C589.802 49.1147 589.864 47.1471 589.872 45.9951C589.881 44.7472 589.847 42.7789 589.771 40.0903C589.698 36.8257 588.875 34.3957 587.302 32.8005C585.73 31.2053 583.647 30.3984 581.055 30.38C578.464 30.3615 576.37 31.1386 574.775 32.7113C573.227 34.2843 572.37 36.7023 572.203 39.9652C572.145 41.3088 572.107 43.2766 572.089 45.8685C572.071 48.4124 572.081 50.3806 572.119 51.7729C572.24 55.0378 573.062 57.4677 574.587 59.0626C576.112 60.6575 578.194 61.4644 580.834 61.4832ZM613.23 71.3621C612.75 71.3587 612.319 71.1876 611.938 70.8489C611.605 70.4625 611.44 70.0293 611.443 69.5493L611.776 22.7505C611.78 22.2225 611.951 21.7917 612.29 21.4581C612.676 21.1249 613.109 20.96 613.589 20.9634L632.309 21.0967C639.364 21.1469 644.824 22.8658 648.688 26.2534C652.552 29.641 654.558 34.5274 654.704 40.9126C654.742 42.3049 654.753 44.1531 654.737 46.457C654.72 48.7609 654.683 50.5847 654.626 51.9284C654.338 58.5985 652.311 63.5522 648.544 66.7894C644.825 69.979 639.414 71.5485 632.31 71.498L613.23 71.3621ZM632.024 61.1277C635.192 61.1502 637.525 60.4228 639.023 58.9454C640.522 57.4201 641.331 55.0018 641.451 51.6905C641.557 50.2993 641.618 48.4996 641.633 46.2917C641.649 44.0838 641.614 42.3075 641.527 40.9628C641.454 37.7462 640.607 35.3641 638.986 33.8165C637.413 32.2693 635.043 31.4844 631.875 31.4618L624.675 31.4106L624.464 61.0738L632.024 61.1277ZM683.554 72.5829C676.787 72.5347 671.471 70.8408 667.606 67.5012C663.742 64.1616 661.713 59.275 661.518 52.8415C661.48 51.4492 661.471 49.385 661.491 46.6491C661.51 43.8652 661.549 41.7774 661.607 40.3858C661.892 34.0516 664.015 29.1946 667.975 25.8147C671.984 22.3872 677.3 20.697 683.924 20.7442C690.547 20.7913 695.839 22.5571 699.798 26.0413C703.758 29.4776 705.811 34.3644 705.958 40.7016C706.034 43.4862 706.067 45.5745 706.057 46.9664C706.048 48.3104 705.985 50.374 705.869 53.1573C705.584 59.5874 703.485 64.4446 699.573 67.7288C695.662 71.013 690.322 72.6311 683.554 72.5829ZM683.628 62.2151C686.268 62.2339 688.362 61.4568 689.909 59.8838C691.504 58.3111 692.361 55.8932 692.481 52.6299C692.597 49.8467 692.659 47.8791 692.667 46.7271C692.676 45.4791 692.642 43.5108 692.565 40.8222C692.492 37.5576 691.669 35.1277 690.097 33.5325C688.524 31.9372 686.442 31.1304 683.85 31.1119C681.258 31.0935 679.164 31.8706 677.569 33.4432C676.022 35.0163 675.164 37.4342 674.997 40.6971C674.94 42.0407 674.902 44.0085 674.883 46.6005C674.865 49.1444 674.875 51.1125 674.913 52.5048C675.034 55.7698 675.857 58.1997 677.381 59.7946C678.906 61.3895 680.988 62.1963 683.628 62.2151ZM733.011 72.935C728.451 72.9026 724.544 72.2027 721.29 70.8355C718.035 69.4683 715.576 67.6987 713.911 65.5268C712.295 63.3073 711.448 60.9012 711.371 58.3086C711.373 57.9246 711.52 57.5896 711.81 57.3037C712.148 56.9701 712.533 56.8048 712.965 56.8079L722.037 56.8725C722.613 56.8766 723.068 56.9998 723.402 57.2422C723.785 57.4369 724.167 57.7517 724.548 58.1864C725.163 59.4388 726.164 60.4779 727.55 61.3038C728.936 62.1297 730.781 62.5509 733.085 62.5673C735.821 62.5868 737.912 62.1696 739.358 61.3159C740.804 60.4622 741.532 59.2914 741.543 57.8034C741.55 56.7474 741.173 55.8807 740.409 55.2032C739.694 54.5261 738.547 53.918 736.966 53.3787C735.386 52.8394 733.038 52.2227 729.923 51.5285C724.172 50.2875 719.865 48.5048 717.001 46.1803C714.186 43.8082 712.794 40.4622 712.824 36.1424C712.845 33.2144 713.68 30.6043 715.328 28.312C716.977 26.0197 719.317 24.2363 722.351 22.9618C725.384 21.6874 728.916 21.0645 732.948 21.0933C737.124 21.123 740.743 21.8688 743.804 23.3306C746.866 24.7924 749.181 26.633 750.749 28.8522C752.366 31.0238 753.215 33.1659 753.296 35.2785C753.293 35.7105 753.146 36.0695 752.856 36.3554C752.566 36.6413 752.205 36.7828 751.773 36.7797L742.269 36.712C741.693 36.7079 741.214 36.6085 740.831 36.4138C740.497 36.2194 740.187 35.9052 739.902 35.4711C739.622 34.3651 738.836 33.4235 737.546 32.6463C736.303 31.8694 734.746 31.4743 732.874 31.461C730.714 31.4456 729.056 31.8178 727.898 32.5776C726.741 33.3374 726.157 34.4612 726.146 35.9492C726.139 36.9572 726.445 37.7994 727.064 38.4758C727.731 39.1526 728.783 39.7841 730.219 40.3703C731.703 40.9089 733.811 41.4759 736.543 42.0714C741.001 42.9191 744.545 43.9764 747.177 45.2432C749.856 46.4623 751.813 48.0603 753.047 50.0371C754.281 51.9659 754.888 54.3943 754.867 57.3222C754.844 60.5382 753.888 63.3394 751.999 65.726C750.158 68.065 747.577 69.8707 744.256 71.143C740.983 72.3678 737.235 72.9651 733.011 72.935Z" fill="#C21E4E"/>
</g>
</svg>
