<svg width="216" height="121" viewBox="0 0 216 121" fill="none" xmlns="http://www.w3.org/2000/svg">
<g id="Group 17">
<path id="Ellipse 10" d="M80.7909 1.25516C121.534 -5.01787 156.782 30.3463 156.614 58.993C156.447 87.6397 123.404 124.559 80.0993 119.748C36.7947 114.938 0.172645 90.0828 0.359422 58.081C0.515217 31.3876 36.9171 0.999089 80.7909 1.25516Z" fill="#BB214C" fill-opacity="0.56"/>
<path id="YO" d="M67.5 67C67.3667 67 67.2467 66.9533 67.14 66.86C67.0467 66.7533 67 66.6333 67 66.5V62.2L62.36 53.64C62.32 53.52 62.3 53.4467 62.3 53.42C62.3 53.3133 62.34 53.22 62.42 53.14C62.5133 53.0467 62.62 53 62.74 53H65.24C65.5067 53 65.74 53.14 65.94 53.42L68.8 58.58L71.68 53.42C71.84 53.14 72.0733 53 72.38 53H74.88C75 53 75.1 53.0467 75.18 53.14C75.26 53.22 75.3 53.3133 75.3 53.42C75.3 53.4867 75.2867 53.56 75.26 53.64L70.62 62.2V66.5C70.62 66.6467 70.5667 66.7667 70.46 66.86C70.3667 66.9533 70.2467 67 70.1 67H67.5ZM82.0888 67.2C80.2088 67.2 78.7288 66.74 77.6488 65.82C76.5688 64.9 75.9954 63.5467 75.9288 61.76C75.9154 61.3733 75.9088 60.8 75.9088 60.04C75.9088 59.2667 75.9154 58.6867 75.9288 58.3C75.9954 56.54 76.5754 55.1867 77.6688 54.24C78.7754 53.28 80.2488 52.8 82.0888 52.8C83.9288 52.8 85.4021 53.28 86.5088 54.24C87.6154 55.1867 88.1954 56.54 88.2488 58.3C88.2754 59.0733 88.2888 59.6533 88.2888 60.04C88.2888 60.4133 88.2754 60.9867 88.2488 61.76C88.1821 63.5467 87.6088 64.9 86.5288 65.82C85.4488 66.74 83.9688 67.2 82.0888 67.2ZM82.0888 64.32C82.8221 64.32 83.4021 64.1 83.8288 63.66C84.2688 63.22 84.5021 62.5467 84.5288 61.64C84.5554 60.8667 84.5688 60.32 84.5688 60C84.5688 59.6533 84.5554 59.1067 84.5288 58.36C84.5021 57.4533 84.2688 56.78 83.8288 56.34C83.3888 55.9 82.8088 55.68 82.0888 55.68C81.3688 55.68 80.7888 55.9 80.3488 56.34C79.9221 56.78 79.6888 57.4533 79.6488 58.36C79.6354 58.7333 79.6288 59.28 79.6288 60C79.6288 60.7067 79.6354 61.2533 79.6488 61.64C79.6888 62.5467 79.9221 63.22 80.3488 63.66C80.7754 64.1 81.3554 64.32 82.0888 64.32Z" fill="#EFE8E0"/>
</g>
</svg>
